<svg width="36" height="36" viewBox="0 0 36 36" fill="none" xmlns="http://www.w3.org/2000/svg">
<path d="M33.2794 15.7613H8.14687L19.1269 4.78132C20.0044 3.90382 20.0044 2.46382 19.1269 1.58632C18.7065 1.165 18.1358 0.928223 17.5406 0.928223C16.9455 0.928223 16.3747 1.165 15.9544 1.58632L1.12687 16.4138C0.249375 17.2913 0.249375 18.7088 1.12687 19.5863L15.9544 34.4138C16.8319 35.2913 18.2494 35.2913 19.1269 34.4138C20.0044 33.5363 20.0044 32.1188 19.1269 31.2413L8.14687 20.2613H33.2794C34.5169 20.2613 35.5294 19.2488 35.5294 18.0113C35.5294 16.7738 34.5169 15.7613 33.2794 15.7613Z" fill="#00237D"/>
</svg>
