<svg width="973" height="449" viewBox="0 0 973 449" fill="none" xmlns="http://www.w3.org/2000/svg">
<mask id="mask0_346_6928" style="mask-type:luminance" maskUnits="userSpaceOnUse" x="646" y="3" width="321" height="444">
<path d="M966.516 57.0562L755.912 3L646.917 392.535L857.521 446.591L966.516 57.0562Z" fill="white"/>
</mask>
<g mask="url(#mask0_346_6928)">
<path d="M767.135 152.459C821.976 145.927 831.424 224.61 885.022 220.362L932.278 131.556C878.696 135.745 869.215 57.1062 814.394 63.6435L767.135 152.459Z" fill="#1671C4"/>
<mask id="mask1_346_6928" style="mask-type:luminance" maskUnits="userSpaceOnUse" x="767" y="63" width="166" height="158">
<path d="M767.312 152.903C822.032 146.078 831.02 224.963 884.488 220.437L932.097 131.116C878.645 135.583 869.624 56.7426 814.924 63.5722L767.312 152.903Z" fill="white"/>
</mask>
<g mask="url(#mask1_346_6928)">
<path d="M904.348 222.927C846.174 221.065 864.896 74.8943 819.191 49.6772C814.763 53.1469 810.206 56.8515 805.523 60.7911C857.126 74.9099 838.136 221.635 889.858 235.583C894.553 231.626 899.383 227.407 904.348 222.927Z" fill="white"/>
<path d="M820.213 177.6C824.744 182.653 829.109 187.977 833.596 193.081L880.117 104.967C875.6 99.8651 871.253 94.5462 866.735 89.4862L820.213 177.6Z" fill="white"/>
<path d="M952.022 120.035C950.363 118.031 948.889 115.868 947.617 113.572C860.535 164.915 838.602 93.6664 738.97 168.737C740.901 170.139 742.657 171.775 744.202 173.614C837.321 110.796 858.973 182.572 952.022 120.035Z" fill="white"/>
<path d="M903.517 187.612C907.548 180.01 911.585 172.399 915.627 164.778C860.764 170.276 852.018 88.8232 795.975 96.5403C791.928 104.174 787.887 111.788 783.852 119.381C839.914 111.669 848.635 193.105 903.517 187.612Z" fill="white"/>
<path d="M786.262 116.044C841.457 109.2 850.509 189.247 904.494 184.588C907.412 179.086 910.329 173.587 913.246 168.092C859.249 172.759 850.161 92.6924 794.999 99.5653L786.262 116.044Z" fill="#E34B4E"/>
<path d="M891.517 230.815C893.108 229.479 894.715 228.125 896.324 226.762C845.211 215.949 860.812 79.9208 817.444 54.5944C815.943 55.7533 814.411 56.9884 812.895 58.1646C858.127 80.0207 842.428 216.214 891.517 230.815Z" fill="#E34B4E"/>
<path d="M747.847 168.142C747.308 167.481 746.775 166.8 746.188 166.234C837.227 103.121 860.79 167.18 944.009 118.849C944.459 119.681 944.924 120.494 945.372 121.261C860.303 173.135 836.857 108.912 747.847 168.142Z" fill="#E34B4E"/>
<path d="M822.977 180.576C825.672 183.687 828.329 186.86 831.023 189.939C846.493 160.609 861.946 131.272 877.38 101.926C874.688 98.8056 872.03 95.6318 869.325 92.5603L822.977 180.576Z" fill="#E34B4E"/>
</g>
<path d="M818.177 52.1888L648.148 379.101" stroke="#121C30" stroke-width="3" stroke-linecap="round" stroke-linejoin="round"/>
<path d="M812.537 49.7298C811.878 50.9806 811.589 52.3886 811.706 53.7761C811.823 55.1636 812.34 56.4684 813.194 57.526C814.047 58.5835 815.197 59.3464 816.5 59.7183C817.802 60.0903 819.198 60.0546 820.512 59.6159C821.826 59.1772 822.998 58.355 823.882 57.2531C824.765 56.1513 825.32 54.8191 825.475 53.4246C825.631 52.0302 825.381 50.6359 824.757 49.4178C824.133 48.1998 823.163 47.2124 821.968 46.5802C821.172 46.1585 820.295 45.9055 819.389 45.8356C818.483 45.7658 817.566 45.8805 816.689 46.1732C815.813 46.4659 814.995 46.9308 814.282 47.5411C813.569 48.1515 812.976 48.8953 812.537 49.7298Z" fill="#121C30"/>
</g>
<mask id="mask2_346_6928" style="mask-type:luminance" maskUnits="userSpaceOnUse" x="6" y="3" width="320" height="444">
<path d="M216.622 2.99996L6 57.1234L114.883 446.658L325.505 392.535L216.622 2.99996Z" fill="white"/>
</mask>
<g mask="url(#mask2_346_6928)">
<path d="M205.369 152.459C150.529 145.927 141.081 224.61 87.4822 220.362L40.2266 131.556C93.8086 135.745 103.289 57.1063 158.111 63.6435L205.369 152.459Z" fill="#1671C4"/>
<mask id="mask3_346_6928" style="mask-type:luminance" maskUnits="userSpaceOnUse" x="40" y="63" width="166" height="158">
<path d="M205.193 152.9C150.473 146.077 141.482 224.961 88.013 220.436L40.4064 131.118C93.8587 135.584 102.883 56.7448 157.584 63.5726L205.193 152.9Z" fill="white"/>
</mask>
<g mask="url(#mask3_346_6928)">
<path d="M68.1569 222.927C126.331 221.065 107.61 74.8942 153.314 49.6771C157.749 53.1452 162.305 56.8499 166.982 60.7911C115.379 74.9099 134.369 221.635 82.647 235.583C77.958 231.624 73.128 227.405 68.1569 222.927Z" fill="white"/>
<path d="M152.292 177.6C147.761 182.653 143.396 187.977 138.909 193.081L92.3878 104.967C96.9047 99.8651 101.251 94.5462 105.77 89.4861L152.292 177.6Z" fill="white"/>
<path d="M20.483 120.035C22.1427 118.031 23.617 115.868 24.8882 113.573C111.966 164.897 133.89 93.6486 233.556 168.659C231.625 170.061 229.869 171.697 228.324 173.536C135.185 110.796 113.534 182.573 20.483 120.035Z" fill="white"/>
<path d="M68.9873 187.612C64.9566 180.01 60.9199 172.399 56.8772 164.778C111.741 170.276 120.487 88.8233 176.53 96.5403C180.571 104.154 184.611 111.768 188.652 119.381C132.59 111.669 123.87 193.105 68.9873 187.612Z" fill="white"/>
<path d="M186.242 116.044C131.048 109.2 121.995 189.247 68.0109 184.588C65.0925 179.086 62.1751 173.587 59.2587 168.092C113.255 172.759 122.343 92.6924 177.505 99.5653L186.242 116.044Z" fill="#E34B4E"/>
<path d="M80.9877 230.815C79.3961 229.479 77.7895 228.125 76.1801 226.762C127.302 215.979 111.701 79.9498 155.069 54.6233C156.57 55.7822 158.103 57.0174 159.619 58.1936C114.378 80.0202 130.077 216.214 80.9877 230.815Z" fill="#E34B4E"/>
<path d="M224.66 168.142C225.199 167.481 225.732 166.8 226.318 166.234C135.279 103.121 111.716 167.18 28.4978 118.849C28.0478 119.681 27.5826 120.494 27.1347 121.261C112.204 173.135 135.649 108.912 224.66 168.142Z" fill="#E34B4E"/>
<path d="M149.528 180.576C146.833 183.687 144.176 186.86 141.482 189.939C126.012 160.609 110.56 131.271 95.1248 101.926C97.8171 98.8055 100.475 95.6317 103.181 92.5602L149.528 180.576Z" fill="#E34B4E"/>
</g>
<path d="M154.318 52.1913L324.347 379.103" stroke="#121C30" stroke-width="3" stroke-linecap="round" stroke-linejoin="round"/>
<path d="M159.967 49.73C160.625 50.9809 160.914 52.3888 160.798 53.7763C160.681 55.1638 160.163 56.4687 159.31 57.5262C158.457 58.5837 157.306 59.3466 156.004 59.7185C154.702 60.0905 153.305 60.0548 151.992 59.6161C150.678 59.1774 149.505 58.3552 148.622 57.2534C147.739 56.1515 147.184 54.8193 147.028 53.4248C146.872 52.0304 147.122 50.6362 147.746 49.4181C148.371 48.2 149.341 47.2126 150.535 46.5805C151.332 46.1587 152.208 45.9057 153.114 45.8358C154.02 45.766 154.938 45.8807 155.815 46.1734C156.691 46.4661 157.509 46.931 158.222 47.5413C158.934 48.1517 159.527 48.8955 159.967 49.73Z" fill="#121C30"/>
</g>
</svg>
