<svg width="40" height="40" viewBox="0 0 40 40" fill="none" xmlns="http://www.w3.org/2000/svg">
<path d="M11.9507 0.833008H28.0507C34.184 0.833008 39.1673 5.81634 39.1673 11.9497V28.0497C39.1673 30.998 37.9961 33.8256 35.9113 35.9103C33.8265 37.9951 30.999 39.1663 28.0507 39.1663H11.9507C5.81732 39.1663 0.833984 34.183 0.833984 28.0497V11.9497C0.833984 9.00135 2.0052 6.17378 4.08998 4.089C6.17476 2.00422 9.00233 0.833008 11.9507 0.833008ZM11.5673 4.66634C9.73732 4.66634 7.98228 5.3933 6.68828 6.6873C5.39428 7.98131 4.66732 9.73635 4.66732 11.5663V28.433C4.66732 32.2472 7.75315 35.333 11.5673 35.333H28.434C30.264 35.333 32.019 34.606 33.313 33.312C34.607 32.018 35.334 30.263 35.334 28.433V11.5663C35.334 7.75217 32.2481 4.66634 28.434 4.66634H11.5673ZM30.0632 7.54134C30.6986 7.54134 31.308 7.79376 31.7573 8.24306C32.2066 8.69237 32.459 9.30176 32.459 9.93717C32.459 10.5726 32.2066 11.182 31.7573 11.6313C31.308 12.0806 30.6986 12.333 30.0632 12.333C29.4277 12.333 28.8183 12.0806 28.369 11.6313C27.9197 11.182 27.6673 10.5726 27.6673 9.93717C27.6673 9.30176 27.9197 8.69237 28.369 8.24306C28.8183 7.79376 29.4277 7.54134 30.0632 7.54134ZM20.0007 10.4163C22.5423 10.4163 24.9799 11.426 26.7771 13.2232C28.5743 15.0205 29.584 17.458 29.584 19.9997C29.584 22.5413 28.5743 24.9789 26.7771 26.7761C24.9799 28.5733 22.5423 29.583 20.0007 29.583C17.459 29.583 15.0214 28.5733 13.2242 26.7761C11.427 24.9789 10.4173 22.5413 10.4173 19.9997C10.4173 17.458 11.427 15.0205 13.2242 13.2232C15.0214 11.426 17.459 10.4163 20.0007 10.4163ZM20.0007 14.2497C18.4757 14.2497 17.0131 14.8555 15.9348 15.9338C14.8565 17.0121 14.2507 18.4747 14.2507 19.9997C14.2507 21.5247 14.8565 22.9872 15.9348 24.0655C17.0131 25.1439 18.4757 25.7497 20.0007 25.7497C21.5256 25.7497 22.9882 25.1439 24.0665 24.0655C25.1448 22.9872 25.7507 21.5247 25.7507 19.9997C25.7507 18.4747 25.1448 17.0121 24.0665 15.9338C22.9882 14.8555 21.5256 14.2497 20.0007 14.2497Z" fill="white"/>
</svg>
