<svg width="40" height="40" viewBox="0 0 40 40" fill="none" xmlns="http://www.w3.org/2000/svg">
<path d="M11.9507 0.833344H28.0507C34.184 0.833344 39.1673 5.81668 39.1673 11.95V28.05C39.1673 30.9983 37.9961 33.8259 35.9113 35.9107C33.8265 37.9955 30.999 39.1667 28.0507 39.1667H11.9507C5.81732 39.1667 0.833984 34.1833 0.833984 28.05V11.95C0.833984 9.00169 2.0052 6.17412 4.08998 4.08934C6.17476 2.00456 9.00233 0.833344 11.9507 0.833344ZM11.5673 4.66668C9.73732 4.66668 7.98228 5.39364 6.68828 6.68764C5.39428 7.98164 4.66732 9.73668 4.66732 11.5667V28.4333C4.66732 32.2475 7.75315 35.3333 11.5673 35.3333H28.434C30.264 35.3333 32.019 34.6064 33.313 33.3124C34.607 32.0184 35.334 30.2633 35.334 28.4333V11.5667C35.334 7.75251 32.2481 4.66668 28.434 4.66668H11.5673ZM30.0632 7.54168C30.6986 7.54168 31.308 7.79409 31.7573 8.2434C32.2066 8.69271 32.459 9.3021 32.459 9.93751C32.459 10.5729 32.2066 11.1823 31.7573 11.6316C31.308 12.0809 30.6986 12.3333 30.0632 12.3333C29.4277 12.3333 28.8183 12.0809 28.369 11.6316C27.9197 11.1823 27.6673 10.5729 27.6673 9.93751C27.6673 9.3021 27.9197 8.69271 28.369 8.2434C28.8183 7.79409 29.4277 7.54168 30.0632 7.54168ZM20.0007 10.4167C22.5423 10.4167 24.9799 11.4263 26.7771 13.2236C28.5743 15.0208 29.584 17.4584 29.584 20C29.584 22.5417 28.5743 24.9792 26.7771 26.7764C24.9799 28.5737 22.5423 29.5833 20.0007 29.5833C17.459 29.5833 15.0214 28.5737 13.2242 26.7764C11.427 24.9792 10.4173 22.5417 10.4173 20C10.4173 17.4584 11.427 15.0208 13.2242 13.2236C15.0214 11.4263 17.459 10.4167 20.0007 10.4167ZM20.0007 14.25C18.4757 14.25 17.0131 14.8558 15.9348 15.9341C14.8565 17.0125 14.2507 18.475 14.2507 20C14.2507 21.525 14.8565 22.9875 15.9348 24.0659C17.0131 25.1442 18.4757 25.75 20.0007 25.75C21.5256 25.75 22.9882 25.1442 24.0665 24.0659C25.1448 22.9875 25.7507 21.525 25.7507 20C25.7507 18.475 25.1448 17.0125 24.0665 15.9341C22.9882 14.8558 21.5256 14.25 20.0007 14.25Z" fill="#00237D"/>
</svg>
