<svg width="28" height="38" viewBox="0 0 28 38" fill="none" xmlns="http://www.w3.org/2000/svg">
<path fill-rule="evenodd" clip-rule="evenodd" d="M0.583984 13.7575C0.583984 6.33999 6.58315 0.34082 14.0007 0.34082C21.4182 0.34082 27.4173 6.33999 27.4173 13.7575C27.4173 21.75 18.9457 32.7708 15.4765 36.9683C14.7098 37.8883 13.3107 37.8883 12.544 36.9683C9.05565 32.7708 0.583984 21.75 0.583984 13.7575ZM9.20899 13.7575C9.20899 16.4025 11.3557 18.5492 14.0007 18.5492C16.6457 18.5492 18.7923 16.4025 18.7923 13.7575C18.7923 11.1125 16.6457 8.96582 14.0007 8.96582C11.3557 8.96582 9.20899 11.1125 9.20899 13.7575Z" fill="white"/>
</svg>
