<svg width="230" height="83" viewBox="0 0 230 83" fill="none" xmlns="http://www.w3.org/2000/svg">
<mask id="mask0_471_124" style="mask-type:alpha" maskUnits="userSpaceOnUse" x="0" y="0" width="230" height="83">
<rect width="230" height="83" fill="#D9D9D9"/>
</mask>
<g mask="url(#mask0_471_124)">
<path d="M44.9762 48.4429L49.9209 36.7622C49.5902 36.7622 47.4565 37.2131 46.9604 37.3758C46.4644 37.5386 44.9762 37.3758 43.6533 37.3758C42.3305 37.3758 41.5037 37.3758 40.8423 37.2131C40.1809 37.0503 35.7163 36.0738 35.0549 35.9111C34.5258 35.7809 32.6297 34.8802 31.7478 34.4463L29.5982 30.052C29.1573 29.1839 28.2754 27.4155 28.2754 27.2853C28.2754 27.1551 28.6061 24.7356 28.7715 23.542L29.9289 20.4497L31.2355 16.8491C30.2964 18.0674 30.9342 16.9438 31.5825 15.8927L31.2355 16.8491C31.6537 16.3064 32.3847 15.2992 33.5667 13.6142C37.403 8.1458 45.417 7.32121 48.9447 7.59245H49.9368C50.3227 7.70097 51.1274 7.91795 51.2596 7.91795C51.425 7.91795 52.7478 8.56895 53.4093 8.73171C54.0707 8.89446 55.0628 9.21996 55.3935 9.38271C55.7242 9.54546 56.2203 10.1965 56.551 10.522C56.8817 10.8475 57.047 11.824 57.047 12.1495C57.047 12.475 56.7163 12.475 56.551 12.475C56.4187 12.475 56.0549 12.5835 55.8896 12.6377C55.9448 12.909 56.0549 13.484 56.0549 13.6142C56.0549 13.777 57.047 14.7535 57.047 14.9162C57.047 15.0464 58.3699 16.9236 59.0313 17.8457C59.3068 17.8457 59.9242 17.8783 60.1888 18.0085C60.5195 18.1712 60.5195 18.1712 60.6848 18.6595C60.8502 19.1477 61.3463 19.9615 61.3463 20.4497C61.3463 20.938 61.8423 21.4263 62.0077 21.7518C62.173 22.0773 62.173 22.5655 62.173 23.2165C62.173 23.8675 62.0077 24.3558 61.8423 24.844C61.677 25.3323 61.3463 25.9833 61.0155 26.3088L61.677 25.6578C61.8423 25.495 62.3384 24.6813 62.6691 24.3558C62.9998 24.0303 63.3305 23.7048 63.4959 23.3793C63.6612 23.0538 64.1573 22.7283 64.488 22.5655C64.8187 22.4028 65.4801 20.6125 65.6455 20.4497C65.8108 20.287 66.803 18.0085 66.803 17.8457C66.803 17.7155 67.1337 16.4894 67.299 15.8927L65.3148 14.2652C64.9288 13.6685 64.1573 12.4099 64.1573 12.1495V9.54546L66.1415 7.4297C65.5902 7.15846 65.2486 6.7787 68.2911 7.4297C71.3337 8.0807 74.2991 11.0645 75.4014 12.475L75.7321 13.126L73.7478 16.2182V17.683C73.7478 17.8457 73.9132 20.4497 73.7478 22.0773C73.5825 23.7048 72.2596 27.7735 72.2596 28.4245C72.2596 28.9453 69.7241 32.005 68.4565 33.4698L67.6297 37.3758C68.2359 38.0268 69.5148 39.4265 69.7793 39.8171C70.11 40.3053 72.0943 42.7466 72.7557 43.7231C73.4171 44.6996 73.5825 51.5351 73.5825 52.1861C73.5825 52.7069 73.9132 55.875 74.0785 57.3941C72.8658 58.1535 70.4077 59.6726 70.2754 59.6726C70.11 59.6726 70.7715 61.3001 70.7715 61.6257C70.7715 61.9512 70.2754 64.3924 70.2754 64.8807C70.2754 65.3689 69.2833 67.8102 68.9526 68.6239C68.6218 69.4377 67.299 69.1122 66.9683 69.1122C66.7037 69.1122 65.6455 68.2441 65.1494 67.8102C65.0393 68.5155 64.8187 69.991 64.8187 70.2514C64.8187 70.5769 64.6533 72.8554 64.488 73.5064C64.3557 74.0272 63.6612 76.5443 63.3305 77.738L63.9919 78.5517C65.0942 78.7145 66.8691 79.2027 65.1494 79.8537C63.4297 80.5047 60.0234 80.993 58.5352 81.1557H58.0392L55.5589 79.8537L52.7478 76.436V72.6927C53.2991 71.2279 54.3022 68.2984 53.9053 68.2984C53.5085 68.2984 52.9684 66.4538 52.7478 65.5317L50.5982 59.9981H48.4486H42.8266C42.055 58.5334 40.5116 55.4086 40.5116 54.6274C40.5116 53.8462 43.488 50.1787 44.9762 48.4429Z" fill="white"/>
<path d="M34.2879 13.3626C34.1447 13.3861 33.9962 13.4134 33.8427 13.4445C31.8758 14.9532 25.6388 28.06 34.9493 33.3809C43.1508 38.0682 49.8312 35.334 52.1461 33.3809L52.6422 33.5437C49.4674 39.6631 47.2407 46.6181 46.5241 49.3305C41.1104 52.9761 42.7252 54.213 44.2091 54.3758C43.9445 57.6308 45.6424 56.0576 46.5241 54.864C46.9209 57.7284 48.5636 56.817 49.3351 56.0033L49.5005 53.562L52.6422 53.3993V52.26C50.6579 51.3486 50.2723 50.1443 50.3272 49.656C51.7053 47.1604 54.5934 42.3322 55.1225 42.9832C55.7839 43.797 55.2879 50.958 55.2879 51.9345C55.2879 52.911 53.469 55.1895 52.8075 56.4915C52.2784 57.5331 53.7997 57.7935 54.6264 57.7935L54.7918 66.2566H57.2721C57.669 67.4284 55.4532 71.3018 54.2957 73.0921C53.3697 75.1753 55.3431 76.9981 56.4453 77.6491C55.3871 79.2115 57.658 80.4702 58.9257 80.9041V81.2296C57.206 81.7504 48.5083 81.0125 44.3745 80.5786C33.9241 87.6094 28.5006 77.9746 31.6424 71.7901C11.6675 78.5605 5.90218 64.7375 5.51637 56.9798C-10.3576 38.7517 12.1305 22.3139 21.5557 26.5454C22.1933 17.8858 29.7445 14.2768 33.8427 13.4445C34.0418 13.292 34.1969 13.258 34.2879 13.3626Z" fill="#D0142C"/>
<path d="M56.6104 12.0606C55.8167 9.58681 51.2086 8.10038 49.0041 7.66635C48.6073 7.14555 52.9174 7.23236 55.1223 7.34085C60.4136 4.99724 66.8072 6.58136 69.3427 7.66635C67.2262 6.88515 67.248 8.20887 67.5238 8.96836C65.4953 8.73348 65.7324 9.74504 66.2837 10.4631C67.0238 10.1416 66.7076 10.4528 66.4718 10.6847C66.407 10.6157 66.3435 10.5411 66.2837 10.4631C66.158 10.5176 66.0022 10.5904 65.8104 10.6847C64.4876 11.3357 67.1931 14.1764 68.6813 15.4784C67.623 21.2072 61.9567 26.8709 59.2561 28.9867H58.76L58.4293 28.4984V27.8474C58.9803 27.1421 60.2482 25.5038 60.9097 24.5924C61.5711 23.681 60.9646 21.3918 60.5789 20.3609C60.5789 18.0173 58.8149 18.625 57.9333 19.2216C58.0656 17.7894 55.3425 13.8509 53.9648 12.0606H56.6104Z" fill="#00237D"/>
<path d="M71.8229 11.7351C70.897 11.4747 71.2168 9.89063 71.4922 9.1311C72.6828 9.3915 72.9804 10.1076 72.9804 10.4331C72.4513 11.4747 71.9883 11.7351 71.8229 11.7351Z" fill="#00237D"/>
<path d="M72.6511 14.9901C73.1802 15.5109 74.6354 13.4711 75.2968 12.3861C77.1487 14.2089 78.714 17.7025 79.2653 19.2216C95.6684 16.878 100.871 27.5763 101.423 33.2182C107.1 33.8148 118.355 38.0682 117.958 50.307C117.561 62.5458 105.667 66.2566 99.7692 66.5821C93.2873 82.5967 78.8793 79.2222 72.4858 75.5333C70.3692 77.7467 66.6431 79.2766 65.0448 79.7649C61.0763 79.1138 61.407 77.8118 61.5724 76.6726C61.7377 75.5333 63.722 66.2566 63.8873 65.6055C64.0196 65.0847 66.6984 66.7992 68.0212 67.7213C70.0054 66.2566 69.344 58.77 69.0133 58.2818C68.7487 57.8912 71.2178 57.3596 72.4858 57.1425C72.8165 45.2617 66.0369 37.6125 65.3755 37.1242C64.8464 36.7336 65.1549 35.9849 65.3755 35.6594C74.6354 23.1276 71.9897 14.3391 72.6511 14.9901Z" fill="#00237D"/>
<path d="M67.1334 10.6847L66.8027 11.0102L66.3066 10.8475V10.522V10.1965L66.472 10.0337L66.8027 10.1965L67.1334 10.6847Z" fill="white"/>
<path d="M135.974 39.2038C135.586 39.2038 135.275 39.1371 135.042 39.0033C134.81 38.8507 134.635 38.6788 134.519 38.4877C134.422 38.2967 134.353 38.1346 134.315 38.0008L128.611 21.5591C128.417 20.9481 128.387 20.4898 128.523 20.1841C128.659 19.8596 129.057 19.5921 129.717 19.3821C130.163 19.2295 130.522 19.1624 130.793 19.1816C131.065 19.2008 131.288 19.3154 131.463 19.5253C131.657 19.7164 131.822 20.0217 131.957 20.4419L136.148 32.9308L139.902 20.5565C139.961 20.3655 140.038 20.1747 140.135 19.9836C140.252 19.7737 140.426 19.6018 140.659 19.468C140.892 19.3343 141.212 19.2675 141.619 19.2675C142.085 19.2675 142.434 19.344 142.667 19.4967C142.9 19.6493 143.065 19.8212 143.162 20.0123C143.278 20.1841 143.356 20.3466 143.395 20.4992L147.149 33.0167L151.369 20.4706C151.505 20.0315 151.66 19.7066 151.834 19.4967C152.029 19.2867 152.271 19.1722 152.562 19.153C152.853 19.1149 153.212 19.1722 153.639 19.3248C154.085 19.4775 154.405 19.6493 154.599 19.8404C154.793 20.0123 154.89 20.2414 154.89 20.5279C154.89 20.7951 154.822 21.1388 154.686 21.5591L149.011 38.0294C148.973 38.144 148.895 38.2967 148.779 38.4877C148.682 38.6788 148.517 38.8507 148.284 39.0033C148.051 39.1371 147.731 39.2038 147.324 39.2038C146.916 39.2038 146.596 39.1179 146.363 38.946C146.13 38.7742 145.956 38.5831 145.839 38.3732C145.723 38.1632 145.645 38.0102 145.607 37.9149L141.649 25.3114L137.691 37.8862C137.652 38.02 137.574 38.1918 137.458 38.4018C137.361 38.6117 137.196 38.8028 136.963 38.9747C136.73 39.1273 136.401 39.2038 135.974 39.2038ZM158.112 39.2898C157.588 39.2898 157.2 39.2038 156.948 39.032C156.696 38.8793 156.541 38.6788 156.483 38.4304C156.424 38.1632 156.395 37.867 156.395 37.5425V26.8869C156.395 26.5812 156.424 26.3045 156.483 26.0562C156.56 25.789 156.715 25.5787 156.948 25.426C157.2 25.2734 157.598 25.1969 158.141 25.1969C158.684 25.1969 159.073 25.2734 159.305 25.426C159.557 25.5787 159.713 25.789 159.771 26.0562C159.829 26.3234 159.858 26.6196 159.858 26.9442V37.5711C159.858 37.8956 159.829 38.1919 159.771 38.4591C159.713 38.7074 159.557 38.908 159.305 39.0606C159.073 39.2133 158.675 39.2898 158.112 39.2898ZM158.112 22.4184C157.549 22.4184 157.132 22.3419 156.861 22.1892C156.609 22.0174 156.443 21.7882 156.366 21.5018C156.308 21.2153 156.279 20.9003 156.279 20.5565C156.279 20.1936 156.308 19.8785 156.366 19.6113C156.443 19.344 156.618 19.1338 156.89 18.9811C157.161 18.8092 157.578 18.7233 158.141 18.7233C158.723 18.7233 159.14 18.8092 159.393 18.9811C159.645 19.153 159.81 19.3821 159.887 19.6686C159.965 19.9358 160.004 20.2509 160.004 20.6138C160.004 20.9383 159.965 21.244 159.887 21.5304C159.81 21.8169 159.645 22.0366 159.393 22.1892C159.14 22.3419 158.713 22.4184 158.112 22.4184ZM168.019 39.4616C167.514 39.4616 166.981 39.4043 166.418 39.2898C165.855 39.1944 165.312 39.0512 164.788 38.8601C164.264 38.6502 163.808 38.4112 163.42 38.144C163.052 37.8576 162.819 37.5425 162.722 37.1987C162.644 37.0077 162.615 36.8264 162.635 36.6545C162.654 36.4634 162.712 36.2727 162.809 36.0816C162.906 35.8717 163.052 35.6614 163.246 35.4515C163.42 35.2415 163.595 35.1269 163.77 35.1077C163.963 35.0696 164.206 35.1269 164.497 35.2796C164.749 35.375 165.021 35.4993 165.312 35.652C165.622 35.8046 165.933 35.9576 166.243 36.1103C166.573 36.2629 166.903 36.3873 167.233 36.4826C167.582 36.578 167.921 36.6259 168.251 36.6259C168.969 36.6259 169.542 36.5113 169.968 36.2821C170.395 36.0338 170.609 35.69 170.609 35.2509C170.609 35.0026 170.541 34.7832 170.405 34.5921C170.269 34.4011 170.085 34.2484 169.852 34.1338C169.638 34 169.377 33.8855 169.066 33.7901C168.775 33.6755 168.455 33.5801 168.106 33.5037C167.776 33.4083 167.427 33.3031 167.058 33.1886C166.573 33.0548 166.088 32.8927 165.603 32.7016C165.118 32.5106 164.681 32.2625 164.294 31.9569C163.925 31.6512 163.624 31.2694 163.391 30.8111C163.159 30.3528 163.042 29.7799 163.042 29.0925C163.042 28.2331 163.246 27.5076 163.653 26.9155C164.08 26.3045 164.691 25.8365 165.487 25.512C166.282 25.1874 167.242 25.025 168.368 25.025C168.756 25.025 169.125 25.0536 169.474 25.1109C169.842 25.1682 170.191 25.2542 170.521 25.3687C170.871 25.4641 171.2 25.5884 171.511 25.7411C171.841 25.8938 172.151 26.0656 172.442 26.2567C172.927 26.5239 173.179 26.839 173.199 27.202C173.218 27.5457 173.082 27.9181 172.791 28.3191C172.578 28.5863 172.364 28.7774 172.151 28.892C171.938 28.9873 171.715 28.9873 171.482 28.892C171.171 28.7393 170.832 28.5769 170.463 28.405C170.114 28.2139 169.745 28.0518 169.357 27.9181C168.989 27.7843 168.601 27.7175 168.193 27.7175C167.805 27.7175 167.456 27.7748 167.146 27.8894C166.835 28.004 166.602 28.1664 166.447 28.3764C166.292 28.5863 166.214 28.8347 166.214 29.1211C166.214 29.3883 166.292 29.6081 166.447 29.7799C166.602 29.9518 166.806 30.095 167.058 30.2096C167.31 30.3242 167.611 30.4293 167.96 30.5247C168.31 30.6012 168.678 30.6773 169.066 30.7538C169.609 30.8684 170.162 31.0116 170.725 31.1835C171.288 31.3553 171.802 31.5939 172.268 31.8996C172.752 32.2052 173.141 32.6157 173.432 33.1313C173.723 33.6277 173.868 34.277 173.868 35.0791C173.868 36.4732 173.344 37.5519 172.297 38.3159C171.268 39.0798 169.842 39.4616 168.019 39.4616ZM182.569 39.2611C181.677 39.2611 180.833 39.0798 180.037 38.7169C179.242 38.3539 178.543 37.8576 177.942 37.2274C177.341 36.578 176.865 35.8238 176.516 34.9645C176.167 34.086 175.992 33.1505 175.992 32.1574C175.992 31.2027 176.167 30.305 176.516 29.4648C176.865 28.6055 177.341 27.8608 177.942 27.2306C178.563 26.5812 179.271 26.0754 180.066 25.7125C180.862 25.3495 181.696 25.1682 182.569 25.1682C183.5 25.1682 184.335 25.3495 185.072 25.7125C185.809 26.0754 186.43 26.5812 186.935 27.2306C187.458 27.8608 187.856 28.6055 188.128 29.4648C188.4 30.305 188.545 31.2121 188.564 32.186C188.564 33.1599 188.429 34.0765 188.157 34.9359C187.905 35.776 187.517 36.5207 186.993 37.1701C186.488 37.8195 185.858 38.3351 185.101 38.7169C184.364 39.0798 183.52 39.2611 182.569 39.2611ZM183.035 35.9098C183.714 35.9098 184.315 35.7571 184.839 35.4515C185.382 35.1269 185.809 34.6875 186.12 34.1338C186.45 33.5801 186.614 32.95 186.614 32.2433C186.614 31.5178 186.45 30.8778 186.12 30.3242C185.809 29.7705 185.382 29.3311 184.839 29.0065C184.315 28.682 183.714 28.5196 183.035 28.5196C182.356 28.5196 181.745 28.682 181.201 29.0065C180.658 29.3122 180.222 29.7513 179.892 30.3242C179.582 30.8778 179.426 31.5178 179.426 32.2433C179.426 32.95 179.582 33.5801 179.892 34.1338C180.222 34.6875 180.658 35.1269 181.201 35.4515C181.764 35.7571 182.375 35.9098 183.035 35.9098ZM188.419 39.2611C187.876 39.2611 187.478 39.1752 187.226 39.0033C186.974 38.8123 186.809 38.5164 186.731 38.1154V20.4706C186.731 20.1461 186.75 19.8596 186.789 19.6113C186.847 19.344 186.993 19.1338 187.226 18.9811C187.478 18.8092 187.866 18.7233 188.39 18.7233C188.952 18.7233 189.35 18.7998 189.583 18.9525C189.816 19.1051 189.961 19.3154 190.019 19.5826C190.097 19.831 190.136 20.1174 190.136 20.4419V37.5138C190.136 37.8384 190.107 38.1346 190.048 38.4018C189.99 38.669 189.835 38.8793 189.583 39.032C189.35 39.1846 188.962 39.2611 188.419 39.2611ZM199.691 39.4616C198.759 39.4616 197.847 39.2898 196.955 38.946C196.082 38.5831 195.286 38.0773 194.569 37.4279C193.87 36.7785 193.307 36.0149 192.881 35.1364C192.473 34.2578 192.269 33.2937 192.269 32.2433C192.269 31.2313 192.463 30.2861 192.852 29.4075C193.239 28.529 193.773 27.7556 194.452 27.0874C195.131 26.4191 195.907 25.9035 196.78 25.5406C197.673 25.1588 198.623 24.9677 199.632 24.9677C200.99 24.9677 202.222 25.2922 203.328 25.9416C204.434 26.5718 205.317 27.4311 205.977 28.5196C206.636 29.6081 206.966 30.8398 206.966 32.2147C206.966 33.3031 206.762 34.2963 206.355 35.1937C205.948 36.0722 205.395 36.8358 204.696 37.4852C203.998 38.1154 203.212 38.6023 202.339 38.946C201.485 39.2898 200.602 39.4616 199.691 39.4616ZM199.632 36.0816C200.273 36.0816 200.884 35.929 201.466 35.6233C202.067 35.2988 202.552 34.8405 202.921 34.2484C203.309 33.6563 203.503 32.9594 203.503 32.1574C203.503 31.4126 203.328 30.7538 202.979 30.1809C202.649 29.6081 202.193 29.1592 201.611 28.8347C201.029 28.5101 200.36 28.3477 199.603 28.3477C198.885 28.3477 198.235 28.5196 197.653 28.8633C197.071 29.1878 196.606 29.6461 196.257 30.2382C195.926 30.8111 195.762 31.4605 195.762 32.186C195.762 32.9881 195.946 33.685 196.315 34.277C196.683 34.8499 197.159 35.2988 197.741 35.6233C198.342 35.929 198.973 36.0816 199.632 36.0816ZM210.941 39.2611C210.417 39.2611 210.03 39.1846 209.777 39.032C209.544 38.8793 209.399 38.669 209.341 38.4018C209.282 38.1346 209.253 37.8481 209.253 37.5425V26.8296C209.253 26.5239 209.282 26.2473 209.341 25.9989C209.399 25.7505 209.554 25.55 209.806 25.3974C210.059 25.2447 210.456 25.1682 211 25.1682C211.562 25.1682 211.969 25.2828 212.222 25.512C212.493 25.7411 212.629 26.104 212.629 26.6004L212.367 27.4025C212.464 27.1925 212.629 26.9634 212.862 26.715C213.095 26.4666 213.376 26.2186 213.706 25.9703C214.055 25.7219 214.443 25.5214 214.87 25.3687C215.297 25.2161 215.743 25.1396 216.209 25.1396C216.849 25.1396 217.431 25.2447 217.955 25.4547C218.498 25.6646 218.974 25.9703 219.381 26.3713C219.808 26.7723 220.176 27.2592 220.487 27.8321C220.817 27.3357 221.185 26.8869 221.593 26.4859C222 26.0656 222.475 25.7411 223.019 25.512C223.562 25.2636 224.173 25.1396 224.852 25.1396C225.978 25.1396 226.918 25.4166 227.675 25.9703C228.451 26.5239 229.033 27.3165 229.421 28.3477C229.829 29.3597 230.032 30.5725 230.032 31.9855V37.5425C230.032 37.867 229.994 38.1632 229.916 38.4304C229.858 38.6788 229.703 38.8793 229.45 39.032C229.218 39.1846 228.83 39.2611 228.286 39.2611C227.743 39.2611 227.345 39.1752 227.093 39.0033C226.841 38.8507 226.686 38.6502 226.627 38.4018C226.569 38.1346 226.54 37.8384 226.54 37.5138V31.9569C226.54 31.2502 226.453 30.6392 226.278 30.1237C226.104 29.6081 225.842 29.207 225.492 28.9206C225.163 28.6342 224.726 28.4909 224.183 28.4909C223.601 28.4909 223.096 28.6342 222.67 28.9206C222.262 29.1878 221.942 29.5794 221.709 30.095C221.476 30.6106 221.36 31.2408 221.36 31.9855V37.5711C221.36 37.8956 221.311 38.2013 221.214 38.4877C221.118 38.755 220.923 38.9555 220.632 39.0893C220.361 39.2419 219.963 39.2992 219.439 39.2611C218.954 39.2419 218.595 39.1465 218.362 38.9747C218.149 38.8028 218.013 38.5929 217.955 38.3445C217.916 38.0773 217.897 37.8003 217.897 37.5138V31.9569C217.897 31.2502 217.809 30.6392 217.635 30.1237C217.46 29.5889 217.198 29.1878 216.849 28.9206C216.519 28.6342 216.073 28.4909 215.51 28.4909C214.909 28.4909 214.395 28.6436 213.968 28.9492C213.561 29.2549 213.25 29.6653 213.037 30.1809C212.823 30.6965 212.717 31.2886 212.717 31.9569V37.5711C212.717 37.8768 212.678 38.1632 212.6 38.4304C212.542 38.6977 212.387 38.8982 212.135 39.032C211.902 39.1846 211.504 39.2611 210.941 39.2611ZM140.913 68.8427C140.04 68.8427 139.244 68.7375 138.526 68.5276C137.828 68.3176 137.207 68.0501 136.664 67.7255C136.14 67.401 135.694 67.0667 135.325 66.723C134.956 66.3793 134.685 66.0642 134.51 65.7778C134.258 65.434 134.093 65.1284 134.015 64.8611C133.938 64.5939 133.957 64.3361 134.074 64.0877C134.21 63.8205 134.452 63.5435 134.801 63.2571C135.15 62.9514 135.471 62.7988 135.762 62.7988C136.072 62.7796 136.363 62.8655 136.635 63.0566C136.926 63.2476 137.207 63.5149 137.479 63.8586C137.944 64.4696 138.468 64.909 139.05 65.1762C139.632 65.4246 140.214 65.5486 140.796 65.5486C141.553 65.5486 142.213 65.4532 142.775 65.2622C143.338 65.0522 143.774 64.7466 144.085 64.3455C144.415 63.9445 144.58 63.4289 144.58 62.7988C144.58 62.2832 144.415 61.8629 144.085 61.5384C143.774 61.1947 143.357 60.9083 142.834 60.6791C142.31 60.4307 141.718 60.2114 141.058 60.0203C140.418 59.8103 139.768 59.5812 139.108 59.3328C138.643 59.1802 138.177 58.9985 137.712 58.7886C137.246 58.5594 136.809 58.3016 136.402 58.0152C136.014 57.7288 135.665 57.3945 135.354 57.0127C135.063 56.6116 134.83 56.1533 134.656 55.6377C134.481 55.1221 134.394 54.5206 134.394 53.8332C134.394 52.7447 134.665 51.79 135.209 50.9687C135.752 50.1286 136.509 49.4698 137.479 48.9923C138.449 48.4959 139.555 48.2476 140.796 48.2476C141.592 48.2476 142.3 48.3241 142.921 48.4767C143.561 48.6105 144.104 48.7918 144.551 49.021C145.016 49.2309 145.395 49.4506 145.686 49.6798C145.996 49.8897 146.219 50.0713 146.355 50.224C146.801 50.6631 147.044 51.0355 147.082 51.3411C147.141 51.6276 146.966 52.0191 146.559 52.5155C146.151 53.0311 145.753 53.3176 145.365 53.3749C144.997 53.4129 144.58 53.2603 144.114 52.9165C143.803 52.592 143.493 52.3342 143.183 52.1432C142.872 51.9332 142.523 51.7802 142.135 51.6849C141.766 51.5895 141.311 51.5416 140.767 51.5416C140.379 51.5416 140.001 51.5989 139.632 51.7135C139.283 51.8089 138.982 51.9618 138.73 52.1718C138.478 52.3629 138.274 52.6015 138.119 52.8879C137.983 53.1743 137.915 53.4989 137.915 53.8618C137.915 54.3582 138.051 54.769 138.323 55.0935C138.614 55.3991 139.002 55.6569 139.487 55.8669C139.972 56.058 140.515 56.2393 141.116 56.4111C141.718 56.583 142.329 56.7643 142.95 56.9554C143.59 57.1653 144.221 57.4137 144.842 57.7001C145.462 57.9866 146.015 58.3495 146.5 58.7886C146.986 59.2088 147.373 59.7433 147.665 60.3927C147.956 61.0228 148.101 61.7962 148.101 62.7128C148.101 63.7632 147.897 64.6798 147.49 65.4627C147.082 66.2455 146.53 66.8854 145.831 67.3818C145.133 67.8782 144.356 68.2411 143.503 68.4703C142.649 68.7187 141.786 68.8427 140.913 68.8427ZM158.63 68.6422C157.699 68.6422 156.787 68.4895 155.895 68.1839C155.022 67.8593 154.226 67.3913 153.508 66.7803C152.81 66.1693 152.247 65.4246 151.821 64.5461C151.413 63.6486 151.209 62.6363 151.209 61.5098C151.209 60.3832 151.413 59.3807 151.821 58.5022C152.247 57.6236 152.81 56.8789 153.508 56.2679C154.207 55.6569 154.993 55.1889 155.866 54.8643C156.739 54.5398 157.641 54.3774 158.572 54.3774C159.251 54.3774 159.891 54.4728 160.493 54.6638C161.114 54.8549 161.647 55.0841 162.094 55.3513C162.54 55.6185 162.86 55.8861 163.054 56.1533C163.306 56.3825 163.52 56.6022 163.694 56.8121C163.869 57.0221 163.927 57.2799 163.869 57.5855C163.811 57.7766 163.723 57.9579 163.607 58.1298C163.491 58.2824 163.345 58.4449 163.17 58.6167C162.705 59.1323 162.249 59.3234 161.803 59.1896C161.55 59.0558 161.298 58.9126 161.046 58.7599C160.794 58.6073 160.532 58.4641 160.26 58.3303C160.008 58.1776 159.746 58.0533 159.474 57.9579C159.203 57.8625 158.902 57.8147 158.572 57.8147C157.835 57.8147 157.175 57.9771 156.593 58.3016C156.03 58.6073 155.584 59.0369 155.255 59.5906C154.944 60.1443 154.789 60.7842 154.789 61.5098C154.789 62.2353 154.944 62.8847 155.255 63.4576C155.584 64.0113 156.03 64.4507 156.593 64.7752C157.156 65.0809 157.796 65.2335 158.514 65.2335C158.863 65.2335 159.193 65.1954 159.504 65.1189C159.833 65.0236 160.124 64.909 160.377 64.7752C160.629 64.6225 160.832 64.4696 160.988 64.3169C161.201 64.1831 161.395 64.0591 161.57 63.9445C161.744 63.8299 161.929 63.7727 162.123 63.7727C162.356 63.7727 162.578 63.8586 162.792 64.0305C163.025 64.1831 163.277 64.4315 163.549 64.7752C163.801 65.0616 163.937 65.3386 163.956 65.6059C163.995 65.8731 163.937 66.1309 163.782 66.3793C163.646 66.6276 163.413 66.8568 163.083 67.0667C162.85 67.2959 162.501 67.5345 162.035 67.7828C161.589 68.012 161.065 68.2125 160.464 68.3844C159.882 68.5562 159.271 68.6422 158.63 68.6422ZM169.019 68.5849C168.476 68.5849 168.078 68.4989 167.826 68.3271C167.593 68.1744 167.448 67.9641 167.39 67.6969C167.331 67.4297 167.302 67.1432 167.302 66.8376V49.7371C167.302 49.4125 167.331 49.1261 167.39 48.8777C167.467 48.6105 167.622 48.4002 167.855 48.2476C168.107 48.0949 168.505 48.0184 169.048 48.0184C169.591 48.0184 169.98 48.1043 170.213 48.2762C170.465 48.4289 170.62 48.6391 170.678 48.9064C170.756 49.1547 170.795 49.4412 170.795 49.7657V56.2393C171.183 55.8002 171.677 55.3991 172.279 55.0362C172.9 54.6544 173.647 54.4633 174.52 54.4633C175.703 54.4633 176.761 54.7498 177.692 55.3227C178.623 55.8763 179.36 56.6497 179.904 57.6428C180.447 58.6359 180.719 59.8006 180.719 61.1374V66.8662C180.719 67.1719 180.689 67.4583 180.631 67.7255C180.573 67.9739 180.418 68.1744 180.166 68.3271C179.933 68.4797 179.544 68.5562 179.001 68.5562C178.458 68.5562 178.06 68.4797 177.808 68.3271C177.556 68.1744 177.401 67.9739 177.343 67.7255C177.284 67.4583 177.255 67.1527 177.255 66.8089V61.1088C177.255 60.4405 177.139 59.8579 176.906 59.3615C176.673 58.8651 176.324 58.4829 175.858 58.2157C175.412 57.9293 174.849 57.786 174.17 57.786C173.258 57.786 172.492 58.0533 171.871 58.5881C171.25 59.1037 170.891 59.7719 170.795 60.5932V66.8662C170.795 67.1719 170.756 67.4583 170.678 67.7255C170.62 67.9928 170.465 68.2031 170.213 68.3557C169.98 68.5084 169.582 68.5849 169.019 68.5849ZM191.022 68.7567C190.09 68.7567 189.179 68.5849 188.286 68.2411C187.413 67.8782 186.618 67.3724 185.9 66.723C185.201 66.0736 184.639 65.31 184.212 64.4315C183.804 63.5529 183.601 62.5888 183.601 61.5384C183.601 60.5264 183.795 59.5812 184.183 58.7027C184.571 57.8241 185.104 57.0507 185.783 56.3825C186.462 55.7142 187.238 55.1986 188.111 54.8357C189.004 54.4539 189.955 54.2628 190.964 54.2628C192.322 54.2628 193.554 54.5873 194.66 55.2367C195.765 55.8669 196.648 56.7262 197.308 57.8147C197.968 58.9032 198.297 60.1349 198.297 61.5098C198.297 62.5983 198.094 63.5914 197.686 64.4888C197.279 65.3673 196.726 66.1309 196.027 66.7803C195.329 67.4105 194.543 67.8974 193.67 68.2411C192.816 68.5849 191.934 68.7567 191.022 68.7567ZM190.964 65.3767C191.604 65.3767 192.215 65.2241 192.797 64.9184C193.399 64.5939 193.883 64.1356 194.252 63.5435C194.64 62.9514 194.834 62.2545 194.834 61.4525C194.834 60.7077 194.66 60.0489 194.31 59.476C193.981 58.9032 193.525 58.4543 192.942 58.1298C192.36 57.8052 191.691 57.6428 190.934 57.6428C190.216 57.6428 189.567 57.8147 188.985 58.1584C188.403 58.4829 187.937 58.9412 187.588 59.5333C187.258 60.1062 187.093 60.7556 187.093 61.4811C187.093 62.2832 187.277 62.9801 187.646 63.5722C188.015 64.145 188.49 64.5939 189.072 64.9184C189.673 65.2241 190.304 65.3767 190.964 65.3767ZM208.442 68.7567C207.511 68.7567 206.599 68.5849 205.707 68.2411C204.833 67.8782 204.038 67.3724 203.32 66.723C202.622 66.0736 202.059 65.31 201.632 64.4315C201.225 63.5529 201.021 62.5888 201.021 61.5384C201.021 60.5264 201.215 59.5812 201.603 58.7027C201.991 57.8241 202.525 57.0507 203.204 56.3825C203.883 55.7142 204.659 55.1986 205.532 54.8357C206.424 54.4539 207.375 54.2628 208.384 54.2628C209.742 54.2628 210.974 54.5873 212.08 55.2367C213.186 55.8669 214.069 56.7262 214.728 57.8147C215.388 58.9032 215.718 60.1349 215.718 61.5098C215.718 62.5983 215.514 63.5914 215.107 64.4888C214.699 65.3673 214.146 66.1309 213.448 66.7803C212.749 67.4105 211.964 67.8974 211.09 68.2411C210.237 68.5849 209.354 68.7567 208.442 68.7567ZM208.384 65.3767C209.024 65.3767 209.635 65.2241 210.217 64.9184C210.819 64.5939 211.304 64.1356 211.673 63.5435C212.061 62.9514 212.255 62.2545 212.255 61.4525C212.255 60.7077 212.08 60.0489 211.731 59.476C211.401 58.9032 210.945 58.4543 210.363 58.1298C209.781 57.8052 209.112 57.6428 208.355 57.6428C207.637 57.6428 206.987 57.8147 206.405 58.1584C205.823 58.4829 205.357 58.9412 205.008 59.5333C204.678 60.1062 204.513 60.7556 204.513 61.4811C204.513 62.2832 204.698 62.9801 205.066 63.5722C205.435 64.145 205.91 64.5939 206.492 64.9184C207.094 65.2241 207.725 65.3767 208.384 65.3767ZM224.175 68.5849C223.457 68.5849 222.817 68.537 222.254 68.4417C221.711 68.3463 221.236 68.1839 220.828 67.9547C220.44 67.7256 220.12 67.4199 219.868 67.0381C219.615 66.6371 219.421 66.1501 219.286 65.5772C219.169 65.0044 219.111 64.3169 219.111 63.5149V49.7084C219.111 49.3839 219.14 49.0974 219.198 48.8491C219.276 48.5818 219.431 48.3716 219.664 48.2189C219.916 48.047 220.314 47.9611 220.857 47.9611C221.4 47.9611 221.789 48.0376 222.021 48.1903C222.273 48.3429 222.429 48.5532 222.487 48.8204C222.564 49.0688 222.603 49.3552 222.603 49.6798V63.3716C222.603 63.7346 222.623 64.0399 222.662 64.2883C222.72 64.5174 222.807 64.7085 222.924 64.8611C223.059 64.9949 223.224 65.0903 223.418 65.1476C223.632 65.2049 223.884 65.2335 224.175 65.2335C224.427 65.2335 224.65 65.2622 224.844 65.3194C225.058 65.3767 225.223 65.52 225.339 65.7491C225.475 65.9783 225.543 66.3506 225.543 66.8662C225.543 67.401 225.475 67.7923 225.339 68.0406C225.223 68.289 225.058 68.4417 224.844 68.4989C224.631 68.5562 224.408 68.5849 224.175 68.5849Z" fill="#00237D"/>
<path d="M80.4783 3.75872C80.7002 3.53139 81.0881 3.71653 81.0441 4.02888L80.8546 5.37916C80.8348 5.51883 80.9089 5.65505 81.0378 5.71661L82.2839 6.31136C82.5723 6.44895 82.5131 6.8692 82.198 6.92467L80.8344 7.16443C80.6936 7.18924 80.5848 7.30059 80.5652 7.44026L80.3754 8.79057C80.3314 9.10292 79.9071 9.17753 79.7563 8.89945L79.1032 7.69735C79.0357 7.573 78.8945 7.50559 78.7533 7.5304L77.3901 7.77016C77.0746 7.82559 76.8716 7.45146 77.0935 7.22413L78.0532 6.24144C78.1527 6.13979 78.1742 5.98677 78.1064 5.8624L77.4536 4.66029C77.3025 4.38221 77.6014 4.07637 77.8895 4.21396L79.1356 4.80872C79.2646 4.87024 79.419 4.84306 79.5182 4.7414L80.4783 3.75872Z" fill="#FFC700"/>
<path d="M74.4781 -0.172795C74.7 -0.400125 75.0879 -0.215013 75.0443 0.0973383L74.8544 1.44761C74.8349 1.58729 74.909 1.72354 75.0377 1.78506L76.2841 2.37982C76.5721 2.51741 76.5133 2.93769 76.1978 2.99313L74.8346 3.23289C74.6934 3.25769 74.5846 3.36905 74.5651 3.50875L74.3756 4.85903C74.3316 5.17138 73.9073 5.24599 73.7562 4.96791L73.1033 3.76583C73.0355 3.64146 72.8943 3.57405 72.7534 3.59885L71.3899 3.83862C71.0748 3.89408 70.8714 3.51992 71.0936 3.29262L72.0533 2.3099C72.1525 2.20825 72.174 2.05523 72.1066 1.93089L71.4534 0.728778C71.3026 0.450702 71.6013 0.144829 71.8896 0.282418L73.1357 0.877174C73.2644 0.938726 73.4192 0.911546 73.5184 0.809892L74.4781 -0.172795Z" fill="#FFC700"/>
</g>
</svg>
