<svg width="32" height="32" viewBox="0 0 32 32" fill="none" xmlns="http://www.w3.org/2000/svg">
<path d="M28.6377 21.7197L24.1927 21.2122C23.1252 21.0897 22.0752 21.4572 21.3227 22.2097L18.1027 25.4297C13.1502 22.9097 9.09018 18.8672 6.57018 13.8972L9.80768 10.6597C10.5602 9.90723 10.9277 8.85723 10.8052 7.78973L10.2977 3.37973C10.0877 1.61223 8.60018 0.282227 6.81518 0.282227H3.78768C1.81018 0.282227 0.165179 1.92723 0.287679 3.90473C1.21518 18.8497 13.1677 30.7847 28.0952 31.7122C30.0727 31.8347 31.7177 30.1897 31.7177 28.2122V25.1847C31.7352 23.4172 30.4052 21.9297 28.6377 21.7197Z" fill="white"/>
</svg>
