<svg width="25" height="25" viewBox="0 0 25 25" fill="none" xmlns="http://www.w3.org/2000/svg">
<path d="M22.5505 17.0483L19.0156 16.6447C18.1667 16.5473 17.3317 16.8395 16.7332 17.438L14.1725 19.9987C10.234 17.9946 7.00531 14.7798 5.00128 10.8274L7.57591 8.25277C8.17433 7.65434 8.46659 6.81932 8.36917 5.97038L7.96558 2.4633C7.79858 1.05769 6.61564 0 5.19612 0H2.78849C1.21588 0 -0.092306 1.3082 0.00511234 2.88081C0.742708 14.7659 10.248 24.2573 22.1191 24.9949C23.6917 25.0923 24.9999 23.7841 24.9999 22.2115V19.8039C25.0138 18.3982 23.9561 17.2153 22.5505 17.0483Z" fill="#082B72"/>
</svg>
