<svg width="85" height="85" viewBox="0 0 85 85" fill="none" xmlns="http://www.w3.org/2000/svg">
<circle cx="42.5" cy="42.5" r="42.5" fill="#082B72"/>
<path d="M59.8515 50.2617L53.9249 49.573C52.5015 49.4067 51.1015 49.9055 50.0982 50.9267L45.8049 55.2967C39.2015 51.8767 33.7882 46.3905 30.4282 39.6455L34.7449 35.2517C35.7482 34.2305 36.2382 32.8055 36.0749 31.3567L35.3982 25.3717C35.1182 22.973 33.1349 21.168 30.7549 21.168H26.7182C24.0815 21.168 21.8882 23.4005 22.0515 26.0842C23.2882 46.3667 39.2249 62.5642 59.1282 63.823C61.7649 63.9892 63.9582 61.7567 63.9582 59.073V54.9642C63.9815 52.5655 62.2082 50.5467 59.8515 50.2617Z" fill="white"/>
</svg>
