<svg width="85" height="85" viewBox="0 0 85 85" fill="none" xmlns="http://www.w3.org/2000/svg">
<circle cx="42.5" cy="42.5" r="42.5" fill="#7360F2"/>
<path d="M32.2396 27.5388C31.744 27.4667 31.2386 27.5664 30.8076 27.8215H30.7703C29.7703 28.4082 28.8689 29.1468 28.1009 30.0162C27.4609 30.7548 27.1143 31.5015 27.0236 32.2215C26.9703 32.6482 27.0076 33.0802 27.1329 33.4882L27.1809 33.5148C27.9009 35.6295 28.8396 37.6642 29.9863 39.5788C31.4648 42.2681 33.2843 44.7553 35.3996 46.9788L35.4636 47.0695L35.5649 47.1442L35.6263 47.2162L35.7009 47.2802C37.9322 49.4019 40.4253 51.23 43.1196 52.7202C46.1996 54.3975 48.0689 55.1895 49.1916 55.5202V55.5362C49.5196 55.6375 49.8183 55.6828 50.1196 55.6828C51.0757 55.6122 51.9807 55.2235 52.6903 54.5788C53.5569 53.8108 54.2903 52.9068 54.8609 51.9015V51.8828C55.3969 50.8695 55.2156 49.9148 54.4423 49.2668C52.8889 47.9096 51.2093 46.7041 49.4263 45.6668C48.2316 45.0188 47.0183 45.4108 46.5276 46.0668L45.4796 47.3895C44.9409 48.0455 43.9649 47.9548 43.9649 47.9548L43.9383 47.9708C36.6556 46.1122 34.7116 38.7388 34.7116 38.7388C34.7116 38.7388 34.6209 37.7362 35.2956 37.2242L36.6076 36.1682C37.2369 35.6562 37.6743 34.4455 36.9996 33.2508C35.9692 31.4662 34.7661 29.787 33.4076 28.2375C33.1113 27.8728 32.6958 27.6244 32.2343 27.5362L32.2396 27.5388ZM44.5463 24.3335C44.1926 24.3335 43.8535 24.474 43.6035 24.724C43.3534 24.9741 43.2129 25.3132 43.2129 25.6668C43.2129 26.0205 43.3534 26.3596 43.6035 26.6096C43.8535 26.8597 44.1926 27.0002 44.5463 27.0002C47.9169 27.0002 50.7169 28.1015 52.9329 30.2135C54.0716 31.3682 54.9596 32.7362 55.5409 34.2348C56.1249 35.7362 56.3916 37.3388 56.3223 38.9442C56.3074 39.2978 56.4336 39.6428 56.6732 39.9034C56.9127 40.1639 57.246 40.3186 57.5996 40.3335C57.9532 40.3483 58.2983 40.2221 58.5588 39.9826C58.8194 39.743 58.9741 39.4098 58.9889 39.0562C59.0717 37.0815 58.7439 35.1111 58.0263 33.2695C57.3056 31.4192 56.2128 29.7365 54.8156 28.3255L54.7889 28.2988C52.0396 25.6722 48.5623 24.3335 44.5463 24.3335Z" fill="white"/>
<path d="M44.4525 28.7175C44.0989 28.7175 43.7597 28.858 43.5097 29.108C43.2596 29.3581 43.1191 29.6972 43.1191 30.0508C43.1191 30.4045 43.2596 30.7436 43.5097 30.9937C43.7597 31.2437 44.0989 31.3842 44.4525 31.3842H44.4978C46.9298 31.5575 48.7005 32.3682 49.9405 33.6988C51.2125 35.0695 51.8711 36.7735 51.8205 38.8802C51.8123 39.2338 51.945 39.5762 52.1893 39.832C52.4336 40.0878 52.7695 40.236 53.1231 40.2442C53.4768 40.2523 53.8191 40.1196 54.0749 39.8753C54.3307 39.631 54.479 39.2951 54.4871 38.9415C54.5511 36.1762 53.6605 33.7895 51.8951 31.8855V31.8802C50.0898 29.9442 47.6125 28.9202 44.6311 28.7202L44.5858 28.7148L44.4525 28.7175Z" fill="white"/>
<path d="M44.4017 33.1839C44.2233 33.1681 44.0435 33.1885 43.8731 33.2438C43.7027 33.299 43.5452 33.3881 43.41 33.5056C43.2748 33.6231 43.1646 33.7666 43.0861 33.9276C43.0076 34.0886 42.9623 34.2638 42.953 34.4427C42.9437 34.6216 42.9705 34.8005 43.0318 34.9688C43.0932 35.1371 43.1878 35.2913 43.3101 35.4222C43.4324 35.5531 43.5798 35.658 43.7435 35.7307C43.9072 35.8034 44.0839 35.8423 44.263 35.8452C45.3777 35.9039 46.0897 36.2399 46.5377 36.6905C46.9884 37.1439 47.3244 37.8719 47.3857 39.0105C47.389 39.1895 47.4283 39.3659 47.5013 39.5293C47.5743 39.6927 47.6794 39.8398 47.8104 39.9617C47.9414 40.0837 48.0956 40.178 48.2638 40.239C48.432 40.3001 48.6108 40.3267 48.7895 40.3172C48.9682 40.3077 49.1432 40.2623 49.304 40.1838C49.4648 40.1052 49.6081 39.9951 49.7255 39.86C49.8428 39.7249 49.9318 39.5675 49.987 39.3973C50.0423 39.2271 50.0627 39.0475 50.047 38.8692C49.9617 37.2692 49.4604 35.8559 48.4337 34.8159C47.4017 33.7759 45.9964 33.2692 44.4017 33.1839Z" fill="white"/>
<path fill-rule="evenodd" clip-rule="evenodd" d="M29.8448 17.3572C38.3303 15.4604 47.13 15.4604 55.6155 17.3572L56.5195 17.5572C59 18.1117 61.2782 19.3431 63.101 21.1146C64.9238 22.886 66.2197 25.1281 66.8448 27.5918C68.9987 36.0795 68.9987 44.9708 66.8448 53.4585C66.2197 55.9222 64.9238 58.1643 63.101 59.9358C61.2782 61.7072 59 62.9386 56.5195 63.4932L55.6128 63.6932C50.2982 64.8816 44.8448 65.3294 39.4075 65.0238L32.3328 71.3545C32.0661 71.5933 31.7402 71.7561 31.3891 71.826C31.0379 71.8959 30.6745 71.8702 30.3367 71.7517C29.9989 71.6332 29.699 71.4262 29.4685 71.1523C29.238 70.8783 29.0852 70.5476 29.0262 70.1945L27.8555 63.2025C25.6106 62.504 23.5825 61.2415 21.9647 59.5355C20.347 57.8296 19.1939 55.7372 18.6155 53.4585C16.4615 44.9708 16.4615 36.0795 18.6155 27.5918C19.2406 25.1281 20.5366 22.886 22.3593 21.1146C24.1821 19.3431 26.4603 18.1117 28.9408 17.5572L29.8448 17.3572ZM54.7435 21.2585C46.8322 19.49 38.6281 19.49 30.7168 21.2585L29.8102 21.4612C28.0521 21.8549 26.4375 22.7282 25.1458 23.9842C23.8541 25.2401 22.9358 26.8295 22.4928 28.5758C20.5027 36.4178 20.5027 44.6326 22.4928 52.4745C22.936 54.2212 23.8547 55.8108 25.1469 57.0667C26.4392 58.3227 28.0543 59.1959 29.8128 59.5892L30.0528 59.6425C30.4411 59.7293 30.7946 59.93 31.0682 60.2188C31.3418 60.5076 31.5231 60.8715 31.5888 61.2638L32.3728 65.9518L37.3648 61.4852C37.5642 61.3063 37.7974 61.1692 38.0508 61.0822C38.3041 60.9952 38.5723 60.9599 38.8395 60.9785C44.1703 61.3567 49.5278 60.9569 54.7435 59.7918L55.6475 59.5892C57.4061 59.1959 59.0212 58.3227 60.3134 57.0667C61.6056 55.8108 62.5243 54.2212 62.9675 52.4745C64.9568 44.6345 64.9568 36.4185 62.9675 28.5758C62.5243 26.8292 61.6056 25.2395 60.3134 23.9836C59.0212 22.7276 57.4061 21.8545 55.6475 21.4612L54.7435 21.2585Z" fill="white"/>
</svg>
