<svg width="85" height="85" viewBox="0 0 85 85" fill="none" xmlns="http://www.w3.org/2000/svg">
<circle cx="42.5" cy="42.5" r="42.5" fill="#25D366"/>
<path d="M62.8001 23.0932C60.3553 20.6236 57.4433 18.6656 54.2338 17.3333C51.0244 16.001 47.5818 15.3211 44.1068 15.3332C29.5468 15.3332 17.6801 27.1998 17.6801 41.7598C17.6801 46.4265 18.9068 50.9598 21.2001 54.9598L17.4668 68.6665L31.4668 64.9865C35.3335 67.0932 39.6801 68.2132 44.1068 68.2132C58.6668 68.2132 70.5335 56.3465 70.5335 41.7865C70.5335 34.7198 67.7868 28.0798 62.8001 23.0932ZM44.1068 63.7332C40.1601 63.7332 36.2935 62.6665 32.9068 60.6665L32.1068 60.1865L23.7868 62.3732L26.0001 54.2665L25.4668 53.4398C23.2741 49.9384 22.1098 45.8911 22.1068 41.7598C22.1068 29.6532 31.9735 19.7865 44.0801 19.7865C49.9468 19.7865 55.4668 22.0798 59.6001 26.2398C61.6468 28.2771 63.2687 30.7003 64.3718 33.369C65.475 36.0377 66.0376 38.8988 66.0268 41.7865C66.0801 53.8932 56.2135 63.7332 44.1068 63.7332ZM56.1601 47.3065C55.4935 46.9865 52.2401 45.3865 51.6535 45.1465C51.0401 44.9332 50.6135 44.8265 50.1601 45.4665C49.7068 46.1332 48.4535 47.6265 48.0801 48.0532C47.7068 48.5065 47.3068 48.5598 46.6401 48.2132C45.9735 47.8932 43.8401 47.1732 41.3335 44.9332C39.3601 43.1732 38.0535 41.0132 37.6535 40.3465C37.2801 39.6798 37.6001 39.3332 37.9468 38.9865C38.2401 38.6932 38.6135 38.2132 38.9335 37.8398C39.2535 37.4665 39.3868 37.1732 39.6001 36.7465C39.8135 36.2932 39.7068 35.9198 39.5468 35.5998C39.3868 35.2798 38.0535 32.0265 37.5201 30.6932C36.9868 29.4132 36.4268 29.5732 36.0268 29.5465H34.7468C34.2935 29.5465 33.6001 29.7065 32.9868 30.3732C32.4001 31.0398 30.6935 32.6398 30.6935 35.8932C30.6935 39.1465 33.0668 42.2932 33.3868 42.7198C33.7068 43.1732 38.0535 49.8398 44.6668 52.6932C46.2401 53.3865 47.4668 53.7865 48.4268 54.0798C50.0001 54.5865 51.4401 54.5065 52.5868 54.3465C53.8668 54.1598 56.5068 52.7465 57.0401 51.1998C57.6001 49.6532 57.6001 48.3465 57.4135 48.0532C57.2268 47.7598 56.8268 47.6265 56.1601 47.3065Z" fill="white"/>
</svg>
