<svg width="1919" height="1058" viewBox="0 0 1919 1058" fill="none" xmlns="http://www.w3.org/2000/svg">
<mask id="mask0_473_127" style="mask-type:alpha" maskUnits="userSpaceOnUse" x="0" y="0" width="1920" height="1058">
<rect width="1920" height="1058" fill="#D9D9D9"/>
</mask>
<g mask="url(#mask0_473_127)">
<rect width="1920" height="1173" fill="white"/>
<mask id="mask1_473_127" style="mask-type:alpha" maskUnits="userSpaceOnUse" x="-1" y="-51" width="1917" height="100">
<rect x="-1" y="-51" width="1917" height="100" fill="#D9D9D9"/>
</mask>
<g mask="url(#mask1_473_127)">
<path d="M1050.5 -24.7053C769.3 -68.7053 231.667 -43.0387 -2 -24.7053V63.2947H1915.5V-24.7053C1744.33 -6.37199 1331.7 19.2947 1050.5 -24.7053Z" fill="white"/>
</g>
<path d="M-352.597 837.684C-401.267 655.563 -175.107 629.637 -55.943 639.439C75.5554 655.848 78.2706 721.568 89.6667 745.576C101.063 769.584 79.6153 839.901 127.688 890.391C175.762 940.881 254.502 849.876 310.555 905.221C366.608 960.565 328.073 1113.34 288.824 1178.63C249.574 1243.91 146.603 1314.03 0.821657 1272.8C-144.959 1231.56 -291.759 1065.34 -352.597 837.684Z" fill="#FFEEE5"/>
<path d="M2231.32 753.419C2419.82 755.852 2383.57 980.589 2341.89 1092.65C2290.51 1214.8 2226.5 1199.63 2200.31 1204.11C2174.11 1208.58 2112.22 1168.9 2050.61 1201.52C1988.99 1234.13 2055.29 1334.57 1986.84 1373.55C1918.39 1412.53 1781.74 1334.09 1729.52 1278.64C1677.29 1223.19 1637.66 1105.08 1716.8 975.897C1795.95 846.715 1995.7 750.379 2231.32 753.419Z" fill="#FFEEE5"/>
<path d="M1776.7 148.084C1774.45 147.929 1772.2 148.293 1770.12 149.15C1768.04 150.007 1766.18 151.333 1764.7 153.024C1764.48 150.102 1763.46 147.298 1761.74 144.922C1760.02 142.547 1757.68 140.694 1754.98 139.57C1752.27 138.445 1749.31 138.093 1746.41 138.553C1743.52 139.013 1740.81 140.267 1738.59 142.174C1739.33 135.234 1733.27 128.924 1726.48 128.114C1718.55 127.114 1711.48 132.814 1707.75 139.394C1705.75 135.934 1701.56 134.534 1697.75 134.964C1691.95 135.614 1686.53 139.334 1681.47 141.964C1678.68 143.424 1675.89 144.874 1673.11 146.364C1671.68 147.134 1670.25 147.914 1668.84 148.704C1668.19 149.074 1667.55 149.474 1666.84 149.814C1665.97 150.274 1665.98 150.344 1665.27 149.814C1662.34 147.494 1659.35 146.214 1655.51 146.564C1653.01 146.77 1650.62 147.702 1648.65 149.244C1644.93 147.424 1640.9 146.244 1636.77 146.814C1631.98 147.494 1627.09 151.084 1626.15 156.034C1625.79 157.826 1626.1 159.687 1627.02 161.265C1627.94 162.843 1629.41 164.028 1631.15 164.594C1634.15 165.684 1637.68 165.274 1639.41 162.594C1642.56 169.194 1651.41 171.794 1657.72 168.264C1656.27 171.704 1658.94 175.974 1662.26 177.554C1668.02 180.314 1674.17 175.424 1678.26 171.604C1679.38 178.604 1689.98 176.324 1694.48 178.724C1696.48 179.794 1697.59 181.724 1699.01 183.424C1700.09 184.728 1701.41 185.811 1702.91 186.614C1705.86 188.113 1709.19 188.737 1712.49 188.414C1720.49 187.774 1726.9 182.514 1732.63 177.414C1733.54 176.604 1733.71 176.594 1734.71 177.154C1735.44 177.572 1736.2 177.943 1736.99 178.264C1738.42 178.866 1739.9 179.322 1741.43 179.624C1744.53 180.202 1747.71 180.219 1750.83 179.674C1754.24 179.164 1757.51 177.958 1760.43 176.131C1763.35 174.304 1765.87 171.896 1767.83 169.054C1773.22 175.054 1784.26 173.644 1787.5 166.054C1790.83 158.114 1785.32 148.734 1776.7 148.084Z" fill="#FFEEE5"/>
<path d="M259.68 108.197C256.14 102.817 249.44 105.007 244.59 107.137C243.724 105.157 242.411 103.405 240.754 102.017C239.097 100.629 237.141 99.6433 235.04 99.1375C229.21 97.5075 223.04 99.0675 217.37 100.587C217.65 92.2275 209.64 86.1775 201.9 85.1675C191.53 83.8275 182.06 90.7875 174.33 96.8075C171.8 93.6275 166.12 94.4775 164.66 98.2875C161.406 96.3876 157.564 95.7564 153.873 96.5149C150.182 97.2735 146.901 99.3683 144.66 102.397C144.015 100.274 142.707 98.4124 140.927 97.0862C139.147 95.7599 136.989 95.0385 134.77 95.0275C133.319 95.0823 131.897 95.4524 130.604 96.112C129.31 96.7717 128.176 97.7052 127.28 98.8475C126.283 98.3343 125.149 98.1488 124.04 98.3175C123.235 98.4752 122.469 98.7906 121.787 99.2454C121.104 99.7003 120.518 100.286 120.063 100.968C119.607 101.65 119.291 102.416 119.133 103.221C118.974 104.025 118.977 104.854 119.14 105.657C114.28 105.847 106.83 108.997 109.6 115.077C110.277 116.37 111.278 117.464 112.505 118.253C113.732 119.042 115.143 119.498 116.6 119.577C120.6 119.837 124.27 117.687 127.6 115.657C128.71 119.657 132.6 121.987 136.6 122.407C142.29 123.007 147.45 119.517 151.9 116.407C153.671 118.683 156.144 120.309 158.935 121.032C161.725 121.755 164.677 121.536 167.33 120.407C167.938 120.127 168.521 119.792 169.07 119.407C169.33 119.237 170.07 118.407 170.33 118.407C170.84 118.407 172.47 120.307 172.94 120.667C174.061 121.536 175.259 122.299 176.52 122.947C185.87 127.757 198.09 126.427 205.76 119.127C207.36 123.387 211.36 126.127 215.76 127.127C222.09 128.547 228.57 126.127 234.49 124.127C241.41 121.737 248.36 119.397 255.27 116.967C257.27 116.247 259.65 115.377 260.53 113.207C260.797 112.365 260.859 111.471 260.711 110.6C260.563 109.728 260.21 108.905 259.68 108.197Z" fill="#FFEEE5"/>
<path d="M444.068 204.06C443.578 202.5 442.068 201.81 440.808 201.28C438.806 200.444 436.645 200.055 434.478 200.14C433.633 200.18 432.794 200.29 431.968 200.47C430.588 200.77 429.118 201.57 427.698 201.26C425.698 200.83 424.698 198.36 423.188 197.07C421.851 196.018 420.274 195.313 418.598 195.02C414.898 194.27 411.108 194.67 407.438 193.62C404.138 192.68 400.628 190.85 397.158 191.38C395.855 191.589 394.666 192.247 393.798 193.24C393.341 192.248 392.646 191.384 391.775 190.725C390.903 190.067 389.883 189.634 388.804 189.466C387.724 189.298 386.62 189.399 385.59 189.761C384.559 190.123 383.635 190.734 382.898 191.54C382.171 190.39 381.149 189.457 379.939 188.836C378.728 188.216 377.374 187.932 376.016 188.014C374.659 188.095 373.348 188.54 372.221 189.301C371.093 190.062 370.191 191.111 369.608 192.34C367.874 192.749 366.275 193.6 364.968 194.81C364.409 195.324 363.913 195.901 363.488 196.53C363.299 196.797 363.125 197.074 362.968 197.36C362.668 197.91 362.738 198 362.198 197.94C361.398 197.86 360.598 197.43 359.768 197.34C358.867 197.243 357.958 197.277 357.068 197.44C355.104 197.901 353.294 198.866 351.818 200.24C350.368 201.4 349.198 201 347.698 200.24C346.953 199.842 346.154 199.552 345.328 199.38C343.732 199.088 342.088 199.217 340.557 199.753C339.026 200.29 337.662 201.216 336.598 202.44C335.698 203.44 334.598 205.07 335.148 206.61C335.698 208.15 337.498 208.48 338.638 208.92C342.375 210.477 346.354 211.373 350.398 211.57C352.277 211.627 354.155 211.421 355.978 210.96C356.908 210.705 357.814 210.37 358.688 209.96C359.528 209.57 360.298 208.96 361.128 208.56C361.958 208.16 362.528 209.11 363.208 209.56C363.965 210.063 364.768 210.491 365.608 210.84C367.335 211.536 369.154 211.98 371.008 212.16C375.388 212.66 379.838 212.16 384.218 211.85C389.218 211.51 394.218 211.18 399.218 210.63C401.658 210.37 404.358 209.63 406.788 210.2C408.678 210.65 410.248 211.99 412.188 212.3C419.418 213.48 425.448 206.3 432.638 206.87C435.978 207.15 439.808 210.68 442.918 207.79C443.446 207.343 443.835 206.754 444.038 206.093C444.242 205.432 444.252 204.727 444.068 204.06Z" fill="#FFEEE5"/>
</g>
</svg>
