<svg width="1920" height="1160" viewBox="0 0 1920 1160" fill="none" xmlns="http://www.w3.org/2000/svg">
<mask id="mask0_474_133" style="mask-type:alpha" maskUnits="userSpaceOnUse" x="0" y="0" width="1920" height="1160">
<rect width="1920" height="1160" fill="#D9D9D9"/>
</mask>
<g mask="url(#mask0_474_133)">
<rect y="-157.998" width="1920" height="1460" fill="#F0F7FF"/>
<path d="M1840.94 815.986C1844.03 822.245 1847.08 828.481 1850.04 834.627C1850.04 830.939 1849.88 827.457 1849.72 824.225C1847.29 813.027 1844.72 802.216 1842.05 791.905C1842.09 799.946 1841.72 807.983 1840.94 815.986Z" fill="#E1EBF8"/>
<path d="M1833.52 793.113C1834.79 798.12 1836.04 803.264 1837.29 808.476C1837.89 809.705 1838.48 810.935 1839.09 812.164C1839.91 802.323 1840.1 792.44 1839.66 782.575C1837.39 773.881 1834.9 765.573 1832.42 757.721C1833.87 769.46 1834.23 781.307 1833.52 793.113Z" fill="#E1EBF8"/>
<path d="M1852.39 839.452H1852.91C1852.68 838.405 1852.48 837.381 1852.27 836.356V839.293L1852.39 839.452Z" fill="#E1EBF8"/>
<path d="M1824.41 760.905C1825.21 753.049 1825.55 745.153 1825.41 737.257C1820.72 723.703 1814.85 710.582 1807.89 698.041C1808.66 704.209 1809.32 711.447 1809.53 719.459C1815.19 733.011 1820.16 746.845 1824.41 760.905Z" fill="#E1EBF8"/>
<path d="M1787.5 682.542C1787.61 680.722 1787.75 678.992 1787.91 677.285C1787.2 677.106 1786.49 676.992 1785.77 676.943C1785.77 678.286 1785.77 679.629 1785.77 681.017C1786.36 681.473 1786.93 681.996 1787.5 682.542Z" fill="#E1EBF8"/>
<path d="M1785.72 676.943H1785.29C1783.82 676.98 1782.39 677.363 1781.1 678.059C1782.65 678.754 1784.11 679.658 1785.42 680.744C1785.49 679.424 1785.58 678.172 1785.72 676.943Z" fill="#E1EBF8"/>
<path d="M1794.82 691.329C1795.64 692.513 1796.44 693.719 1797.26 695.016C1797.01 690.919 1796.92 686.913 1796.94 682.999C1794.51 680.362 1791.44 678.402 1788.02 677.309C1788.02 679.175 1788.02 681.064 1788.02 682.999C1790.55 685.551 1792.83 688.34 1794.82 691.329Z" fill="#E1EBF8"/>
<path d="M1798.74 697.54C1799.42 698.724 1800.13 699.953 1800.83 701.227C1802.93 705.051 1805.02 709.277 1807.11 713.905C1806.7 706.007 1805.91 699.02 1805.04 693.421C1803.13 690.451 1801 687.628 1798.67 684.977C1798.81 688.914 1798.85 693.148 1798.74 697.54Z" fill="#E1EBF8"/>
<path d="M1867.47 961.266C1868.84 967.548 1870.2 973.853 1871.55 980.089C1870.45 963.178 1868.91 946.267 1866.99 929.584C1866.99 935.479 1866.7 944.06 1865.88 954.097L1867.47 961.266Z" fill="#E1EBF8"/>
<path d="M1871.57 1062.35C1870.29 1067.16 1868.69 1071.88 1866.77 1076.48L1864.63 1081.53C1867.16 1089.89 1869.48 1097.58 1871.46 1104.29C1872.48 1088.36 1873.14 1071.79 1873.39 1054.68C1873.17 1055.77 1872.92 1056.95 1872.67 1057.98C1872.35 1059.41 1871.98 1060.87 1871.57 1062.35Z" fill="#E1EBF8"/>
<path d="M1858.55 1149.08C1858.26 1151.52 1857.96 1153.91 1857.67 1156.3C1860.12 1163.95 1862.22 1170.55 1863.83 1175.6C1865.2 1166.95 1866.41 1157.98 1867.5 1148.76C1866.54 1145.49 1865.45 1141.94 1864.29 1137.93C1862.35 1141.71 1860.47 1145.42 1858.55 1149.08Z" fill="#E1EBF8"/>
<path d="M1865.65 1134.97C1866.52 1137.86 1867.32 1140.57 1868.09 1143.14C1868.7 1137.59 1869.26 1131.94 1869.77 1126.19C1868.41 1129.19 1867.04 1132.13 1865.65 1134.97Z" fill="#E1EBF8"/>
<path d="M1856.46 880.169C1858.74 885.245 1860.65 890.252 1862.56 895.214C1860.49 881.08 1858.19 867.219 1855.73 853.79C1856.46 862.563 1856.7 871.37 1856.46 880.169Z" fill="#E1EBF8"/>
<path d="M1863.92 1077.5L1864.72 1075.57C1867.09 1069.88 1868.99 1064 1870.39 1058C1868.54 1051.17 1866.61 1044.11 1864.61 1036.85C1864.61 1037.6 1864.61 1038.35 1864.61 1039.13C1864.62 1052.22 1864.39 1065.01 1863.92 1077.5Z" fill="#E1EBF8"/>
<path d="M1850.13 865.943C1851.56 869.062 1852.95 872.157 1854.32 875.252C1854.37 865.126 1853.77 855.007 1852.52 844.958C1852.38 844.685 1852.27 844.412 1852.13 844.116C1851.87 851.423 1851.2 858.711 1850.13 865.943Z" fill="#E1EBF8"/>
<path d="M1872.73 1002.14C1872.12 1004.94 1871.48 1007.77 1870.77 1010.61C1871.64 1014.09 1872.5 1017.44 1873.32 1020.9C1873.19 1014.66 1872.99 1008.41 1872.73 1002.14Z" fill="#E1EBF8"/>
<path d="M1848.24 861.849L1848.4 862.19C1849.36 854.745 1849.9 847.253 1850.04 839.748C1846.92 833.269 1843.73 826.729 1840.48 820.129C1840.48 820.675 1840.48 821.221 1840.3 821.768C1843.12 834.627 1845.79 848.056 1848.24 861.849Z" fill="#E1EBF8"/>
<path d="M1859.08 938.346L1859.42 936.594C1859.15 935.592 1858.85 934.568 1858.55 933.544C1858.74 935.137 1858.9 936.753 1859.08 938.346Z" fill="#E1EBF8"/>
<path d="M1869.62 1005.92C1870.57 1001.85 1871.44 997.818 1872.23 993.881C1870.44 985.482 1868.57 976.81 1866.68 968.139C1866.02 973.328 1865.22 978.699 1864.2 984.071C1866.04 991.468 1867.86 998.774 1869.62 1005.92Z" fill="#E1EBF8"/>
<path d="M1862.45 977.107C1862.58 977.699 1862.72 978.268 1862.88 978.86C1863.88 972.851 1864.63 966.979 1865.16 961.425C1864.11 956.623 1863.06 951.843 1862.01 947.154C1861.6 945.22 1861.13 943.285 1860.63 941.351C1860.35 942.739 1860.03 944.105 1859.74 945.493C1860.83 955.986 1861.72 966.546 1862.45 977.107Z" fill="#E1EBF8"/>
<path d="M1854.23 880.626C1852.79 877.281 1851.29 873.798 1849.68 870.498C1851 878.221 1852.23 886.043 1853.39 893.964C1853.86 889.366 1854.11 884.905 1854.23 880.626Z" fill="#E1EBF8"/>
<path d="M1798.74 697.542C1798.74 693.149 1798.74 688.916 1798.74 684.864C1798.15 684.204 1797.55 683.567 1796.96 682.998C1796.96 686.913 1796.96 690.919 1797.28 695.016L1798.74 697.542Z" fill="#E1EBF8"/>
<path d="M1873.48 1030.89C1872.25 1025.86 1870.96 1020.6 1869.61 1015.18C1868.27 1020.28 1866.79 1025.38 1865.06 1030.39C1867.2 1038.22 1869.32 1045.91 1871.34 1053.31C1872.23 1048.76 1872.91 1044.41 1873.44 1039.99V1039.1C1873.53 1036.37 1873.53 1033.73 1873.48 1030.89Z" fill="#E1EBF8"/>
<path d="M1864.72 1131.83C1866.59 1127.89 1868.45 1123.84 1870.34 1119.59C1870.59 1116.6 1870.82 1113.6 1871.05 1110.48C1868.95 1103.52 1866.49 1095.05 1863.58 1085.63C1863.03 1097.55 1862.28 1109.15 1861.3 1120.43C1862.53 1124.48 1863.65 1128.26 1864.72 1131.83Z" fill="#E1EBF8"/>
<path d="M1857.21 922.003C1858.35 925.303 1859.48 928.581 1860.35 931.813C1861.99 923.323 1863.29 915.221 1864.33 907.869L1863.99 905.365C1861.72 898.833 1859.08 892.21 1856.28 885.473C1856 891.003 1855.5 896.853 1854.71 902.725C1855.59 909.098 1856.43 915.539 1857.21 922.003Z" fill="#E1EBF8"/>
<path d="M1861.72 936.503C1862.65 939.917 1863.52 943.331 1864.27 946.654L1865.91 954.097C1866.73 944.06 1866.98 935.479 1867.02 929.584C1866.49 925.032 1865.95 920.48 1865.39 915.928C1864.36 922.437 1863.11 929.356 1861.72 936.503Z" fill="#E1EBF8"/>
<path d="M1868.5 1010.61C1866.77 1003.65 1864.99 996.5 1863.2 989.308C1863.86 1001.26 1864.29 1013.21 1864.49 1025.06C1865.95 1020.28 1867.29 1015.53 1868.5 1010.61Z" fill="#E1EBF8"/>
<path d="M1828.05 744.677C1827.94 744.313 1827.8 743.949 1827.69 743.585C1827.58 751.197 1827.03 758.796 1826.05 766.345C1827.93 772.658 1829.78 779.205 1831.58 785.988C1831.91 772.13 1830.73 758.279 1828.05 744.677Z" fill="#E1EBF8"/>
<path d="M1859.19 1142.98C1860.58 1140.27 1861.94 1137.54 1863.29 1134.77C1862.51 1132.13 1861.69 1129.37 1860.83 1126.53C1860.33 1132.16 1859.78 1137.64 1859.19 1142.98Z" fill="#E1EBF8"/>
<path d="M1773.61 784.829C1770.95 778.041 1768.78 771.075 1767.1 763.98C1763.76 771.423 1760.27 778.889 1756.68 786.331C1758.36 792.863 1760.36 799.532 1762.69 806.201C1766.42 799.1 1770.08 791.953 1773.61 784.829Z" fill="#E1EBF8"/>
<path d="M1736.87 792.293L1735.37 795.343C1733.23 799.743 1731.09 804.098 1728.95 808.407C1729.57 816.032 1730.48 824.021 1731.89 832.124C1734.73 826.183 1737.67 820.174 1740.63 814.143C1738.95 806.94 1737.69 799.644 1736.87 792.293Z" fill="#E1EBF8"/>
<path d="M1761.44 948.453C1756.29 957.034 1751.4 965.478 1746.87 973.763C1750.17 979.476 1753.54 985.143 1756.93 990.856C1761.48 982.503 1766.42 974.013 1771.5 965.432C1768.13 959.788 1764.76 954.075 1761.44 948.453Z" fill="#E1EBF8"/>
<path d="M1854.98 1155.46C1852.34 1160.17 1849.52 1164.9 1846.45 1169.82C1848.06 1174.8 1849.56 1179.68 1851 1184.3H1853.43C1854.68 1176.92 1855.85 1169.3 1856.92 1161.53L1854.98 1155.46Z" fill="#E1EBF8"/>
<path d="M1727.07 812.3C1725.7 815.122 1724.38 817.876 1723.06 820.653C1722.38 823.612 1721.7 826.593 1721.04 829.598C1721.72 835.925 1722.61 842.548 1723.77 849.354C1725.89 844.802 1728.05 840.189 1730.25 835.515C1728.82 827.618 1727.75 819.788 1727.07 812.3Z" fill="#E1EBF8"/>
<path d="M1707.24 923.552C1709.23 917.133 1711.54 910.616 1714.18 904.001C1712.8 897.969 1711.66 891.96 1710.75 886.065C1710.41 886.976 1710.09 887.886 1709.77 888.797C1708.33 897.673 1707 906.656 1705.79 915.745C1706.24 918.317 1706.72 920.934 1707.24 923.552Z" fill="#E1EBF8"/>
<path d="M1755.7 993.131C1752.31 987.463 1748.87 981.75 1745.61 976.083C1741.59 983.594 1737.85 990.968 1734.55 998.252C1737.76 1004.01 1741.08 1009.63 1744.45 1015.05C1747.89 1007.83 1751.58 1000.53 1755.7 993.131Z" fill="#E1EBF8"/>
<path d="M1722.15 852.882C1721.13 847.214 1720.29 841.661 1719.58 836.267C1716.78 849.422 1714.14 863.033 1711.73 877.008C1711.74 877.076 1711.74 877.145 1711.73 877.213C1714.91 869.246 1718.42 861.121 1722.15 852.882Z" fill="#E1EBF8"/>
<path d="M1815.79 997.547C1820.18 1005.42 1824.27 1013.18 1827.96 1020.81C1831.26 1015.23 1834.52 1009.31 1837.7 1002.94C1834.54 994.884 1830.88 986.668 1826.71 978.314C1823.16 984.824 1819.52 991.235 1815.79 997.547Z" fill="#E1EBF8"/>
<path d="M1846.99 928.287C1848.65 922.806 1850 917.236 1851.04 911.604C1848.77 905.731 1846.33 899.768 1843.71 893.714C1842.08 898.753 1840.2 903.706 1838.07 908.554C1841.3 915.2 1844.27 921.777 1846.99 928.287Z" fill="#E1EBF8"/>
<path d="M1829.83 858.481C1831.91 852.245 1833.65 845.901 1835.04 839.476L1828.21 825.638C1826.63 831.594 1824.66 837.441 1822.32 843.14C1824.87 848.216 1827.37 853.314 1829.83 858.481Z" fill="#E1EBF8"/>
<path d="M1831.24 861.233C1835.5 870.041 1839.57 878.735 1843.37 887.27C1845.31 880.374 1846.83 873.366 1847.93 866.285C1844.35 858.501 1840.57 850.603 1836.68 842.592C1835.2 848.898 1833.39 855.12 1831.24 861.233Z" fill="#E1EBF8"/>
<path d="M1769.38 1015.75C1765.28 1008.93 1761.14 1002.1 1757.02 995.27C1753.02 1002.69 1749.28 1010 1745.89 1017.21C1750.44 1024.31 1754.84 1031.19 1759.3 1037.99L1760 1039.11C1763.71 1032.44 1767.56 1025.77 1771.38 1019.1L1769.38 1015.75Z" fill="#E1EBF8"/>
<path d="M1810.39 818.58C1813.69 825.378 1816.99 832.145 1820.32 838.882C1820.54 839.36 1820.77 839.838 1821.02 840.316C1823.31 834.498 1825.22 828.537 1826.73 822.472C1823.55 816.008 1820.34 809.476 1817.18 802.921C1815.29 808.078 1813.12 813.124 1810.67 818.034L1810.39 818.58Z" fill="#E1EBF8"/>
<path d="M1768.63 760.61C1770.21 767.91 1772.33 775.083 1774.96 782.073C1777.99 775.791 1780.93 769.555 1783.79 763.364C1781.12 755.376 1779.09 747.187 1777.73 738.874C1777.41 739.739 1777.1 740.581 1776.75 741.446C1774.34 747.773 1771.5 754.169 1768.63 760.61Z" fill="#E1EBF8"/>
<path d="M1858.78 962.609C1859.99 967.366 1861.22 972.214 1862.45 977.107C1861.72 966.546 1860.83 955.986 1859.8 945.493C1858.96 949.18 1858.06 952.867 1857.12 956.555C1857.71 958.626 1858.26 960.606 1858.78 962.609Z" fill="#E1EBF8"/>
<path d="M1788.88 994.473C1783.92 1002.67 1778.94 1010.91 1774.06 1019.17C1778.25 1026 1782.46 1032.98 1786.61 1039.95C1791.68 1032.05 1796.69 1024.24 1801.6 1016.46C1797.53 1009.2 1793.27 1001.87 1788.88 994.473Z" fill="#E1EBF8"/>
<path d="M1761.39 1041.31C1765.46 1047.53 1769.56 1053.83 1773.59 1060.32C1777.5 1054.15 1781.42 1048.03 1785.26 1042.11C1781.14 1035.17 1776.95 1028.27 1772.79 1021.4C1768.9 1028.02 1765.07 1034.67 1761.39 1041.31Z" fill="#E1EBF8"/>
<path d="M1804.2 1016.51C1808.48 1024.2 1812.53 1031.78 1816.24 1039.27C1819.7 1034.1 1823.07 1028.77 1826.57 1023.11C1822.93 1015.46 1818.86 1007.68 1814.46 999.777C1811.1 1005.38 1807.67 1010.95 1804.2 1016.51Z" fill="#E1EBF8"/>
<path d="M1812.58 1136.68C1816.04 1143.99 1819.59 1151.43 1823.05 1158.71C1827.14 1152.48 1830.76 1146.58 1834.08 1140.8C1831.19 1132.92 1828.14 1125.07 1824.98 1117.49C1821.25 1123.62 1817.2 1129.92 1812.58 1136.68Z" fill="#E1EBF8"/>
<path d="M1837.63 1094.53C1840.32 1102.77 1842.98 1111.01 1845.58 1119C1848.22 1113.58 1850.79 1107.96 1853.43 1101.95C1851.02 1093.89 1848.47 1085.52 1845.92 1077.12C1843.19 1083.17 1840.46 1088.93 1837.63 1094.53Z" fill="#E1EBF8"/>
<path d="M1859.49 1045.68C1858.37 1048.39 1857.21 1051.01 1856.19 1053.56C1858.76 1062.05 1861.28 1070.36 1863.63 1078.18L1863.92 1077.5C1864.38 1065.03 1864.61 1052.23 1864.63 1039.1C1864.63 1038.35 1864.63 1037.6 1864.63 1036.83C1864.63 1036.06 1864.15 1035.05 1863.9 1034.17C1862.51 1038.1 1861.06 1041.97 1859.49 1045.68Z" fill="#E1EBF8"/>
<path d="M1847.33 1074.04C1849.86 1082.37 1852.39 1090.73 1854.82 1098.81C1857.1 1093.39 1859.65 1087.63 1862.26 1081.4C1859.99 1073.61 1857.42 1065.3 1854.82 1056.77C1852.23 1062.87 1849.75 1068.63 1847.33 1074.04Z" fill="#E1EBF8"/>
<path d="M1826.37 1115.1C1829.56 1122.61 1832.63 1130.42 1835.47 1138.25C1838.52 1132.81 1841.37 1127.44 1844.1 1121.89C1841.5 1113.9 1838.84 1105.61 1836.13 1097.35C1833.15 1103.27 1829.92 1109.12 1826.37 1115.1Z" fill="#E1EBF8"/>
<path d="M1803.57 1149.49C1801.95 1151.77 1800.4 1154.16 1799.01 1156.69C1802.91 1163.24 1806.82 1170.09 1810.6 1176.9C1814.67 1171.23 1818.34 1165.93 1821.68 1160.96L1811.21 1138.86C1808.73 1142.26 1806.21 1145.78 1803.57 1149.49Z" fill="#E1EBF8"/>
<path d="M1795.39 1155.16C1792.98 1151.13 1790.38 1146.94 1787.7 1142.64C1783.68 1151.11 1780.19 1159.82 1777.25 1168.73C1779.78 1172.85 1782.33 1177.17 1784.85 1181.61C1788 1173.03 1791.8 1164.7 1796.23 1156.71L1795.39 1155.16Z" fill="#E1EBF8"/>
<path d="M1840.34 821.768C1839.64 827.389 1838.68 833.148 1837.43 839.111C1841.16 846.781 1844.8 854.36 1848.29 861.871C1845.78 848.056 1843.12 834.627 1840.34 821.768Z" fill="#E1EBF8"/>
<path d="M1831.08 795.843C1831.36 792.429 1831.51 789.015 1831.58 785.874C1829.79 779.091 1827.95 772.544 1826.05 766.231C1825.46 770.784 1824.69 775.586 1823.66 780.366C1826.11 785.525 1828.58 790.684 1831.08 795.843Z" fill="#E1EBF8"/>
<path d="M1836.52 1140.94C1839.76 1149.79 1842.78 1158.6 1845.63 1167.07C1848.72 1162.13 1851.52 1157.37 1854.16 1152.61C1851.48 1144.24 1848.45 1134.81 1845.24 1124.87C1842.42 1130.29 1839.6 1135.59 1836.52 1140.94Z" fill="#E1EBF8"/>
<path d="M1707.29 968.095C1708.68 963.111 1710.36 958.035 1712.23 952.914C1710.22 946.359 1708.5 939.599 1706.95 932.794C1706.95 932.999 1706.95 933.226 1706.77 933.454C1704.99 940.464 1703.17 947.657 1701.37 954.872C1702.62 961.267 1704.01 967.822 1705.54 974.332C1706.06 972.283 1706.7 970.167 1707.29 968.095Z" fill="#E1EBF8"/>
<path d="M1776.94 918.795L1785.15 905.435C1781.03 898.606 1776.91 891.596 1772.88 884.654C1768.68 891.649 1764.55 898.576 1760.5 905.435C1764.39 912.263 1768.45 919.091 1772.56 925.919L1776.94 918.795Z" fill="#E1EBF8"/>
<path d="M1800.38 975.536L1794.01 986.051L1790.27 992.288C1794.67 999.708 1798.95 1007.04 1803.02 1014.27C1806.49 1008.72 1809.91 1003.13 1813.26 997.5C1809.14 990.285 1804.84 982.956 1800.38 975.536Z" fill="#E1EBF8"/>
<path d="M1782.69 946.676C1779.29 941.184 1775.91 935.676 1772.56 930.152C1769.21 935.569 1765.93 940.941 1762.73 946.267C1766.05 951.934 1769.42 957.647 1772.79 963.223C1776.02 957.761 1779.34 952.23 1782.69 946.676Z" fill="#E1EBF8"/>
<path d="M1704.31 978.744C1702.94 973.191 1701.71 967.637 1700.57 962.106C1699.5 974.01 1698.66 985.959 1698.07 997.863L1698.41 1000.03L1704.31 978.744Z" fill="#E1EBF8"/>
<path d="M1703.94 1034.58C1701.67 1026.59 1699.62 1018.26 1697.98 1010.02C1697.82 1010.63 1697.64 1011.25 1697.48 1011.86C1697.16 1020.97 1697 1030.07 1697 1039.17C1697 1042.79 1697 1046.41 1697 1049.99C1697.39 1051.21 1697.75 1052.44 1698.16 1053.67C1700.03 1047.57 1701.96 1041.18 1703.94 1034.58Z" fill="#E1EBF8"/>
<path d="M1799.06 973.374C1794.37 965.59 1789.5 957.715 1784.56 949.726L1784.02 948.815L1774.09 965.453C1775.72 968.154 1777.33 970.84 1778.94 973.51C1782.31 979.11 1785.63 984.655 1788.91 990.148L1792.12 984.891L1799.06 973.374Z" fill="#E1EBF8"/>
<path d="M1766.05 1155.87C1764.44 1153.59 1762.91 1151.5 1761.5 1149.38C1759.38 1156 1757.34 1162.67 1755.45 1169.07C1757.43 1171.91 1759.5 1174.83 1761.71 1177.88C1763.14 1179.88 1764.55 1182.04 1765.92 1184.3H1770.22C1771.58 1179.42 1773.15 1174.28 1774.88 1169.05C1771.83 1164.27 1768.88 1159.81 1766.05 1155.87Z" fill="#E1EBF8"/>
<path d="M1772.81 967.729C1767.74 976.333 1762.84 984.823 1758.27 993.198C1762.59 1000.41 1766.96 1007.58 1771.27 1014.66C1771.77 1015.48 1772.27 1016.3 1772.75 1017.12C1777.65 1008.83 1782.59 1000.6 1787.58 992.402C1784.13 986.575 1780.61 980.703 1777.05 974.785L1772.81 967.729Z" fill="#E1EBF8"/>
<path d="M1706.51 1075.89L1712.2 1057.02L1710.11 1052.06C1708.29 1047.71 1706.63 1043.11 1705.13 1038.4C1703.15 1044.98 1701.21 1051.33 1699.44 1057.29C1701.44 1063.19 1703.6 1068.99 1705.92 1074.54L1706.51 1075.89Z" fill="#E1EBF8"/>
<path d="M1737.31 1141C1742.04 1149.13 1747.35 1157.46 1753.74 1166.72C1755.63 1160.3 1757.68 1153.68 1759.82 1147.08C1753.7 1138.29 1748.44 1130.28 1743.89 1122.57C1741.45 1128.85 1739.27 1135.02 1737.31 1141Z" fill="#E1EBF8"/>
<path d="M1732.64 1102.18C1730.37 1108.09 1728.09 1114.06 1726.06 1120C1729.16 1126.26 1732.32 1132.29 1735.81 1138.41C1737.81 1132.45 1739.99 1126.33 1742.45 1120.2C1738.9 1114.08 1735.65 1108.19 1732.64 1102.18Z" fill="#E1EBF8"/>
<path d="M1817.59 1095.98C1820.32 1101.55 1822.89 1107.1 1825.3 1112.62C1828.9 1106.5 1832.13 1100.53 1835.25 1094.41C1833.18 1088.11 1831.13 1081.83 1829.1 1075.7C1825.6 1082.39 1821.82 1089.06 1817.59 1095.98Z" fill="#E1EBF8"/>
<path d="M1828.01 975.924C1832.13 984.163 1835.84 992.266 1839.03 1000.23C1840.51 997.159 1841.98 993.973 1843.42 990.65C1844.85 987.327 1846.38 983.503 1847.72 979.77C1844.83 972.214 1841.46 964.521 1837.77 956.691C1834.63 963.277 1831.38 969.688 1828.01 975.924Z" fill="#E1EBF8"/>
<path d="M1800.97 883.517C1802.7 886.635 1804.45 889.73 1806.18 892.826L1810.16 899.881C1813.92 893.167 1817.54 886.453 1820.93 879.807L1821.11 879.443C1818.29 874.041 1815.42 868.593 1812.51 863.101C1808.84 869.86 1804.95 876.689 1800.97 883.517Z" fill="#E1EBF8"/>
<path d="M1743.48 1071.06C1739.7 1064.52 1736.04 1057.94 1732.5 1051.31C1729.73 1059.77 1726.77 1068.88 1723.74 1078.19C1726.63 1084.74 1729.45 1090.84 1732.37 1096.74C1734.03 1092.5 1735.76 1088.31 1737.51 1084.22C1739.26 1080.12 1741.38 1075.45 1743.48 1071.06Z" fill="#E1EBF8"/>
<path d="M1756.82 1093.44C1752.26 1102.31 1748.37 1111.21 1744.91 1119.98C1749.46 1127.67 1754.59 1135.61 1760.69 1144.42C1763.96 1134.47 1767.51 1124.71 1770.93 1116.04C1766.28 1108.69 1761.55 1101.13 1756.82 1093.44Z" fill="#E1EBF8"/>
<path d="M1739.56 1085.13C1737.56 1089.79 1735.6 1094.6 1733.69 1099.44C1736.76 1105.54 1739.95 1111.48 1743.48 1117.54C1746.98 1108.84 1750.94 1099.99 1755.45 1091.18C1751.87 1085.32 1748.33 1079.4 1744.84 1073.41C1743 1077.32 1741.22 1081.23 1739.56 1085.13Z" fill="#E1EBF8"/>
<path d="M1731.1 1048.57C1728.07 1042.79 1725.18 1036.97 1722.43 1031.16L1714.6 1056.88C1717.35 1063.41 1719.92 1069.45 1722.4 1075.09C1725.38 1065.87 1728.32 1056.91 1731.1 1048.57Z" fill="#E1EBF8"/>
<path d="M1813.58 949.112C1817.24 942.83 1820.86 936.525 1824.37 930.244C1819.82 921.777 1815.06 913.173 1810.19 904.456C1806.5 910.966 1802.7 917.475 1798.81 923.984C1803.93 932.474 1808.87 940.85 1813.58 949.112Z" fill="#E1EBF8"/>
<path d="M1826.69 973.489C1830.06 967.162 1833.31 960.69 1836.43 954.074C1833.04 947.019 1829.38 939.849 1825.53 932.611C1822.02 938.848 1818.44 945.099 1814.76 951.366C1819.07 958.831 1823.07 966.206 1826.69 973.489Z" fill="#E1EBF8"/>
<path d="M1848.93 983.002C1847.81 985.938 1846.65 988.783 1845.47 991.56C1843.72 995.566 1841.94 999.367 1840.14 1002.94C1841.8 1007.26 1843.31 1011.57 1844.69 1015.8C1846.08 1020.03 1847.2 1023.93 1848.47 1028.02L1851.3 1021.35C1853.23 1016.8 1854.94 1011.88 1856.44 1006.97C1855.64 1004.08 1854.82 1001.19 1854.03 998.343C1852.55 993.358 1850.84 988.214 1848.93 983.002Z" fill="#E1EBF8"/>
<path d="M1744.75 1019.71C1740.8 1028.18 1737.32 1036.85 1734.35 1045.71C1734.07 1046.57 1733.78 1047.48 1733.48 1048.35C1737.06 1055.17 1740.81 1062 1744.66 1068.6C1749.01 1059.5 1753.76 1050.51 1758.77 1041.4C1758.34 1040.72 1757.88 1040.04 1757.43 1039.36C1753.22 1032.91 1748.96 1026.41 1744.75 1019.71Z" fill="#E1EBF8"/>
<path d="M1772.27 1062.44C1768.26 1055.97 1764.21 1049.71 1760.16 1043.55C1755.13 1052.65 1750.35 1061.89 1746 1070.86C1749.51 1076.93 1753.06 1082.9 1756.65 1088.77C1759.64 1083.06 1762.84 1077.39 1766.3 1071.79C1768.29 1068.7 1770.28 1065.58 1772.27 1062.44Z" fill="#E1EBF8"/>
<path d="M1743.34 1017.46C1739.97 1012.07 1736.65 1006.51 1733.42 1000.78C1730.07 1008.22 1727.17 1015.86 1724.72 1023.65C1724.29 1025.08 1723.84 1026.54 1723.38 1027.98C1726.11 1033.86 1729 1039.73 1732.05 1045.59C1732.05 1045.39 1732.19 1045.18 1732.23 1045C1735.4 1035.61 1739.11 1026.42 1743.34 1017.46Z" fill="#E1EBF8"/>
<path d="M1838.77 1005.76C1835.61 1012 1832.38 1017.78 1829.1 1023.24C1833.06 1031.54 1836.54 1040.07 1839.5 1048.78C1841.91 1043.34 1844.39 1037.56 1847.03 1031.32C1845.51 1026.36 1844.01 1021.42 1842.48 1016.57C1841.39 1013.01 1840.15 1009.4 1838.77 1005.76Z" fill="#E1EBF8"/>
<path d="M1768.19 1073.09C1764.53 1079.01 1761.14 1085.04 1758 1091.09C1762.69 1098.72 1767.38 1106.2 1771.97 1113.51C1773.32 1110.35 1774.64 1107.32 1775.96 1104.54C1779.14 1097.83 1782.44 1091.68 1785.77 1085.88C1781.85 1078.48 1777.78 1071.4 1773.57 1064.55C1771.78 1067.41 1769.99 1070.25 1768.19 1073.09Z" fill="#E1EBF8"/>
<path d="M1817.38 1041.59C1821.94 1050.84 1825.99 1060.34 1829.51 1070.04C1832.45 1064.21 1835.27 1058.22 1838.14 1051.83C1835.23 1042.87 1831.75 1034.1 1827.71 1025.59C1824.41 1031.16 1820.84 1036.47 1817.38 1041.59Z" fill="#E1EBF8"/>
<path d="M1786.54 1044.2C1782.69 1050.19 1778.8 1056.29 1774.91 1062.41C1779.1 1069.24 1783.17 1076.23 1787.06 1083.56C1790.91 1076.98 1794.78 1070.88 1798.65 1065.05C1794.83 1058.11 1790.66 1051.17 1786.54 1044.2Z" fill="#E1EBF8"/>
<path d="M1810.07 1052.26C1807.16 1056.49 1804.23 1060.77 1801.29 1065.17C1806.64 1074.7 1811.74 1084.22 1816.45 1093.66C1820.75 1086.56 1824.53 1079.78 1828.12 1072.81C1824.62 1062.89 1820.55 1053.18 1815.92 1043.73L1810.07 1052.26Z" fill="#E1EBF8"/>
<path d="M1721.99 1024.93L1722.6 1022.97C1725.25 1014.57 1728.4 1006.34 1732.05 998.32C1728.89 992.63 1725.86 986.735 1722.94 980.59C1722.22 982.684 1721.51 984.778 1720.87 986.849C1718.85 993.404 1716.78 1000.12 1714.73 1006.83C1716.37 1011.59 1718.1 1016.12 1719.96 1020.38L1721.99 1024.93Z" fill="#E1EBF8"/>
<path d="M1817.45 853.745L1813.78 860.755C1816.67 866.188 1819.51 871.589 1822.32 876.961C1824.75 871.899 1826.91 866.71 1828.78 861.415C1826.3 856.249 1823.75 851.037 1821.18 845.802C1820.02 848.419 1818.79 851.082 1817.45 853.745Z" fill="#E1EBF8"/>
<path d="M1811.46 856.34C1811.81 857 1812.15 857.66 1812.51 858.32C1813.51 856.431 1814.51 854.542 1815.47 852.676C1817.09 849.512 1818.54 846.303 1819.89 843.116L1818.31 839.907C1815.27 833.671 1812.17 827.389 1809.21 821.062C1806.62 826.16 1803.88 831.304 1801.06 836.448C1804.49 843.124 1807.96 849.755 1811.46 856.34Z" fill="#E1EBF8"/>
<path d="M1770.79 826.159C1771.81 828.435 1772.91 830.712 1774 832.874C1777.96 825.545 1781.85 818.239 1785.52 810.956C1782.06 803.832 1778.69 796.753 1775.66 789.743C1775.34 789.015 1775.05 788.286 1774.75 787.467C1771.18 794.636 1767.47 801.829 1763.71 808.998C1765.8 814.802 1768.13 820.515 1770.79 826.159Z" fill="#E1EBF8"/>
<path d="M1825.66 927.921C1827.6 924.416 1829.53 920.888 1831.37 917.383C1832.94 914.446 1834.36 911.488 1835.7 908.506C1831.53 899.766 1827.05 890.889 1822.36 881.854C1818.92 888.682 1815.26 895.373 1811.46 902.156C1816.33 910.828 1821.11 919.454 1825.66 927.921Z" fill="#E1EBF8"/>
<path d="M1788 810.979C1791.75 818.65 1795.69 826.365 1799.69 834.081C1802.55 828.877 1805.27 823.695 1807.87 818.536C1803.88 810.274 1799.97 801.966 1796.24 793.704C1795.71 794.933 1795.17 796.185 1794.6 797.437C1792.55 801.921 1790.27 806.427 1788 810.979Z" fill="#E1EBF8"/>
<path d="M1799.9 1067.29C1796.01 1073.16 1792.14 1079.3 1788.32 1085.93C1790.16 1089.45 1791.98 1093.05 1793.74 1096.76L1802.38 1115.15C1807.14 1108.32 1811.31 1101.97 1815.06 1095.89C1810.37 1086.43 1805.27 1076.98 1799.9 1067.29Z" fill="#E1EBF8"/>
<path d="M1733.53 949.954C1737.74 941.328 1742.41 932.565 1747.39 923.666C1745.12 919.273 1742.68 914.903 1740.56 910.556C1739.43 908.28 1738.29 906.004 1737.35 903.728C1732.67 912.559 1728.25 921.276 1724.31 929.811C1726.53 935.713 1729.12 941.468 1732.07 947.041L1733.53 949.954Z" fill="#E1EBF8"/>
<path d="M1757.18 863.031C1757.79 861.961 1758.4 860.892 1759 859.799C1756.72 855.77 1754.72 851.719 1752.71 847.713C1751.12 844.527 1749.66 841.325 1748.34 838.108C1744.84 844.754 1741.38 851.332 1738.06 857.842C1740.46 865.746 1743.51 873.441 1747.16 880.852C1750.45 875.041 1753.79 869.1 1757.18 863.031Z" fill="#E1EBF8"/>
<path d="M1722.72 974.695C1725.48 967.389 1728.73 959.969 1732.33 952.435C1731.57 951.024 1730.78 949.613 1730.05 948.202C1727.41 943.173 1725.05 938.007 1722.97 932.725C1719.86 939.568 1717.07 946.328 1714.6 953.004C1716.51 959.477 1718.79 965.838 1721.42 972.055C1721.99 972.965 1722.33 973.807 1722.72 974.695Z" fill="#E1EBF8"/>
<path d="M1713.23 1053.67C1715.8 1045.16 1718.42 1036.56 1720.99 1028.16C1719.94 1025.88 1718.92 1023.6 1717.92 1021.33C1716.42 1017.89 1715 1014.23 1713.64 1010.45C1711.14 1018.62 1708.65 1026.75 1706.29 1034.62C1707.95 1040.25 1709.92 1045.79 1712.16 1051.21L1713.23 1053.67Z" fill="#E1EBF8"/>
<path d="M1718.76 986.167C1719.62 983.367 1720.6 980.545 1721.63 977.7C1720.92 976.129 1720.17 974.582 1719.49 972.989C1717.15 967.574 1715.09 962.044 1713.32 956.419C1711.8 960.561 1710.51 964.666 1709.43 968.732C1708.49 972.033 1707.54 975.401 1706.61 978.792C1708.65 987.168 1710.95 995.407 1713.43 1003.19L1718.76 986.167Z" fill="#E1EBF8"/>
<path d="M1712.38 1006.88C1709.81 999.343 1707.49 991.309 1705.4 983.138C1703.37 990.467 1701.32 997.864 1699.32 1005.15C1700.87 1013.64 1702.78 1022.29 1705.15 1030.64C1707.49 1022.88 1709.93 1014.87 1712.38 1006.88Z" fill="#E1EBF8"/>
<path d="M1798.42 836.427C1794.44 828.779 1790.52 821.132 1786.74 813.484C1783.06 820.745 1779.16 828.051 1775.2 835.334C1778.78 842.618 1782.6 849.947 1786.58 857.298C1790.61 850.333 1794.6 843.369 1798.42 836.427Z" fill="#E1EBF8"/>
<path d="M1736.13 901.177C1732.94 893.676 1730.23 885.983 1728 878.144C1723.77 886.975 1719.9 895.669 1716.62 904.181C1718.4 911.89 1720.62 919.489 1723.27 926.942C1727.14 918.498 1731.48 909.894 1736.13 901.177Z" fill="#E1EBF8"/>
<path d="M1741.47 817.512C1738.44 823.68 1735.49 829.802 1732.57 835.834C1733.78 842.161 1735.26 848.511 1737.12 854.816C1740.43 848.413 1743.82 841.949 1747.28 835.424C1744.99 829.573 1743.05 823.592 1741.47 817.512Z" fill="#E1EBF8"/>
<path d="M1735.65 857.661C1733.78 851.538 1732.24 845.37 1731.1 839.202C1728.82 843.914 1726.68 848.579 1724.59 853.2C1725.7 859.345 1727.07 865.581 1728.68 871.818C1730.88 867.129 1733.21 862.41 1735.65 857.661Z" fill="#E1EBF8"/>
<path d="M1760.3 857.546C1764.44 850.171 1768.6 842.752 1772.68 835.286C1771.34 832.578 1770.04 829.846 1768.76 827.161C1766.4 822.047 1764.25 816.911 1762.32 811.752C1759.52 817.101 1756.68 822.427 1753.88 827.684L1749.71 835.559C1751.23 839.292 1752.89 843.002 1754.7 846.689C1756.5 850.308 1758.41 853.927 1760.3 857.546Z" fill="#E1EBF8"/>
<path d="M1791.89 912.331C1793.8 915.487 1795.69 918.643 1797.56 921.799C1801.43 915.267 1805.23 908.712 1808.94 902.157L1804.39 893.917C1802.84 891.209 1801.31 888.478 1799.83 885.724C1795.94 892.324 1791.96 898.902 1787.95 905.434C1789.16 907.733 1790.53 910.032 1791.89 912.331Z" fill="#E1EBF8"/>
<path d="M1814.78 1041.41C1811.12 1033.94 1807.11 1026.36 1802.84 1018.65C1797.96 1026.41 1792.96 1034.19 1787.9 1042.07C1792.02 1049.01 1796.1 1055.97 1800.04 1062.94C1802.79 1058.84 1805.52 1054.86 1808.25 1050.9C1810.41 1047.8 1812.6 1044.64 1814.78 1041.41Z" fill="#E1EBF8"/>
<path d="M1810.01 1136.47C1807.28 1130.69 1804.57 1125.09 1802.02 1119.59C1800.52 1121.73 1798.97 1123.91 1797.33 1126.16C1794.15 1130.64 1791.33 1135.36 1788.89 1140.28C1791.82 1144.99 1794.65 1149.58 1797.31 1153.93L1797.6 1154.45C1798.95 1152.18 1800.34 1150.08 1801.77 1148.1C1804.73 1144.08 1807.46 1140.21 1810.01 1136.47Z" fill="#E1EBF8"/>
<path d="M1744.29 973.829C1740.65 967.501 1737.08 961.174 1733.64 954.869C1730 962.562 1726.81 970.141 1724.04 977.63C1726.95 983.942 1729.98 990.011 1733.14 995.838C1736.54 988.6 1740.26 981.264 1744.29 973.829Z" fill="#E1EBF8"/>
<path d="M1799.69 881.241C1803.7 874.413 1807.59 867.585 1811.23 860.757C1810.66 859.665 1810.07 858.481 1809.5 857.457C1806.22 851.312 1802.92 845.098 1799.67 838.839C1795.83 845.773 1791.86 852.715 1787.77 859.665C1791.66 866.834 1795.66 874.049 1799.69 881.241Z" fill="#E1EBF8"/>
<path d="M1743.07 809.181C1746.82 801.533 1750.6 793.817 1754.31 786.079C1752.51 779 1751.06 772.081 1749.9 765.458C1746.23 773.174 1742.48 780.89 1738.72 788.537C1739.42 796.075 1740.58 803.562 1742.2 810.956L1743.07 809.181Z" fill="#E1EBF8"/>
<path d="M1772.91 880.238C1777 873.41 1781.12 866.582 1785.2 859.571C1781.28 852.265 1777.48 844.982 1773.82 837.744C1769.77 845.164 1765.62 852.561 1761.48 859.89C1765.17 866.642 1768.98 873.425 1772.91 880.238Z" fill="#E1EBF8"/>
<path d="M1798.38 883.516C1794.37 876.346 1790.36 869.131 1786.45 861.916C1782.37 868.805 1778.29 875.633 1774.21 882.4C1778.23 889.365 1782.35 896.33 1786.47 903.226C1790.5 896.694 1794.48 890.071 1798.38 883.516Z" fill="#E1EBF8"/>
<path d="M1771.49 882.606V882.423C1767.6 875.595 1763.8 868.927 1760.11 862.189C1759.75 862.872 1759.36 863.532 1758.97 864.215C1755.36 870.664 1751.8 877.037 1748.28 883.334C1751.65 889.889 1755.29 896.512 1759.09 903.181C1763.21 896.398 1767.33 889.547 1771.49 882.606Z" fill="#E1EBF8"/>
<path d="M1784.45 943.763C1788.36 937.231 1792.35 930.607 1796.26 923.984L1790 913.514L1786.45 907.597L1778.89 919.933L1773.96 927.944C1777.3 933.475 1780.78 938.983 1784.06 944.446L1784.45 943.763Z" fill="#E1EBF8"/>
<path d="M1721.83 929.766C1719.14 922.571 1716.86 915.231 1715 907.779C1712.36 914.607 1710.04 921.435 1708.18 928.15C1709.7 935.319 1711.45 942.489 1713.48 949.431C1715.96 942.967 1718.78 936.412 1721.83 929.766Z" fill="#E1EBF8"/>
<path d="M1713.57 1060.23C1711.61 1066.67 1709.7 1073 1707.88 1079.12C1710.52 1085.4 1713 1091.23 1715.37 1096.69C1717.37 1090.57 1719.37 1084.38 1721.35 1078.28C1718.85 1072.61 1716.28 1066.67 1713.57 1060.23Z" fill="#E1EBF8"/>
<path d="M1751.92 826.615C1755.04 820.766 1758.18 814.848 1761.28 808.907C1759 802.375 1756.91 795.843 1755.18 789.447C1751.83 796.389 1748.35 803.331 1745.07 810.205C1744.37 811.616 1743.68 813.027 1743 814.415C1744.5 820.655 1746.39 826.797 1748.64 832.806L1751.92 826.615Z" fill="#E1EBF8"/>
<path d="M1716.73 1099.74C1719.42 1105.88 1722.04 1111.62 1724.7 1117.15C1726.79 1111.26 1729 1105.34 1731.28 1099.49C1728.36 1093.64 1725.57 1087.65 1722.72 1081.28C1720.72 1087.45 1718.71 1093.64 1716.73 1099.74Z" fill="#E1EBF8"/>
<path d="M1727.09 874.843C1725.45 868.789 1724.04 862.712 1722.88 856.635C1719.05 865.147 1715.53 873.5 1712.36 881.671C1713.23 887.725 1714.3 893.939 1715.64 900.175C1719.05 891.982 1722.92 883.515 1727.09 874.843Z" fill="#E1EBF8"/>
<path d="M1757.45 715.091C1759.09 711.039 1760.48 706.988 1761.69 702.937C1756.61 713.056 1752.12 723.46 1748.23 734.096C1748.23 734.824 1748.35 735.529 1748.39 736.258C1751.58 729.202 1754.65 722.124 1757.45 715.091Z" fill="#E1EBF8"/>
<path d="M1785.31 946.653C1785.7 947.267 1786.09 947.882 1786.45 948.496C1791.18 956.166 1795.85 963.723 1800.38 971.257C1804.36 964.679 1808.35 958.033 1812.26 951.387C1807.57 943.125 1802.63 934.726 1797.58 926.214C1793.85 932.518 1790.07 938.778 1786.34 944.991L1785.31 946.653Z" fill="#E1EBF8"/>
<path d="M1801.65 973.375C1806.2 980.773 1810.44 988.079 1814.49 995.271C1818.25 988.898 1821.91 982.442 1825.46 975.902C1821.75 968.55 1817.74 961.13 1813.51 953.597C1809.61 960.212 1805.66 966.805 1801.65 973.375Z" fill="#E1EBF8"/>
<path d="M1771.25 927.989C1767.15 921.161 1763.1 914.333 1759.18 907.664C1756.02 913.036 1752.92 918.384 1749.94 923.596C1753.64 930.364 1757.48 937.192 1761.46 944.081C1764.64 938.755 1767.92 933.406 1771.25 927.989Z" fill="#E1EBF8"/>
<path d="M1816.19 1098.24C1812.42 1104.31 1808.23 1110.66 1803.49 1117.47C1806.04 1122.86 1808.73 1128.55 1811.48 1134.34C1816.04 1127.51 1820.2 1121.16 1823.89 1114.99V1114.85C1821.47 1109.34 1818.9 1103.81 1816.19 1098.24Z" fill="#E1EBF8"/>
<path d="M1840.53 1051.94C1840.63 1052.2 1840.71 1052.46 1840.78 1052.72C1842.62 1058.64 1844.47 1064.71 1846.33 1070.81C1848.61 1065.4 1851.18 1059.66 1853.8 1053.47C1851.91 1047.26 1850 1040.93 1848.06 1034.65C1845.47 1040.75 1842.96 1046.48 1840.53 1051.94Z" fill="#E1EBF8"/>
<path d="M1830.51 1072.91C1830.72 1073.52 1830.95 1074.11 1831.15 1074.7C1832.97 1080.23 1834.82 1085.9 1836.66 1091.57C1839.46 1085.92 1842.17 1080.19 1844.94 1073.91C1843.01 1067.53 1841.07 1061.18 1839.16 1054.97C1836.32 1061.18 1833.52 1067.1 1830.51 1072.91Z" fill="#E1EBF8"/>
<path d="M1800.9 1117.26L1791.8 1097.74C1790.28 1094.5 1788.71 1091.33 1787.09 1088.22C1784.01 1093.64 1780.99 1099.35 1777.98 1105.54C1776.48 1108.68 1774.98 1112.14 1773.43 1115.81L1777.71 1122.64C1781.08 1127.93 1784.33 1133.09 1787.47 1138.11C1789.84 1133.51 1792.52 1129.07 1795.51 1124.84C1797.42 1122.2 1799.19 1119.7 1800.9 1117.26Z" fill="#E1EBF8"/>
<path d="M1745.87 883.29C1742.19 876.028 1739.09 868.486 1736.6 860.734C1734.14 865.56 1731.76 870.347 1729.46 875.096C1731.65 883.103 1734.32 890.97 1737.47 898.653C1740.2 893.585 1743 888.464 1745.87 883.29Z" fill="#E1EBF8"/>
<path d="M1786.79 808.406C1788.79 804.4 1790.75 800.394 1792.59 796.434C1793.46 794.59 1794.26 792.747 1795.03 790.926C1792.07 784.28 1789.23 777.679 1786.61 771.147C1786 769.63 1785.41 768.059 1784.83 766.436C1782.06 772.535 1779.12 778.703 1776.07 784.894C1776.59 786.192 1777.12 787.489 1777.69 788.786C1780.54 795.296 1783.57 801.836 1786.79 808.406Z" fill="#E1EBF8"/>
<path d="M1748.69 921.367C1751.72 916.086 1754.76 910.776 1757.79 905.434C1754.01 898.804 1750.41 892.226 1746.98 885.701C1744.09 890.936 1741.25 896.148 1738.49 901.315C1739.72 904.092 1740.97 906.846 1742.34 909.531C1744.46 913.446 1746.55 917.384 1748.69 921.367Z" fill="#E1EBF8"/>
<path d="M1772.4 1118.36C1768.92 1127.07 1765.58 1136.82 1762.28 1146.69C1764.05 1149.24 1765.89 1151.84 1767.85 1154.52C1770.4 1158.07 1773.04 1162.06 1775.73 1166.29C1778.7 1157.45 1782.24 1148.81 1786.31 1140.41C1782.96 1135.06 1779.48 1129.51 1775.86 1123.82L1772.4 1118.36Z" fill="#E1EBF8"/>
<path d="M1760.14 946.244C1756.2 939.416 1752.35 932.747 1748.76 926.01C1743.75 934.932 1739.11 943.74 1734.94 952.389C1738.38 958.739 1741.97 965.135 1745.64 971.508C1750.1 963.177 1755.02 954.802 1760.14 946.244Z" fill="#E1EBF8"/>
<path d="M1823.6 879.373C1828.26 888.317 1832.7 897.126 1836.89 905.775C1839 900.722 1840.83 895.646 1842.37 890.616C1838.55 881.944 1834.43 873.136 1830.15 864.191C1828.23 869.363 1826.05 874.43 1823.6 879.373Z" fill="#E1EBF8"/>
<path d="M1815.83 800.1C1811.53 791.155 1807.34 782.187 1803.41 773.288C1801.78 779.268 1799.8 785.143 1797.46 790.882C1801.2 799.235 1805.14 807.633 1809.16 815.918C1811.68 810.776 1813.91 805.495 1815.83 800.1Z" fill="#E1EBF8"/>
<path d="M1826.92 930.267C1830.74 937.429 1834.35 944.5 1837.75 951.479C1839.14 948.452 1840.53 945.425 1841.87 942.375C1843.42 938.825 1844.76 935.229 1845.95 931.587C1843.21 924.895 1840.19 918.067 1836.84 911.103C1835.7 913.561 1834.57 915.996 1833.22 918.431C1831.24 922.392 1829.1 926.329 1826.92 930.267Z" fill="#E1EBF8"/>
<path d="M1786.17 763.478C1786.95 765.754 1787.77 768.03 1788.68 770.306C1790.95 776.156 1793.55 782.073 1796.17 788.037C1798.48 782.156 1800.43 776.135 1801.99 770.01C1799.99 765.458 1798.05 760.906 1796.23 756.354C1794.96 753.122 1793.82 749.89 1792.77 746.658C1791.31 751.193 1789.63 755.652 1787.72 760.019C1787.22 761.179 1786.7 762.34 1786.17 763.478Z" fill="#E1EBF8"/>
<path d="M1855.98 960.901C1854.23 967.32 1852.27 973.67 1850.11 979.792C1852.38 985.892 1854.43 991.924 1856.09 997.864C1856.59 999.594 1857.07 1001.32 1857.55 1003.08C1859.3 996.84 1860.76 990.513 1861.92 984.276C1860.14 977.198 1858.37 970.119 1856.62 963.223C1856.41 962.404 1856.28 961.63 1855.98 960.901Z" fill="#E1EBF8"/>
<path d="M1839 954.074C1842.64 961.661 1845.93 969.157 1848.86 976.561C1851.13 970.097 1853.07 963.383 1854.82 956.623C1852.73 949.476 1850.15 942.193 1847.22 934.796C1846.22 937.641 1845.12 940.463 1843.9 943.263C1842.3 946.935 1840.67 950.539 1839 954.074Z" fill="#E1EBF8"/>
<path d="M1858.69 1007.08C1860.49 1013.5 1862.28 1020.01 1864.06 1026.48C1864.2 1026 1864.35 1025.54 1864.49 1025.06C1864.29 1013.21 1863.85 1001.26 1863.19 989.308C1861.96 995.248 1860.46 1001.21 1858.69 1007.08Z" fill="#E1EBF8"/>
<path d="M1853.25 1022.35L1849.45 1031.46C1851.36 1037.72 1853.3 1044.02 1855.19 1050.26C1855.94 1048.48 1856.69 1046.66 1857.46 1044.82C1859.4 1040.27 1861.2 1035.3 1862.81 1030.37C1861.06 1023.92 1859.26 1017.44 1857.46 1011.02C1856.28 1014.84 1854.82 1018.64 1853.25 1022.35Z" fill="#E1EBF8"/>
<path d="M1726.54 805.948C1726.18 807.473 1725.79 808.998 1725.43 810.5C1725.86 809.613 1726.25 808.771 1726.68 807.906L1726.54 805.948Z" fill="#E1EBF8"/>
<path d="M1857.21 922.004C1856.43 915.54 1855.59 909.098 1854.7 902.726C1854.34 905.593 1853.88 908.484 1853.34 911.375C1854.7 914.955 1855.99 918.499 1857.21 922.004Z" fill="#E1EBF8"/>
<path d="M1738.38 784.168C1742.04 776.702 1745.68 769.169 1749.23 761.635C1748.28 755.74 1747.53 750.096 1746.96 744.838C1744.23 750.71 1741.43 756.582 1738.61 762.454C1738.38 763.183 1738.15 763.911 1737.95 764.73C1737.92 770.694 1737.92 777.249 1738.38 784.168Z" fill="#E1EBF8"/>
<path d="M1824.16 1161.06C1827.87 1168.89 1831.47 1176.46 1834.79 1183.43C1838.14 1178.58 1841.19 1173.96 1843.9 1169.52C1841.19 1161.1 1838.18 1152.29 1834.98 1143.46C1831.77 1149.13 1828.17 1154.93 1824.16 1161.06Z" fill="#E1EBF8"/>
<path d="M1733.37 794.319L1736.44 788.083C1735.94 782.552 1735.71 777.249 1735.67 772.15C1733.17 780.617 1730.72 789.486 1728.34 798.757C1728.34 800.442 1728.52 802.171 1728.64 803.901L1733.37 794.319Z" fill="#E1EBF8"/>
<path d="M1829.99 824.045C1831.94 828.005 1833.86 831.92 1835.77 835.812C1837.09 829.143 1838.04 822.633 1838.66 816.42L1837.7 814.44C1835.95 810.912 1834.22 807.361 1832.47 803.811C1831.7 810.007 1830.57 816.155 1829.1 822.224L1829.99 824.045Z" fill="#E1EBF8"/>
<path d="M1716.07 1150.2C1712.57 1161.58 1709.63 1171.64 1707.4 1179.63C1707.65 1181.18 1707.9 1182.75 1708.18 1184.18H1723.52C1724.4 1179.9 1725.43 1175.21 1726.66 1170.21C1722.86 1163.63 1719.42 1157.03 1716.07 1150.2Z" fill="#E1EBF8"/>
<path d="M1855.8 1102.02C1857.73 1108.41 1859.6 1114.63 1861.35 1120.47C1862.29 1109.22 1863.05 1097.62 1863.63 1085.67C1863.51 1085.33 1863.42 1085.01 1863.33 1084.67C1860.67 1090.91 1858.21 1096.62 1855.8 1102.02Z" fill="#E1EBF8"/>
<path d="M1762.59 731.75C1762.2 723.33 1762.31 714.893 1762.93 706.486C1761.91 709.673 1760.8 712.836 1759.52 716C1756.22 724.194 1752.69 732.501 1748.8 740.855C1749.3 746.203 1750.01 751.962 1750.92 758.039C1755.04 749.23 1758.97 740.422 1762.59 731.75Z" fill="#E1EBF8"/>
<path d="M1766.28 760.336C1764.66 752.557 1763.55 744.68 1762.96 736.756C1759.41 745.109 1755.59 753.53 1751.58 761.974C1752.7 768.803 1754.08 775.631 1755.86 782.959C1759.43 775.403 1762.96 767.847 1766.28 760.336Z" fill="#E1EBF8"/>
<path d="M1778.66 729.292C1781.84 718.91 1783.95 708.234 1784.97 697.427C1784.97 691.623 1784.97 686.047 1785.4 680.789C1784.09 679.703 1782.63 678.799 1781.08 678.104C1780.67 678.297 1780.27 678.518 1779.89 678.764C1777.34 695.486 1776.93 712.465 1778.66 729.292Z" fill="#E1EBF8"/>
<path d="M1703.89 1075.41C1701.91 1070.72 1700.07 1065.87 1698.32 1060.91C1697.97 1062.06 1697.63 1063.2 1697.29 1064.32C1697.59 1077.02 1698.14 1089.36 1698.86 1101.4C1700.91 1094.57 1703.12 1087.15 1705.51 1079.26L1703.89 1075.41Z" fill="#E1EBF8"/>
<path d="M1699.71 1113.51C1700.34 1121.98 1701.07 1130.24 1701.98 1138.32C1703.12 1134.75 1704.32 1131.03 1705.58 1127.14C1703.64 1122.82 1701.71 1118.29 1699.71 1113.51Z" fill="#E1EBF8"/>
<path d="M1705.92 928.081C1705.53 926.305 1705.19 924.53 1704.85 922.755C1704.12 928.536 1703.42 934.317 1702.78 940.144C1703.39 937.708 1704.01 935.273 1704.6 932.883C1705.01 931.313 1705.47 929.674 1705.92 928.081Z" fill="#E1EBF8"/>
<path d="M1715.68 1102.95C1713 1111.23 1710.38 1119.38 1707.9 1127.03C1710.54 1133.11 1713.09 1138.77 1715.64 1144.19C1718.07 1136.48 1720.78 1128.26 1723.67 1120.09C1720.99 1114.58 1718.37 1108.84 1715.68 1102.95Z" fill="#E1EBF8"/>
<path d="M1857.6 1156.3C1857.89 1153.91 1858.19 1151.52 1858.49 1149.08C1857.83 1150.33 1857.17 1151.56 1856.48 1152.79C1856.85 1153.98 1857.23 1155.14 1857.6 1156.3Z" fill="#E1EBF8"/>
<path d="M1717.03 1147.15C1720.35 1153.98 1723.72 1160.6 1727.43 1167.22C1729.46 1159.21 1731.98 1150.45 1734.9 1141.23C1731.37 1135.09 1728.07 1129.08 1725.06 1122.89C1722.15 1131.24 1719.46 1139.41 1717.03 1147.15Z" fill="#E1EBF8"/>
<path d="M1706.88 1130.22C1705.35 1135 1703.87 1139.52 1702.51 1143.87C1703.69 1154.49 1705.05 1164.69 1706.58 1174.46C1708.86 1166.72 1711.48 1157.48 1714.66 1147.38C1712.07 1141.85 1709.5 1136.16 1706.88 1130.22Z" fill="#E1EBF8"/>
<path d="M1706.85 1082.46C1704.17 1091.43 1701.66 1099.83 1699.46 1107.23C1701.96 1113.17 1704.33 1118.61 1706.56 1123.93C1709.04 1116.24 1711.68 1108.12 1714.34 1099.88C1711.93 1094.41 1709.47 1088.66 1706.85 1082.46Z" fill="#E1EBF8"/>
<path d="M1798.74 697.541L1797.21 695.015C1797.44 698.816 1797.78 702.685 1798.28 706.622C1798.51 703.527 1798.65 700.5 1798.74 697.541Z" fill="#E1EBF8"/>
<path d="M1855.87 952.458C1857.02 947.724 1858.09 943.02 1859.08 938.346C1858.89 936.753 1858.74 935.137 1858.55 933.544C1856.81 927.626 1854.81 921.617 1852.54 915.518C1851.42 920.898 1850.01 926.216 1848.33 931.45C1851.2 938.581 1853.71 945.584 1855.87 952.458Z" fill="#E1EBF8"/>
<path d="M1736.4 1143.8C1733.42 1153.13 1731 1162.01 1729.02 1170.05C1731.69 1174.6 1734.53 1179.4 1737.67 1184.29H1748.69C1749.99 1179.74 1751.4 1174.64 1752.92 1169.48C1746.53 1160.26 1741.15 1151.88 1736.4 1143.8Z" fill="#E1EBF8"/>
<path d="M1774.7 740.58C1775.54 738.486 1776.32 736.37 1776.98 734.276C1775.27 721.452 1774.86 708.489 1775.75 695.583C1773.95 706.199 1771.04 716.596 1767.08 726.605L1764.8 732.136C1765.22 740.435 1766.22 748.694 1767.78 756.854C1770.24 751.505 1772.54 745.952 1774.7 740.58Z" fill="#E1EBF8"/>
<path d="M1802.86 766.391C1804.37 759.81 1805.5 753.145 1806.23 746.43L1805.95 745.725C1802.89 738.061 1800.46 730.16 1798.69 722.1C1797.57 729.138 1795.99 736.095 1793.96 742.925C1795.21 747.113 1796.64 751.301 1798.31 755.489C1799.76 759.085 1801.28 762.719 1802.86 766.391Z" fill="#E1EBF8"/>
<path d="M1792.8 738.875C1794.86 731.2 1796.38 723.389 1797.35 715.5C1795.96 707.509 1795.12 699.433 1794.82 691.328C1792.82 688.339 1790.53 685.549 1787.99 682.998C1787.99 687.55 1787.68 692.466 1787.2 697.383C1787.37 711.39 1789.25 725.324 1792.8 738.875Z" fill="#E1EBF8"/>
<path d="M1808.48 746.066C1812.6 756.24 1817.2 766.55 1822.14 776.952C1823.21 771.489 1823.98 766.118 1824.41 760.906C1820.16 746.845 1815.2 733.011 1809.53 719.459C1809.77 728.341 1809.42 737.23 1808.48 746.066Z" fill="#E1EBF8"/>
<path d="M1809.07 1178.92C1805.34 1172.1 1801.47 1165.4 1797.69 1158.9C1793.27 1167 1789.46 1175.43 1786.31 1184.11V1184.3H1805.43C1806.57 1182.43 1807.71 1180.63 1808.98 1178.95L1809.07 1178.92Z" fill="#E1EBF8"/>
<path d="M1844.74 890.345C1847.22 896.058 1849.61 901.725 1851.79 907.233C1852.52 902.681 1853.08 898.228 1853.46 893.873C1852.3 885.952 1851.07 878.13 1849.75 870.407C1849.75 870.225 1849.59 870.043 1849.5 869.838C1848.32 876.761 1846.73 883.609 1844.74 890.345Z" fill="#E1EBF8"/>
<path d="M1827.56 819.059C1828.97 812.814 1830.01 806.491 1830.67 800.123C1828.06 794.728 1825.44 789.312 1822.87 783.895C1821.61 789.198 1820.09 794.569 1818.31 799.941C1821.35 806.359 1824.43 812.732 1827.56 819.059Z" fill="#E1EBF8"/>
<path d="M1816.85 797.026C1818.67 791.642 1820.19 786.164 1821.41 780.616C1816.67 770.533 1812.14 760.473 1808.05 750.572C1807.2 757.031 1805.99 763.437 1804.43 769.759C1808.27 778.818 1812.51 787.922 1816.85 797.026Z" fill="#E1EBF8"/>
<path d="M1837.27 808.407C1836.02 803.195 1834.77 798.051 1833.5 793.044C1833.36 795.206 1833.18 797.391 1832.95 799.622C1834.38 802.626 1835.79 805.562 1837.27 808.407Z" fill="#E1EBF8"/>
<path d="M1785.72 759.107C1788.01 753.839 1789.99 748.443 1791.66 742.947C1788.51 732.081 1786.48 720.925 1785.58 709.648C1784.18 718.081 1782.1 726.386 1779.35 734.48C1780.55 743.246 1782.49 751.895 1785.15 760.336L1785.72 759.107Z" fill="#E1EBF8"/>
<path d="M1854.44 1105.23C1851.8 1111.08 1849.22 1116.61 1846.56 1122L1855.55 1149.93C1856.8 1147.65 1858.01 1145.37 1859.19 1143.1C1859.78 1137.71 1860.33 1132.23 1860.83 1126.64C1858.85 1119.93 1856.69 1112.74 1854.44 1105.23Z" fill="#E1EBF8"/>
<path d="M1746.42 739.124C1745.64 741.286 1744.87 743.471 1744.14 745.702C1744.94 743.949 1745.76 742.197 1746.55 740.467C1746.48 740.125 1746.46 739.579 1746.42 739.124Z" fill="#E1EBF8"/>
<path d="M1806.73 741.446C1807.48 732.286 1807.61 723.084 1807.12 713.906C1805.02 709.354 1802.93 705.128 1800.83 701.229C1800.61 705.781 1800.22 710.56 1799.63 715.408C1801.21 724.282 1803.59 732.996 1806.73 741.446Z" fill="#E1EBF8"/>
<path d="M1764.65 726.81L1765.08 725.763C1770.56 711.867 1774.02 697.259 1775.37 682.382C1771.93 686.077 1768.92 690.146 1766.4 694.513C1764.98 705.217 1764.39 716.015 1764.65 726.81Z" fill="#E1EBF8"/>
<path d="M1870.18 529L1909.47 1184.89H1803.97L1870.18 529Z" fill="#E1EBF8"/>
<path d="M1883.27 529.772L1874.3 1184.89H1939.37L1883.27 529.772Z" fill="#E1EBF8"/>
<path d="M1892.44 656.185H1880.65" stroke="white" stroke-miterlimit="10"/>
<path d="M1894.7 672.186H1880.65" stroke="white" stroke-miterlimit="10"/>
<path d="M1894.7 688.209H1880.65" stroke="white" stroke-miterlimit="10"/>
<path d="M1896.93 704.233H1880.65" stroke="white" stroke-miterlimit="10"/>
<path d="M1899.18 720.254H1878.42" stroke="white" stroke-miterlimit="10"/>
<path d="M1899.18 736.279H1878.42" stroke="white" stroke-miterlimit="10"/>
<path d="M1901.41 752.302H1878.42" stroke="white" stroke-miterlimit="10"/>
<path d="M1903.66 768.326H1882.9" stroke="white" stroke-miterlimit="10"/>
<path d="M1903.66 784.348H1882.9" stroke="white" stroke-miterlimit="10"/>
<path d="M1905.91 800.371H1882.9" stroke="white" stroke-miterlimit="10"/>
<path d="M1905.91 816.395H1882.9" stroke="white" stroke-miterlimit="10"/>
<path d="M1908.14 832.417H1882.9" stroke="white" stroke-miterlimit="10"/>
<path d="M1908.14 848.441H1882.9" stroke="white" stroke-miterlimit="10"/>
<path d="M1910.4 864.465H1882.9" stroke="white" stroke-miterlimit="10"/>
<path d="M1912.63 880.466H1882.9" stroke="white" stroke-miterlimit="10"/>
<path d="M1914.88 896.489H1882.9" stroke="white" stroke-miterlimit="10"/>
<path d="M1914.88 912.513H1882.9" stroke="white" stroke-miterlimit="10"/>
<path d="M1917.13 928.535H1882.9" stroke="white" stroke-miterlimit="10"/>
<path d="M1917.13 944.561H1882.9" stroke="white" stroke-miterlimit="10"/>
<path d="M1919.36 960.583H1882.9" stroke="white" stroke-miterlimit="10"/>
<path d="M1919.36 976.606H1882.9" stroke="white" stroke-miterlimit="10"/>
<path d="M1921.62 992.628H1882.9" stroke="white" stroke-miterlimit="10"/>
<path d="M1921.62 1008.65H1882.9" stroke="white" stroke-miterlimit="10"/>
<path d="M1923.85 1024.67H1882.9" stroke="white" stroke-miterlimit="10"/>
<path d="M1923.85 1040.7H1882.9" stroke="white" stroke-miterlimit="10"/>
<path d="M1926.1 1056.72H1882.9" stroke="white" stroke-miterlimit="10"/>
<path d="M1928.35 1072.75H1882.9" stroke="white" stroke-miterlimit="10"/>
<path d="M1930.59 1088.75H1882.9" stroke="white" stroke-miterlimit="10"/>
<path d="M1930.59 1104.77H1882.9" stroke="white" stroke-miterlimit="10"/>
<path d="M1932.84 1120.79H1882.9" stroke="white" stroke-miterlimit="10"/>
<path d="M1935.07 1136.82H1882.9" stroke="white" stroke-miterlimit="10"/>
<path d="M1935.07 1152.84H1882.9" stroke="white" stroke-miterlimit="10"/>
<path d="M1892.44 638.363H1880.65" stroke="white" stroke-miterlimit="10"/>
<path d="M1890.19 620.563H1880.65" stroke="white" stroke-miterlimit="10"/>
<path d="M1887.96 602.768H1880.65" stroke="white" stroke-miterlimit="10"/>
<path d="M1887.96 584.968H1882.9" stroke="white" stroke-miterlimit="10"/>
<path d="M1885.7 567.168H1882.9" stroke="white" stroke-miterlimit="10"/>
<path d="M1880.29 715.315L1844.76 1184.89H1916.57L1880.29 715.315Z" fill="#E1EBF8"/>
<path d="M24.4818 813.936C34.1378 813.936 41.9656 805.94 41.9656 796.076C41.9656 786.212 34.1378 778.216 24.4818 778.216C14.8258 778.216 6.99805 786.212 6.99805 796.076C6.99805 805.94 14.8258 813.936 24.4818 813.936Z" fill="#E1EBF8"/>
<path d="M53.4763 768.146H-4.50781V824.139H53.4763V768.146ZM24.4843 819.624C19.8293 819.721 15.2511 818.429 11.3333 815.913C7.41561 813.397 4.33598 809.772 2.48719 805.498C0.638401 801.225 0.104238 796.498 0.952827 791.92C1.80142 787.342 3.9943 783.121 7.25181 779.794C10.5093 776.468 14.6838 774.187 19.243 773.242C23.8021 772.298 28.5393 772.732 32.8503 774.491C37.1613 776.25 40.8508 779.253 43.4483 783.117C46.0457 786.981 47.4335 791.531 47.4345 796.187C47.4641 802.318 45.0676 808.211 40.7679 812.581C36.4683 816.951 30.6145 819.443 24.4843 819.513V819.624Z" fill="#E1EBF8"/>
<path d="M65.2697 746.015V728H71.4665V711.335H66.3763V698.831H64.3402V711.335H56.6385C54.6909 705.205 56.4614 698.897 45.7277 681.126H52.5221V674.885H45.3515V658.22H52.4778V651.957H50.2647V638.434H48.2286V651.957H43.2933C40.0337 645.451 37.3028 638.694 35.1268 631.751C30.5899 618.162 27.3144 606.698 25.6103 600.413H28.9522V595.522H25.4333V583.46C25.9576 583.242 26.4055 582.873 26.7206 582.4C27.0357 581.927 27.2038 581.372 27.2038 580.804C27.2038 580.236 27.0357 579.681 26.7206 579.208C26.4055 578.736 25.9576 578.367 25.4333 578.148V574.187C25.6613 574.027 25.8483 573.815 25.9791 573.569C26.1099 573.323 26.1807 573.049 26.1857 572.771C26.1857 572.301 25.9992 571.851 25.6672 571.519C25.3351 571.187 24.8848 571 24.4152 571C23.9457 571 23.4953 571.187 23.1633 571.519C22.8313 571.851 22.6447 572.301 22.6447 572.771C22.6498 573.049 22.7206 573.323 22.8514 573.569C22.9821 573.815 23.1691 574.027 23.3972 574.187V578.148C22.8729 578.367 22.425 578.736 22.1099 579.208C21.7948 579.681 21.6267 580.236 21.6267 580.804C21.6267 581.372 21.7948 581.927 22.1099 582.4C22.425 582.873 22.8729 583.242 23.3972 583.46V595.522H20.0111V600.479H22.7554C20.8964 607.118 17.3553 619.158 13.1504 631.817C10.9835 638.716 8.36638 645.466 5.31587 652.023H0.69042V638.501H-1.34566V652.023H-3.5588V658.286H3.58963V674.951H-3.5588V681.192H3.08061C0.140162 691.503 -3.51293 701.597 -7.85229 711.401H-15.2884V698.897H-17.3245V711.401H-22.4147V728.066H-16.2179V746.015H-26V846.026H-16.2179V1180.12H65.2697V846.093H75.0518V746.015H65.2697ZM-0.947296 1163.46H-3.16043V850.032H-0.947296V1163.46ZM12.3315 1163.46H10.1184V850.032H12.3315V1163.46ZM25.6103 1163.46H23.3972V850.032H25.6103V1163.46ZM38.8891 1163.46H36.676V850.032H38.8891V1163.46ZM52.168 1163.46H49.9548V850.032H52.168V1163.46ZM55.6426 826.352H-6.67932V765.933H55.6426V826.352Z" fill="#E1EBF8"/>
<path d="M295.473 111.163C290.598 103.704 281.373 106.74 274.695 109.693C273.502 106.948 271.695 104.518 269.413 102.593C267.132 100.669 264.439 99.3028 261.546 98.6015C253.518 96.3415 245.023 98.5044 237.216 100.612C237.601 89.0208 226.572 80.6326 215.915 79.2322C201.636 77.3743 188.597 87.0243 177.953 95.3709C174.47 90.9619 166.649 92.1404 164.639 97.4229C160.158 94.7888 154.869 93.9137 149.787 94.9654C144.704 96.017 140.187 98.9215 137.1 103.121C136.212 100.177 134.411 97.5962 131.96 95.7574C129.51 93.9185 126.539 92.9182 123.483 92.903C121.485 92.979 119.528 93.4921 117.747 94.4067C115.966 95.3214 114.404 96.6156 113.17 98.1994C111.797 97.4879 110.235 97.2307 108.709 97.4645C107.6 97.6832 106.546 98.1205 105.606 98.7512C104.666 99.3818 103.859 100.193 103.232 101.139C102.605 102.085 102.17 103.147 101.952 104.263C101.734 105.378 101.737 106.527 101.962 107.641C95.2699 107.905 85.012 112.272 88.826 120.702C89.7582 122.494 91.1366 124.011 92.8262 125.105C94.5159 126.198 96.4587 126.831 98.4644 126.941C103.972 127.302 109.025 124.321 113.61 121.506C115.139 127.052 120.495 130.283 126.003 130.865C133.837 131.697 140.942 126.858 147.069 122.546C149.507 125.701 152.913 127.955 156.755 128.958C160.598 129.961 164.662 129.657 168.315 128.092C169.153 127.703 169.955 127.239 170.711 126.706C171.069 126.47 172.088 125.319 172.446 125.319C173.148 125.319 175.392 127.953 176.04 128.453C177.583 129.657 179.233 130.715 180.969 131.614C193.843 138.283 210.669 136.439 221.23 126.317C223.433 132.224 228.94 136.023 234.999 137.409C243.715 139.378 252.637 136.023 260.788 133.25C270.317 129.936 279.886 126.692 289.401 123.323C292.154 122.324 295.431 121.118 296.643 118.109C297.01 116.941 297.096 115.702 296.892 114.494C296.689 113.286 296.202 112.144 295.473 111.163Z" fill="#E1EBF8"/>
<path d="M1805.77 247.609C1804.92 244.927 1802.31 243.741 1800.13 242.83C1796.67 241.392 1792.93 240.723 1789.17 240.87C1787.71 240.938 1786.26 241.128 1784.83 241.437C1782.44 241.953 1779.9 243.328 1777.44 242.795C1773.98 242.056 1772.25 237.81 1769.63 235.592C1767.32 233.783 1764.59 232.572 1761.69 232.068C1755.29 230.779 1748.73 231.466 1742.37 229.661C1736.66 228.045 1730.59 224.899 1724.58 225.811C1722.33 226.169 1720.27 227.301 1718.77 229.008C1717.98 227.302 1716.77 225.817 1715.27 224.685C1713.76 223.553 1711.99 222.809 1710.12 222.52C1708.25 222.231 1706.34 222.405 1704.56 223.027C1702.78 223.649 1701.18 224.7 1699.9 226.086C1698.64 224.109 1696.87 222.504 1694.78 221.438C1692.68 220.371 1690.34 219.883 1687.99 220.024C1685.64 220.164 1683.37 220.928 1681.42 222.236C1679.47 223.545 1677.91 225.349 1676.9 227.461C1673.9 228.165 1671.13 229.628 1668.87 231.707C1667.9 232.591 1667.04 233.583 1666.31 234.664C1665.98 235.123 1665.68 235.599 1665.41 236.091C1664.89 237.036 1665.01 237.191 1664.07 237.088C1662.69 236.95 1661.3 236.211 1659.87 236.057C1658.31 235.89 1656.74 235.948 1655.19 236.228C1651.8 237.02 1648.66 238.679 1646.11 241.042C1643.6 243.036 1641.57 242.348 1638.98 241.042C1637.69 240.358 1636.31 239.86 1634.87 239.563C1632.11 239.062 1629.27 239.283 1626.62 240.205C1623.97 241.128 1621.61 242.719 1619.77 244.824C1618.21 246.543 1616.3 249.345 1617.26 251.993C1618.21 254.64 1621.32 255.207 1623.3 255.964C1629.76 258.64 1636.65 260.182 1643.65 260.519C1646.9 260.617 1650.15 260.264 1653.31 259.471C1654.92 259.032 1656.49 258.457 1658 257.752C1659.45 257.081 1660.78 256.033 1662.22 255.345C1663.66 254.657 1664.64 256.29 1665.82 257.064C1667.13 257.928 1668.52 258.665 1669.98 259.264C1672.97 260.461 1676.11 261.225 1679.32 261.534C1686.9 262.393 1694.6 261.534 1702.18 261.001C1710.84 260.416 1719.49 259.849 1728.15 258.903C1732.37 258.456 1737.04 257.184 1741.25 258.164C1744.52 258.938 1747.24 261.241 1750.6 261.774C1763.11 263.803 1773.55 251.46 1785.99 252.44C1791.77 252.921 1798.4 258.989 1803.78 254.021C1804.7 253.253 1805.37 252.241 1805.72 251.104C1806.07 249.968 1806.09 248.755 1805.77 247.609Z" fill="#E1EBF8"/>
<path d="M352.665 982.967V978.656H347.251V972.308H342.7C342.481 972.121 342.273 971.921 342.077 971.709C341.407 970.847 342.628 970.871 343.012 970.224C343.395 969.577 343.155 969.625 343.012 969.146C342.868 968.308 342.221 970.08 343.012 967.997C343.012 967.805 343.275 967.661 343.323 967.446C343.564 966.83 343.564 966.145 343.323 965.529C343.094 965.015 342.673 964.611 342.149 964.404C342.165 964.187 342.137 963.969 342.067 963.764C341.997 963.558 341.886 963.368 341.742 963.206C341.55 963.038 340.976 962.966 340.88 962.847C340.784 962.727 341.143 962.176 341.263 961.912C341.442 961.45 341.442 960.938 341.263 960.475C341.488 960.213 341.653 959.906 341.748 959.574C341.843 959.242 341.865 958.893 341.813 958.552C341.761 958.211 341.635 957.885 341.445 957.597C341.255 957.309 341.005 957.065 340.712 956.882C339.247 957.865 337.744 958.792 336.209 959.661V927.755H330.244V908.305H328.496V862.554H329.598V850.577H314.387V834.768H317.765V833.451H314.387V826.72H316.088V825.187H314.387V823.103H316.088V821.785H311.297L309.836 810.432C309.779 808.979 309.363 807.564 308.628 806.311C307.893 805.057 306.86 804.004 305.621 803.246C305.756 803.146 305.865 803.017 305.94 802.867C306.015 802.717 306.054 802.551 306.052 802.383V802.192C306.055 802.048 306.029 801.905 305.977 801.772C305.924 801.638 305.845 801.517 305.745 801.414C305.644 801.311 305.524 801.23 305.392 801.174C305.26 801.118 305.117 801.09 304.974 801.09H304.375C304.547 800.655 304.637 800.192 304.638 799.724C304.638 799.076 304.456 798.441 304.113 797.89C303.77 797.34 303.28 796.897 302.698 796.61C302.977 796.39 303.204 796.11 303.361 795.791C303.519 795.472 303.603 795.122 303.608 794.766C303.603 794.416 303.52 794.072 303.367 793.758C303.214 793.443 302.994 793.166 302.722 792.946V788.155H302.291C302.862 787.914 303.331 787.484 303.621 786.936C303.91 786.389 304.001 785.758 303.879 785.151C303.756 784.544 303.427 783.998 302.948 783.606C302.468 783.214 301.868 783 301.249 783C300.63 783 300.03 783.214 299.55 783.606C299.071 783.998 298.742 784.544 298.62 785.151C298.497 785.758 298.588 786.389 298.877 786.936C299.167 787.484 299.636 787.914 300.207 788.155H299.776V792.946C299.504 793.166 299.284 793.443 299.131 793.758C298.978 794.072 298.896 794.416 298.89 794.766C298.895 795.122 298.979 795.472 299.137 795.791C299.294 796.11 299.521 796.39 299.8 796.61C299.222 796.901 298.734 797.345 298.392 797.895C298.05 798.444 297.866 799.077 297.86 799.724C297.858 800.195 297.956 800.66 298.147 801.09H297.476C297.333 801.09 297.191 801.118 297.058 801.174C296.926 801.23 296.806 801.311 296.706 801.414C296.605 801.517 296.526 801.638 296.474 801.772C296.421 801.905 296.395 802.048 296.398 802.192V802.383C296.401 802.553 296.444 802.719 296.523 802.869C296.602 803.019 296.715 803.148 296.854 803.246C295.611 804.003 294.575 805.055 293.835 806.308C293.096 807.562 292.676 808.978 292.614 810.432L291.153 821.785H286.362V823.103H288.063V825.187H286.362V826.528H288.063V833.259H284.685V834.768H288.063V850.817H272.996V862.794H274.098V908.544H272.349V927.971H266.457V964.763C265.379 964.475 264.061 963.613 263.367 964.475C263.238 964.3 263.06 964.166 262.856 964.089C262.652 964.013 262.43 963.997 262.217 964.044C261.331 964.284 261.499 965.29 261.163 965.984C260.828 966.679 260.061 966.679 259.798 967.422C259.534 968.164 259.942 968.14 259.918 968.523C259.894 968.907 259.918 968.811 259.726 969.218C259.486 970.057 258.744 971.398 259.391 972.308C259.476 972.393 259.573 972.466 259.678 972.524H243.869V964.188H241.066C241.507 963.628 241.781 962.956 241.857 962.248C242.166 961.313 242.382 960.35 242.503 959.373C242.503 958.224 241.785 957.385 241.665 956.331C242.121 956.047 242.554 955.727 242.959 955.373C243.749 954.583 243.653 954.008 243.533 952.978C243.414 951.948 243.773 951.181 243.198 950.295C242.623 949.409 241.354 948.954 240.563 948.115C240.826 947.749 241.002 947.328 241.077 946.884C241.151 946.44 241.123 945.984 240.994 945.552C240.843 945.083 240.533 944.681 240.118 944.415C239.703 944.148 239.209 944.034 238.719 944.091C238.248 944.15 237.805 944.348 237.447 944.66C237.089 944.971 236.831 945.382 236.707 945.84C236.586 946.151 236.563 946.492 236.64 946.817C236.717 947.142 236.891 947.436 237.138 947.66C236.967 948.033 236.658 948.325 236.276 948.475C236.132 948.475 235.964 948.475 235.797 948.475C235.629 948.475 235.461 948.738 235.27 948.906L234.982 949.121V928.593H239.222V923.803H235.198V916.808H219.221V900.28H221.161V894.005H216.778C216.699 885.704 214.107 877.621 209.344 870.823C204.58 864.024 197.869 858.828 190.094 855.919V853.667H188.824V848.278H183.554V835.319H186.189V831.223H182.668V822.552C182.732 822.366 182.732 822.163 182.668 821.977C182.625 820.934 182.325 819.918 181.794 819.02C181.264 818.121 180.519 817.368 179.626 816.827C179.726 816.756 179.809 816.663 179.867 816.555C179.925 816.447 179.958 816.327 179.961 816.204V816.061C179.961 815.851 179.878 815.65 179.73 815.502C179.582 815.353 179.38 815.27 179.171 815.27H178.716C178.841 814.966 178.906 814.641 178.907 814.312C178.918 813.846 178.792 813.387 178.545 812.991C178.298 812.595 177.941 812.28 177.518 812.084C177.719 811.923 177.882 811.719 177.994 811.487C178.106 811.255 178.164 811.001 178.165 810.743C178.16 810.492 178.102 810.244 177.995 810.017C177.888 809.79 177.733 809.588 177.542 809.426V807.246C178.01 807.031 178.404 806.682 178.672 806.242C178.941 805.802 179.072 805.292 179.048 804.778C179.025 804.263 178.849 803.767 178.542 803.353C178.235 802.94 177.812 802.627 177.327 802.455V798.838H180.991V797.113H177.422V793.353H175.722V797.113H172.057V798.838H175.722V802.311C175.236 802.483 174.813 802.796 174.506 803.21C174.199 803.624 174.023 804.119 174 804.634C173.976 805.149 174.107 805.658 174.376 806.098C174.644 806.538 175.038 806.887 175.506 807.102V809.282C175.315 809.445 175.16 809.646 175.053 809.874C174.946 810.101 174.888 810.348 174.883 810.599C174.884 810.857 174.942 811.111 175.054 811.343C175.166 811.575 175.329 811.78 175.53 811.941C175.107 812.136 174.75 812.451 174.503 812.847C174.256 813.243 174.13 813.702 174.141 814.168C174.142 814.497 174.207 814.822 174.332 815.126H173.853C173.751 815.126 173.649 815.147 173.554 815.187C173.46 815.227 173.374 815.286 173.303 815.359C173.231 815.433 173.175 815.52 173.138 815.616C173.101 815.712 173.084 815.814 173.087 815.917V816.061C173.09 816.183 173.123 816.303 173.181 816.412C173.239 816.52 173.322 816.613 173.422 816.683C172.529 817.224 171.785 817.977 171.254 818.876C170.723 819.775 170.423 820.791 170.38 821.833C170.38 821.833 170.38 822.025 170.38 822.121C170.38 822.217 170.38 822.312 170.38 822.408V831.079H166.883V835.175H169.518V848.134H164.248V853.524H162.978V855.775C155.203 858.686 148.49 863.882 143.723 870.679C138.956 877.477 136.358 885.559 136.271 893.861H131.911V900.137H133.851V916.665H117.874V923.659H113.85V928.45H118.09V954.319H117.826C117.688 954.006 117.494 953.722 117.252 953.481C117.084 952.762 117.252 952.068 117.012 951.325C116.86 951.013 116.692 950.71 116.509 950.415C116.509 950.127 116.749 949.96 116.844 949.6C116.94 949.241 116.844 949.121 116.844 948.858C116.844 948.043 117.635 947.301 117.18 946.462C117.071 946.253 116.905 946.079 116.702 945.961C116.498 945.842 116.265 945.783 116.03 945.792C116.217 945.467 116.339 945.109 116.389 944.738C116.416 944.553 116.405 944.364 116.355 944.184C116.306 944.004 116.221 943.835 116.104 943.689C115.987 943.543 115.842 943.423 115.677 943.335C115.511 943.248 115.33 943.195 115.144 943.181C114.751 943.199 114.369 943.314 114.032 943.515C113.694 943.716 113.411 943.997 113.207 944.333C113.004 944.669 112.886 945.05 112.865 945.442C112.843 945.834 112.918 946.226 113.084 946.582C112.583 946.594 112.084 946.537 111.599 946.415C111.262 946.319 110.905 946.319 110.569 946.415C110.204 946.572 109.906 946.853 109.727 947.207C109.548 947.562 109.498 947.968 109.586 948.355C109.665 948.704 109.82 949.032 110.042 949.313C110.353 949.672 110.545 949.672 110.497 950.343C110.497 950.487 110.377 950.606 110.377 950.75C110.423 951.1 110.423 951.454 110.377 951.804C110.377 952.044 110.377 952.163 110.377 952.331C110.247 952.744 110.247 953.187 110.377 953.601C110.593 954.223 110.832 954.128 111.191 954.631C111.551 955.134 111.431 954.894 111.191 955.804C111.191 956.068 111.431 956.283 111.407 956.523C111.383 956.762 111.119 958.247 111.096 958.918C111.096 960.403 111.096 962.008 111.096 963.517C111.102 963.604 111.134 963.686 111.187 963.754C111.241 963.822 111.314 963.873 111.397 963.899C111.48 963.924 111.569 963.925 111.651 963.899C111.734 963.874 111.808 963.824 111.862 963.757C112.132 963.799 112.408 963.785 112.671 963.715C112.935 963.645 113.182 963.52 113.395 963.35C113.597 963.074 113.781 962.786 113.946 962.487C114.074 962.632 114.218 962.761 114.377 962.871C114.787 963.133 115.211 963.373 115.647 963.589C116.026 963.74 116.419 963.852 116.82 963.924H109.107V972.26H96.2205C96.2205 970.248 98.4242 970.631 98.6159 969.05C98.6159 968.356 97.8733 967.589 97.4421 967.182C97.0109 966.775 96.1966 966.416 95.7654 965.96C95.3343 965.505 95.454 965.194 95.2384 964.907C95.0229 964.619 94.0407 964.116 93.7773 963.445C93.5138 962.775 93.7773 962.152 92.9868 961.481C92.7382 961.239 92.4299 961.067 92.0933 960.983C91.7567 960.899 91.4039 960.906 91.0706 961.002C90.701 961.162 90.3776 961.413 90.1306 961.731C89.8836 962.049 89.7208 962.425 89.6573 962.823L89.5136 963.374C89.5309 963.567 89.4841 963.761 89.3802 963.926C89.2763 964.09 89.1212 964.216 88.9387 964.284V927.755H83.0222V908.305H81.2736V862.554H82.3755V850.577H67.237V834.768H70.6144V833.451H67.237V826.72H68.9377V825.187H67.237V823.103H68.9377V821.785H64.147L62.6859 810.432C62.6276 808.977 62.2098 807.559 61.47 806.305C60.7302 805.051 59.6913 804 58.4461 803.246C58.5888 803.152 58.7055 803.024 58.7851 802.873C58.8647 802.722 58.9047 802.554 58.9012 802.383V802.192C58.9044 802.048 58.8789 801.905 58.8261 801.772C58.7734 801.638 58.6945 801.517 58.5941 801.414C58.4937 801.311 58.3738 801.23 58.2414 801.174C58.1091 801.118 57.967 801.09 57.8234 801.09H57.1527C57.3438 800.66 57.4418 800.195 57.4401 799.724C57.4396 799.076 57.2576 798.441 56.9147 797.89C56.5718 797.34 56.0817 796.897 55.4999 796.61C55.7791 796.39 56.0056 796.11 56.163 795.791C56.3205 795.472 56.4049 795.122 56.4101 794.766C56.4043 794.416 56.3219 794.072 56.1688 793.758C56.0156 793.443 55.7955 793.166 55.5238 792.946V788.155H55.0926C55.6633 787.914 56.1332 787.484 56.4226 786.936C56.7119 786.389 56.803 785.758 56.6803 785.151C56.5576 784.544 56.2287 783.998 55.7495 783.606C55.2702 783.214 54.6699 783 54.0507 783C53.4314 783 52.8313 783.214 52.352 783.606C51.8727 783.998 51.5438 784.544 51.4211 785.151C51.2985 785.758 51.3895 786.389 51.6789 786.936C51.9683 787.484 52.4381 787.914 53.0087 788.155H52.5776V792.946C52.3059 793.166 52.0857 793.443 51.9326 793.758C51.7795 794.072 51.6972 794.416 51.6913 794.766C51.6965 795.122 51.7809 795.472 51.9384 795.791C52.0958 796.11 52.3224 796.39 52.6016 796.61C52.0197 796.897 51.5296 797.34 51.1867 797.89C50.8438 798.441 50.6618 799.076 50.6613 799.724C50.6596 800.195 50.7576 800.66 50.9488 801.09H50.2781C50.1345 801.09 49.9923 801.118 49.86 801.174C49.7276 801.23 49.6077 801.311 49.5072 801.414C49.4068 801.517 49.328 801.638 49.2752 801.772C49.2225 801.905 49.197 802.048 49.2002 802.192V802.383C49.1967 802.554 49.2366 802.722 49.3162 802.873C49.3958 803.024 49.5125 803.152 49.6553 803.246C48.4101 804 47.3712 805.051 46.6314 806.305C45.8915 807.559 45.4738 808.977 45.4156 810.432L43.9544 821.785H39.1637V823.103H40.8883V825.187H39.1877V826.528H40.8883V833.259H37.5109V834.768H40.8883V850.817H25.678V862.794H26.7798V908.544H25.0313V927.971H19.1148V961.721C19.1148 961.721 19.1147 961.721 18.995 961.721C18.8485 961.603 18.6794 961.516 18.498 961.467C18.3167 961.418 18.1271 961.406 17.9411 961.433C17.6982 961.508 17.4765 961.639 17.2943 961.817C17.2943 961.673 17.2943 961.505 17.2943 961.194C17.2885 961.081 17.2413 960.975 17.1616 960.895C17.082 960.816 16.9756 960.768 16.8632 960.763H15.8332C15.9051 960.634 15.9614 960.497 16.0008 960.355C16.0675 960.127 16.0785 959.886 16.0326 959.653C15.9867 959.419 15.8855 959.2 15.7374 959.014C15.5744 958.788 15.3577 958.606 15.1067 958.485C14.8558 958.363 14.5786 958.307 14.3001 958.319C14.343 957.878 14.2458 957.435 14.0221 957.052C13.7985 956.669 13.46 956.367 13.0546 956.188C12.785 956.084 12.4963 956.04 12.2082 956.058C11.92 956.077 11.6391 956.157 11.3846 956.293C11.1301 956.429 10.908 956.619 10.7332 956.849C10.5585 957.078 10.4352 957.343 10.3718 957.625C10.1281 958.405 9.95962 959.207 9.86876 960.02C9.67687 960.455 9.54789 960.914 9.48557 961.385C9.39437 963.95 9.55478 966.517 9.96459 969.05C10.0327 970.306 10.5919 971.485 11.5215 972.332L11.809 972.476H7.01831V978.823H1.60491V983.135H7.01831V991.327H1.60491V995.639H7.01831V1056.34H1.60491V1066.85H7.01831V1154.88H0V1194.43H351.036V1154.88H347.251V1066.85H352.665V1056.34H347.251V995.471H352.665V991.159H347.251V982.967H352.665ZM323.538 862.554H325.933V908.305H323.538V862.554ZM279.176 908.305H276.781V862.554H279.176V908.305ZM76.2435 862.554H78.6388V908.305H76.2435V862.554ZM31.9058 908.305H29.5105V862.554H31.9058V908.305ZM13.7253 972.308C14.0951 972.184 14.4861 972.135 14.8751 972.164C14.8751 972.164 14.9948 972.164 15.0427 972.308H13.7253ZM19.2106 972.308H18.8034C18.999 972.137 19.1405 971.912 19.2106 971.661V972.308ZM19.2106 970.512C19.2192 970.408 19.2192 970.304 19.2106 970.2C19.2106 970.057 19.2106 969.865 19.2106 969.673V970.512ZM50.9008 840.086C50.8944 839.302 51.198 838.548 51.7453 837.987C52.2927 837.426 53.0395 837.104 53.8231 837.092H54.3261C55.1097 837.104 55.8566 837.426 56.404 837.987C56.9514 838.548 57.2549 839.302 57.2484 840.086V848.757H50.9008V840.086ZM47.9546 872.063H60.051V906.149H47.8109L47.9546 872.063ZM59.3563 1129.2H48.7929V1111.31C48.7704 1110.67 48.8777 1110.03 49.1083 1109.42C49.339 1108.82 49.6883 1108.28 50.1354 1107.81C50.5825 1107.35 51.1183 1106.98 51.7107 1106.73C52.3031 1106.48 52.9401 1106.35 53.5836 1106.35H54.422C55.0654 1106.35 55.7024 1106.48 56.2948 1106.73C56.8873 1106.98 57.423 1107.35 57.8701 1107.81C58.3173 1108.28 58.6666 1108.82 58.8973 1109.42C59.1279 1110.03 59.2351 1110.67 59.2126 1111.31L59.3563 1129.2ZM60.6259 1041.61H47.5234V1013.56H60.6259V1041.61ZM54.0867 962.559C50.6556 962.635 47.2797 961.687 44.3896 959.837C41.4995 957.986 39.2264 955.316 37.8603 952.168C36.4941 949.019 36.097 945.536 36.7195 942.161C37.3419 938.786 38.9558 935.673 41.3552 933.219C43.7545 930.765 46.8305 929.082 50.1907 928.384C53.5508 927.686 57.0428 928.005 60.2209 929.3C63.399 930.595 66.1192 932.807 68.0344 935.655C69.9496 938.503 70.9729 941.857 70.9737 945.289C71.0117 947.545 70.603 949.786 69.771 951.883C68.939 953.981 67.7003 955.893 66.1262 957.509C64.552 959.126 62.6736 960.414 60.599 961.302C58.5245 962.189 56.2949 962.657 54.0387 962.679L54.0867 962.559ZM106.161 1160.65H96.8673V1133.59H106.161V1160.65ZM106.592 1126.93H95.981V1103.86C95.9679 1102.57 96.4624 1101.32 97.3583 1100.39C98.2541 1099.46 99.4797 1098.92 100.772 1098.88H101.586C102.232 1098.88 102.871 1099.01 103.465 1099.26C104.059 1099.51 104.596 1099.88 105.043 1100.35C105.491 1100.81 105.839 1101.36 106.069 1101.97C106.298 1102.57 106.403 1103.21 106.377 1103.86L106.592 1126.93ZM106.592 1041.49H95.981V1018.39C95.9742 1017.11 96.4715 1015.87 97.3667 1014.94C98.2618 1014.01 99.4839 1013.47 100.772 1013.44H101.586C102.23 1013.44 102.867 1013.56 103.459 1013.82C104.051 1014.07 104.587 1014.44 105.034 1014.9C105.481 1015.36 105.831 1015.91 106.061 1016.51C106.292 1017.11 106.399 1017.75 106.377 1018.39L106.592 1041.49ZM234.91 963.302C235.085 963.604 235.354 963.839 235.677 963.972H234.91V963.302ZM210.67 906.628C210.653 906.304 210.703 905.979 210.816 905.675C210.929 905.37 211.103 905.092 211.327 904.856C211.551 904.621 211.821 904.434 212.12 904.306C212.418 904.178 212.74 904.113 213.065 904.113H213.496C213.821 904.113 214.142 904.178 214.441 904.306C214.74 904.434 215.01 904.621 215.234 904.856C215.458 905.092 215.631 905.37 215.745 905.675C215.858 905.979 215.908 906.304 215.891 906.628V913.599H210.526L210.67 906.628ZM210.67 945.456C210.653 945.132 210.703 944.808 210.816 944.503C210.929 944.198 211.103 943.92 211.327 943.685C211.551 943.449 211.821 943.262 212.12 943.134C212.418 943.007 212.74 942.941 213.065 942.941H213.352C213.677 942.941 213.999 943.007 214.297 943.134C214.596 943.262 214.866 943.449 215.09 943.685C215.314 943.92 215.488 944.198 215.601 944.503C215.714 944.808 215.764 945.132 215.748 945.456V959.828H210.382L210.67 945.456ZM199.699 945.456V959.828H194.19V945.456C194.173 945.132 194.223 944.808 194.336 944.503C194.449 944.198 194.623 943.92 194.847 943.685C195.071 943.449 195.341 943.262 195.64 943.134C195.938 943.007 196.26 942.941 196.585 942.941H197.016C197.357 942.917 197.699 942.965 198.02 943.084C198.34 943.203 198.632 943.388 198.874 943.629C199.117 943.869 199.306 944.159 199.427 944.478C199.549 944.798 199.601 945.139 199.579 945.48L199.699 945.456ZM182.932 906.628C182.915 906.304 182.965 905.979 183.078 905.675C183.191 905.37 183.365 905.092 183.589 904.856C183.813 904.621 184.083 904.434 184.382 904.306C184.68 904.178 185.002 904.113 185.327 904.113H185.758C186.083 904.113 186.404 904.178 186.703 904.306C187.002 904.434 187.272 904.621 187.496 904.856C187.72 905.092 187.893 905.37 188.007 905.675C188.12 905.979 188.17 906.304 188.153 906.628V913.599H182.788L182.932 906.628ZM180.536 942.941H180.967C181.292 942.941 181.614 943.007 181.913 943.134C182.211 943.262 182.481 943.449 182.705 943.685C182.929 943.92 183.103 944.198 183.216 944.503C183.329 944.808 183.379 945.132 183.363 945.456V959.828H177.997V945.456C177.984 945.138 178.035 944.82 178.147 944.521C178.258 944.223 178.429 943.949 178.647 943.717C178.866 943.485 179.129 943.299 179.42 943.17C179.712 943.041 180.026 942.971 180.345 942.965L180.536 942.941ZM173.494 906.628C173.478 906.304 173.528 905.979 173.641 905.675C173.754 905.37 173.928 905.092 174.152 904.856C174.376 904.621 174.645 904.434 174.944 904.306C175.243 904.178 175.564 904.113 175.889 904.113H176.32C176.645 904.113 176.967 904.178 177.266 904.306C177.564 904.434 177.834 904.621 178.058 904.856C178.282 905.092 178.456 905.37 178.569 905.675C178.682 905.979 178.732 906.304 178.716 906.628V913.599H173.35L173.494 906.628ZM169.709 945.456C169.693 945.132 169.743 944.808 169.856 944.503C169.969 944.198 170.143 943.92 170.367 943.685C170.591 943.449 170.861 943.262 171.159 943.134C171.458 943.007 171.78 942.941 172.105 942.941H172.632C172.957 942.941 173.278 943.007 173.577 943.134C173.876 943.262 174.145 943.449 174.369 943.685C174.593 943.92 174.767 944.198 174.88 944.503C174.993 944.808 175.043 945.132 175.027 945.456V959.828H169.661L169.709 945.456ZM164.2 906.628C164.184 906.304 164.234 905.979 164.347 905.675C164.46 905.37 164.634 905.092 164.858 904.856C165.082 904.621 165.351 904.434 165.65 904.306C165.949 904.178 166.27 904.113 166.595 904.113H167.026C167.351 904.113 167.673 904.178 167.972 904.306C168.27 904.434 168.54 904.621 168.764 904.856C168.988 905.092 169.162 905.37 169.275 905.675C169.388 905.979 169.438 906.304 169.422 906.628V913.599H164.056L164.2 906.628ZM153.469 945.48C153.453 945.156 153.503 944.831 153.616 944.527C153.729 944.222 153.903 943.944 154.127 943.709C154.351 943.473 154.62 943.286 154.919 943.158C155.218 943.031 155.539 942.965 155.864 942.965H156.295C156.62 942.965 156.942 943.031 157.241 943.158C157.539 943.286 157.809 943.473 158.033 943.709C158.257 943.944 158.431 944.222 158.544 944.527C158.657 944.831 158.707 945.156 158.691 945.48V959.852H153.469V945.48ZM136.318 906.628C136.302 906.304 136.352 905.979 136.465 905.675C136.578 905.37 136.752 905.092 136.976 904.856C137.2 904.621 137.47 904.434 137.769 904.306C138.067 904.178 138.389 904.113 138.714 904.113H139.145C139.47 904.113 139.791 904.178 140.09 904.306C140.389 904.434 140.658 904.621 140.882 904.856C141.106 905.092 141.28 905.37 141.393 905.675C141.507 905.979 141.557 906.304 141.54 906.628V913.599H136.175L136.318 906.628ZM142.403 945.456V959.828H137.037V945.456C137.021 945.132 137.071 944.808 137.184 944.503C137.297 944.198 137.471 943.92 137.695 943.685C137.919 943.449 138.188 943.262 138.487 943.134C138.786 943.007 139.107 942.941 139.432 942.941H139.864C140.202 942.92 140.542 942.972 140.859 943.092C141.177 943.212 141.466 943.398 141.706 943.638C141.946 943.878 142.132 944.167 142.252 944.484C142.372 944.802 142.424 945.141 142.403 945.48V945.456ZM121.731 1161.61H115.814V1089.13H121.731V1161.61ZM121.731 1052.86H115.814V1003.69H121.731V1052.86ZM126.066 959.924H120.701V945.552C120.685 945.228 120.735 944.903 120.848 944.599C120.961 944.294 121.135 944.016 121.359 943.781C121.583 943.545 121.852 943.358 122.151 943.23C122.45 943.102 122.771 943.037 123.096 943.037H123.527C123.852 943.037 124.174 943.102 124.472 943.23C124.771 943.358 125.041 943.545 125.265 943.781C125.489 944.016 125.663 944.294 125.776 944.599C125.889 944.903 125.939 945.228 125.923 945.552L126.066 959.924ZM128.869 945.552C128.853 945.228 128.903 944.903 129.016 944.599C129.129 944.294 129.303 944.016 129.527 943.781C129.751 943.545 130.02 943.358 130.319 943.23C130.618 943.102 130.939 943.037 131.264 943.037H131.695C132.02 943.037 132.342 943.102 132.641 943.23C132.939 943.358 133.209 943.545 133.433 943.781C133.657 944.016 133.831 944.294 133.944 944.599C134.057 944.903 134.107 945.228 134.091 945.552V959.924H128.725L128.869 945.552ZM146.283 1161.64H128.965V1089.13H146.283V1161.64ZM146.283 1052.89H128.965V1003.69H146.283V1052.89ZM150.619 959.948H145.253V945.576C145.237 945.252 145.287 944.927 145.4 944.623C145.513 944.318 145.687 944.04 145.911 943.805C146.135 943.569 146.404 943.382 146.703 943.254C147.002 943.126 147.323 943.061 147.648 943.061H148.079C148.404 943.061 148.726 943.126 149.025 943.254C149.323 943.382 149.593 943.569 149.817 943.805C150.041 944.04 150.215 944.318 150.328 944.623C150.441 944.927 150.491 945.252 150.475 945.576L150.619 959.948ZM151.026 913.622H145.66V906.628C145.644 906.304 145.694 905.979 145.807 905.675C145.92 905.37 146.094 905.092 146.318 904.856C146.542 904.621 146.812 904.434 147.11 904.306C147.409 904.178 147.731 904.113 148.055 904.113H148.487C148.812 904.113 149.133 904.178 149.432 904.306C149.731 904.434 150 904.621 150.224 904.856C150.448 905.092 150.622 905.37 150.735 905.675C150.848 905.979 150.898 906.304 150.882 906.628L151.026 913.622ZM158.954 1161.64H153.062V1089.13H158.954V1161.64ZM158.954 1052.89H153.062V1003.69H158.954V1052.89ZM160.32 913.622H154.906V906.628C154.89 906.304 154.94 905.979 155.053 905.675C155.166 905.37 155.34 905.092 155.564 904.856C155.788 904.621 156.058 904.434 156.356 904.306C156.655 904.178 156.977 904.113 157.301 904.113H157.733C158.058 904.113 158.379 904.178 158.678 904.306C158.977 904.434 159.246 904.621 159.47 904.856C159.694 905.092 159.868 905.37 159.981 905.675C160.094 905.979 160.144 906.304 160.128 906.628L160.32 913.622ZM161.589 945.48C161.573 945.156 161.623 944.831 161.736 944.527C161.849 944.222 162.023 943.944 162.247 943.709C162.471 943.473 162.741 943.286 163.039 943.158C163.338 943.031 163.66 942.965 163.985 942.965H164.416C164.741 942.965 165.062 943.031 165.361 943.158C165.66 943.286 165.929 943.473 166.153 943.709C166.377 943.944 166.551 944.222 166.664 944.527C166.777 944.831 166.827 945.156 166.811 945.48V959.852H161.445L161.589 945.48ZM186.644 1161.64H166.14V1089.13H186.644V1161.64ZM186.644 1052.89H166.14V1003.69H186.644V1052.89ZM191.435 959.948H186.045V945.576C186.029 945.252 186.079 944.927 186.192 944.623C186.305 944.318 186.479 944.04 186.703 943.805C186.927 943.569 187.197 943.382 187.496 943.254C187.794 943.126 188.116 943.061 188.441 943.061H188.872C189.197 943.061 189.519 943.126 189.817 943.254C190.116 943.382 190.385 943.569 190.609 943.805C190.834 944.04 191.008 944.318 191.121 944.623C191.234 944.927 191.284 945.252 191.267 945.576L191.435 959.948ZM192.106 906.652C192.089 906.328 192.139 906.003 192.252 905.699C192.366 905.394 192.539 905.116 192.763 904.88C192.988 904.645 193.257 904.458 193.556 904.33C193.855 904.202 194.176 904.137 194.501 904.137H194.932C195.257 904.137 195.579 904.202 195.877 904.33C196.176 904.458 196.446 904.645 196.67 904.88C196.894 905.116 197.068 905.394 197.181 905.699C197.294 906.003 197.344 906.328 197.328 906.652V913.622H191.962L192.106 906.652ZM199.915 1160.8H193.998V1089.13H199.915V1160.8ZM199.915 1052.89H193.998V1003.69H199.915V1052.89ZM201.376 906.628C201.359 906.304 201.409 905.979 201.522 905.675C201.635 905.37 201.809 905.092 202.033 904.856C202.257 904.621 202.527 904.434 202.826 904.306C203.124 904.178 203.446 904.113 203.771 904.113H204.202C204.527 904.113 204.849 904.178 205.147 904.306C205.446 904.434 205.716 904.621 205.94 904.856C206.164 905.092 206.338 905.37 206.451 905.675C206.564 905.979 206.614 906.304 206.597 906.628V913.599H201.376V906.628ZM202.382 945.456C202.365 945.132 202.415 944.808 202.528 944.503C202.641 944.198 202.815 943.92 203.04 943.685C203.264 943.449 203.533 943.262 203.832 943.134C204.13 943.007 204.452 942.941 204.777 942.941H205.208C205.533 942.941 205.855 943.007 206.153 943.134C206.452 943.262 206.722 943.449 206.946 943.685C207.17 943.92 207.344 944.198 207.457 944.503C207.57 944.808 207.62 945.132 207.603 945.456V959.828H202.238L202.382 945.456ZM223.532 1161.61H206.166V1089.13H223.461L223.532 1161.61ZM223.532 1052.86H206.166V1003.69H223.461L223.532 1052.86ZM224.083 959.924H218.718V945.552C218.702 945.228 218.752 944.903 218.865 944.599C218.978 944.294 219.151 944.016 219.376 943.781C219.6 943.545 219.869 943.358 220.168 943.23C220.467 943.102 220.788 943.037 221.113 943.037H221.544C221.869 943.037 222.191 943.102 222.489 943.23C222.788 943.358 223.058 943.545 223.282 943.781C223.506 944.016 223.68 944.294 223.793 944.599C223.906 944.903 223.956 945.228 223.94 945.552L224.083 959.924ZM226.886 945.552C226.87 945.228 226.92 944.903 227.033 944.599C227.146 944.294 227.32 944.016 227.544 943.781C227.768 943.545 228.037 943.358 228.336 943.23C228.635 943.102 228.956 943.037 229.281 943.037H229.712C230.037 943.037 230.359 943.102 230.658 943.23C230.956 943.358 231.226 943.545 231.45 943.781C231.674 944.016 231.848 944.294 231.961 944.599C232.074 944.903 232.124 945.228 232.108 945.552V959.924H226.742L226.886 945.552ZM237.066 1161.71H231.15V1089.13H237.066V1161.71ZM237.066 1052.96H231.15V1003.69H237.066V1052.96ZM236.874 964.044C237.119 963.968 237.346 963.846 237.545 963.685C237.545 963.565 237.785 963.278 237.928 963.206L238.168 962.679C238.383 962.128 238.647 962.559 238.982 963.948L236.874 964.044ZM255.654 1160.84H246.36V1133.59H255.654V1160.84ZM256.947 1127H246.384V1103.93C246.371 1102.64 246.865 1101.39 247.761 1100.46C248.657 1099.53 249.883 1098.99 251.175 1098.95H251.989C253.281 1098.99 254.507 1099.53 255.402 1100.46C256.298 1101.39 256.793 1102.64 256.78 1103.93L256.947 1127ZM256.947 1041.56H246.384V1018.47C246.377 1017.18 246.874 1015.94 247.77 1015.01C248.665 1014.08 249.887 1013.55 251.175 1013.51H251.989C253.279 1013.54 254.504 1014.08 255.401 1015C256.297 1015.93 256.793 1017.18 256.78 1018.47L256.947 1041.56ZM298.123 840.038C298.117 839.254 298.42 838.5 298.968 837.939C299.515 837.378 300.262 837.056 301.045 837.044H301.548C302.332 837.056 303.079 837.378 303.626 837.939C304.174 838.5 304.477 839.254 304.471 840.038V848.709H298.123V840.038ZM295.177 872.016H307.417V906.149H295.177V872.016ZM306.579 1129.15H296.015V1111.26C295.993 1110.62 296.1 1109.98 296.331 1109.38C296.561 1108.78 296.911 1108.23 297.358 1107.76C297.805 1107.3 298.341 1106.93 298.933 1106.68C299.525 1106.43 300.162 1106.3 300.806 1106.3H301.644C302.288 1106.3 302.925 1106.43 303.517 1106.68C304.11 1106.93 304.645 1107.3 305.092 1107.76C305.54 1108.23 305.889 1108.78 306.12 1109.38C306.35 1109.98 306.457 1110.62 306.435 1111.26L306.579 1129.15ZM307.848 1041.56H294.794V1013.56H307.896L307.848 1041.56ZM301.309 962.511C297.873 962.611 294.486 961.684 291.581 959.848C288.675 958.012 286.384 955.352 284.999 952.206C283.615 949.06 283.2 945.573 283.808 942.191C284.417 938.808 286.021 935.684 288.415 933.218C290.809 930.752 293.884 929.057 297.247 928.348C300.61 927.64 304.108 927.952 307.294 929.243C310.479 930.534 313.206 932.746 315.127 935.596C317.048 938.446 318.075 941.804 318.076 945.241C318.121 947.487 317.722 949.72 316.904 951.812C316.085 953.904 314.862 955.814 313.305 957.433C311.748 959.053 309.887 960.35 307.829 961.25C305.77 962.15 303.555 962.635 301.309 962.679V962.511Z" fill="#E1EBF8"/>
</g>
</svg>
