<svg width="1920" height="1741" viewBox="0 0 1920 1741" fill="none" xmlns="http://www.w3.org/2000/svg">
<mask id="mask0_479_122" style="mask-type:alpha" maskUnits="userSpaceOnUse" x="0" y="0" width="1920" height="1741">
<rect width="1920" height="1741" fill="#D9D9D9"/>
</mask>
<g mask="url(#mask0_479_122)">
<path d="M1920.22 36.871C1916.64 36.6236 1913.05 37.2023 1909.73 38.562C1906.41 39.9217 1903.46 42.0257 1901.09 44.71C1900.74 40.073 1899.11 35.6224 1896.38 31.8531C1893.64 28.0837 1889.91 25.1434 1885.6 23.3591C1881.28 21.5749 1876.56 21.0166 1871.95 21.7463C1867.33 22.4761 1863.01 24.4653 1859.47 27.4927C1860.65 16.48 1850.99 6.46702 1840.16 5.18167C1827.52 3.59482 1816.25 12.6398 1810.31 23.0813C1807.12 17.5908 1800.44 15.3692 1794.37 16.0516C1785.12 17.083 1776.48 22.9861 1768.42 27.1595C1763.97 29.4763 1759.52 31.7772 1755.09 34.1416C1752.81 35.3635 1750.53 36.6012 1748.28 37.8548C1747.25 38.442 1746.23 39.0767 1745.09 39.6162C1743.71 40.3462 1743.72 40.4573 1742.59 39.6162C1737.92 35.9348 1733.16 33.9036 1727.03 34.459C1723.05 34.7859 1719.25 36.264 1716.1 38.7117C1710.17 35.8237 1703.74 33.9512 1697.16 34.8557C1689.53 35.9348 1681.73 41.6315 1680.23 49.4864C1679.66 52.3294 1680.15 55.2829 1681.62 57.7866C1683.09 60.2904 1685.43 62.1704 1688.2 63.0698C1692.98 64.7995 1698.61 64.1489 1701.37 59.8961C1706.39 70.3693 1720.5 74.4951 1730.56 68.8936C1728.25 74.3523 1732.5 81.1282 1737.79 83.6354C1746.98 88.0151 1756.78 80.2554 1763.3 74.1936C1765.08 85.3016 1781.98 81.6836 1789.15 85.492C1792.34 87.1899 1794.11 90.2525 1796.38 92.9502C1798.1 95.0189 1800.21 96.7375 1802.59 98.0122C1807.31 100.39 1812.6 101.381 1817.86 100.869C1830.62 99.853 1840.83 91.5061 1849.97 83.4132C1851.42 82.1279 1851.69 82.112 1853.28 83.0006C1854.46 83.6637 1855.67 84.252 1856.92 84.762C1859.2 85.7172 1861.57 86.4403 1863.99 86.9201C1868.94 87.836 1874.02 87.8628 1878.98 86.9995C1884.42 86.1899 1889.63 84.2761 1894.29 81.377C1898.95 78.4779 1902.96 74.6555 1906.08 70.1472C1914.67 79.6683 1932.27 77.4308 1937.43 65.3866C1942.74 52.7871 1933.96 37.9025 1920.22 36.871Z" fill="#E1EBF8"/>
<path d="M1918.52 1695.07C1913.81 1687.87 1904.9 1690.8 1898.44 1693.65C1897.29 1691 1895.54 1688.65 1893.34 1686.79C1891.13 1684.93 1888.53 1683.61 1885.73 1682.94C1877.97 1680.75 1869.76 1682.84 1862.22 1684.88C1862.59 1673.68 1851.93 1665.58 1841.63 1664.22C1827.83 1662.43 1815.23 1671.75 1804.94 1679.82C1801.57 1675.56 1794.01 1676.69 1792.07 1681.8C1787.74 1679.25 1782.63 1678.41 1777.72 1679.42C1772.81 1680.44 1768.44 1683.25 1765.46 1687.3C1764.6 1684.46 1762.86 1681.97 1760.49 1680.19C1758.12 1678.41 1755.25 1677.45 1752.29 1677.43C1750.36 1677.51 1748.47 1678 1746.75 1678.88C1745.03 1679.77 1743.52 1681.02 1742.33 1682.55C1741 1681.86 1739.49 1681.61 1738.01 1681.84C1736.94 1682.05 1735.92 1682.47 1735.02 1683.08C1734.11 1683.69 1733.33 1684.48 1732.72 1685.39C1732.12 1686.3 1731.7 1687.33 1731.48 1688.41C1731.27 1689.48 1731.28 1690.59 1731.49 1691.67C1725.03 1691.92 1715.11 1696.14 1718.8 1704.29C1719.7 1706.02 1721.03 1707.48 1722.66 1708.54C1724.3 1709.6 1726.18 1710.21 1728.11 1710.32C1733.44 1710.66 1738.32 1707.78 1742.75 1705.07C1744.23 1710.42 1749.41 1713.54 1754.73 1714.11C1762.3 1714.91 1769.17 1710.24 1775.09 1706.07C1777.45 1709.12 1780.74 1711.3 1784.45 1712.26C1788.17 1713.23 1792.09 1712.94 1795.63 1711.43C1796.44 1711.05 1797.21 1710.6 1797.94 1710.09C1798.29 1709.86 1799.27 1708.75 1799.62 1708.75C1800.3 1708.75 1802.47 1711.29 1803.09 1711.78C1804.58 1712.94 1806.18 1713.96 1807.86 1714.83C1820.3 1721.27 1836.56 1719.49 1846.77 1709.71C1848.9 1715.42 1854.22 1719.09 1860.08 1720.43C1868.5 1722.33 1877.12 1719.09 1885 1716.41C1894.21 1713.21 1903.46 1710.08 1912.66 1706.82C1915.32 1705.86 1918.48 1704.69 1919.66 1701.78C1920.01 1700.66 1920.09 1699.46 1919.9 1698.29C1919.7 1697.12 1919.23 1696.02 1918.52 1695.07Z" fill="#E1EBF8"/>
<path d="M152.712 649.497C151.64 646.049 148.335 644.524 145.577 643.353C141.196 641.504 136.468 640.644 131.723 640.833C129.875 640.921 128.037 641.165 126.229 641.562C123.209 642.225 119.992 643.994 116.884 643.308C112.507 642.358 110.318 636.899 107.013 634.047C104.087 631.721 100.635 630.165 96.967 629.516C88.8689 627.859 80.5739 628.743 72.5415 626.422C65.3189 624.344 57.6367 620.299 50.042 621.471C47.1906 621.932 44.5889 623.386 42.6881 625.582C41.689 623.389 40.1681 621.479 38.261 620.024C36.354 618.568 34.1199 617.612 31.758 617.24C29.3961 616.868 26.9798 617.092 24.7244 617.892C22.469 618.692 20.4446 620.043 18.8316 621.824C17.2415 619.283 15.0052 617.22 12.3561 615.849C9.70693 614.478 6.74205 613.85 3.77072 614.03C0.7994 614.211 -2.0695 615.194 -4.53666 616.875C-7.00381 618.557 -8.97884 620.877 -10.2557 623.593C-14.0503 624.498 -17.5487 626.378 -20.4111 629.052C-21.6329 630.188 -22.72 631.464 -23.6503 632.854C-24.0628 633.444 -24.4427 634.056 -24.7884 634.688C-25.445 635.904 -25.2918 636.103 -26.4737 635.97C-28.2246 635.793 -29.9755 634.843 -31.7921 634.644C-33.7622 634.43 -35.7525 634.504 -37.7015 634.865C-41.9997 635.883 -45.9604 638.016 -49.192 641.054C-52.3656 643.618 -54.9263 642.734 -58.2093 641.054C-59.8399 640.174 -61.5866 639.534 -63.3964 639.153C-66.8886 638.508 -70.487 638.792 -73.8373 639.978C-77.1877 641.164 -80.1744 643.211 -82.5035 645.917C-84.4733 648.127 -86.8808 651.73 -85.6771 655.133C-84.4733 658.537 -80.5337 659.267 -78.0386 660.239C-69.8591 663.68 -61.1504 665.662 -52.2999 666.096C-48.1868 666.222 -44.0764 665.768 -40.0872 664.748C-38.0513 664.184 -36.0669 663.444 -34.1559 662.538C-32.3174 661.676 -30.6321 660.328 -28.8155 659.443C-26.999 658.559 -25.7514 660.659 -24.2631 661.654C-22.6059 662.764 -20.8469 663.712 -19.0103 664.483C-15.229 666.021 -11.249 667.003 -7.19157 667.4C2.39478 668.506 12.1344 667.4 21.7207 666.715C32.664 665.964 43.6073 665.234 54.5507 664.019C59.891 663.444 65.8004 661.808 71.1189 663.068C75.2554 664.063 78.6916 667.025 82.9376 667.71C98.7617 670.318 111.959 654.448 127.696 655.708C135.006 656.327 143.389 664.129 150.195 657.742C151.351 656.754 152.202 655.452 152.648 653.991C153.094 652.53 153.117 650.971 152.712 649.497Z" fill="#E1EBF8"/>
</g>
</svg>
