<svg width="333" height="142" viewBox="0 0 333 142" fill="none" xmlns="http://www.w3.org/2000/svg">
<mask id="mask0_487_133" style="mask-type:alpha" maskUnits="userSpaceOnUse" x="0" y="0" width="333" height="142">
<rect width="333" height="142" fill="#D9D9D9"/>
</mask>
<g mask="url(#mask0_487_133)">
<path d="M148.087 87.7614V86.171H146.09V83.8296H144.411C144.33 83.7605 144.253 83.6868 144.181 83.6087C143.934 83.2906 144.384 83.2994 144.526 83.0609C144.667 82.8223 144.579 82.84 144.526 82.6633C144.473 82.354 144.234 83.0079 144.526 82.2392C144.526 82.1685 144.623 82.1155 144.641 82.036C144.729 81.8087 144.729 81.5564 144.641 81.3291C144.556 81.1395 144.401 80.9904 144.208 80.9138C144.213 80.8339 144.203 80.7536 144.177 80.6777C144.151 80.6019 144.111 80.5319 144.057 80.472C143.987 80.4102 143.775 80.3837 143.739 80.3395C143.704 80.2953 143.837 80.0921 143.881 79.9949C143.947 79.8244 143.947 79.6353 143.881 79.4648C143.964 79.3682 144.025 79.2547 144.06 79.1323C144.095 79.0099 144.103 78.8813 144.084 78.7554C144.064 78.6296 144.018 78.5094 143.948 78.403C143.878 78.2967 143.786 78.2068 143.678 78.1395C143.137 78.5019 142.583 78.8438 142.016 79.1644V67.3954H139.816V60.2209H139.171V43.3449H139.578V38.9271H133.967V33.0956H135.213V32.6096H133.967V30.1268H134.595V29.5613H133.967V28.7926H134.595V28.3067H132.827L132.289 24.1186C132.267 23.583 132.114 23.0609 131.843 22.5985C131.572 22.1362 131.191 21.7479 130.733 21.4679C130.783 21.4314 130.824 21.3835 130.851 21.3281C130.879 21.2728 130.893 21.2117 130.892 21.1498V21.0791C130.894 21.0262 130.884 20.9736 130.865 20.9243C130.845 20.875 130.816 20.8301 130.779 20.7923C130.742 20.7544 130.698 20.7243 130.649 20.7038C130.6 20.6833 130.548 20.6727 130.495 20.6727H130.274C130.338 20.5124 130.371 20.3416 130.371 20.1691C130.371 19.9299 130.304 19.6955 130.177 19.4925C130.051 19.2896 129.87 19.126 129.655 19.0205C129.758 18.9391 129.842 18.8358 129.9 18.7182C129.958 18.6005 129.989 18.4713 129.991 18.3401C129.989 18.2111 129.959 18.0841 129.902 17.9681C129.846 17.8521 129.765 17.7499 129.664 17.6686V15.9015H129.505C129.716 15.8128 129.889 15.654 129.996 15.452C130.103 15.2501 130.136 15.0174 130.091 14.7935C130.046 14.5696 129.924 14.3683 129.748 14.2237C129.571 14.079 129.349 14 129.121 14C128.893 14 128.671 14.079 128.494 14.2237C128.318 14.3683 128.196 14.5696 128.151 14.7935C128.106 15.0174 128.139 15.2501 128.246 15.452C128.353 15.654 128.526 15.8128 128.737 15.9015H128.578V17.6686C128.477 17.7499 128.396 17.8521 128.34 17.9681C128.283 18.0841 128.253 18.2111 128.251 18.3401C128.253 18.4713 128.284 18.6005 128.342 18.7182C128.4 18.8358 128.483 18.9391 128.586 19.0205C128.373 19.1276 128.193 19.2916 128.067 19.4942C127.941 19.6968 127.873 19.9303 127.871 20.1691C127.87 20.3426 127.906 20.5142 127.977 20.6727H127.729C127.676 20.6727 127.624 20.6833 127.575 20.7038C127.526 20.7243 127.482 20.7544 127.445 20.7923C127.408 20.8301 127.379 20.875 127.359 20.9243C127.34 20.9736 127.331 21.0262 127.332 21.0791V21.1498C127.333 21.2123 127.348 21.2737 127.378 21.3289C127.407 21.3842 127.449 21.4318 127.5 21.4679C127.041 21.7474 126.659 22.1354 126.386 22.5977C126.113 23.06 125.959 23.5823 125.936 24.1186L125.397 28.3067H123.63V28.7926H124.257V29.5613H123.63V30.0561H124.257V32.5389H123.011V33.0956H124.257V39.0154H118.699V43.4332H119.106V60.3092H118.461V67.4749H116.287V81.0464C115.89 80.9403 115.404 80.6222 115.147 80.9403C115.1 80.8756 115.034 80.8261 114.959 80.7979C114.884 80.7697 114.802 80.7639 114.723 80.7813C114.396 80.8697 114.458 81.2407 114.335 81.497C114.211 81.7532 113.928 81.7532 113.831 82.0271C113.734 82.301 113.884 82.2922 113.875 82.4335C113.866 82.5749 113.875 82.5396 113.804 82.6898C113.716 82.999 113.442 83.4938 113.681 83.8296C113.712 83.8609 113.748 83.8877 113.787 83.9091H107.955V80.8343H106.921C107.084 80.6279 107.185 80.3799 107.213 80.1186C107.327 79.7738 107.407 79.4187 107.452 79.0583C107.452 78.6342 107.187 78.325 107.142 77.9362C107.311 77.8314 107.47 77.7132 107.619 77.5828C107.911 77.2912 107.876 77.0792 107.832 76.6993C107.787 76.3193 107.92 76.0366 107.708 75.7097C107.496 75.3828 107.027 75.2149 106.736 74.9056C106.833 74.7707 106.898 74.6153 106.925 74.4514C106.953 74.2875 106.942 74.1195 106.895 73.9602C106.839 73.7872 106.725 73.6389 106.572 73.5406C106.419 73.4423 106.236 73.4002 106.056 73.4213C105.882 73.4431 105.719 73.5161 105.586 73.631C105.454 73.7458 105.359 73.8973 105.313 74.0662C105.269 74.1811 105.26 74.3068 105.289 74.4267C105.317 74.5465 105.381 74.655 105.472 74.7377C105.409 74.8754 105.295 74.9831 105.154 75.0382C105.101 75.0382 105.039 75.0382 104.978 75.0382C104.916 75.0382 104.854 75.1353 104.783 75.1972L104.677 75.2767V67.7046H106.241V65.9375H104.757V63.3575H98.8634V57.2609H99.5791V54.946H97.9622C97.9331 51.884 96.9771 48.9027 95.22 46.3949C93.463 43.887 90.9873 41.9703 88.1193 40.8974V40.0669H87.651V38.0789H85.7072V33.2988H86.6791V31.7879H85.3803V28.5894C85.4038 28.5207 85.4038 28.4461 85.3803 28.3774C85.3645 27.9927 85.2538 27.6179 85.058 27.2865C84.8622 26.955 84.5874 26.6772 84.2581 26.4777C84.2952 26.4517 84.3257 26.4173 84.3471 26.3775C84.3686 26.3376 84.3805 26.2932 84.3819 26.248V26.195C84.3819 26.1176 84.3511 26.0435 84.2964 25.9888C84.2418 25.9341 84.1676 25.9034 84.0903 25.9034H83.9224C83.9686 25.7913 83.9926 25.6712 83.9931 25.55C83.9969 25.378 83.9505 25.2086 83.8595 25.0626C83.7684 24.9167 83.6367 24.8005 83.4806 24.7283C83.5548 24.6688 83.6148 24.5936 83.6561 24.5079C83.6974 24.4223 83.7189 24.3285 83.7192 24.2335C83.7175 24.1408 83.6962 24.0496 83.6566 23.9658C83.617 23.882 83.56 23.8076 83.4895 23.7475V22.9435C83.6622 22.8643 83.8074 22.7354 83.9064 22.5732C84.0054 22.411 84.0537 22.2229 84.0451 22.0331C84.0366 21.8433 83.9715 21.6604 83.8584 21.5077C83.7452 21.3551 83.5891 21.2397 83.41 21.1763V19.8422H84.7618V19.206H83.4453V17.8188H82.8179V19.206H81.4661V19.8422H82.8179V21.1233C82.6388 21.1867 82.4827 21.3021 82.3695 21.4547C82.2564 21.6073 82.1913 21.7903 82.1828 21.9801C82.1742 22.1699 82.2225 22.3579 82.3215 22.5201C82.4205 22.6823 82.5657 22.8113 82.7384 22.8905V23.6945C82.6679 23.7546 82.6109 23.829 82.5713 23.9128C82.5317 23.9966 82.5104 24.0878 82.5087 24.1804C82.509 24.2755 82.5305 24.3693 82.5718 24.4549C82.6131 24.5405 82.6731 24.6158 82.7473 24.6752C82.5912 24.7474 82.4595 24.8637 82.3684 25.0096C82.2774 25.1556 82.231 25.325 82.2348 25.4969C82.2353 25.6182 82.2593 25.7382 82.3055 25.8504H82.1288C82.0909 25.8503 82.0534 25.858 82.0185 25.8727C81.9836 25.8875 81.952 25.9091 81.9256 25.9363C81.8993 25.9635 81.8787 25.9957 81.865 26.031C81.8513 26.0664 81.8449 26.1041 81.846 26.142V26.195C81.8474 26.2402 81.8593 26.2846 81.8808 26.3244C81.9022 26.3643 81.9327 26.3986 81.9698 26.4247C81.6405 26.6242 81.3657 26.902 81.1699 27.2335C80.9741 27.5649 80.8634 27.9397 80.8476 28.3243C80.8476 28.3243 80.8476 28.395 80.8476 28.4304C80.8476 28.4657 80.8476 28.501 80.8476 28.5364V31.7349H79.5576V33.2458H80.5295V38.0258H78.5857V40.0138H78.1174V40.8444C75.2491 41.918 72.773 43.8346 71.0146 46.3421C69.2562 48.8496 68.2979 51.8306 68.2657 54.893H66.6576V57.2079H67.3733V63.3045H61.48V65.8845H59.9956V67.6516H61.5595V77.194H61.4623C61.4114 77.0787 61.3395 76.9738 61.2503 76.8848C61.1884 76.6197 61.2503 76.3635 61.1619 76.0896C61.1057 75.9746 61.0438 75.8626 60.9764 75.7538C60.9764 75.6478 61.0647 75.586 61.1001 75.4534C61.1354 75.3209 61.1001 75.2767 61.1001 75.1795C61.1001 74.8791 61.3916 74.6052 61.2238 74.296C61.1837 74.2188 61.1226 74.1547 61.0475 74.1109C60.9725 74.0671 60.8865 74.0455 60.7996 74.0486C60.8685 73.9288 60.9135 73.7967 60.9322 73.6598C60.9421 73.5916 60.9378 73.522 60.9197 73.4555C60.9017 73.3889 60.8701 73.3268 60.827 73.273C60.7839 73.2192 60.7303 73.1747 60.6693 73.1425C60.6084 73.1102 60.5415 73.0908 60.4727 73.0855C60.328 73.0923 60.1871 73.1346 60.0626 73.2087C59.938 73.2828 59.8336 73.3864 59.7585 73.5103C59.6834 73.6343 59.64 73.7748 59.632 73.9195C59.6241 74.0643 59.6519 74.2087 59.7129 74.3401C59.5283 74.3444 59.344 74.3236 59.1651 74.2783C59.0408 74.2432 58.9093 74.2432 58.7851 74.2783C58.6507 74.3365 58.5408 74.44 58.4747 74.5707C58.4085 74.7014 58.3902 74.8512 58.4229 74.994C58.4517 75.1229 58.5091 75.2436 58.5907 75.3474C58.7056 75.4799 58.7763 75.4799 58.7586 75.7273C58.7586 75.7803 58.7145 75.8245 58.7145 75.8775C58.7315 76.0066 58.7315 76.1373 58.7145 76.2663C58.7145 76.3546 58.7145 76.3988 58.7145 76.4607C58.6663 76.6131 58.6663 76.7766 58.7145 76.929C58.794 77.1587 58.8823 77.1234 59.0149 77.3089C59.1474 77.4945 59.1032 77.4061 59.0149 77.7418C59.0149 77.839 59.1032 77.9185 59.0944 78.0069C59.0855 78.0953 58.9883 78.6431 58.9795 78.8905C58.9795 79.4383 58.9795 80.0303 58.9795 80.5869C58.9818 80.6188 58.9936 80.6493 59.0134 80.6744C59.0332 80.6995 59.0602 80.718 59.0907 80.7276C59.1213 80.7371 59.154 80.7372 59.1846 80.7279C59.2152 80.7186 59.2422 80.7002 59.2623 80.6753C59.3618 80.6909 59.4635 80.6857 59.5608 80.6598C59.6582 80.6339 59.7491 80.588 59.8277 80.5251C59.902 80.4234 59.9699 80.3172 60.0309 80.207C60.0781 80.2603 60.1315 80.3078 60.19 80.3484C60.3411 80.4452 60.4974 80.5337 60.6583 80.6134C60.7981 80.6691 60.9431 80.7106 61.0912 80.7371H58.2462V83.8119H53.4926C53.4926 83.0697 54.3055 83.2111 54.3762 82.6279C54.3762 82.3717 54.1022 82.089 53.9432 81.9388C53.7842 81.7886 53.4838 81.656 53.3247 81.4881C53.1657 81.3203 53.2099 81.2054 53.1303 81.0994C53.0508 80.9933 52.6886 80.8078 52.5914 80.5604C52.4942 80.313 52.5914 80.0833 52.2998 79.8359C52.2081 79.7466 52.0944 79.6832 51.9702 79.6522C51.8461 79.6212 51.7159 79.6236 51.593 79.6592C51.4566 79.7182 51.3374 79.8108 51.2462 79.9281C51.1551 80.0455 51.0951 80.1839 51.0716 80.3307L51.0186 80.5339C51.025 80.6054 51.0078 80.677 50.9694 80.7377C50.9311 80.7983 50.8739 80.8447 50.8066 80.8697V67.3954H48.6242V60.2209H47.9792V43.3449H48.3856V38.9271H42.8015V33.0956H44.0474V32.6096H42.8015V30.1268H43.4289V29.5613H42.8015V28.7926H43.4289V28.3067H41.6617L41.1228 24.1186C41.1013 23.582 40.9472 23.059 40.6743 22.5965C40.4014 22.134 40.0182 21.7462 39.5589 21.4679C39.6115 21.4335 39.6545 21.3862 39.6839 21.3306C39.7133 21.2749 39.728 21.2127 39.7267 21.1498V21.0791C39.7279 21.0262 39.7185 20.9736 39.699 20.9243C39.6796 20.875 39.6505 20.8301 39.6135 20.7923C39.5764 20.7544 39.5322 20.7243 39.4834 20.7038C39.4345 20.6833 39.3821 20.6727 39.3291 20.6727H39.0818C39.1523 20.5142 39.1884 20.3426 39.1878 20.1691C39.1876 19.9299 39.1205 19.6955 38.994 19.4925C38.8675 19.2896 38.6867 19.126 38.4721 19.0205C38.5751 18.9391 38.6586 18.8358 38.7167 18.7182C38.7748 18.6005 38.8059 18.4713 38.8079 18.3401C38.8057 18.2111 38.7753 18.0841 38.7188 17.9681C38.6623 17.8521 38.5811 17.7499 38.4809 17.6686V15.9015H38.3219C38.5324 15.8128 38.7057 15.654 38.8124 15.452C38.9192 15.2501 38.9528 15.0174 38.9075 14.7935C38.8623 14.5696 38.7409 14.3683 38.5641 14.2237C38.3874 14.079 38.166 14 37.9375 14C37.7091 14 37.4877 14.079 37.3109 14.2237C37.1341 14.3683 37.0128 14.5696 36.9676 14.7935C36.9223 15.0174 36.9559 15.2501 37.0627 15.452C37.1694 15.654 37.3427 15.8128 37.5532 15.9015H37.3941V17.6686C37.2939 17.7499 37.2127 17.8521 37.1562 17.9681C37.0998 18.0841 37.0694 18.2111 37.0672 18.3401C37.0692 18.4713 37.1003 18.6005 37.1584 18.7182C37.2165 18.8358 37.3 18.9391 37.403 19.0205C37.1884 19.126 37.0076 19.2896 36.8811 19.4925C36.7546 19.6955 36.6875 19.9299 36.6873 20.1691C36.6867 20.3426 36.7228 20.5142 36.7933 20.6727H36.5459C36.493 20.6727 36.4405 20.6833 36.3917 20.7038C36.3429 20.7243 36.2986 20.7544 36.2616 20.7923C36.2246 20.8301 36.1955 20.875 36.176 20.9243C36.1566 20.9736 36.1472 21.0262 36.1483 21.0791V21.1498C36.1471 21.2127 36.1618 21.2749 36.1911 21.3306C36.2205 21.3862 36.2636 21.4335 36.3162 21.4679C35.8569 21.7462 35.4737 22.134 35.2008 22.5965C34.9279 23.059 34.7738 23.582 34.7523 24.1186L34.2133 28.3067H32.4462V28.7926H33.0824V29.5613H32.4551V30.0561H33.0824V32.5389H31.8366V33.0956H33.0824V39.0154H27.4718V43.4332H27.8782V60.3092H27.2332V67.4749H25.0508V79.9242C25.0508 79.9242 25.0508 79.9242 25.0066 79.9242C24.9526 79.8808 24.8902 79.8489 24.8233 79.8307C24.7564 79.8124 24.6865 79.8082 24.6179 79.8182C24.5283 79.8458 24.4465 79.8942 24.3793 79.9596C24.3793 79.9066 24.3793 79.8447 24.3793 79.7299C24.3772 79.6884 24.3597 79.6491 24.3304 79.6198C24.301 79.5904 24.2618 79.573 24.2203 79.5708H23.8403C23.8669 79.5234 23.8876 79.473 23.9022 79.4206C23.9268 79.3364 23.9308 79.2475 23.9139 79.1614C23.897 79.0753 23.8596 78.9945 23.805 78.9258C23.7449 78.8424 23.6649 78.7753 23.5724 78.7306C23.4798 78.6858 23.3776 78.6649 23.2749 78.6696C23.2907 78.5068 23.2548 78.3433 23.1723 78.2021C23.0898 78.0609 22.965 77.9493 22.8154 77.8832C22.716 77.8451 22.6095 77.8289 22.5032 77.8356C22.3969 77.8423 22.2933 77.8718 22.1994 77.9221C22.1055 77.9724 22.0236 78.0423 21.9591 78.127C21.8947 78.2118 21.8492 78.3095 21.8258 78.4134C21.7359 78.7013 21.6738 78.9972 21.6403 79.2969C21.5695 79.4572 21.5219 79.6268 21.4989 79.8005C21.4653 80.7465 21.5244 81.6935 21.6756 82.6279C21.7007 83.0912 21.907 83.5259 22.2499 83.8384L22.3559 83.8914H20.5888V86.2329H18.592V87.8233H20.5888V90.845H18.592V92.4355H20.5888V114.825H18.592V118.704H20.5888V151.175H18V165.762H147.486V151.175H146.09V118.704H148.087V114.825H146.09V92.3736H148.087V90.7832H146.09V87.7614H148.087ZM137.342 43.3449H138.226V60.2209H137.342V43.3449ZM120.979 60.2209H120.095V43.3449H120.979V60.2209ZM46.1237 43.3449H47.0073V60.2209H46.1237V43.3449ZM29.769 60.2209H28.8855V43.3449H29.769V60.2209ZM23.0628 83.8296C23.1992 83.7838 23.3434 83.7657 23.4869 83.7766C23.4869 83.7766 23.5311 83.7766 23.5488 83.8296H23.0628ZM25.0862 83.8296H24.936C25.0081 83.7663 25.0603 83.6834 25.0862 83.591V83.8296ZM25.0862 83.1669C25.0893 83.1287 25.0893 83.0903 25.0862 83.052C25.0862 82.999 25.0862 82.9284 25.0862 82.8577V83.1669ZM36.7756 35.0571C36.7733 34.768 36.8853 34.4897 37.0872 34.2828C37.2891 34.076 37.5646 33.9573 37.8536 33.9526H38.0391C38.3282 33.9573 38.6037 34.076 38.8056 34.2828C39.0075 34.4897 39.1194 34.768 39.1171 35.0571V38.2556H36.7756V35.0571ZM35.6889 46.8526H40.1509V59.4256H35.6359L35.6889 46.8526ZM39.8946 141.703H35.9981V135.103C35.9898 134.865 36.0294 134.629 36.1145 134.407C36.1995 134.186 36.3284 133.984 36.4933 133.813C36.6582 133.642 36.8559 133.506 37.0744 133.414C37.2929 133.321 37.5279 133.273 37.7652 133.274H38.0745C38.3118 133.273 38.5468 133.321 38.7653 133.414C38.9839 133.506 39.1815 133.642 39.3464 133.813C39.5113 133.984 39.6402 134.186 39.7253 134.407C39.8104 134.629 39.8499 134.865 39.8416 135.103L39.8946 141.703ZM40.3629 109.391H35.5298V99.0445H40.3629V109.391ZM37.9508 80.2335C36.6852 80.2616 35.4399 79.912 34.3739 79.2293C33.3078 78.5466 32.4693 77.5617 31.9654 76.4004C31.4615 75.2391 31.315 73.954 31.5446 72.7091C31.7742 71.4642 32.3695 70.3159 33.2546 69.4108C34.1396 68.5057 35.2742 67.8848 36.5137 67.6273C37.7531 67.3698 39.0412 67.4874 40.2135 67.9652C41.3858 68.4429 42.3892 69.2591 43.0957 70.3095C43.8021 71.36 44.1796 72.5971 44.1799 73.863C44.1939 74.6952 44.0431 75.5219 43.7362 76.2955C43.4294 77.0692 42.9724 77.7744 42.3918 78.3707C41.8111 78.9669 41.1182 79.4424 40.353 79.7697C39.5878 80.097 38.7653 80.2696 37.9331 80.2777L37.9508 80.2335ZM57.1594 153.304H53.7312V143.32H57.1594V153.304ZM57.3184 140.863H53.4043V132.355C53.3994 131.878 53.5818 131.418 53.9123 131.075C54.2427 130.731 54.6948 130.531 55.1714 130.517H55.4718C55.7099 130.517 55.9456 130.565 56.1648 130.658C56.3839 130.751 56.5819 130.888 56.747 131.059C56.912 131.231 57.0407 131.434 57.1252 131.657C57.2098 131.879 57.2484 132.117 57.2389 132.355L57.3184 140.863ZM57.3184 109.347H53.4043V100.829C53.4017 100.354 53.5852 99.8967 53.9154 99.5549C54.2456 99.2132 54.6964 99.0141 55.1714 99.0003H55.4718C55.7091 99.0002 55.9441 99.0478 56.1626 99.1405C56.3812 99.2331 56.5788 99.3689 56.7437 99.5396C56.9086 99.7103 57.0375 99.9124 57.1226 100.134C57.2077 100.356 57.2472 100.592 57.2389 100.829L57.3184 109.347ZM104.651 80.5074C104.715 80.6188 104.815 80.7058 104.933 80.7548H104.651V80.5074ZM95.7091 59.6024C95.7031 59.4827 95.7215 59.363 95.7632 59.2507C95.805 59.1383 95.8691 59.0356 95.9517 58.9488C96.0344 58.862 96.1338 58.793 96.244 58.7458C96.3542 58.6987 96.4728 58.6745 96.5927 58.6746H96.7517C96.8715 58.6745 96.9902 58.6987 97.1003 58.7458C97.2105 58.793 97.31 58.862 97.3926 58.9488C97.4753 59.0356 97.5394 59.1383 97.5811 59.2507C97.6228 59.363 97.6413 59.4827 97.6353 59.6024V62.1735H95.6561L95.7091 59.6024ZM95.7091 73.9249C95.7031 73.8052 95.7215 73.6855 95.7632 73.5732C95.805 73.4608 95.8691 73.3581 95.9517 73.2713C96.0344 73.1845 96.1338 73.1155 96.244 73.0683C96.3542 73.0212 96.4728 72.997 96.5927 72.9971H96.6987C96.8185 72.997 96.9371 73.0212 97.0473 73.0683C97.1575 73.1155 97.257 73.1845 97.3396 73.2713C97.4223 73.3581 97.4864 73.4608 97.5281 73.5732C97.5698 73.6855 97.5882 73.8052 97.5822 73.9249V79.2262H95.6031L95.7091 73.9249ZM91.6624 73.9249V79.2262H89.6302V73.9249C89.6242 73.8052 89.6426 73.6855 89.6843 73.5732C89.7261 73.4608 89.7902 73.3581 89.8728 73.2713C89.9555 73.1845 90.0549 73.1155 90.1651 73.0683C90.2753 73.0212 90.3939 72.997 90.5138 72.9971H90.6728C90.7985 72.9881 90.9247 73.006 91.043 73.0497C91.1612 73.0935 91.2687 73.162 91.3582 73.2507C91.4478 73.3394 91.5173 73.4463 91.5621 73.5641C91.607 73.6819 91.6261 73.8079 91.6182 73.9337L91.6624 73.9249ZM85.4775 59.6024C85.4715 59.4827 85.4899 59.363 85.5316 59.2507C85.5733 59.1383 85.6374 59.0356 85.7201 58.9488C85.8027 58.862 85.9022 58.793 86.0124 58.7458C86.1226 58.6987 86.2412 58.6745 86.361 58.6746H86.5201C86.6399 58.6745 86.7585 58.6987 86.8687 58.7458C86.9789 58.793 87.0783 58.862 87.161 58.9488C87.2436 59.0356 87.3078 59.1383 87.3495 59.2507C87.3912 59.363 87.4096 59.4827 87.4036 59.6024V62.1735H85.4245L85.4775 59.6024ZM84.5939 72.9971H84.7529C84.8728 72.997 84.9914 73.0212 85.1016 73.0683C85.2118 73.1155 85.3112 73.1845 85.3939 73.2713C85.4765 73.3581 85.5406 73.4608 85.5824 73.5732C85.6241 73.6855 85.6425 73.8052 85.6365 73.9249V79.2262H83.6573V73.9249C83.6526 73.8074 83.6714 73.6901 83.7126 73.58C83.7537 73.4698 83.8165 73.369 83.8971 73.2834C83.9778 73.1978 84.0747 73.1292 84.1822 73.0816C84.2897 73.0339 84.4056 73.0082 84.5232 73.006L84.5939 72.9971ZM81.9962 59.6024C81.9902 59.4827 82.0087 59.363 82.0504 59.2507C82.0921 59.1383 82.1562 59.0356 82.2389 58.9488C82.3215 58.862 82.421 58.793 82.5312 58.7458C82.6413 58.6987 82.7599 58.6745 82.8798 58.6746H83.0388C83.1587 58.6745 83.2773 58.6987 83.3875 58.7458C83.4977 58.793 83.5971 58.862 83.6798 58.9488C83.7624 59.0356 83.8265 59.1383 83.8682 59.2507C83.91 59.363 83.9284 59.4827 83.9224 59.6024V62.1735H81.9432L81.9962 59.6024ZM80.6003 73.9249C80.5943 73.8052 80.6126 73.6855 80.6543 73.5732C80.6961 73.4608 80.7602 73.3581 80.8429 73.2713C80.9255 73.1845 81.0249 73.1155 81.1351 73.0683C81.2453 73.0212 81.364 72.997 81.4838 72.9971H81.6782C81.798 72.997 81.9166 73.0212 82.0268 73.0683C82.137 73.1155 82.2365 73.1845 82.3191 73.2713C82.4018 73.3581 82.4659 73.4608 82.5076 73.5732C82.5493 73.6855 82.5677 73.8052 82.5617 73.9249V79.2262H80.5826L80.6003 73.9249ZM78.568 59.6024C78.562 59.4827 78.5805 59.363 78.6222 59.2507C78.6639 59.1383 78.728 59.0356 78.8107 58.9488C78.8933 58.862 78.9927 58.793 79.1029 58.7458C79.2131 58.6987 79.3317 58.6745 79.4516 58.6746H79.6106C79.7305 58.6745 79.8491 58.6987 79.9593 58.7458C80.0694 58.793 80.1689 58.862 80.2515 58.9488C80.3342 59.0356 80.3984 59.1383 80.4401 59.2507C80.4818 59.363 80.5002 59.4827 80.4942 59.6024V62.1735H78.515L78.568 59.6024ZM74.6097 73.9337C74.6037 73.814 74.6221 73.6943 74.6638 73.582C74.7055 73.4696 74.7697 73.367 74.8523 73.2802C74.935 73.1934 75.0344 73.1243 75.1446 73.0772C75.2548 73.0301 75.3734 73.0058 75.4932 73.006H75.6523C75.7721 73.0058 75.8907 73.0301 76.0009 73.0772C76.1111 73.1243 76.2106 73.1934 76.2932 73.2802C76.3759 73.367 76.44 73.4696 76.4817 73.582C76.5234 73.6943 76.5418 73.814 76.5358 73.9337V79.2351H74.6097V73.9337ZM68.2834 59.6024C68.2774 59.4827 68.2958 59.363 68.3375 59.2507C68.3792 59.1383 68.4434 59.0356 68.526 58.9488C68.6087 58.862 68.7082 58.793 68.8183 58.7458C68.9285 58.6987 69.0471 58.6745 69.167 58.6746H69.326C69.4459 58.6745 69.5645 58.6987 69.6747 58.7458C69.7848 58.793 69.8843 58.862 69.9669 58.9488C70.0496 59.0356 70.1137 59.1383 70.1554 59.2507C70.1971 59.363 70.2156 59.4827 70.2096 59.6024V62.1735H68.2304L68.2834 59.6024ZM70.5276 73.9249V79.2262H68.5485V73.9249C68.5425 73.8052 68.5609 73.6855 68.6026 73.5732C68.6443 73.4608 68.7085 73.3581 68.7911 73.2713C68.8738 73.1845 68.9732 73.1155 69.0834 73.0683C69.1936 73.0212 69.3122 72.997 69.432 72.9971H69.5911C69.7161 72.9894 69.8413 73.0083 69.9584 73.0526C70.0756 73.0969 70.182 73.1657 70.2706 73.2542C70.3591 73.3428 70.4278 73.4492 70.4722 73.5663C70.5165 73.6835 70.5354 73.8087 70.5276 73.9337V73.9249ZM62.9025 153.657H60.7201V126.921H62.9025V153.657ZM62.9025 113.544H60.7201V95.4042H62.9025V113.544ZM64.5018 79.2616H62.5226V73.9602C62.5166 73.8405 62.535 73.7209 62.5767 73.6085C62.6185 73.4962 62.6826 73.3935 62.7652 73.3067C62.8479 73.2199 62.9473 73.1508 63.0575 73.1037C63.1677 73.0566 63.2863 73.0323 63.4062 73.0325H63.5652C63.685 73.0323 63.8037 73.0566 63.9138 73.1037C64.024 73.1508 64.1235 73.2199 64.2061 73.3067C64.2888 73.3935 64.3529 73.4962 64.3946 73.6085C64.4363 73.7209 64.4547 73.8405 64.4487 73.9602L64.5018 79.2616ZM65.5355 73.9602C65.5295 73.8405 65.548 73.7209 65.5897 73.6085C65.6314 73.4962 65.6955 73.3935 65.7782 73.3067C65.8608 73.2199 65.9602 73.1508 66.0704 73.1037C66.1806 73.0566 66.2992 73.0323 66.4191 73.0325H66.5781C66.6979 73.0323 66.8166 73.0566 66.9268 73.1037C67.0369 73.1508 67.1364 73.2199 67.219 73.3067C67.3017 73.3935 67.3659 73.4962 67.4076 73.6085C67.4493 73.7209 67.4677 73.8405 67.4617 73.9602V79.2616H65.4825L65.5355 73.9602ZM71.959 153.666H65.5709V126.921H71.959V153.666ZM71.959 113.553H65.5709V95.4042H71.959V113.553ZM73.5583 79.2704H71.5791V73.9691C71.5731 73.8494 71.5915 73.7297 71.6332 73.6173C71.6749 73.505 71.7391 73.4023 71.8217 73.3155C71.9044 73.2287 72.0038 73.1597 72.114 73.1125C72.2242 73.0654 72.3428 73.0412 72.4626 73.0413H72.6217C72.7415 73.0412 72.8601 73.0654 72.9703 73.1125C73.0805 73.1597 73.18 73.2287 73.2626 73.3155C73.3453 73.4023 73.4094 73.505 73.4511 73.6173C73.4928 73.7297 73.5112 73.8494 73.5052 73.9691L73.5583 79.2704ZM73.7084 62.1824H71.7293V59.6024C71.7233 59.4827 71.7417 59.363 71.7834 59.2507C71.8251 59.1383 71.8892 59.0356 71.9719 58.9488C72.0545 58.862 72.154 58.793 72.2642 58.7458C72.3744 58.6987 72.493 58.6745 72.6128 58.6746H72.7719C72.8917 58.6745 73.0103 58.6987 73.1205 58.7458C73.2307 58.793 73.3302 58.862 73.4128 58.9488C73.4955 59.0356 73.5596 59.1383 73.6013 59.2507C73.643 59.363 73.6614 59.4827 73.6554 59.6024L73.7084 62.1824ZM76.633 153.666H74.4595V126.921H76.633V153.666ZM76.633 113.553H74.4595V95.4042H76.633V113.553ZM77.1367 62.1824H75.1398V59.6024C75.1338 59.4827 75.1522 59.363 75.1939 59.2507C75.2357 59.1383 75.2998 59.0356 75.3825 58.9488C75.4651 58.862 75.5645 58.793 75.6747 58.7458C75.7849 58.6987 75.9035 58.6745 76.0234 58.6746H76.1824C76.3023 58.6745 76.4209 58.6987 76.5311 58.7458C76.6413 58.793 76.7407 58.862 76.8233 58.9488C76.906 59.0356 76.9702 59.1383 77.0119 59.2507C77.0536 59.363 77.072 59.4827 77.066 59.6024L77.1367 62.1824ZM77.605 73.9337C77.599 73.814 77.6174 73.6943 77.6591 73.582C77.7008 73.4696 77.7649 73.367 77.8476 73.2802C77.9302 73.1934 78.0297 73.1243 78.1399 73.0772C78.2501 73.0301 78.3687 73.0058 78.4885 73.006H78.6476C78.7674 73.0058 78.886 73.0301 78.9962 73.0772C79.1064 73.1243 79.2058 73.1934 79.2885 73.2802C79.3712 73.367 79.4353 73.4696 79.477 73.582C79.5187 73.6943 79.5371 73.814 79.5311 73.9337V79.2351H77.552L77.605 73.9337ZM86.847 153.666H79.2837V126.921H86.847V153.666ZM86.847 113.553H79.2837V95.4042H86.847V113.553ZM88.6141 79.2704H86.6261V73.9691C86.6201 73.8494 86.6385 73.7297 86.6802 73.6173C86.7219 73.505 86.7861 73.4023 86.8688 73.3155C86.9514 73.2287 87.0508 73.1597 87.161 73.1125C87.2712 73.0654 87.3898 73.0412 87.5096 73.0413H87.6687C87.7886 73.0412 87.9072 73.0654 88.0174 73.1125C88.1276 73.1597 88.227 73.2287 88.3096 73.3155C88.3923 73.4023 88.4564 73.505 88.4981 73.6173C88.5399 73.7297 88.5583 73.8494 88.5523 73.9691L88.6141 79.2704ZM88.8615 59.6112C88.8555 59.4915 88.8739 59.3718 88.9157 59.2595C88.9574 59.1471 89.0215 59.0445 89.1041 58.9577C89.1868 58.8709 89.2862 58.8018 89.3964 58.7547C89.5066 58.7076 89.6252 58.6833 89.7451 58.6835H89.9041C90.0239 58.6833 90.1426 58.7076 90.2528 58.7547C90.3629 58.8018 90.4624 58.8709 90.545 58.9577C90.6277 59.0445 90.6918 59.1471 90.7335 59.2595C90.7752 59.3718 90.7937 59.4915 90.7877 59.6112V62.1824H88.8085L88.8615 59.6112ZM91.7419 153.357H89.5595V126.921H91.7419V153.357ZM91.7419 113.553H89.5595V95.4042H91.7419V113.553ZM92.2809 59.6024C92.2749 59.4827 92.2933 59.363 92.335 59.2507C92.3767 59.1383 92.4409 59.0356 92.5235 58.9488C92.6062 58.862 92.7056 58.793 92.8158 58.7458C92.926 58.6987 93.0446 58.6745 93.1644 58.6746H93.3235C93.4433 58.6745 93.5619 58.6987 93.6721 58.7458C93.7823 58.793 93.8818 58.862 93.9644 58.9488C94.0471 59.0356 94.1112 59.1383 94.1529 59.2507C94.1946 59.363 94.213 59.4827 94.207 59.6024V62.1735H92.2809V59.6024ZM92.652 73.9249C92.646 73.8052 92.6644 73.6855 92.7061 73.5732C92.7478 73.4608 92.812 73.3581 92.8946 73.2713C92.9773 73.1845 93.0767 73.1155 93.1869 73.0683C93.2971 73.0212 93.4157 72.997 93.5355 72.9971H93.6946C93.8144 72.997 93.933 73.0212 94.0432 73.0683C94.1534 73.1155 94.2528 73.1845 94.3355 73.2713C94.4181 73.3581 94.4823 73.4608 94.524 73.5732C94.5657 73.6855 94.5841 73.8052 94.5781 73.9249V79.2262H92.599L92.652 73.9249ZM100.454 153.657H94.048V126.921H100.427L100.454 153.657ZM100.454 113.544H94.048V95.4042H100.427L100.454 113.544ZM100.657 79.2616H98.6778V73.9602C98.6719 73.8405 98.6903 73.7209 98.732 73.6085C98.7737 73.4962 98.8378 73.3935 98.9205 73.3067C99.0031 73.2199 99.1026 73.1508 99.2128 73.1037C99.3229 73.0566 99.4416 73.0323 99.5614 73.0325H99.7204C99.8403 73.0323 99.9589 73.0566 100.069 73.1037C100.179 73.1508 100.279 73.2199 100.361 73.3067C100.444 73.3935 100.508 73.4962 100.55 73.6085C100.592 73.7209 100.61 73.8405 100.604 73.9602L100.657 79.2616ZM101.691 73.9602C101.685 73.8405 101.703 73.7209 101.745 73.6085C101.787 73.4962 101.851 73.3935 101.933 73.3067C102.016 73.2199 102.116 73.1508 102.226 73.1037C102.336 73.0566 102.455 73.0323 102.574 73.0325H102.733C102.853 73.0323 102.972 73.0566 103.082 73.1037C103.192 73.1508 103.292 73.2199 103.374 73.3067C103.457 73.3935 103.521 73.4962 103.563 73.6085C103.605 73.7209 103.623 73.8405 103.617 73.9602V79.2616H101.638L101.691 73.9602ZM105.446 153.693H103.264V126.921H105.446V153.693ZM105.446 113.579H103.264V95.4042H105.446V113.579ZM105.375 80.7813C105.465 80.7531 105.549 80.7081 105.623 80.6488C105.623 80.6046 105.711 80.4986 105.764 80.472L105.852 80.2777C105.932 80.0744 106.029 80.2335 106.153 80.7459L105.375 80.7813ZM112.302 153.375H108.874V143.32H112.302V153.375ZM112.779 140.89H108.883V132.381C108.878 131.904 109.061 131.445 109.391 131.101C109.721 130.758 110.174 130.557 110.65 130.543H110.951C111.427 130.557 111.879 130.758 112.21 131.101C112.54 131.445 112.722 131.904 112.718 132.381L112.779 140.89ZM112.779 109.373H108.883V100.856C108.88 100.381 109.064 99.9232 109.394 99.5815C109.724 99.2397 110.175 99.0406 110.65 99.0268H110.951C111.426 99.0384 111.878 99.2367 112.209 99.579C112.54 99.9212 112.722 100.38 112.718 100.856L112.779 109.373ZM127.968 35.0394C127.966 34.7503 128.077 34.472 128.279 34.2652C128.481 34.0583 128.757 33.9396 129.046 33.935H129.231C129.52 33.9396 129.796 34.0583 129.998 34.2652C130.2 34.472 130.312 34.7503 130.309 35.0394V38.2379H127.968V35.0394ZM126.881 46.8349H131.396V59.4256H126.881V46.8349ZM131.087 141.685H127.19V135.085C127.182 134.848 127.222 134.611 127.307 134.39C127.392 134.168 127.521 133.966 127.686 133.795C127.85 133.624 128.048 133.489 128.267 133.396C128.485 133.303 128.72 133.256 128.957 133.256H129.267C129.504 133.256 129.739 133.303 129.958 133.396C130.176 133.489 130.374 133.624 130.539 133.795C130.704 133.966 130.832 134.168 130.917 134.39C131.003 134.611 131.042 134.848 131.034 135.085L131.087 141.685ZM131.555 109.373H126.74V99.0445H131.573L131.555 109.373ZM129.143 80.2158C127.876 80.2527 126.626 79.9107 125.555 79.2336C124.483 78.5564 123.638 77.5749 123.127 76.4145C122.616 75.2542 122.463 73.9679 122.688 72.7202C122.912 71.4725 123.504 70.3201 124.387 69.4105C125.27 68.5009 126.404 67.8755 127.645 67.6143C128.885 67.3531 130.176 67.4679 131.351 67.9441C132.525 68.4204 133.532 69.2363 134.24 70.2876C134.949 71.3389 135.327 72.5776 135.328 73.8453C135.344 74.6738 135.197 75.4975 134.895 76.2691C134.593 77.0408 134.142 77.7455 133.568 78.3428C132.994 78.9401 132.307 79.4184 131.548 79.7504C130.789 80.0824 129.971 80.2616 129.143 80.2777V80.2158Z" fill="#E1EBF8"/>
<path d="M307.077 101.683C307.222 101.05 307.361 100.411 307.485 99.7664C308.207 96.1467 308.606 92.4698 308.677 88.7793C308.942 89.3941 309.38 89.9185 309.938 90.2885C310.496 90.6585 311.149 90.8581 311.818 90.8629C312.753 90.8629 313.649 90.4918 314.309 89.8311C314.97 89.1705 315.341 88.2745 315.341 87.3402C315.341 86.4059 314.97 85.5099 314.309 84.8492C313.649 84.1886 312.753 83.8175 311.818 83.8175C311.145 83.8215 310.488 84.0225 309.928 84.3956C309.368 84.7688 308.929 85.2977 308.666 85.9171C308.588 82.8776 308.287 79.8479 307.764 76.8525C307.764 76.6807 307.705 76.5089 307.673 76.3155C307.555 75.6658 307.426 75.0106 307.286 74.3609C307.168 73.8239 307.044 73.2869 306.916 72.7499C306.889 72.6586 306.873 72.5673 306.851 72.4813C307.256 73.0437 307.824 73.469 308.477 73.7002C309.131 73.9315 309.839 73.9578 310.508 73.7755C311.394 73.5187 312.145 72.9256 312.599 72.1228C313.054 71.3201 313.176 70.3714 312.941 69.4795C312.829 69.0369 312.63 68.621 312.356 68.256C312.082 67.8909 311.738 67.584 311.344 67.3531C310.951 67.1222 310.515 66.972 310.062 66.9111C309.61 66.8503 309.15 66.88 308.709 66.9986C308.031 67.1928 307.428 67.5876 306.978 68.131C306.529 68.6744 306.254 69.341 306.191 70.0434C306.126 69.8339 306.067 69.6191 306.003 69.4043L305.97 69.2969C305.112 66.484 304.057 63.7349 302.813 61.0701C302.673 60.7694 302.528 60.474 302.389 60.1786C302.185 59.7598 301.975 59.3409 301.76 58.9274C301.637 58.6912 301.524 58.4441 301.395 58.2025C301.923 58.6952 302.594 59.0064 303.311 59.0904C304.028 59.1745 304.753 59.0271 305.38 58.6697C306.183 58.2019 306.772 57.4379 307.019 56.5415C307.266 55.6451 307.152 54.6876 306.701 53.8743C306.486 53.4729 306.193 53.1186 305.839 52.8325C305.484 52.5464 305.077 52.3343 304.639 52.2086C304.201 52.0829 303.743 52.0463 303.291 52.1009C302.839 52.1555 302.403 52.3002 302.007 52.5264C301.37 52.8987 300.864 53.4615 300.563 54.1358C300.261 54.81 300.179 55.5618 300.327 56.2854C297.893 52.0253 294.954 48.0748 291.573 44.5197C292.222 44.876 292.97 45.0101 293.702 44.9015C294.434 44.7929 295.11 44.4475 295.628 43.9183C296.276 43.2508 296.639 42.357 296.639 41.4266C296.639 40.4961 296.276 39.6023 295.628 38.9349C295.311 38.6088 294.932 38.3496 294.513 38.1726C294.095 37.9956 293.644 37.9044 293.19 37.9044C292.735 37.9044 292.285 37.9956 291.866 38.1726C291.448 38.3496 291.069 38.6088 290.752 38.9349C290.229 39.4744 289.891 40.1655 289.785 40.9091C289.678 41.6528 289.81 42.411 290.161 43.0752C286.793 39.7592 283.046 36.8519 278.997 34.4133C279.733 34.6125 280.515 34.5595 281.218 34.2626C281.92 33.9658 282.504 33.4422 282.874 32.7755C283.329 31.9663 283.451 31.0115 283.214 30.114C282.976 29.2165 282.397 28.4471 281.601 27.9693C281.208 27.7394 280.773 27.5905 280.322 27.5314C279.87 27.4724 279.411 27.5044 278.972 27.6255C278.534 27.7466 278.123 27.9544 277.766 28.2367C277.409 28.5189 277.111 28.8699 276.892 29.2689C276.509 29.9539 276.363 30.7459 276.476 31.5224C276.588 32.2989 276.953 33.0167 277.515 33.5649C276.951 33.248 276.387 32.9366 275.807 32.6359C275.227 32.3351 274.685 32.0559 274.116 31.7767L273.428 31.4491C272.662 31.0911 271.883 30.7456 271.092 30.4127L270.969 30.359L270.861 30.316C269.986 29.9562 269.105 29.6125 268.209 29.2903L268.09 29.2474C267.22 28.9431 266.343 28.6549 265.459 28.3828L265.319 28.3345C266.099 28.3621 266.866 28.1243 267.493 27.66C268.12 27.1957 268.571 26.5323 268.772 25.7783C269.026 24.8862 268.918 23.9301 268.471 23.1171C268.025 22.3041 267.277 21.6994 266.388 21.434C265.949 21.3114 265.49 21.2772 265.038 21.3334C264.585 21.3896 264.149 21.535 263.753 21.7613C263.357 21.9877 263.011 22.2903 262.733 22.6517C262.455 23.0131 262.252 23.4261 262.135 23.8666C261.924 24.6271 261.972 25.4361 262.271 26.1663C262.571 26.8965 263.105 27.5062 263.789 27.8995L262.796 27.6364L262.055 27.4538C261.426 27.3034 260.798 27.1638 260.159 27.0296C256.492 26.266 252.761 25.8578 249.016 25.8106C249.838 25.6133 250.56 25.1212 251.043 24.4276C251.527 23.734 251.739 22.8871 251.64 22.0474C251.54 21.2077 251.136 20.4336 250.504 19.8719C249.872 19.3103 249.056 19 248.211 19C247.365 19 246.549 19.3103 245.917 19.8719C245.285 20.4336 244.881 21.2077 244.782 22.0474C244.682 22.8871 244.895 23.734 245.378 24.4276C245.862 25.1212 246.583 25.6133 247.405 25.8106C244.171 25.8578 240.947 26.174 237.766 26.7557L237.229 26.8523C236.59 26.9759 235.956 27.1047 235.323 27.2444C234.782 27.3697 234.245 27.4985 233.712 27.631C233.561 27.6686 233.411 27.6954 233.261 27.7384C233.942 27.3498 234.475 26.7464 234.777 26.0227C235.079 25.2989 235.133 24.4954 234.931 23.7377C234.819 23.2954 234.621 22.8796 234.348 22.5145C234.074 22.1495 233.731 21.8426 233.337 21.6117C232.944 21.3808 232.509 21.2305 232.057 21.1695C231.605 21.1086 231.145 21.1383 230.704 21.2568C229.819 21.5147 229.07 22.1084 228.617 22.911C228.163 23.7136 228.041 24.6616 228.277 25.5528C228.471 26.3035 228.913 26.9668 229.531 27.4355C230.149 27.9041 230.906 28.1509 231.682 28.1358L230.398 28.5278L230.291 28.56C228.296 29.1917 226.337 29.9302 224.421 30.7725C222.714 31.5189 221.054 32.3405 219.449 33.2212C220.017 32.6779 220.389 31.9619 220.508 31.1847C220.626 30.4076 220.484 29.6131 220.104 28.9252C219.889 28.5237 219.595 28.1694 219.24 27.8831C218.886 27.5968 218.478 27.3843 218.04 27.2582C217.602 27.1321 217.143 27.0949 216.691 27.1488C216.238 27.2027 215.801 27.3465 215.405 27.5719C214.604 28.0416 214.017 28.8056 213.77 29.7013C213.524 30.5969 213.636 31.5535 214.084 32.3674C214.451 33.0444 215.035 33.5777 215.743 33.8809C216.451 34.184 217.24 34.2392 217.983 34.0374C213.703 36.5574 209.751 39.5966 206.217 43.0859C206.589 42.4206 206.737 41.6537 206.641 40.8977C206.544 40.1418 206.207 39.4369 205.68 38.8866C205.363 38.5605 204.984 38.3013 204.566 38.1243C204.147 37.9473 203.697 37.8561 203.242 37.8561C202.788 37.8561 202.337 37.9473 201.919 38.1243C201.5 38.3013 201.121 38.5605 200.804 38.8866C200.156 39.554 199.793 40.4478 199.793 41.3782C199.793 42.3087 200.156 43.2025 200.804 43.8699C201.327 44.4056 202.013 44.7531 202.754 44.858C203.495 44.9629 204.25 44.8194 204.901 44.4499C202.423 47.0597 200.178 49.8827 198.194 52.8862L197.824 53.4554L197.523 53.9118C197.142 54.5133 196.771 55.1147 196.406 55.7269C196.573 55.0027 196.507 54.2445 196.217 53.56C195.928 52.8755 195.43 52.2996 194.795 51.9142C194.402 51.6846 193.967 51.5361 193.516 51.4775C193.064 51.4189 192.606 51.4514 192.167 51.5731C191.729 51.6947 191.319 51.9031 190.962 52.1858C190.606 52.4685 190.309 52.8199 190.091 53.2191C189.624 54.0301 189.496 54.9923 189.735 55.897C189.973 56.8018 190.558 57.5761 191.364 58.0521C191.994 58.4222 192.728 58.5772 193.455 58.4939C194.181 58.4106 194.861 58.0935 195.391 57.5903C193.339 61.3477 191.68 65.3066 190.44 69.4043C190.384 68.6997 190.117 68.0284 189.672 67.4791C189.227 66.9297 188.626 66.5282 187.948 66.3273C187.509 66.2048 187.05 66.1708 186.597 66.2273C186.144 66.2839 185.708 66.4298 185.312 66.6567C184.916 66.8835 184.569 67.1867 184.292 67.5487C184.014 67.9107 183.812 68.3243 183.695 68.7653C183.434 69.6554 183.532 70.6127 183.97 71.4306C184.408 72.2484 185.151 72.8612 186.037 73.1365C186.707 73.3254 187.419 73.3047 188.078 73.0772C188.736 72.8497 189.309 72.4263 189.72 71.8638C188.533 76.473 187.874 81.202 187.755 85.9601C187.499 85.3295 187.062 84.7889 186.499 84.4066C185.936 84.0242 185.273 83.8174 184.592 83.8121C183.954 83.7995 183.325 83.9604 182.772 84.2774C182.218 84.5945 181.761 85.0559 181.449 85.6124C181.138 86.1689 180.983 86.7996 181.002 87.4372C181.02 88.0748 181.212 88.6954 181.555 89.2327C181.899 89.77 182.382 90.2039 182.953 90.488C183.525 90.7722 184.162 90.8959 184.798 90.8461C185.434 90.7962 186.044 90.5747 186.564 90.205C187.084 89.8353 187.494 89.3314 187.75 88.7471C187.787 90.9665 187.945 93.1822 188.222 95.3845C188.219 95.4184 188.219 95.4525 188.222 95.4865C188.281 95.9483 188.346 96.4155 188.416 96.8773L188.464 97.2103C188.523 97.5915 188.587 97.9728 188.652 98.3541C188.684 98.542 188.722 98.73 188.754 98.9233C188.813 99.2186 188.867 99.5194 188.926 99.8201C188.985 100.121 189.033 100.357 189.092 100.62C189.151 100.883 189.183 101.055 189.232 101.275C189.28 101.496 189.345 101.775 189.404 102.022C188.988 101.516 188.434 101.142 187.81 100.943C187.186 100.745 186.518 100.732 185.886 100.905C185 101.162 184.25 101.755 183.797 102.558C183.343 103.361 183.222 104.31 183.459 105.201C183.571 105.643 183.77 106.059 184.044 106.424C184.318 106.789 184.662 107.096 185.055 107.327C185.449 107.558 185.885 107.708 186.337 107.769C186.79 107.83 187.25 107.8 187.691 107.682C188.322 107.502 188.889 107.147 189.328 106.659C189.767 106.171 190.059 105.568 190.172 104.922C190.815 107.169 191.586 109.378 192.481 111.537C192.481 111.537 192.481 111.537 192.481 111.564C192.819 112.381 193.179 113.175 193.555 113.981C193.71 114.314 193.866 114.636 194.027 114.964C194.188 115.291 194.408 115.742 194.607 116.123C194.607 116.123 194.607 116.15 194.607 116.166C194.082 115.797 193.463 115.585 192.822 115.554C192.181 115.524 191.545 115.676 190.988 115.995C190.184 116.462 189.596 117.226 189.349 118.123C189.102 119.019 189.216 119.977 189.667 120.79C189.882 121.191 190.176 121.545 190.53 121.83C190.884 122.116 191.292 122.328 191.729 122.453C192.167 122.579 192.625 122.616 193.077 122.562C193.528 122.507 193.965 122.363 194.36 122.138C194.917 121.811 195.375 121.338 195.682 120.77C195.99 120.202 196.136 119.561 196.105 118.916C198.362 122.849 201.051 126.518 204.123 129.855C203.532 129.68 202.905 129.67 202.309 129.825C201.713 129.98 201.17 130.295 200.74 130.735C200.091 131.403 199.729 132.297 199.729 133.227C199.729 134.157 200.091 135.051 200.74 135.719C201.057 136.045 201.436 136.304 201.854 136.481C202.273 136.658 202.723 136.749 203.178 136.749C203.632 136.749 204.082 136.658 204.501 136.481C204.92 136.304 205.299 136.045 205.616 135.719C206.049 135.27 206.356 134.715 206.508 134.11C206.66 133.505 206.65 132.871 206.48 132.271C209.534 135.236 212.895 137.868 216.506 140.122C215.893 140.118 215.29 140.279 214.76 140.588C214.23 140.897 213.792 141.342 213.493 141.878C213.038 142.687 212.916 143.642 213.154 144.54C213.392 145.437 213.97 146.206 214.766 146.684C215.159 146.914 215.594 147.063 216.046 147.122C216.497 147.181 216.956 147.149 217.395 147.028C217.834 146.907 218.244 146.699 218.602 146.417C218.959 146.135 219.256 145.784 219.476 145.385C219.777 144.843 219.933 144.233 219.927 143.614C219.922 142.994 219.755 142.387 219.443 141.851L220.582 142.458C221.119 142.743 221.656 142.995 222.22 143.285C222.467 143.403 222.714 143.527 222.966 143.639C223.718 143.994 224.475 144.327 225.243 144.649L225.399 144.724L225.533 144.772C226.371 145.13 227.217 145.458 228.073 145.755L228.261 145.825C228.852 146.034 229.442 146.238 230.044 146.432C229.458 146.588 228.923 146.896 228.494 147.324C228.064 147.751 227.754 148.285 227.595 148.87C227.342 149.762 227.45 150.718 227.896 151.531C228.342 152.344 229.091 152.949 229.979 153.214C230.424 153.344 230.89 153.378 231.349 153.316L228.116 168.186C228.069 168.391 228.068 168.603 228.114 168.809C228.159 169.014 228.25 169.207 228.379 169.372C228.505 169.538 228.668 169.672 228.854 169.766C229.04 169.859 229.245 169.908 229.453 169.91H265.921C266.129 169.908 266.334 169.859 266.52 169.766C266.706 169.672 266.869 169.538 266.995 169.372C267.124 169.207 267.215 169.014 267.26 168.809C267.306 168.603 267.305 168.391 267.258 168.186L263.977 153.483C264.547 153.633 265.147 153.633 265.717 153.483C266.608 153.225 267.362 152.627 267.816 151.818C268.27 151.01 268.388 150.055 268.144 149.16C267.991 148.573 267.687 148.037 267.262 147.604C266.837 147.172 266.306 146.858 265.722 146.695L265.83 146.663L266.039 146.598C268.818 145.722 271.53 144.646 274.153 143.376L275.045 142.931L276.242 142.302L276.371 142.232C276.051 142.766 275.877 143.373 275.863 143.995C275.85 144.616 275.999 145.23 276.296 145.777C276.511 146.178 276.805 146.532 277.159 146.819C277.514 147.105 277.922 147.318 278.36 147.444C278.798 147.57 279.257 147.607 279.709 147.553C280.161 147.499 280.599 147.355 280.995 147.13C281.796 146.66 282.383 145.896 282.629 145.001C282.876 144.105 282.763 143.148 282.316 142.334C282.023 141.797 281.591 141.348 281.066 141.034C280.541 140.719 279.942 140.551 279.33 140.546C283.137 138.219 286.674 135.476 289.877 132.368C289.707 132.968 289.697 133.602 289.849 134.207C290 134.812 290.308 135.366 290.741 135.815C291.058 136.141 291.437 136.401 291.856 136.578C292.274 136.755 292.724 136.846 293.179 136.846C293.634 136.846 294.084 136.755 294.503 136.578C294.921 136.401 295.3 136.141 295.617 135.815C296.265 135.148 296.628 134.254 296.628 133.324C296.628 132.393 296.265 131.499 295.617 130.832C295.186 130.391 294.643 130.075 294.045 129.92C293.448 129.765 292.82 129.776 292.229 129.951C295.157 126.774 297.74 123.294 299.935 119.571C299.899 120.213 300.039 120.853 300.341 121.421C300.643 121.989 301.095 122.464 301.648 122.793C302.04 123.023 302.475 123.172 302.926 123.231C303.377 123.29 303.836 123.258 304.274 123.136C304.713 123.015 305.122 122.807 305.479 122.525C305.836 122.243 306.133 121.892 306.352 121.493C306.828 120.681 306.962 119.714 306.725 118.803C306.489 117.892 305.901 117.112 305.09 116.634C304.54 116.309 303.908 116.149 303.27 116.17C302.632 116.192 302.013 116.396 301.487 116.757C301.664 116.419 301.836 116.08 302.024 115.737C302.314 115.168 302.587 114.593 302.861 114.013L303.183 113.31C303.541 112.518 303.88 111.724 304.198 110.925L304.252 110.796C304.267 110.761 304.28 110.726 304.29 110.689C304.644 109.798 304.982 108.895 305.294 108.004C305.294 107.961 305.294 107.918 305.337 107.875C305.595 107.118 305.842 106.35 306.073 105.577C306.178 106.225 306.464 106.83 306.898 107.322C307.332 107.814 307.897 108.173 308.527 108.358C308.967 108.48 309.427 108.512 309.88 108.453C310.333 108.394 310.77 108.246 311.165 108.016C311.56 107.787 311.905 107.481 312.181 107.116C312.456 106.752 312.656 106.336 312.769 105.894C313.021 105.001 312.912 104.046 312.466 103.233C312.02 102.421 311.272 101.816 310.385 101.549C309.756 101.369 309.088 101.375 308.462 101.565C307.836 101.756 307.279 102.123 306.857 102.623L306.905 102.441C306.953 102.199 307.018 101.941 307.077 101.683ZM192.695 108.17C192.674 108.12 192.656 108.068 192.642 108.015L197.196 107.478L193.485 110.206C193.259 109.669 193.039 109.089 192.83 108.525C192.781 108.423 192.733 108.299 192.69 108.17H192.695ZM191.756 105.324C191.723 105.222 191.702 105.115 191.67 105.013L196.24 104.744L192.395 107.268C192.228 106.785 192.062 106.296 191.906 105.808C191.852 105.647 191.799 105.485 191.75 105.324H191.756ZM239.334 27.8888C239.602 27.8458 239.871 27.8189 240.145 27.7814L239.705 32.2922L237.916 28.1412L238.217 28.0875C238.582 28.0284 238.953 27.9425 239.329 27.8888H239.334ZM242.228 27.5129C242.556 27.4806 242.889 27.4645 243.217 27.4377L242.545 31.9109L240.972 27.674L241.697 27.5773L242.228 27.5129ZM251.98 27.3357L252.469 27.3786L251.121 31.6746L250.224 27.2497H250.761L251.98 27.3357ZM306.003 100.115C305.928 100.464 305.847 100.808 305.766 101.157L301.755 99.0951L305.068 98.934L306.191 99.1488C306.164 99.2831 306.148 99.4227 306.121 99.5623C306.094 99.7019 306.04 99.9329 306.003 100.115ZM305.192 103.488C305.127 103.729 305.058 103.971 304.988 104.213L301.089 101.941H305.584C305.557 102.049 305.536 102.161 305.509 102.269C305.412 102.672 305.299 103.09 305.192 103.488ZM299.167 104.648L303.414 107.429L298.399 106.866C298.342 106.86 298.285 106.874 298.237 106.904C298.188 106.934 298.151 106.979 298.13 107.032C298.109 107.087 298.107 107.147 298.124 107.203C298.14 107.259 298.174 107.309 298.222 107.343L302.319 110.351L297.336 109.524C297.279 109.514 297.221 109.524 297.17 109.551C297.119 109.578 297.079 109.621 297.056 109.674C297.033 109.727 297.027 109.786 297.041 109.843C297.055 109.899 297.086 109.949 297.131 109.986L301.068 113.208L296.138 112.134C296.082 112.118 296.023 112.123 295.971 112.148C295.919 112.173 295.877 112.215 295.853 112.268C295.828 112.32 295.819 112.379 295.83 112.436C295.841 112.493 295.87 112.545 295.912 112.585L299.671 116.016L294.806 114.657C294.751 114.641 294.692 114.644 294.639 114.667C294.586 114.689 294.543 114.73 294.516 114.781C294.487 114.831 294.475 114.889 294.483 114.947C294.49 115.004 294.517 115.058 294.559 115.098L298.141 118.728L293.351 117.117C293.298 117.097 293.239 117.097 293.185 117.115C293.131 117.134 293.086 117.17 293.056 117.219C293.026 117.265 293.011 117.32 293.013 117.375L292.792 117.23C296.523 111.381 299.121 104.883 300.45 98.0748L302.856 98.5367L300.745 98.6387C300.688 98.6419 300.634 98.6636 300.591 98.7004C300.547 98.7372 300.517 98.7871 300.504 98.8427C300.491 98.8999 300.497 98.9597 300.521 99.013C300.546 99.0663 300.587 99.1103 300.638 99.1381L305.149 101.453L300.101 101.426C300.043 101.426 299.987 101.446 299.941 101.482C299.895 101.518 299.863 101.568 299.849 101.624C299.835 101.68 299.839 101.739 299.862 101.793C299.884 101.846 299.923 101.89 299.972 101.92L304.354 104.476L299.317 104.181C299.26 104.178 299.204 104.195 299.157 104.228C299.11 104.261 299.076 104.308 299.059 104.363C299.046 104.416 299.05 104.471 299.069 104.522C299.088 104.573 299.122 104.617 299.167 104.648ZM191.074 102.902C191.036 102.757 190.999 102.618 190.966 102.473C190.934 102.328 190.891 102.129 190.848 101.963H195.423L191.455 104.283C191.326 103.805 191.192 103.354 191.074 102.902ZM190.381 99.8899L190.317 99.5999C190.29 99.4603 190.274 99.3207 190.247 99.1811L191.519 98.9394L194.741 99.0951L190.666 101.195C190.574 100.76 190.467 100.33 190.381 99.8899ZM225.286 31.9324L226.006 36.4378L223.224 32.8882C223.89 32.566 224.556 32.2492 225.238 31.9539L225.286 31.9324ZM228.723 31.1323L231.139 34.9772C230.495 35.192 229.845 35.4122 229.212 35.6484L228.723 31.1323ZM231.639 30.1656L233.867 34.1556C233.201 34.3382 232.546 34.5261 231.891 34.7302L231.639 30.1656ZM234.598 29.3548L236.628 33.4843C235.951 33.6293 235.285 33.7904 234.619 33.9569L234.598 29.3548ZM299.344 70.7952L304.381 70.4998L299.999 73.0559C299.949 73.0863 299.91 73.1319 299.888 73.186C299.866 73.2401 299.861 73.2999 299.876 73.3567C299.891 73.412 299.924 73.4608 299.969 73.4958C300.015 73.5307 300.071 73.5497 300.128 73.55L305.176 73.5231L300.665 75.843C300.612 75.8688 300.569 75.9115 300.544 75.9644C300.518 76.0173 300.511 76.0772 300.523 76.1347C300.536 76.1922 300.567 76.2439 300.612 76.2815C300.657 76.3191 300.714 76.3406 300.772 76.3424L305.165 76.5518L300.611 77.4325C299.301 70.0507 296.506 63.0116 292.395 56.7418L295.95 54.2233L293.082 57.4453C293.048 57.4921 293.03 57.5485 293.03 57.6064C293.03 57.6643 293.048 57.7207 293.082 57.7675C293.112 57.8169 293.157 57.8546 293.211 57.8742C293.265 57.8938 293.324 57.8941 293.378 57.8749L298.168 56.2639L294.586 59.8887C294.545 59.9303 294.518 59.9843 294.51 60.0425C294.503 60.1007 294.514 60.1599 294.543 60.2109C294.57 60.261 294.614 60.3002 294.667 60.3218C294.72 60.3433 294.779 60.3459 294.833 60.329L299.698 58.9758L295.939 62.4018C295.896 62.4411 295.868 62.4933 295.857 62.5504C295.846 62.6075 295.854 62.6666 295.88 62.7187C295.905 62.7703 295.947 62.8121 295.999 62.8374C296.05 62.8627 296.109 62.87 296.165 62.8583L301.095 61.7843L297.158 65.0063C297.113 65.0427 297.081 65.0929 297.068 65.1493C297.054 65.2056 297.06 65.2648 297.083 65.3178C297.105 65.3714 297.145 65.4159 297.196 65.4441C297.246 65.4724 297.305 65.4827 297.362 65.4735L302.346 64.6411L298.248 67.6483C298.201 67.6832 298.167 67.7325 298.15 67.7887C298.134 67.845 298.136 67.905 298.157 67.9598C298.177 68.0134 298.214 68.0588 298.263 68.089C298.311 68.1191 298.369 68.1322 298.426 68.1263L303.441 67.5893L299.194 70.3763C299.146 70.4085 299.11 70.4553 299.092 70.5095C299.074 70.5638 299.073 70.6226 299.091 70.677C299.116 70.7209 299.153 70.756 299.198 70.7773C299.244 70.7985 299.295 70.8048 299.344 70.7952ZM294.194 118.782L296.476 121.343L291.778 119.474C291.724 119.454 291.664 119.452 291.609 119.468C291.554 119.485 291.505 119.519 291.471 119.566C291.437 119.612 291.419 119.669 291.419 119.727C291.419 119.785 291.437 119.841 291.471 119.888L294.667 123.878L290.07 121.73C290.017 121.706 289.958 121.701 289.901 121.714C289.845 121.728 289.795 121.76 289.758 121.805C289.724 121.852 289.706 121.908 289.706 121.966C289.706 122.024 289.724 122.08 289.758 122.127L292.744 126.284L288.26 123.921C288.21 123.893 288.152 123.883 288.095 123.893C288.038 123.903 287.987 123.931 287.949 123.974C287.915 124.021 287.896 124.078 287.896 124.136C287.896 124.193 287.915 124.25 287.949 124.297L290.714 128.593L286.359 125.994C286.311 125.964 286.253 125.951 286.197 125.958C286.14 125.965 286.088 125.991 286.048 126.031C286.006 126.073 285.98 126.127 285.972 126.185C285.964 126.243 285.976 126.302 286.005 126.353L288.55 130.805L284.308 128.007C284.26 127.975 284.202 127.96 284.145 127.965C284.087 127.969 284.033 127.994 283.991 128.034C283.948 128.073 283.919 128.126 283.909 128.183C283.898 128.24 283.906 128.299 283.932 128.351L286.246 132.932L282.181 129.881C282.136 129.846 282.08 129.827 282.023 129.827C281.966 129.827 281.91 129.846 281.865 129.881C281.82 129.919 281.788 129.97 281.775 130.027C281.761 130.084 281.766 130.144 281.789 130.198L283.878 134.892L279.969 131.632C279.925 131.595 279.87 131.575 279.813 131.575C279.756 131.575 279.701 131.595 279.657 131.632C279.61 131.667 279.576 131.716 279.559 131.772C279.543 131.829 279.545 131.889 279.566 131.944L281.397 136.744L280.86 136.207L278.336 132.448C283.959 128.453 288.776 123.432 292.535 117.649L294.194 118.782ZM295.907 119.92L297.421 120.93C297.33 121.058 297.25 121.198 297.164 121.332L295.907 119.92ZM296.696 121.998C296.262 122.637 295.821 123.271 295.359 123.894L292.508 120.328L296.696 121.998ZM276.178 140.02L272.816 136.17C272.779 136.127 272.729 136.098 272.673 136.087C272.618 136.077 272.56 136.085 272.51 136.111C272.458 136.137 272.417 136.18 272.392 136.232C272.368 136.285 272.362 136.344 272.376 136.401L273.45 141.438L270.297 137.416C270.262 137.371 270.213 137.339 270.157 137.326C270.102 137.312 270.044 137.317 269.991 137.34C269.938 137.364 269.895 137.405 269.868 137.457C269.84 137.509 269.831 137.568 269.841 137.625L270.652 142.71L267.709 138.527C267.678 138.483 267.634 138.45 267.582 138.434C267.531 138.417 267.475 138.418 267.425 138.436C271.118 136.935 274.632 135.026 277.901 132.744L279.196 134.682L277.665 133.281C277.623 133.241 277.569 133.217 277.511 133.213C277.454 133.208 277.397 133.222 277.348 133.254C277.301 133.287 277.266 133.335 277.247 133.39C277.229 133.445 277.229 133.505 277.246 133.56L278.83 138.452L275.281 134.79C275.24 134.749 275.187 134.722 275.13 134.714C275.072 134.707 275.014 134.718 274.964 134.747C274.914 134.777 274.876 134.823 274.855 134.877C274.833 134.932 274.83 134.991 274.846 135.047L276.178 140.02ZM264.874 144.799L262.371 140.326C262.346 140.277 262.304 140.239 262.253 140.219C263.069 139.982 263.864 139.73 264.675 139.456C264.647 139.481 264.625 139.512 264.609 139.546C264.594 139.58 264.585 139.617 264.584 139.655L264.874 144.799ZM248.227 147.919C247.851 147.919 247.475 147.919 247.099 147.887L248.264 143.36L249.43 147.887C249.016 147.887 248.619 147.909 248.216 147.909L248.227 147.919ZM220.163 132.883L225.49 124.393L225.651 124.495C229.083 126.699 232.816 128.392 236.735 129.522L234.587 139.188C229.481 137.831 224.613 135.702 220.152 132.873L220.163 132.883ZM218.783 135.085L219.422 134.065C219.959 134.398 220.496 134.714 221.033 135.026L217.714 138.452L218.783 135.085ZM200.042 121.343L203.038 117.976C203.264 118.314 203.5 118.642 203.731 118.975L200.82 121.037L200.042 121.343ZM189.575 80.4236L189.624 80.0101L193.871 81.6211L189.382 82.3246C189.382 82.2709 189.382 82.2172 189.382 82.1581C189.436 81.5889 189.495 80.9982 189.565 80.4129L189.575 80.4236ZM203.57 58.4066L212.242 64.1686C211.394 65.5358 210.621 66.9484 209.928 68.4001C209.863 68.5398 209.794 68.6794 209.729 68.8136C209.547 69.2003 209.38 69.5923 209.192 69.9843C209.063 70.2904 208.929 70.5911 208.8 70.9026C208.768 70.9885 208.725 71.0744 208.693 71.1657C208.612 71.3644 208.542 71.5738 208.467 71.7779C208.317 72.1645 208.166 72.5512 208.032 72.9485C207.93 73.2332 207.839 73.5231 207.742 73.8131C207.619 74.189 207.501 74.5649 207.388 74.9462C207.275 75.3275 207.173 75.6873 207.076 76.0578C206.996 76.3478 206.921 76.6324 206.851 76.917C206.717 77.454 206.604 77.991 206.491 78.4958C206.464 78.63 206.432 78.7589 206.405 78.8878C206.378 79.0167 206.319 79.2959 206.282 79.5053L196.079 77.556C197.316 70.7426 199.856 64.2317 203.559 58.3797L203.57 58.4066ZM237.546 34.7785L239.527 44.9547C239.21 45.0191 238.899 45.0997 238.582 45.1748C238.265 45.25 238.008 45.3037 237.718 45.3789C237.181 45.5131 236.697 45.6635 236.193 45.8192C236.026 45.8676 235.854 45.9105 235.688 45.9642C235.059 46.1629 234.437 46.3777 233.819 46.6033L233.669 46.657C232.981 46.9094 232.305 47.194 231.639 47.4678C229.046 48.5853 226.571 49.9578 224.25 51.5652L218.45 42.8872C224.193 38.9043 230.687 36.1309 237.535 34.7355L237.546 34.7785ZM247.684 33.7636C251.233 33.7539 254.773 34.1139 258.247 34.8376L256.298 44.8097C253.645 44.2861 250.947 44.0199 248.243 44.0149C247.513 44.0149 246.788 44.0149 246.057 44.074H245.934C245.262 44.1062 244.597 44.1599 243.925 44.2297L243.453 44.2888C242.916 44.3479 242.379 44.4123 241.842 44.4982C241.568 44.5412 241.305 44.5949 241.02 44.6432C240.736 44.6915 240.376 44.7506 240.059 44.815L238.072 34.655C241.236 34.043 244.451 33.7301 247.674 33.7206L247.684 33.7636ZM283.771 108.949C283.54 109.352 283.298 109.744 283.057 110.136C282.971 110.27 282.89 110.404 282.804 110.533L257.168 93.4566C257.469 92.9818 257.733 92.4845 257.957 91.9691L286.295 103.746C285.602 105.448 284.801 107.103 283.894 108.702L283.771 108.949ZM281.36 112.665C281.301 112.751 281.236 112.832 281.172 112.918C280.087 114.386 278.906 115.782 277.638 117.095L255.992 94.9817C256.308 94.6431 256.602 94.2844 256.872 93.9077L282.52 110.995L282.138 111.532C281.864 111.924 281.623 112.3 281.338 112.665H281.36ZM262.114 127.25C261.534 127.46 260.954 127.664 260.368 127.846C260.207 127.9 260.046 127.937 259.885 127.986C259.396 128.136 258.913 128.276 258.424 128.405L251.588 97.8386L252.029 97.6721L263.95 126.498C263.413 126.729 262.876 126.955 262.339 127.159L262.114 127.25ZM247.695 140.863C244.524 140.86 241.36 140.564 238.244 139.977L240.134 130.311C241.648 130.609 243.177 130.823 244.715 130.95L245.531 131.014L246.417 131.063C246.954 131.09 247.529 131.106 248.087 131.106H248.297C249.721 131.105 251.144 131.03 252.56 130.88C252.7 130.88 252.834 130.848 252.974 130.832C253.511 130.767 254.091 130.698 254.649 130.612C254.934 130.569 255.186 130.51 255.487 130.461L256.024 130.365L257.592 137.405L258.059 139.794C254.643 140.503 251.163 140.861 247.674 140.863H247.695ZM250.842 142.173L249.822 147.221L248.538 142.238C249.279 142.238 250.053 142.216 250.82 142.173H250.842ZM248.023 142.265L246.718 147.243L245.703 142.232C246.358 142.232 247.008 142.281 247.668 142.281L248.023 142.265ZM245.203 142.206L243.684 147.065L242.932 142.045C243.662 142.114 244.419 142.173 245.182 142.206H245.203ZM242.395 142.002L240.639 146.738L240.145 141.722C240.87 141.83 241.616 141.926 242.373 142.002H242.395ZM237.288 139.8L239.436 130.177L239.624 130.22L237.739 139.886L237.288 139.8ZM227.289 123.851C226.94 123.641 226.596 123.416 226.247 123.196L242.782 96.8827C243.144 97.1041 243.519 97.3049 243.904 97.4841L243.877 97.6023L232.38 126.45C230.716 125.744 229.102 124.928 227.547 124.007L227.289 123.851ZM205.17 118.588L213.424 112.73C216.345 116.95 220.001 120.612 224.217 123.539L224.583 123.792L225.05 124.103L219.723 132.588C214.018 128.892 209.071 124.14 205.148 118.588H205.17ZM214.009 130.128L210.277 132.932L212.393 128.738C212.887 129.21 213.424 129.677 213.988 130.128H214.009ZM216.264 131.884L212.634 134.892L214.546 130.569C215.104 131.02 215.668 131.46 216.243 131.884H216.264ZM204.236 119.668L202.898 120.205L204.042 119.394L204.236 119.668ZM189.78 85.9118L193.931 85.0364C193.904 85.6916 193.888 86.3521 193.882 87.0126L189.78 85.9118ZM194.215 81.2022L190.263 79.6772L194.457 79.2476C194.344 79.8973 194.263 80.5471 194.194 81.1915L194.215 81.2022ZM193.973 84.1021L189.919 82.8025L194.097 82.1528C194.036 82.7936 193.988 83.4433 193.952 84.1021H193.973ZM195.252 87.2918C195.257 84.2033 195.522 81.1207 196.046 78.0769L206.249 80.0262C205.354 85.1686 205.383 90.4295 206.335 95.5617L196.234 97.5002C195.58 94.1365 195.244 90.7186 195.23 87.2918H195.252ZM207.876 78.7911C207.984 78.281 208.097 77.7654 208.22 77.2607C208.29 76.9868 208.365 76.7237 208.44 76.4337C208.515 76.1437 208.634 75.7087 208.741 75.3597C208.848 75.0106 208.967 74.6347 209.085 74.2857C209.203 73.9366 209.267 73.7165 209.369 73.4372C209.498 73.0613 209.638 72.6908 209.783 72.3149C209.815 72.2236 209.853 72.1377 209.885 72.0464L238.281 83.8282C238.076 84.3887 237.918 84.9652 237.809 85.552L207.689 79.7899C207.726 79.5912 207.753 79.3872 207.796 79.1885C207.839 78.9898 207.828 78.92 207.855 78.7911H207.876ZM210.991 69.4204L211.184 69.0231C211.86 67.6247 212.611 66.2641 213.434 64.9472L239.098 82.0453C238.9 82.4046 238.721 82.7738 238.561 83.1516L210.169 71.3698C210.282 71.0959 210.4 70.8328 210.513 70.5589C210.631 70.1776 210.798 69.7963 210.97 69.4204H210.991ZM234.27 47.8974C234.872 47.6773 235.473 47.4678 236.08 47.2745L236.542 47.1403C237.041 46.9899 237.54 46.8449 238.04 46.716C238.308 46.6409 238.577 46.5871 238.856 46.5173L239.79 46.3025L245.783 77.0029C245.314 77.1188 244.853 77.2659 244.403 77.4432L232.482 48.6063C233.019 48.3754 233.556 48.1498 234.12 47.9458L234.27 47.8974ZM242.008 45.889C242.545 45.8085 243.082 45.7387 243.662 45.6742L244.027 45.6313C245.295 45.497 246.578 45.4326 247.872 45.4219V76.7237C247.342 76.7396 246.814 76.7971 246.294 76.8955L240.274 46.1898L241.197 46.0233C241.482 45.975 241.745 45.9213 242.008 45.8783V45.889ZM276.312 42.4576L271.065 50.8133C270.668 50.5556 270.271 50.3032 269.863 50.0562L269.599 49.9004C265.639 47.536 261.315 45.8431 256.803 44.8902L258.747 34.945C265.018 36.3306 270.975 38.8748 276.312 42.4469V42.4576ZM271.479 52.7627C273.505 54.1813 275.401 55.7771 277.144 57.5312L255.487 79.6342C255.094 79.2565 254.674 78.9082 254.23 78.5924L270.754 52.2794L271.065 52.4781L271.479 52.7627ZM287.084 73.3943C287.294 73.985 287.492 74.5757 287.669 75.1717C287.718 75.3436 287.761 75.5154 287.814 75.7087C287.954 76.2028 288.099 76.7022 288.223 77.2016C288.292 77.4808 288.351 77.7654 288.411 78.0501C288.502 78.4367 288.593 78.8287 288.674 79.2207C288.706 79.3926 288.733 79.5644 288.765 79.7577L258.693 85.5466C258.57 84.9194 258.39 84.3048 258.156 83.7101L286.375 71.5362C286.595 72.0732 286.816 72.6532 287.014 73.2117C287.025 73.2332 287.047 73.3083 287.073 73.3835L287.084 73.3943ZM289.028 81.2398C289.103 81.75 289.162 82.2655 289.221 82.781C289.221 82.9582 289.264 83.1355 289.28 83.318C289.345 83.9463 289.388 84.58 289.425 85.2136C289.425 85.2835 289.425 85.3533 289.425 85.4231C289.458 86.0192 289.468 86.6206 289.474 87.2274H258.865C258.853 86.8284 258.819 86.4305 258.763 86.0353L288.867 80.2464C288.873 80.2969 288.882 80.3471 288.894 80.3968C288.921 80.6545 288.974 80.9445 289.017 81.2291L289.028 81.2398ZM286.563 103.09L258.204 91.3247C258.355 90.9083 258.48 90.4833 258.58 90.052L288.679 95.8087C288.185 98.2902 287.474 100.723 286.553 103.08L286.563 103.09ZM271.554 122.315L254.295 96.4907C254.719 96.1843 255.121 95.8488 255.498 95.4865L277.144 117.6C275.42 119.33 273.545 120.904 271.543 122.304L271.554 122.315ZM254.418 129.242C253.93 129.318 253.441 129.377 252.947 129.436L252.41 129.506C251.814 129.565 251.212 129.613 250.606 129.645H250.353C249.768 129.672 249.183 129.683 248.592 129.688V98.3756H248.914L255.739 128.985L255.304 129.065C254.982 129.13 254.692 129.189 254.408 129.232L254.418 129.242ZM225.42 122.68L224.744 122.202C224.373 121.939 223.997 121.665 223.637 121.397L223.396 121.214C221.955 120.099 220.588 118.892 219.304 117.6L240.966 95.4758C241.388 95.8861 241.843 96.2614 242.325 96.5981L225.775 122.917L225.42 122.68ZM250.847 45.5078L251.626 45.5668C253.102 45.6961 254.57 45.9041 256.024 46.1898L250.031 76.874C249.547 76.7883 249.057 76.7381 248.565 76.7237V45.4111C249.038 45.4111 249.51 45.4111 249.983 45.4487L250.847 45.5078ZM270.346 51.9894L253.817 78.3024C253.413 78.0479 252.994 77.82 252.56 77.6205L264.079 48.6224C266.185 49.5254 268.211 50.6032 270.136 51.8444L270.346 51.9894ZM285.43 69.3775C285.661 69.8608 285.876 70.3602 286.091 70.8596L257.871 83.0281C257.669 82.5801 257.438 82.1459 257.179 81.7285L282.332 63.8947C283.466 65.5936 284.477 67.3721 285.355 69.2164C285.382 69.2486 285.409 69.3023 285.43 69.3775ZM218.842 117.117C217.292 115.504 215.871 113.771 214.594 111.935L239.737 94.0795C239.966 94.3933 240.211 94.6945 240.472 94.9817L218.842 117.117ZM250.557 76.9814L256.523 46.2864C258.878 46.7839 261.184 47.4902 263.413 48.3968L251.894 77.3949C251.451 77.2167 250.995 77.0714 250.53 76.9599L250.557 76.9814ZM245.279 104.03L246.557 98.2843C247.001 98.359 247.449 98.4039 247.899 98.4185V129.72C245.384 129.695 242.876 129.437 240.408 128.947L245.279 104.03ZM239.909 128.84L239.758 128.802L241.047 123.008L239.909 128.84ZM277.649 58.0414C279.27 59.7225 280.746 61.5367 282.063 63.4651L256.921 81.2882C256.64 80.8886 256.334 80.5083 256.003 80.1497L277.649 58.0414ZM242.325 78.5656L225.028 52.7304C227.173 51.2342 229.457 49.9484 231.848 48.8909L243.77 77.7279C243.256 77.9589 242.762 78.2319 242.293 78.5441L242.325 78.5656ZM241.912 78.877C241.591 79.1227 241.284 79.3862 240.993 79.6664L219.331 57.542C220.972 55.8944 222.749 54.3873 224.642 53.0365L241.912 78.877ZM218.794 58.0199L240.451 80.1444C240.035 80.5951 239.658 81.0802 239.323 81.5943L213.692 64.5015C215.175 62.1784 216.884 60.0073 218.794 58.0199ZM237.589 87.2059H206.98C207.002 84.8859 207.209 82.5713 207.597 80.284L237.734 86.0514C237.672 86.4336 237.633 86.8191 237.616 87.2059H237.589ZM206.98 87.9094H237.637C237.652 88.4496 237.706 88.988 237.798 89.5204L207.683 95.3093C207.235 92.8676 207 90.3917 206.98 87.9094ZM239.447 93.6499L214.288 111.484C212.746 109.215 211.424 106.803 210.341 104.283L238.577 92.098C238.819 92.6364 239.103 93.1553 239.425 93.6499H239.447ZM237.052 128.104C235.686 127.712 234.342 127.25 233.024 126.718L242.91 101.845L237.052 128.104ZM253.849 96.7645L271.114 122.605C269.052 124.013 266.867 125.23 264.584 126.241L252.668 97.4143C253.074 97.2222 253.469 97.0052 253.849 96.7645ZM258.682 89.5258C258.778 88.9937 258.834 88.4552 258.849 87.9148H289.458C289.433 90.3864 289.196 92.8513 288.749 95.2824L258.682 89.5258ZM207.758 95.8141L237.889 90.0252C237.997 90.5089 238.139 90.9844 238.314 91.4482L210.078 103.627C209.606 102.446 209.176 101.259 208.805 100.056C208.382 98.6612 208.031 97.2453 207.753 95.8141H207.758ZM261.115 140.541C261.394 140.466 261.652 140.374 261.947 140.299C261.914 140.34 261.895 140.391 261.893 140.444V144.123L261.115 140.541ZM290.022 78.9146C289.93 78.4797 289.834 78.0554 289.732 77.6258C289.673 77.3573 289.619 77.0888 289.554 76.8311C289.415 76.2941 289.264 75.7571 289.103 75.2201C289.06 75.0751 289.028 74.9301 288.985 74.7797C288.781 74.1192 288.566 73.4587 288.335 72.8089L288.303 72.7123C288.002 71.8745 287.675 71.0529 287.331 70.2367C286.272 67.74 284.983 65.3472 283.481 63.0892L291.289 57.5635C295.288 63.6684 298.008 70.5207 299.285 77.7064L290.156 79.4677C290.075 79.269 290.048 79.0918 290.016 78.9146H290.022ZM283.191 62.6274C280.628 58.8786 277.487 55.5599 273.885 52.7949L273.622 52.5908C273.251 52.3062 272.875 52.0538 272.494 51.7692L271.774 51.2644L271.506 51.0818L276.752 42.7315C282.366 46.5744 287.194 51.4535 290.977 57.107L283.191 62.6274ZM281.8 44.8097C281.199 44.3049 280.581 43.8109 279.958 43.3276L283.868 40.0626L281.789 44.7613C281.789 44.7613 281.8 44.7936 281.795 44.8097H281.8ZM289.769 52.8164C289.748 52.8541 289.737 52.8966 289.737 52.9399C289.737 52.9831 289.748 53.0257 289.769 53.0634C289.229 52.376 288.674 51.6994 288.104 51.0335C288.133 51.0466 288.164 51.0533 288.196 51.0533C288.227 51.0533 288.258 51.0466 288.287 51.0335L292.771 48.6707L289.769 52.8164ZM290.086 53.2084L294.683 51.0926L291.488 55.0825C291.454 55.1293 291.435 55.1857 291.435 55.2436C291.435 55.3015 291.454 55.3579 291.488 55.4047C290.951 54.6475 290.414 53.9011 289.844 53.1762C289.878 53.2006 289.917 53.2163 289.958 53.2219C290 53.2276 290.042 53.2229 290.081 53.2084H290.086ZM291.482 55.4047C291.515 55.4517 291.562 55.4863 291.617 55.5029C291.671 55.5195 291.73 55.517 291.783 55.496L295.128 54.1589L292.105 56.3069C291.896 56.0008 291.686 55.7054 291.477 55.4155L291.482 55.4047ZM292.513 54.6368L295.306 51.1463C295.757 51.7585 296.192 52.376 296.621 53.0043L292.513 54.6368ZM290.752 52.317L293.356 48.6922C293.84 49.2722 294.307 49.8682 294.763 50.4697L290.752 52.317ZM288.894 50.0938L291.305 46.3348C291.815 46.8718 292.309 47.4517 292.798 48.0263L288.894 50.0938ZM287.922 50.6308C287.89 50.682 287.875 50.7422 287.879 50.8026C287.342 50.1689 286.767 49.5568 286.193 48.95C286.239 48.9605 286.286 48.9605 286.332 48.95L290.687 46.3509L287.922 50.6308ZM285.978 48.5633C285.958 48.6033 285.949 48.6476 285.951 48.6922C285.382 48.1015 284.8 47.5251 284.206 46.963C284.241 46.9617 284.276 46.9526 284.308 46.9362L288.523 44.1116L285.978 48.5633ZM283.932 46.5979C283.929 46.6282 283.929 46.6588 283.932 46.6892C283.341 46.1522 282.74 45.6152 282.128 45.0782C282.149 45.0806 282.171 45.0806 282.192 45.0782L286.257 42.028L283.932 46.5979ZM282.697 44.0579L284.507 39.9659C285.092 40.4331 285.677 40.9057 286.246 41.3997L282.697 44.0579ZM280.425 42.275L282.036 38.0864C282.643 38.5268 283.255 38.9671 283.846 39.4289L280.425 42.275ZM279.588 43.0215C278.965 42.5489 278.342 42.0924 277.697 41.6521L281.419 38.1938L279.588 43.0215ZM277.074 41.2655C276.5 40.8788 275.925 40.5029 275.335 40.1378L278.852 36.513L277.568 40.4761L277.074 41.2655ZM272.897 38.7308L276.199 34.9718L274.878 39.8961C274.216 39.5023 273.548 39.1139 272.875 38.7308H272.897ZM270.346 37.4581L273.428 33.5273L272.354 38.4784C271.721 38.124 271.049 37.7803 270.346 37.4581ZM267.774 36.3143L270.63 32.2546L269.836 37.2218C269.175 36.905 268.488 36.6204 267.79 36.3143H267.774ZM267.237 36.0995C266.544 35.8203 265.851 35.5625 265.148 35.3101L267.774 31.1323L267.237 36.0995ZM264.578 35.1168C263.88 34.8751 263.177 34.655 262.468 34.4455L264.858 30.1495L264.578 35.1168ZM261.893 34.2737C261.185 34.0804 260.476 33.8978 259.745 33.7367L261.893 29.3601V34.2737ZM259.01 33.5541L259.117 33.0171L259.144 33.6025L259.01 33.5541ZM258.505 33.436C258.011 33.3286 257.506 33.248 257.001 33.1567L258.918 28.705L259.015 30.8208L258.505 33.436ZM254.209 32.7379L255.884 28.2163L256.357 33.0493C255.653 32.9258 254.939 32.8238 254.236 32.7379H254.209ZM223.992 37.9307L223.052 33.5273L225.828 37.0607C225.238 37.3454 224.609 37.63 224.003 37.9307H223.992ZM221.479 39.3054L220.319 34.9718L223.256 38.3388C222.671 38.6288 222.08 38.9456 221.479 39.3054ZM219.041 40.7875L217.666 36.5345L220.759 39.7243C220.195 40.0465 219.621 40.3794 219.057 40.7661L219.041 40.7875ZM217.645 41.7004L215.711 38.8114L218.337 41.2494C218.122 41.3782 217.886 41.5232 217.661 41.679L217.645 41.7004ZM212.226 45.9965L210.239 42.0602L213.735 44.6808C213.236 45.0782 212.736 45.5185 212.242 45.9642L212.226 45.9965ZM214.406 44.1438L212.618 40.0894L215.991 42.9087C215.47 43.2792 214.943 43.6927 214.423 44.1384L214.406 44.1438ZM216.683 42.4093L215.609 39.6169L217.22 42.0173L216.683 42.4093ZM216.087 42.3072L212.64 39.4289C213.241 38.9617 213.859 38.516 214.476 38.0757L216.087 42.3072ZM213.816 44.0901L210.229 41.4051C210.803 40.9057 211.394 40.4277 211.99 39.9552L213.816 44.0901ZM211.641 45.9911L207.919 43.494C208.456 42.957 209.031 42.4576 209.6 41.9528L211.641 45.9911ZM211.571 46.5764C211.082 47.0275 210.61 47.4947 210.137 47.9619L207.978 44.1384L211.571 46.5764ZM208.156 50.0401L205.793 46.367L209.509 48.5848C209.063 49.0251 208.618 49.5084 208.172 50.0078L208.156 50.0401ZM206.276 52.1881L203.758 48.66L207.576 50.6684C207.141 51.1678 206.711 51.6564 206.292 52.1934L206.276 52.1881ZM204.515 54.465L201.83 51.098L205.739 52.8969C205.331 53.4071 204.923 53.928 204.531 54.4596L204.515 54.465ZM217.999 43.1503L223.799 51.8337C219.305 55.0292 215.475 59.067 212.522 63.7229L203.838 57.9394C207.564 52.1388 212.379 47.1148 218.015 43.145L217.999 43.1503ZM196.626 69.8608L193.082 67.5302L197.265 68.0028C197.056 68.6096 196.852 69.2325 196.642 69.8554L196.626 69.8608ZM195.794 72.6425L192.132 70.4944L196.331 70.7415C196.154 71.3698 195.982 72.0034 195.81 72.6371L195.794 72.6425ZM198.726 64.4532L195.423 61.7682L199.564 62.6864C199.29 63.2557 199.011 63.8464 198.742 64.4478L198.726 64.4532ZM197.604 67.1382L194.178 64.6197L198.345 65.3178C198.103 65.9031 197.851 66.5099 197.62 67.1221L197.604 67.1382ZM197.174 67.4711L192.701 66.9663C192.964 66.236 193.238 65.5057 193.522 64.7861L197.174 67.4711ZM196.24 70.2152L191.74 69.9467C191.965 69.2056 192.201 68.4592 192.448 67.7235L196.24 70.2152ZM195.429 73.0184H190.907C191.095 72.2558 191.299 71.504 191.509 70.7522L195.429 73.0184ZM195.563 73.5554C195.402 74.189 195.268 74.8281 195.128 75.4725L191.369 73.5339L195.563 73.5554ZM194.768 77.3144L190.977 76.5894L194.929 76.3961C194.86 76.6861 194.817 76.9922 194.763 77.2983L194.768 77.3144ZM194.677 77.8514C194.645 78.0178 194.613 78.1843 194.586 78.3508L192.572 77.4325L194.677 77.8514ZM194.237 78.7696L189.726 79.2315C189.828 78.4743 189.951 77.7225 190.08 76.9707L190.333 77.019L194.237 78.7696ZM193.641 84.5854L189.183 85.4875C189.183 85.2244 189.183 84.9505 189.183 84.7035C189.183 84.4565 189.216 84.1665 189.232 83.9034C189.248 83.6402 189.269 83.3664 189.285 83.1301L193.641 84.5854ZM189.14 87.5765C189.14 87.1576 189.14 86.7441 189.173 86.3306L193.565 87.512L189.167 88.688C189.167 88.3229 189.14 87.9577 189.14 87.614V87.5765ZM193.877 87.9738C193.877 88.6344 193.877 89.3002 193.925 89.9554L189.763 89.0747L193.877 87.9738ZM194.129 92.8606L189.925 92.2L193.984 90.879C194.022 91.5073 194.059 92.1678 194.124 92.8283L194.129 92.8606ZM194.489 95.7443L190.247 95.3146L194.242 93.7681C194.312 94.3964 194.387 95.0623 194.484 95.6906L194.489 95.7443ZM194.237 96.249L190.059 98.1232C189.984 97.6989 189.903 97.2747 189.833 96.8451V96.7216C189.785 96.4155 189.758 96.0987 189.715 95.7872L194.237 96.249ZM190.725 98.397L194.65 96.6357C194.715 97.0223 194.779 97.409 194.849 97.7902L191.487 98.4346L190.725 98.397ZM194.94 98.3057L195.005 98.6065L193.716 98.542L194.94 98.3057ZM195.665 101.436H191.369L195.209 99.4603C195.343 100.11 195.493 100.765 195.66 101.41L195.665 101.436ZM196.293 98.048L206.394 96.104C206.685 97.588 207.053 99.056 207.495 100.502C207.909 101.871 208.392 103.187 208.934 104.524C209.192 105.153 209.471 105.77 209.756 106.382L209.842 106.559C210.786 108.56 211.883 110.484 213.123 112.316L204.832 118.159C200.634 112.102 197.726 105.248 196.288 98.0211L196.293 98.048ZM199.752 112.284L195.456 113.24L198.876 110.437C199.145 111.033 199.462 111.645 199.746 112.257L199.752 112.284ZM201.11 114.835L196.814 116.027L200.106 113.03C200.439 113.616 200.772 114.212 201.105 114.808L201.11 114.835ZM202.603 117.305L198.388 118.712L201.54 115.527C201.862 116.097 202.227 116.703 202.598 117.278L202.603 117.305ZM201.073 121.493L204.026 120.317L201.132 123.931C200.729 123.394 200.348 122.857 199.961 122.283L201.073 121.493ZM204.697 120.317C205.111 120.854 205.535 121.429 205.97 121.971L201.851 123.867L204.697 120.317ZM207.817 124.173L203.758 126.3L206.443 122.573C206.883 123.115 207.329 123.652 207.796 124.152L207.817 124.173ZM209.777 126.267L205.83 128.625L208.333 124.732C208.784 125.252 209.262 125.763 209.756 126.267H209.777ZM211.845 128.254L208 130.837L210.309 126.788C210.792 127.288 211.303 127.776 211.813 128.254H211.845ZM211.678 129.001L209.584 133.141C209.004 132.604 208.424 132.099 207.86 131.557L211.678 129.001ZM213.853 130.902L211.979 135.155C211.367 134.666 210.766 134.172 210.175 133.662L213.853 130.902ZM216.125 132.679L214.444 137.04C213.81 136.583 213.182 136.127 212.564 135.643L216.125 132.679ZM216.828 132.293C217.414 132.711 218.004 133.12 218.606 133.512L215.131 136.734L216.828 132.293ZM237.465 141.266L237.395 141.62V141.25L237.465 141.266ZM237.975 141.357C238.512 141.459 239.049 141.567 239.586 141.647L237.589 146.249L237.471 143.8L237.975 141.357ZM237.122 146.824L236.917 146.786L237.084 145.938L237.122 146.824ZM239.721 142.662L240.177 147.334C239.404 147.221 238.636 147.098 237.873 146.958L239.721 142.662ZM242.561 143.043L243.254 147.678C242.475 147.608 241.702 147.527 240.934 147.431L242.561 143.043ZM245.413 143.274L246.347 147.86C245.563 147.86 244.79 147.79 244.017 147.737L245.413 143.274ZM251.137 143.274L252.533 147.731C251.76 147.785 250.987 147.828 250.208 147.855L251.137 143.274ZM251.331 142.157C252.115 142.104 252.899 142.039 253.672 141.948C253.672 141.948 253.672 141.948 253.672 141.996L252.904 147.087L251.331 142.157ZM256.454 141.534C256.437 141.557 256.424 141.583 256.416 141.61L255.917 146.738L254.128 141.905C254.128 141.905 254.102 141.873 254.091 141.857C254.859 141.776 255.648 141.663 256.432 141.534H256.454ZM258.344 141.185L259.015 144.622L258.94 146.233L256.91 141.513C256.91 141.486 256.867 141.47 256.846 141.443C257.324 141.373 257.828 141.287 258.322 141.185H258.344ZM260.825 139.166L258.73 129.779C259.267 129.64 259.804 129.484 260.299 129.328L260.76 129.194C261.399 128.995 262.033 128.775 262.661 128.544L262.779 128.501C263.461 128.249 264.138 127.964 264.804 127.69C267.288 126.616 269.663 125.307 271.898 123.781L277.123 131.6C272.169 135.065 266.645 137.633 260.803 139.188L260.825 139.166ZM278.068 134.333L280.474 136.567L281.183 137.641C280.646 138.022 280.06 138.388 279.491 138.747L278.068 134.333ZM286.338 133.624C285.752 134.129 285.156 134.618 284.555 135.101L282.697 130.902L286.338 133.624ZM283.932 135.6C283.32 136.078 282.697 136.535 282.069 136.986L280.425 132.69L283.932 135.6ZM277.568 131.304L272.354 123.502C276.163 120.826 279.51 117.547 282.262 113.793L282.471 113.514C282.74 113.138 283.008 112.756 283.266 112.375L283.68 111.763L291.386 116.897C287.72 122.522 283.025 127.405 277.547 131.288L277.568 131.304ZM283.964 111.323C284.05 111.188 284.125 111.049 284.211 110.915C284.469 110.506 284.748 110.093 284.963 109.674L285.103 109.422C287.471 105.273 289.145 100.766 290.059 96.0772L299.124 97.8117C297.825 104.438 295.295 110.763 291.665 116.456L283.964 111.323ZM290.15 95.5563C290.634 92.922 290.878 90.2494 290.881 87.5711C290.881 87.5389 290.881 87.5067 290.881 87.4691C290.881 86.7656 290.881 86.0621 290.832 85.3533C290.832 85.2512 290.832 85.1546 290.832 85.0526C290.795 84.4296 290.752 83.8013 290.693 83.1784C290.693 82.9744 290.639 82.7703 290.618 82.5662C290.559 82.0561 290.499 81.5513 290.424 81.0412C290.381 80.7243 290.317 80.4075 290.263 80.0907V79.9779L299.392 78.2219C300.466 84.5376 300.413 90.9935 299.236 97.2908L290.15 95.5563ZM300.703 77.9695L304.306 77.2768L301.17 78.6837C301.117 78.7085 301.074 78.7497 301.047 78.801C301.02 78.8523 301.01 78.911 301.019 78.9683C301.028 79.0256 301.055 79.0785 301.097 79.1184C301.139 79.1584 301.193 79.1831 301.25 79.1885L306.271 79.7255L301.551 81.5513C301.497 81.5723 301.452 81.6104 301.422 81.6597C301.392 81.709 301.379 81.7668 301.385 81.8242C301.391 81.8816 301.416 81.9353 301.456 81.9772C301.495 82.0191 301.548 82.0468 301.605 82.0561L306.588 82.8347L301.782 84.4028C301.727 84.4224 301.681 84.4592 301.649 84.5076C301.617 84.556 301.601 84.6134 301.605 84.6713C301.607 84.7285 301.628 84.7833 301.665 84.8271C301.702 84.8708 301.753 84.901 301.809 84.9129L306.749 85.9869L301.868 87.2972C301.812 87.3135 301.763 87.3474 301.728 87.3939C301.693 87.4403 301.674 87.4969 301.674 87.555C301.674 87.6126 301.693 87.6688 301.728 87.7145C301.763 87.7603 301.812 87.793 301.868 87.8074L306.749 89.1177L301.809 90.1648C301.752 90.1778 301.702 90.209 301.665 90.2537C301.628 90.2983 301.607 90.3539 301.605 90.4118C301.602 90.469 301.617 90.5256 301.649 90.5731C301.681 90.6206 301.728 90.6563 301.782 90.675L306.588 92.243L301.605 93.0217C301.547 93.0318 301.495 93.0604 301.455 93.103C301.415 93.1456 301.391 93.2 301.384 93.2579C301.378 93.3155 301.391 93.3736 301.421 93.4231C301.451 93.4727 301.497 93.5109 301.551 93.5318L306.271 95.3576L301.25 95.8678C301.193 95.8732 301.139 95.8979 301.097 95.9378C301.055 95.9778 301.028 96.0306 301.019 96.0879C301.01 96.1452 301.02 96.204 301.047 96.2553C301.074 96.3066 301.117 96.3477 301.17 96.3725L305.788 98.3756L305.101 98.4078L300.547 97.5378C301.759 91.0687 301.812 84.4356 300.703 77.948V77.9695ZM307.297 87.5818C307.297 87.947 307.297 88.3014 307.297 88.6558L303.001 87.4959L307.297 86.336C307.275 86.7334 307.297 87.1415 307.297 87.555V87.5818ZM302.281 96.2275L306.738 95.7711C306.636 96.5444 306.513 97.3123 306.384 98.0695L302.281 96.2275ZM302.652 93.3277L307.071 92.635C307.012 93.4137 306.932 94.1816 306.84 94.9495L302.652 93.3277ZM302.877 90.4118L307.249 89.4882C307.249 90.2615 307.189 91.0348 307.136 91.8027L302.877 90.4118ZM307.249 85.4929L302.877 84.5639L307.125 83.1784C307.179 83.9356 307.222 84.7035 307.249 85.4875V85.4929ZM302.652 81.648L306.819 80.037C306.916 80.7995 306.996 81.5674 307.061 82.3407L302.652 81.648ZM302.281 78.7482L306.357 76.917C306.491 77.6742 306.615 78.4367 306.717 79.2046L302.281 78.7482ZM304.966 70.7737C305.176 71.5148 305.374 72.2558 305.557 73.0076H301.1L304.966 70.7737ZM305.745 73.8292C305.917 74.5757 306.078 75.3275 306.223 76.09L301.766 75.8752L305.745 73.8292ZM299.344 67.455L302.953 64.8076C303.237 65.5218 303.522 66.236 303.78 66.9556L299.344 67.455ZM298.27 64.77L301.734 61.9346C302.056 62.6274 302.373 63.3255 302.668 64.0343L298.27 64.77ZM297.04 62.128L300.348 59.1154C300.706 59.792 301.05 60.474 301.379 61.1614L297.04 62.128ZM295.671 59.5557L298.823 56.3713C299.21 57.0265 299.58 57.6977 299.945 58.3636L295.671 59.5557ZM294.13 57.0265L297.105 53.6809C297.523 54.3146 297.926 54.9644 298.324 55.6088L294.13 57.0265ZM286.934 47.9511L289.146 44.074C289.683 44.6002 290.21 45.1372 290.725 45.685L286.934 47.9511ZM284.845 45.9589L286.859 41.9689C287.422 42.4684 287.976 42.9731 288.518 43.494L284.845 45.9589ZM281.295 37.5924L278.073 40.562L280.334 36.9587L280.871 37.3239L281.295 37.5924ZM279.561 36.4432L279.921 36.6741L278.659 38.6879L279.416 36.3465L279.561 36.4432ZM275.592 39.0906L276.758 34.7463C277.407 35.1168 278.057 35.4927 278.696 35.8901L275.592 39.0906ZM273.085 37.6944L274.024 33.3071C274.69 33.64 275.356 33.9837 276.017 34.3381L273.085 37.6944ZM270.502 36.4378L271.21 31.9968C271.898 32.2922 272.58 32.6036 273.256 32.9258L270.502 36.4378ZM267.86 35.3155L268.337 30.853C269.041 31.1108 269.734 31.39 270.426 31.6693L267.86 35.3155ZM265.174 34.3381L265.427 29.8488C266.141 30.069 266.85 30.3106 267.575 30.5577L265.174 34.3381ZM262.43 33.5112V29.0057C263.15 29.1937 263.875 29.3924 264.578 29.6018L262.43 33.5112ZM259.606 32.8238L259.514 30.8638L259.987 28.4472C260.524 28.56 261.061 28.6782 261.598 28.807L259.606 32.8238ZM259.412 28.6782V28.3237H259.498L259.412 28.6782ZM256.792 32.2922L256.352 27.7975C257.093 27.9049 257.828 28.0284 258.569 28.1626L256.792 32.2922ZM253.951 31.9109L253.28 27.4431C254.026 27.5129 254.773 27.5934 255.514 27.6901L253.951 31.9109ZM253.538 32.652C252.829 32.5714 252.115 32.5123 251.39 32.464L252.818 27.8888L253.538 32.652ZM248.581 32.3405L249.768 27.7277L250.718 32.4103C250.031 32.3674 249.317 32.3512 248.603 32.3244L248.581 32.3405ZM247.652 32.3137C247.018 32.3137 246.39 32.3405 245.762 32.362L246.702 27.7277L247.883 32.319L247.652 32.3137ZM245.37 31.68L244.022 27.384C244.768 27.3303 245.52 27.2927 246.272 27.2712L245.37 31.68ZM245.048 32.3835C244.344 32.4157 243.646 32.4748 242.943 32.5392L243.641 27.8888L245.048 32.3835ZM240.139 32.8614L240.596 28.2163L242.207 32.5929C241.541 32.6681 240.854 32.7647 240.161 32.8614H240.139ZM237.75 33.2641L237.433 31.6531L237.573 28.7157L239.398 32.9742C238.867 33.0493 238.319 33.1567 237.771 33.2641H237.75ZM237.014 29.5051L236.789 28.3452L237.073 28.2915L237.014 29.5051ZM236.912 31.6854L236.864 32.8238L234.904 28.7694C235.376 28.662 235.849 28.5439 236.321 28.4419L236.912 31.6854ZM226.553 36.7224L225.839 32.2546L228.444 35.9492C227.831 36.1962 227.198 36.4486 226.575 36.7224H226.553ZM223.423 37.6944L220.458 34.3006C221.124 33.9354 221.796 33.581 222.472 33.2266L223.423 37.6944ZM220.909 39.0906L217.768 35.8686C218.418 35.4712 219.073 35.09 219.733 34.7194L220.909 39.0906ZM218.466 40.6211L215.164 37.5548C215.792 37.1198 216.431 36.7117 217.07 36.3036L218.466 40.6211ZM209.579 47.9726L205.734 45.6742C206.26 45.1193 206.797 44.5823 207.345 44.0632L209.579 47.9726ZM207.608 50.1206L203.645 48.0317C204.144 47.4517 204.644 46.8771 205.165 46.3133L207.608 50.1206ZM205.75 52.3438L201.679 50.4697C202.147 49.8575 202.619 49.256 203.108 48.6653L205.75 52.3438ZM204.005 54.6637L199.838 53.0043C200.273 52.3707 200.713 51.7424 201.169 51.1248L204.005 54.6637ZM204.005 55.2329C203.629 55.7699 203.248 56.3069 202.888 56.8439L200.025 53.6219L204.005 55.2329ZM202.394 57.6333C202.045 58.1703 201.701 58.7502 201.368 59.3195L198.388 56.2478L202.394 57.6333ZM198.098 55.6356C198.221 55.4369 198.345 55.2382 198.474 55.0396L200.681 56.5109L198.098 55.6356ZM199.999 61.8595L196.836 58.9811L200.933 60.1196C200.607 60.6816 200.296 61.2616 199.999 61.8595ZM199.526 62.1333L195.133 61.156C195.466 60.4579 195.815 59.7652 196.175 59.0832L199.526 62.1333ZM198.291 64.7754L193.85 64.0075C194.145 63.2879 194.457 62.579 194.779 61.8595L198.291 64.7754ZM194.758 75.8859L190.236 76.1007C190.386 75.3328 190.547 74.5703 190.725 73.8077L194.758 75.8859ZM189.183 89.4613L193.635 90.4011L189.296 91.8188C189.259 91.0348 189.205 90.2507 189.183 89.4613ZM193.861 93.317L189.597 94.9656C189.5 94.1887 189.42 93.4047 189.355 92.6135L193.861 93.317ZM195.901 102.269C196.079 102.919 196.266 103.563 196.471 104.202L192.148 104.454L195.901 102.269ZM197.421 106.968L193.098 107.451L196.744 105.056C196.959 105.679 197.185 106.312 197.421 106.968ZM198.495 109.653L194.172 110.372L197.711 107.773C197.985 108.385 198.243 109.014 198.517 109.653H198.495ZM198.264 110.227L194.693 113.148C194.366 112.434 194.038 111.715 193.737 111L198.264 110.227ZM199.499 112.864L196.084 115.978C195.713 115.28 195.359 114.577 195.01 113.863L199.499 112.864ZM200.863 115.436L197.609 118.728C197.212 118.051 196.825 117.364 196.449 116.666L200.863 115.436ZM202.361 117.933L199.284 121.391C198.849 120.736 198.431 120.065 198.022 119.394L202.361 117.933ZM201.61 124.554L205.771 122.643L203.086 126.402C202.549 125.795 202.066 125.177 201.61 124.554ZM207.629 124.866L205.127 128.759C204.59 128.184 204.085 127.594 203.575 126.998L207.629 124.866ZM209.6 126.987L207.302 131.009C206.743 130.461 206.197 129.903 205.664 129.334L209.6 126.987ZM215.094 137.491L218.488 134.339L218.321 134.849L216.2 138.226C215.808 137.979 215.437 137.743 215.072 137.491H215.094ZM217.671 136.862L217.048 138.78L216.635 138.511L217.671 136.862ZM220.931 135.864L219.717 140.391C219.035 140.004 218.359 139.612 217.698 139.198L220.931 135.864ZM221.602 135.353C222.231 135.713 222.87 136.057 223.514 136.39L220.356 140.009L221.602 135.353ZM226.07 137.625L223.09 141.427L224.099 136.691C224.701 137.04 225.383 137.324 226.049 137.625H226.07ZM228.685 138.699L225.882 142.678L226.655 137.845C227.3 138.183 227.982 138.457 228.664 138.72L228.685 138.699ZM229.271 138.93C229.958 139.188 230.656 139.424 231.354 139.649L228.744 143.8L229.271 138.93ZM231.956 139.843C232.659 140.063 233.368 140.267 234.104 140.46L231.698 144.756L231.956 139.843ZM234.104 141.502L233.132 145.863L232.664 145.734L231.87 145.503L234.104 141.502ZM235.811 146.523L236.681 142.619L236.934 142.109L237.009 143.72L236.386 146.706L235.913 146.598L235.811 146.523ZM253.328 147.651L254.021 143.022L255.632 147.398C254.826 147.517 254.053 147.602 253.28 147.672L253.328 147.651ZM256.862 142.641L258.704 146.937C257.941 147.076 257.173 147.2 256.405 147.312L256.862 142.641ZM262.484 146.11V141.427L264.75 145.487C263.934 145.728 263.188 145.938 262.436 146.131L262.484 146.11ZM264.911 139.359C265.765 139.064 266.603 138.753 267.435 138.414C267.386 138.437 267.344 138.474 267.317 138.521C267.29 138.569 267.279 138.623 267.285 138.677L267.822 143.8L265.094 139.467C265.067 139.433 265.031 139.407 264.99 139.392C264.95 139.377 264.906 139.373 264.863 139.381L264.911 139.359ZM267.908 139.617L270.593 143.403C269.873 143.704 269.154 143.999 268.445 144.268L267.908 139.617ZM270.55 138.5L273.401 142.136C272.703 142.474 272.005 142.802 271.291 143.113L270.55 138.5ZM273.133 137.238L276.167 140.713C275.49 141.071 274.803 141.429 274.105 141.787L273.133 137.238ZM275.651 135.842L278.873 139.15C278.213 139.558 277.542 139.945 276.865 140.326L275.651 135.842ZM286.971 133.071L284.845 128.985L288.604 131.509C288.06 132.056 287.499 132.584 286.923 133.093L286.971 133.071ZM286.971 126.965L290.854 129.285C290.328 129.844 289.791 130.395 289.243 130.939L286.971 126.965ZM288.942 124.844L292.937 126.949C292.438 127.54 291.933 128.12 291.412 128.689L288.942 124.844ZM290.8 122.621L294.898 124.506C294.43 125.124 293.958 125.73 293.464 126.326L290.8 122.621ZM297.738 120.473L294.57 118.363L294.167 117.912L298.463 119.351C298.173 119.727 297.937 120.103 297.701 120.473H297.738ZM300.01 116.628C299.652 117.308 299.27 117.985 298.866 118.658L295.644 115.436L300.01 116.628ZM304.714 69.9521L300.262 70.2152L304.021 67.7557C304.236 68.3894 304.456 69.0231 304.649 69.6621C304.676 69.7588 304.714 69.8554 304.714 69.9521ZM249.403 27.2336L248.275 31.6048L247.153 27.2336C247.502 27.2336 247.851 27.2068 248.227 27.2014H248.468L249.403 27.2336ZM234.098 28.9628V33.5112L231.897 29.5642C232.476 29.3924 233.062 29.2152 233.647 29.0648L234.098 28.9628ZM231.118 29.7951L231.376 34.3381L228.97 30.5201C229.598 30.2945 230.226 30.069 230.86 29.8703L231.118 29.7951ZM228.186 30.7886L228.675 35.3155L226.075 31.6263C226.736 31.3524 227.396 31.0893 228.057 30.8315L228.186 30.7886ZM199.317 53.7561C199.317 53.7239 199.365 53.6917 199.386 53.6541L202.233 56.8761L198.801 54.5885C198.925 54.3898 199.048 54.1857 199.177 53.9924L199.317 53.7561ZM197.41 56.8385L197.716 56.3015L200.906 59.5235L196.573 58.3153L196.863 57.7783C197.024 57.4829 197.201 57.1553 197.389 56.8385H197.41ZM220.389 140.766L223.444 137.26L222.445 141.873L222.247 141.771C221.613 141.432 220.985 141.105 220.367 140.766H220.389ZM223.154 142.184L226.027 138.522L225.286 143.151L224.411 142.764C223.97 142.571 223.546 142.41 223.133 142.184H223.154ZM225.99 143.451L228.675 139.639L228.17 144.311C227.724 144.144 227.284 143.972 226.838 143.774L225.99 143.451ZM228.889 144.568L231.376 140.616L231.113 145.309C230.602 145.154 230.098 144.982 229.593 144.81L228.889 144.568ZM265.443 145.288L265.18 140.616L267.65 144.542C267.016 144.767 266.388 144.998 265.749 145.202L265.443 145.288ZM300.375 115.909L297.013 112.842L301.417 113.825L301.288 114.083C300.955 114.695 300.67 115.307 300.353 115.909H300.375ZM301.755 113.079L298.222 110.19L302.668 110.931C302.534 111.247 302.399 111.564 302.26 111.876C302.088 112.289 301.916 112.687 301.734 113.079H301.755ZM302.995 110.184L299.344 107.505L303.817 108.009C303.651 108.482 303.479 108.949 303.28 109.416C303.173 109.653 303.103 109.926 302.974 110.19L302.995 110.184ZM304.29 106.597L304.08 107.225L300.321 104.744L304.816 105.008C304.607 105.55 304.44 106.076 304.268 106.597H304.29ZM231.204 167.063L235.441 147.925L236.112 148.075C236.574 148.172 237.041 148.258 237.508 148.349H237.562C240.489 148.89 243.453 149.207 246.428 149.299C245.916 149.615 245.494 150.057 245.201 150.583C244.909 151.108 244.756 151.7 244.758 152.301C244.758 152.754 244.847 153.202 245.02 153.621C245.193 154.039 245.447 154.419 245.767 154.739C246.088 155.059 246.468 155.313 246.886 155.486C247.304 155.66 247.753 155.749 248.205 155.749C248.658 155.749 249.106 155.66 249.525 155.486C249.943 155.313 250.323 155.059 250.643 154.739C250.963 154.419 251.217 154.039 251.39 153.621C251.564 153.202 251.653 152.754 251.653 152.301C251.653 151.699 251.499 151.108 251.206 150.582C250.913 150.057 250.49 149.615 249.977 149.299C252.876 149.209 255.764 148.905 258.618 148.392L259.101 148.301C259.391 148.247 259.681 148.204 259.971 148.145L264.192 167.058L231.204 167.063Z" fill="#E1EBF8"/>
</g>
</svg>
