<svg width="839" height="436" viewBox="0 0 839 436" fill="none" xmlns="http://www.w3.org/2000/svg">
<path d="M128.649 373.403L127.136 392.563L227.966 388.353L142.42 372.527L128.649 373.403Z" fill="#C0C0C0"/>
<path d="M144.258 344.806L142.589 365.916L227.965 388.353L154.361 344.903L144.258 344.806Z" fill="#C0C0C0"/>
<path d="M227.966 388.353L134.068 350.267L98.0501 378.42L227.966 388.353Z" fill="white"/>
<path d="M227.966 388.353L163.613 329.265L144.259 344.806L227.966 388.353Z" fill="white"/>
<path d="M786.541 1C846.874 43.8333 903.941 125.199 653.541 131.999C340.541 140.499 -58.9593 144.999 8.541 46.4995C58.909 -27 111.541 37.4485 111.541 59.4995C111.541 85.9995 -6.96574 137.909 4.04089 201.499C13.0413 253.499 82.3743 314.833 142.041 352" stroke="black" stroke-linecap="square" stroke-linejoin="round" stroke-dasharray="5 5"/>
</svg>
