<svg width="1440" height="443" viewBox="0 0 1440 443" fill="none" xmlns="http://www.w3.org/2000/svg">
<mask id="mask0_479_125" style="mask-type:alpha" maskUnits="userSpaceOnUse" x="0" y="0" width="1440" height="443">
<rect width="1440" height="443" fill="#D9D9D9"/>
</mask>
<g mask="url(#mask0_479_125)">
<path d="M1476.88 318.7C1477.22 317.208 1477.55 315.703 1477.84 314.185C1479.54 305.662 1480.48 297.004 1480.65 288.314C1481.27 289.761 1482.3 290.996 1483.62 291.867C1484.93 292.739 1486.47 293.209 1488.05 293.22C1490.25 293.22 1492.36 292.346 1493.91 290.79C1495.47 289.235 1496.34 287.125 1496.34 284.925C1496.34 282.725 1495.47 280.615 1493.91 279.059C1492.36 277.503 1490.25 276.63 1488.05 276.63C1486.46 276.639 1484.91 277.112 1483.59 277.991C1482.28 278.87 1481.24 280.115 1480.62 281.574C1480.44 274.416 1479.73 267.282 1478.5 260.229C1478.5 259.824 1478.36 259.42 1478.28 258.964C1478.01 257.434 1477.7 255.892 1477.37 254.362C1477.1 253.097 1476.8 251.832 1476.5 250.568C1476.44 250.353 1476.4 250.138 1476.35 249.936C1477.3 251.26 1478.64 252.261 1480.18 252.806C1481.72 253.35 1483.39 253.412 1484.96 252.983C1487.05 252.378 1488.81 250.982 1489.88 249.091C1490.95 247.201 1491.24 244.967 1490.69 242.867C1490.43 241.825 1489.96 240.846 1489.31 239.986C1488.67 239.126 1487.86 238.404 1486.93 237.86C1486 237.316 1484.98 236.963 1483.91 236.819C1482.85 236.676 1481.76 236.746 1480.72 237.025C1479.13 237.483 1477.71 238.412 1476.65 239.692C1475.59 240.971 1474.94 242.541 1474.79 244.195C1474.64 243.702 1474.5 243.196 1474.35 242.69L1474.28 242.437C1472.25 235.813 1469.77 229.34 1466.84 223.065C1466.51 222.357 1466.17 221.661 1465.84 220.966C1465.36 219.98 1464.87 218.993 1464.36 218.02C1464.07 217.463 1463.81 216.881 1463.5 216.312C1464.74 217.473 1466.32 218.205 1468.01 218.403C1469.7 218.601 1471.41 218.254 1472.88 217.413C1474.78 216.311 1476.16 214.512 1476.74 212.401C1477.33 210.29 1477.06 208.036 1476 206.121C1475.49 205.175 1474.8 204.341 1473.96 203.667C1473.13 202.994 1472.17 202.494 1471.14 202.198C1470.11 201.902 1469.03 201.816 1467.97 201.945C1466.9 202.073 1465.87 202.414 1464.94 202.947C1463.44 203.823 1462.25 205.149 1461.54 206.736C1460.83 208.324 1460.64 210.094 1460.99 211.798C1455.26 201.767 1448.34 192.464 1440.37 184.093C1441.9 184.932 1443.66 185.248 1445.39 184.992C1447.11 184.736 1448.7 183.923 1449.92 182.676C1451.45 181.105 1452.3 179 1452.3 176.809C1452.3 174.618 1451.45 172.514 1449.92 170.942C1449.18 170.174 1448.28 169.564 1447.3 169.147C1446.31 168.73 1445.25 168.515 1444.18 168.515C1443.11 168.515 1442.05 168.73 1441.06 169.147C1440.08 169.564 1439.19 170.174 1438.44 170.942C1437.21 172.212 1436.41 173.84 1436.16 175.591C1435.91 177.342 1436.22 179.127 1437.05 180.691C1429.12 172.883 1420.29 166.037 1410.76 160.295C1412.49 160.764 1414.33 160.639 1415.99 159.94C1417.64 159.241 1419.02 158.008 1419.89 156.438C1420.96 154.533 1421.25 152.284 1420.69 150.171C1420.13 148.057 1418.77 146.246 1416.89 145.121C1415.97 144.579 1414.94 144.229 1413.88 144.089C1412.82 143.95 1411.74 144.026 1410.7 144.311C1409.67 144.596 1408.7 145.086 1407.86 145.75C1407.02 146.415 1406.32 147.241 1405.8 148.181C1404.9 149.794 1404.56 151.659 1404.82 153.487C1405.09 155.316 1405.95 157.006 1407.27 158.297C1405.94 157.551 1404.61 156.817 1403.25 156.109C1401.88 155.401 1400.61 154.743 1399.26 154.086L1397.65 153.315C1395.84 152.472 1394.01 151.658 1392.15 150.874L1391.85 150.748L1391.6 150.646C1389.54 149.799 1387.47 148.99 1385.36 148.231L1385.08 148.13C1383.03 147.414 1380.96 146.735 1378.88 146.094L1378.55 145.98C1380.39 146.045 1382.19 145.486 1383.67 144.392C1385.15 143.299 1386.21 141.737 1386.68 139.961C1387.28 137.861 1387.02 135.609 1385.97 133.695C1384.92 131.78 1383.16 130.356 1381.07 129.732C1380.03 129.443 1378.95 129.362 1377.89 129.495C1376.82 129.627 1375.8 129.969 1374.86 130.502C1373.93 131.035 1373.12 131.748 1372.46 132.599C1371.81 133.45 1371.33 134.422 1371.05 135.46C1370.56 137.25 1370.67 139.156 1371.37 140.875C1372.08 142.594 1373.34 144.03 1374.95 144.956L1372.61 144.337L1370.86 143.907C1369.38 143.553 1367.9 143.224 1366.4 142.908C1357.77 141.11 1348.98 140.148 1340.16 140.037C1342.1 139.573 1343.8 138.414 1344.93 136.781C1346.07 135.147 1346.57 133.153 1346.34 131.176C1346.11 129.199 1345.15 127.376 1343.67 126.053C1342.18 124.731 1340.26 124 1338.26 124C1336.27 124 1334.35 124.731 1332.86 126.053C1331.38 127.376 1330.42 129.199 1330.19 131.176C1329.96 133.153 1330.46 135.147 1331.59 136.781C1332.73 138.414 1334.43 139.573 1336.37 140.037C1328.75 140.149 1321.16 140.893 1313.67 142.263L1312.41 142.49C1310.9 142.781 1309.41 143.085 1307.92 143.413C1306.64 143.709 1305.38 144.012 1304.12 144.324C1303.77 144.412 1303.42 144.476 1303.06 144.577C1304.67 143.662 1305.92 142.241 1306.63 140.537C1307.34 138.832 1307.47 136.94 1306.99 135.156C1306.73 134.115 1306.27 133.135 1305.62 132.276C1304.98 131.416 1304.17 130.694 1303.24 130.15C1302.32 129.606 1301.29 129.252 1300.23 129.109C1299.16 128.965 1298.08 129.035 1297.04 129.314C1294.96 129.922 1293.19 131.319 1292.13 133.209C1291.06 135.099 1290.77 137.332 1291.33 139.43C1291.78 141.198 1292.82 142.76 1294.28 143.863C1295.73 144.967 1297.52 145.548 1299.34 145.513L1296.32 146.436L1296.07 146.512C1291.37 147.999 1286.76 149.738 1282.25 151.721C1278.23 153.479 1274.32 155.414 1270.54 157.487C1271.88 156.208 1272.75 154.522 1273.03 152.692C1273.31 150.862 1272.98 148.991 1272.08 147.371C1271.57 146.426 1270.88 145.592 1270.05 144.917C1269.21 144.243 1268.25 143.743 1267.22 143.446C1266.19 143.149 1265.11 143.062 1264.04 143.188C1262.98 143.315 1261.95 143.654 1261.02 144.185C1259.13 145.291 1257.75 147.09 1257.17 149.199C1256.59 151.308 1256.85 153.56 1257.91 155.477C1258.77 157.071 1260.14 158.327 1261.81 159.041C1263.48 159.755 1265.34 159.885 1267.09 159.41C1257.01 165.343 1247.7 172.5 1239.38 180.716C1240.26 179.15 1240.61 177.344 1240.38 175.564C1240.15 173.784 1239.36 172.124 1238.12 170.828C1237.37 170.06 1236.48 169.45 1235.49 169.033C1234.51 168.616 1233.45 168.402 1232.37 168.402C1231.3 168.402 1230.24 168.616 1229.26 169.033C1228.27 169.45 1227.38 170.06 1226.63 170.828C1225.11 172.4 1224.25 174.504 1224.25 176.695C1224.25 178.886 1225.11 180.991 1226.63 182.563C1227.87 183.824 1229.48 184.642 1231.23 184.889C1232.97 185.136 1234.75 184.799 1236.28 183.928C1230.45 190.074 1225.16 196.721 1220.49 203.794L1219.62 205.134L1218.91 206.209C1218.01 207.625 1217.14 209.042 1216.28 210.483C1216.67 208.778 1216.51 206.992 1215.83 205.38C1215.15 203.769 1213.98 202.413 1212.48 201.505C1211.56 200.964 1210.53 200.615 1209.47 200.477C1208.41 200.339 1207.33 200.415 1206.3 200.702C1205.26 200.988 1204.3 201.479 1203.46 202.145C1202.62 202.81 1201.92 203.638 1201.41 204.578C1200.31 206.487 1200.01 208.753 1200.57 210.884C1201.13 213.014 1202.51 214.837 1204.4 215.958C1205.89 216.83 1207.62 217.195 1209.33 216.999C1211.04 216.803 1212.64 216.056 1213.89 214.871C1209.06 223.719 1205.15 233.041 1202.23 242.69C1202.1 241.031 1201.47 239.45 1200.42 238.157C1199.37 236.863 1197.96 235.917 1196.36 235.444C1195.33 235.156 1194.25 235.076 1193.18 235.209C1192.11 235.342 1191.09 235.686 1190.15 236.22C1189.22 236.754 1188.41 237.468 1187.75 238.321C1187.1 239.173 1186.62 240.147 1186.35 241.185C1185.73 243.281 1185.96 245.536 1186.99 247.461C1188.03 249.387 1189.77 250.83 1191.86 251.478C1193.44 251.923 1195.12 251.875 1196.67 251.339C1198.22 250.803 1199.57 249.806 1200.53 248.482C1197.74 259.335 1196.19 270.471 1195.91 281.675C1195.3 280.19 1194.27 278.917 1192.95 278.017C1191.62 277.116 1190.06 276.629 1188.46 276.617C1186.96 276.587 1185.48 276.966 1184.17 277.713C1182.87 278.459 1181.79 279.546 1181.06 280.856C1180.32 282.167 1179.96 283.652 1180 285.153C1180.05 286.655 1180.5 288.116 1181.31 289.381C1182.12 290.646 1183.26 291.668 1184.6 292.337C1185.94 293.006 1187.45 293.298 1188.94 293.18C1190.44 293.063 1191.88 292.541 1193.1 291.671C1194.33 290.8 1195.29 289.614 1195.89 288.238C1195.98 293.464 1196.35 298.681 1197.01 303.867C1197 303.947 1197 304.027 1197.01 304.107C1197.15 305.195 1197.3 306.295 1197.46 307.382L1197.58 308.166C1197.71 309.064 1197.87 309.962 1198.02 310.86C1198.09 311.302 1198.18 311.745 1198.26 312.2C1198.4 312.896 1198.52 313.604 1198.66 314.312C1198.8 315.02 1198.92 315.576 1199.06 316.196C1199.19 316.816 1199.27 317.22 1199.38 317.739C1199.5 318.257 1199.65 318.915 1199.79 319.496C1198.81 318.306 1197.51 317.424 1196.04 316.957C1194.57 316.49 1192.99 316.459 1191.51 316.866C1189.42 317.471 1187.65 318.868 1186.59 320.759C1185.52 322.65 1185.23 324.884 1185.79 326.982C1186.05 328.024 1186.52 329.004 1187.17 329.863C1187.81 330.723 1188.62 331.446 1189.55 331.989C1190.48 332.533 1191.5 332.887 1192.57 333.03C1193.63 333.174 1194.72 333.104 1195.75 332.824C1197.24 332.4 1198.58 331.565 1199.61 330.415C1200.64 329.266 1201.33 327.848 1201.6 326.325C1203.11 331.616 1204.93 336.818 1207.03 341.903C1207.03 341.903 1207.03 341.903 1207.03 341.967C1207.83 343.889 1208.68 345.76 1209.56 347.657C1209.93 348.441 1210.3 349.2 1210.68 349.971C1211.06 350.742 1211.57 351.805 1212.04 352.702C1212.04 352.702 1212.04 352.766 1212.04 352.804C1210.81 351.933 1209.35 351.433 1207.84 351.362C1206.33 351.29 1204.83 351.65 1203.52 352.399C1201.63 353.5 1200.24 355.299 1199.66 357.41C1199.08 359.521 1199.35 361.776 1200.41 363.691C1200.92 364.635 1201.61 365.468 1202.44 366.14C1203.27 366.813 1204.23 367.312 1205.26 367.608C1206.29 367.904 1207.37 367.99 1208.44 367.863C1209.5 367.735 1210.53 367.396 1211.46 366.865C1212.77 366.096 1213.85 364.982 1214.57 363.645C1215.3 362.307 1215.64 360.797 1215.57 359.278C1220.88 368.54 1227.22 377.18 1234.45 385.036C1233.06 384.625 1231.58 384.601 1230.18 384.966C1228.77 385.332 1227.5 386.073 1226.48 387.11C1224.96 388.681 1224.1 390.786 1224.1 392.977C1224.1 395.168 1224.96 397.273 1226.48 398.844C1227.23 399.612 1228.12 400.223 1229.11 400.639C1230.09 401.056 1231.15 401.271 1232.22 401.271C1233.29 401.271 1234.35 401.056 1235.34 400.639C1236.33 400.223 1237.22 399.612 1237.96 398.844C1238.98 397.787 1239.71 396.482 1240.07 395.057C1240.42 393.632 1240.4 392.139 1240 390.726C1247.19 397.709 1255.1 403.906 1263.61 409.213C1262.16 409.204 1260.74 409.583 1259.5 410.311C1258.25 411.038 1257.22 412.087 1256.51 413.348C1255.44 415.254 1255.16 417.502 1255.72 419.615C1256.27 421.729 1257.64 423.541 1259.51 424.666C1260.44 425.207 1261.46 425.558 1262.52 425.697C1263.59 425.836 1264.67 425.76 1265.7 425.475C1266.74 425.19 1267.7 424.701 1268.54 424.036C1269.38 423.371 1270.08 422.545 1270.6 421.605C1271.31 420.331 1271.68 418.894 1271.66 417.435C1271.65 415.976 1271.26 414.546 1270.53 413.285L1273.21 414.714C1274.47 415.384 1275.73 415.978 1277.06 416.661C1277.64 416.939 1278.23 417.23 1278.82 417.496C1280.59 418.33 1282.37 419.114 1284.18 419.873L1284.55 420.05L1284.86 420.164C1286.84 421.007 1288.83 421.778 1290.85 422.478L1291.29 422.642C1292.68 423.136 1294.07 423.616 1295.49 424.071C1294.11 424.44 1292.85 425.164 1291.84 426.171C1290.82 427.179 1290.09 428.434 1289.72 429.812C1289.12 431.913 1289.38 434.164 1290.43 436.079C1291.48 437.993 1293.24 439.417 1295.33 440.042C1296.38 440.347 1297.48 440.429 1298.56 440.282L1290.95 475.297C1290.84 475.779 1290.83 476.28 1290.94 476.764C1291.05 477.247 1291.26 477.7 1291.57 478.091C1291.86 478.481 1292.25 478.797 1292.68 479.017C1293.12 479.236 1293.61 479.352 1294.1 479.356H1379.97C1380.46 479.352 1380.94 479.236 1381.38 479.017C1381.82 478.797 1382.2 478.481 1382.5 478.091C1382.8 477.7 1383.01 477.247 1383.12 476.764C1383.23 476.28 1383.23 475.779 1383.12 475.297L1375.39 440.674C1376.73 441.029 1378.15 441.029 1379.49 440.674C1381.59 440.067 1383.36 438.66 1384.43 436.755C1385.5 434.851 1385.78 432.602 1385.2 430.495C1384.84 429.114 1384.13 427.851 1383.13 426.832C1382.13 425.814 1380.88 425.076 1379.5 424.691L1379.75 424.615L1380.25 424.463C1386.79 422.401 1393.18 419.865 1399.35 416.876L1401.45 415.827L1404.27 414.347L1404.58 414.183C1403.82 415.439 1403.41 416.869 1403.38 418.332C1403.35 419.796 1403.7 421.242 1404.4 422.529C1404.91 423.474 1405.6 424.308 1406.43 424.982C1407.27 425.657 1408.23 426.157 1409.26 426.454C1410.29 426.751 1411.37 426.838 1412.44 426.712C1413.5 426.585 1414.53 426.246 1415.46 425.715C1417.35 424.609 1418.73 422.81 1419.31 420.701C1419.89 418.592 1419.63 416.34 1418.57 414.423C1417.88 413.158 1416.87 412.101 1415.63 411.36C1414.4 410.62 1412.98 410.223 1411.54 410.212C1420.51 404.731 1428.84 398.272 1436.38 390.954C1435.98 392.367 1435.96 393.86 1436.31 395.285C1436.67 396.709 1437.39 398.015 1438.41 399.072C1439.16 399.84 1440.05 400.45 1441.04 400.867C1442.02 401.284 1443.08 401.498 1444.15 401.498C1445.23 401.498 1446.29 401.284 1447.27 400.867C1448.26 400.45 1449.15 399.84 1449.9 399.072C1451.42 397.5 1452.28 395.396 1452.28 393.205C1452.28 391.014 1451.42 388.909 1449.9 387.337C1448.88 386.298 1447.6 385.556 1446.19 385.19C1444.79 384.825 1443.31 384.85 1441.92 385.263C1448.81 377.781 1454.9 369.587 1460.06 360.821C1459.98 362.333 1460.31 363.84 1461.02 365.177C1461.73 366.515 1462.8 367.632 1464.1 368.408C1465.02 368.949 1466.04 369.299 1467.11 369.438C1468.17 369.577 1469.25 369.502 1470.28 369.216C1471.31 368.931 1472.28 368.442 1473.12 367.777C1473.96 367.113 1474.66 366.286 1475.17 365.347C1476.29 363.435 1476.61 361.157 1476.05 359.011C1475.5 356.866 1474.11 355.029 1472.2 353.904C1470.91 353.14 1469.42 352.762 1467.92 352.813C1466.41 352.865 1464.96 353.344 1463.72 354.195C1464.13 353.398 1464.54 352.601 1464.98 351.792C1465.66 350.452 1466.31 349.099 1466.95 347.733L1467.71 346.076C1468.56 344.213 1469.35 342.342 1470.1 340.462L1470.23 340.158C1470.26 340.076 1470.29 339.992 1470.32 339.906C1471.15 337.806 1471.95 335.682 1472.68 333.583C1472.68 333.482 1472.68 333.381 1472.78 333.28C1473.39 331.497 1473.97 329.688 1474.52 327.867C1474.76 329.393 1475.44 330.818 1476.46 331.977C1477.48 333.136 1478.81 333.982 1480.29 334.418C1481.33 334.703 1482.42 334.779 1483.48 334.641C1484.55 334.502 1485.58 334.153 1486.51 333.612C1487.44 333.072 1488.25 332.351 1488.9 331.493C1489.55 330.635 1490.02 329.656 1490.28 328.613C1490.88 326.513 1490.62 324.263 1489.57 322.349C1488.52 320.436 1486.76 319.011 1484.67 318.384C1483.19 317.959 1481.62 317.973 1480.14 318.421C1478.67 318.87 1477.36 319.735 1476.36 320.913L1476.48 320.483C1476.59 319.914 1476.74 319.307 1476.88 318.7ZM1207.54 333.975C1207.49 333.855 1207.45 333.733 1207.41 333.608L1218.14 332.344L1209.4 338.768C1208.87 337.503 1208.35 336.137 1207.86 334.81C1207.74 334.569 1207.63 334.278 1207.53 333.975H1207.54ZM1205.33 327.273C1205.25 327.033 1205.2 326.78 1205.12 326.54L1215.89 325.907L1206.83 331.851C1206.44 330.713 1206.05 329.562 1205.68 328.411C1205.55 328.032 1205.43 327.652 1205.31 327.273H1205.33ZM1317.36 144.931C1317.99 144.83 1318.63 144.767 1319.27 144.678L1318.24 155.3L1314.02 145.525L1314.73 145.399C1315.59 145.26 1316.46 145.057 1317.35 144.931H1317.36ZM1324.18 144.046C1324.95 143.97 1325.73 143.932 1326.5 143.869L1324.92 154.402L1321.22 144.425L1322.93 144.197L1324.18 144.046ZM1347.14 143.628L1348.29 143.73L1345.12 153.846L1343.01 143.426H1344.27L1347.14 143.628ZM1474.35 315.007C1474.17 315.829 1473.98 316.639 1473.79 317.461L1464.35 312.605L1472.15 312.225L1474.79 312.731C1474.73 313.047 1474.69 313.376 1474.63 313.705C1474.57 314.034 1474.44 314.577 1474.35 315.007ZM1472.44 322.948C1472.29 323.518 1472.13 324.087 1471.96 324.656L1462.78 319.307H1473.37C1473.3 319.56 1473.25 319.825 1473.19 320.078C1472.96 321.026 1472.69 322.013 1472.44 322.948ZM1458.25 325.68L1468.26 332.23L1456.45 330.902C1456.31 330.89 1456.18 330.922 1456.06 330.993C1455.95 331.064 1455.86 331.169 1455.81 331.294C1455.76 331.423 1455.76 331.565 1455.8 331.697C1455.84 331.83 1455.92 331.946 1456.03 332.028L1465.68 339.109L1453.94 337.162C1453.81 337.139 1453.67 337.161 1453.55 337.225C1453.43 337.29 1453.34 337.392 1453.28 337.516C1453.23 337.64 1453.22 337.78 1453.25 337.912C1453.28 338.045 1453.36 338.163 1453.46 338.249L1462.73 345.836L1451.12 343.307C1450.99 343.271 1450.85 343.283 1450.73 343.341C1450.61 343.399 1450.51 343.499 1450.45 343.623C1450.39 343.746 1450.37 343.885 1450.4 344.019C1450.42 344.154 1450.49 344.277 1450.59 344.369L1459.44 352.449L1447.99 349.25C1447.86 349.212 1447.72 349.22 1447.59 349.273C1447.47 349.326 1447.37 349.421 1447.3 349.541C1447.23 349.659 1447.21 349.796 1447.22 349.932C1447.24 350.067 1447.31 350.192 1447.4 350.287L1455.84 358.835L1444.56 355.042C1444.43 354.995 1444.3 354.994 1444.17 355.038C1444.04 355.082 1443.93 355.168 1443.86 355.282C1443.79 355.391 1443.76 355.519 1443.76 355.649L1443.24 355.307C1452.03 341.535 1458.15 326.235 1461.28 310.202L1466.94 311.29L1461.97 311.53C1461.84 311.538 1461.71 311.589 1461.61 311.675C1461.5 311.762 1461.43 311.88 1461.4 312.01C1461.37 312.145 1461.39 312.286 1461.44 312.411C1461.5 312.537 1461.6 312.64 1461.72 312.706L1472.34 318.156L1460.45 318.093C1460.32 318.094 1460.19 318.141 1460.08 318.226C1459.97 318.31 1459.89 318.428 1459.86 318.561C1459.83 318.692 1459.84 318.831 1459.89 318.956C1459.94 319.082 1460.03 319.187 1460.15 319.256L1470.47 325.275L1458.61 324.58C1458.47 324.574 1458.34 324.613 1458.23 324.691C1458.12 324.769 1458.04 324.881 1458 325.01C1457.97 325.134 1457.98 325.264 1458.02 325.384C1458.07 325.504 1458.15 325.607 1458.25 325.68ZM1203.72 321.57C1203.63 321.229 1203.54 320.9 1203.47 320.559C1203.39 320.217 1203.29 319.749 1203.19 319.357H1213.96L1204.62 324.82C1204.32 323.695 1204 322.632 1203.72 321.57ZM1202.09 314.476L1201.94 313.793C1201.87 313.465 1201.84 313.136 1201.77 312.807L1204.77 312.238L1212.36 312.605L1202.76 317.549C1202.55 316.525 1202.29 315.513 1202.09 314.476ZM1284.28 154.453L1285.98 165.062L1279.43 156.703C1281 155.945 1282.56 155.199 1284.17 154.503L1284.28 154.453ZM1292.38 152.569L1298.07 161.622C1296.55 162.128 1295.02 162.647 1293.53 163.203L1292.38 152.569ZM1299.24 150.292L1304.49 159.688C1302.92 160.118 1301.38 160.56 1299.84 161.041L1299.24 150.292ZM1306.21 148.383L1310.99 158.107C1309.4 158.449 1307.83 158.828 1306.26 159.22L1306.21 148.383ZM1458.67 245.965L1470.53 245.27L1460.21 251.289C1460.1 251.36 1460 251.468 1459.95 251.595C1459.9 251.722 1459.89 251.863 1459.92 251.997C1459.96 252.127 1460.04 252.242 1460.14 252.324C1460.25 252.407 1460.38 252.451 1460.52 252.452L1472.4 252.389L1461.78 257.852C1461.66 257.912 1461.56 258.013 1461.5 258.138C1461.44 258.262 1461.42 258.403 1461.45 258.539C1461.48 258.674 1461.55 258.796 1461.66 258.884C1461.76 258.973 1461.9 259.023 1462.04 259.028L1472.38 259.521L1461.66 261.595C1458.57 244.212 1451.99 227.637 1442.31 212.873L1450.68 206.942L1443.93 214.529C1443.85 214.64 1443.8 214.773 1443.8 214.909C1443.8 215.045 1443.85 215.178 1443.93 215.288C1444 215.405 1444.1 215.493 1444.23 215.54C1444.36 215.586 1444.5 215.586 1444.62 215.541L1455.9 211.748L1447.47 220.283C1447.37 220.381 1447.31 220.508 1447.29 220.645C1447.27 220.782 1447.3 220.922 1447.37 221.042C1447.43 221.16 1447.53 221.252 1447.66 221.303C1447.78 221.354 1447.92 221.36 1448.05 221.32L1459.51 218.133L1450.65 226.201C1450.55 226.293 1450.49 226.416 1450.46 226.551C1450.44 226.685 1450.45 226.824 1450.52 226.947C1450.57 227.069 1450.67 227.167 1450.79 227.227C1450.92 227.286 1451.05 227.303 1451.19 227.276L1462.79 224.747L1453.52 232.334C1453.42 232.419 1453.34 232.538 1453.31 232.67C1453.28 232.803 1453.29 232.943 1453.35 233.067C1453.4 233.193 1453.49 233.298 1453.61 233.365C1453.73 233.431 1453.87 233.456 1454.01 233.434L1465.74 231.474L1456.09 238.555C1455.98 238.637 1455.9 238.753 1455.86 238.886C1455.82 239.018 1455.83 239.16 1455.88 239.289C1455.92 239.415 1456.01 239.522 1456.13 239.593C1456.24 239.664 1456.38 239.695 1456.51 239.681L1468.32 238.416L1458.32 244.979C1458.21 245.055 1458.12 245.165 1458.08 245.293C1458.04 245.42 1458.03 245.559 1458.08 245.687C1458.13 245.79 1458.22 245.873 1458.33 245.923C1458.44 245.973 1458.56 245.988 1458.67 245.965ZM1446.54 358.962L1451.92 364.993L1440.85 360.593C1440.73 360.545 1440.59 360.54 1440.46 360.579C1440.33 360.617 1440.21 360.698 1440.13 360.808C1440.05 360.918 1440.01 361.051 1440.01 361.187C1440.01 361.324 1440.05 361.456 1440.13 361.567L1447.66 370.962L1436.83 365.904C1436.71 365.849 1436.57 365.836 1436.44 365.868C1436.3 365.9 1436.19 365.975 1436.1 366.081C1436.02 366.191 1435.98 366.324 1435.98 366.46C1435.98 366.597 1436.02 366.729 1436.1 366.84L1443.13 376.627L1432.57 371.063C1432.45 370.997 1432.32 370.974 1432.18 370.997C1432.05 371.02 1431.93 371.088 1431.84 371.19C1431.76 371.3 1431.72 371.433 1431.72 371.569C1431.72 371.705 1431.76 371.838 1431.84 371.948L1438.35 382.064L1428.1 375.944C1427.98 375.874 1427.85 375.844 1427.71 375.861C1427.58 375.877 1427.46 375.937 1427.36 376.033C1427.26 376.131 1427.2 376.258 1427.18 376.395C1427.17 376.532 1427.19 376.671 1427.26 376.791L1433.25 387.274L1423.27 380.686C1423.15 380.609 1423.02 380.574 1422.88 380.585C1422.75 380.597 1422.62 380.655 1422.52 380.749C1422.42 380.842 1422.35 380.965 1422.33 381.099C1422.3 381.234 1422.32 381.373 1422.38 381.495L1427.83 392.282L1418.26 385.099C1418.15 385.016 1418.02 384.971 1417.88 384.971C1417.75 384.971 1417.62 385.016 1417.51 385.099C1417.41 385.188 1417.33 385.309 1417.3 385.443C1417.27 385.577 1417.28 385.718 1417.33 385.845L1422.25 396.897L1413.05 389.221C1412.95 389.135 1412.82 389.087 1412.68 389.087C1412.55 389.087 1412.42 389.135 1412.31 389.221C1412.2 389.303 1412.12 389.42 1412.08 389.552C1412.04 389.684 1412.05 389.826 1412.1 389.955L1416.41 401.26L1415.15 399.995L1409.2 391.143C1422.44 381.736 1433.79 369.912 1442.64 356.294L1446.54 358.962ZM1450.58 361.642L1454.14 364.02C1453.93 364.323 1453.74 364.652 1453.54 364.968L1450.58 361.642ZM1452.44 366.536C1451.41 368.041 1450.38 369.533 1449.29 371L1442.57 362.604L1452.44 366.536ZM1404.12 408.973L1396.2 399.907C1396.12 399.806 1396 399.738 1395.87 399.712C1395.74 399.687 1395.6 399.707 1395.48 399.767C1395.36 399.829 1395.26 399.93 1395.21 400.054C1395.15 400.178 1395.14 400.317 1395.17 400.45L1397.7 412.311L1390.27 402.84C1390.19 402.735 1390.07 402.661 1389.94 402.629C1389.81 402.597 1389.68 402.609 1389.55 402.663C1389.43 402.72 1389.33 402.816 1389.26 402.938C1389.2 403.059 1389.18 403.198 1389.2 403.333L1391.11 415.308L1384.18 405.458C1384.11 405.354 1384 405.276 1383.88 405.237C1383.76 405.199 1383.63 405.2 1383.51 405.243C1392.21 401.708 1400.48 397.212 1408.18 391.839L1411.23 396.404L1407.62 393.103C1407.52 393.011 1407.4 392.955 1407.26 392.943C1407.13 392.932 1406.99 392.966 1406.88 393.04C1406.77 393.119 1406.68 393.232 1406.64 393.361C1406.6 393.491 1406.6 393.631 1406.64 393.761L1410.37 405.281L1402.01 396.657C1401.91 396.56 1401.79 396.498 1401.65 396.48C1401.52 396.462 1401.38 396.488 1401.26 396.556C1401.15 396.627 1401.06 396.735 1401.01 396.863C1400.96 396.991 1400.95 397.131 1400.98 397.264L1404.12 408.973ZM1377.5 420.227L1371.61 409.694C1371.55 409.579 1371.45 409.489 1371.33 409.441C1373.25 408.885 1375.13 408.29 1377.03 407.645C1376.97 407.705 1376.92 407.777 1376.88 407.857C1376.84 407.938 1376.82 408.025 1376.82 408.113L1377.5 420.227ZM1338.3 427.574C1337.42 427.574 1336.53 427.574 1335.65 427.498L1338.39 416.838L1341.14 427.498C1340.16 427.498 1339.23 427.549 1338.28 427.549L1338.3 427.574ZM1272.22 392.168L1284.76 372.176L1285.14 372.416C1293.22 377.604 1302.02 381.591 1311.24 384.252L1306.18 407.013C1294.16 403.819 1282.7 398.804 1272.19 392.142L1272.22 392.168ZM1268.97 397.352L1270.47 394.95C1271.74 395.734 1273 396.48 1274.27 397.213L1266.45 405.281L1268.97 397.352ZM1224.84 364.993L1231.89 357.065C1232.43 357.862 1232.98 358.633 1233.53 359.417L1226.67 364.273L1224.84 364.993ZM1200.19 268.638L1200.31 267.664L1210.31 271.458L1199.74 273.114C1199.74 272.988 1199.74 272.861 1199.74 272.722C1199.86 271.382 1200 269.991 1200.17 268.613L1200.19 268.638ZM1233.15 216.793L1253.57 230.361C1251.57 233.581 1249.75 236.907 1248.12 240.325C1247.97 240.654 1247.8 240.983 1247.65 241.299C1247.22 242.21 1246.83 243.133 1246.39 244.056C1246.08 244.777 1245.77 245.485 1245.46 246.218C1245.39 246.42 1245.29 246.623 1245.21 246.838C1245.02 247.306 1244.86 247.799 1244.68 248.279C1244.32 249.19 1243.97 250.1 1243.65 251.036C1243.41 251.706 1243.2 252.389 1242.97 253.072C1242.68 253.957 1242.4 254.842 1242.14 255.74C1241.87 256.638 1241.63 257.485 1241.4 258.357C1241.21 259.04 1241.04 259.71 1240.87 260.381C1240.56 261.645 1240.29 262.91 1240.03 264.098C1239.96 264.414 1239.89 264.718 1239.82 265.021C1239.76 265.325 1239.62 265.982 1239.53 266.476L1215.51 261.885C1218.42 245.841 1224.4 230.51 1233.12 216.73L1233.15 216.793ZM1313.15 161.155L1317.82 185.117C1317.07 185.269 1316.34 185.458 1315.59 185.635C1314.85 185.812 1314.24 185.939 1313.56 186.116C1312.29 186.432 1311.15 186.786 1309.97 187.153C1309.57 187.267 1309.17 187.368 1308.78 187.494C1307.3 187.962 1305.83 188.468 1304.38 188.999L1304.02 189.125C1302.4 189.72 1300.81 190.39 1299.24 191.035C1293.14 193.666 1287.31 196.898 1281.84 200.683L1268.19 180.249C1281.71 170.87 1297 164.339 1313.13 161.053L1313.15 161.155ZM1337.03 158.765C1345.38 158.742 1353.72 159.59 1361.9 161.294L1357.31 184.776C1351.06 183.543 1344.71 182.916 1338.34 182.904C1336.62 182.904 1334.91 182.904 1333.19 183.043H1332.9C1331.32 183.119 1329.75 183.246 1328.17 183.41L1327.06 183.549C1325.8 183.688 1324.53 183.84 1323.27 184.042C1322.62 184.143 1322 184.27 1321.33 184.384C1320.66 184.497 1319.82 184.636 1319.07 184.788L1314.39 160.864C1321.84 159.423 1329.41 158.686 1337 158.663L1337.03 158.765ZM1422 335.809C1421.46 336.757 1420.89 337.68 1420.32 338.603C1420.12 338.919 1419.93 339.235 1419.72 339.539L1359.36 299.327C1360.07 298.209 1360.69 297.038 1361.22 295.825L1427.94 323.555C1426.31 327.564 1424.43 331.463 1422.29 335.227L1422 335.809ZM1416.32 344.559C1416.18 344.761 1416.03 344.951 1415.88 345.153C1413.33 348.611 1410.55 351.898 1407.56 354.991L1356.59 302.919C1357.33 302.121 1358.03 301.277 1358.66 300.39L1419.05 340.626L1418.16 341.891C1417.51 342.814 1416.94 343.699 1416.27 344.559H1416.32ZM1371 378.903C1369.64 379.396 1368.27 379.877 1366.89 380.307C1366.51 380.433 1366.13 380.522 1365.76 380.635C1364.6 380.989 1363.47 381.318 1362.32 381.622L1346.22 309.646L1347.26 309.254L1375.33 377.133C1374.06 377.676 1372.8 378.208 1371.53 378.688L1371 378.903ZM1337.05 410.958C1329.58 410.952 1322.13 410.254 1314.8 408.872L1319.25 386.111C1322.81 386.813 1326.41 387.315 1330.03 387.615L1331.96 387.767L1334.04 387.881C1335.31 387.944 1336.66 387.982 1337.97 387.982H1338.47C1341.82 387.982 1345.17 387.804 1348.51 387.451C1348.84 387.451 1349.15 387.375 1349.48 387.337C1350.75 387.186 1352.11 387.021 1353.43 386.819C1354.1 386.718 1354.69 386.579 1355.4 386.465L1356.66 386.237L1360.36 402.815L1361.46 408.442C1353.41 410.11 1345.22 410.954 1337 410.958H1337.05ZM1344.46 414.044L1342.06 425.93L1339.04 414.195C1340.78 414.195 1342.6 414.145 1344.41 414.044H1344.46ZM1337.82 414.259L1334.75 425.981L1332.36 414.183C1333.9 414.183 1335.43 414.297 1336.99 414.297L1337.82 414.259ZM1331.18 414.12L1327.61 425.563L1325.83 413.74C1327.55 413.905 1329.34 414.044 1331.13 414.12H1331.18ZM1324.57 413.639L1320.44 424.792L1319.27 412.982C1320.98 413.234 1322.74 413.462 1324.52 413.639H1324.57ZM1312.54 408.455L1317.6 385.795L1318.05 385.896L1313.61 408.657L1312.54 408.455ZM1289 370.899C1288.18 370.406 1287.37 369.874 1286.55 369.356L1325.48 307.395C1326.33 307.917 1327.22 308.389 1328.12 308.811L1328.06 309.089L1300.99 377.019C1297.07 375.357 1293.27 373.435 1289.61 371.265L1289 370.899ZM1236.91 358.507L1256.35 344.711C1263.23 354.65 1271.84 363.272 1281.77 370.165L1282.63 370.76L1283.73 371.493L1271.18 391.472C1257.75 382.769 1246.1 371.58 1236.86 358.507H1236.91ZM1257.73 385.681L1248.94 392.282L1253.92 382.406C1255.09 383.518 1256.35 384.619 1257.68 385.681H1257.73ZM1263.04 389.816L1254.49 396.897L1258.99 386.718C1260.31 387.78 1261.64 388.817 1262.99 389.816H1263.04ZM1234.71 361.048L1231.57 362.313L1234.26 360.403L1234.71 361.048ZM1200.67 281.561L1210.45 279.5C1210.39 281.043 1210.35 282.598 1210.33 284.153L1200.67 281.561ZM1211.12 270.471L1201.81 266.88L1211.69 265.869C1211.42 267.399 1211.23 268.929 1211.07 270.446L1211.12 270.471ZM1210.55 277.3L1201 274.24L1210.84 272.71C1210.7 274.219 1210.58 275.749 1210.5 277.3H1210.55ZM1213.56 284.811C1213.57 277.538 1214.2 270.279 1215.43 263.112L1239.46 267.702C1237.35 279.811 1237.42 292.199 1239.66 304.284L1215.87 308.849C1214.33 300.928 1213.54 292.88 1213.51 284.811H1213.56ZM1243.29 264.794C1243.54 263.592 1243.81 262.378 1244.1 261.19C1244.26 260.545 1244.44 259.925 1244.62 259.243C1244.79 258.56 1245.07 257.535 1245.32 256.714C1245.58 255.892 1245.85 255.006 1246.13 254.184C1246.41 253.363 1246.56 252.844 1246.8 252.187C1247.11 251.301 1247.44 250.429 1247.78 249.544C1247.85 249.329 1247.94 249.126 1248.02 248.911L1314.88 276.655C1314.4 277.975 1314.03 279.332 1313.77 280.714L1242.85 267.146C1242.93 266.678 1243 266.197 1243.1 265.729C1243.2 265.262 1243.17 265.097 1243.24 264.794H1243.29ZM1250.62 242.728L1251.08 241.792C1252.67 238.5 1254.44 235.296 1256.38 232.195L1316.81 272.457C1316.34 273.303 1315.92 274.172 1315.54 275.062L1248.69 247.318C1248.95 246.673 1249.23 246.054 1249.5 245.409C1249.77 244.511 1250.17 243.613 1250.57 242.728H1250.62ZM1305.44 192.047C1306.85 191.528 1308.27 191.035 1309.7 190.58L1310.79 190.264C1311.96 189.909 1313.14 189.568 1314.32 189.265C1314.95 189.088 1315.58 188.961 1316.24 188.797L1318.44 188.291L1332.55 260.583C1331.44 260.856 1330.36 261.202 1329.3 261.62L1301.23 193.716C1302.49 193.172 1303.76 192.641 1305.08 192.16L1305.44 192.047ZM1323.66 187.317C1324.92 187.128 1326.19 186.963 1327.55 186.811L1328.41 186.71C1331.4 186.394 1334.42 186.242 1337.47 186.217V259.925C1336.22 259.963 1334.98 260.098 1333.75 260.33L1319.58 188.025L1321.75 187.633C1322.42 187.52 1323.04 187.393 1323.66 187.292V187.317ZM1404.44 179.237L1392.08 198.913C1391.15 198.306 1390.21 197.712 1389.25 197.13L1388.63 196.763C1379.31 191.195 1369.12 187.209 1358.5 184.965L1363.07 161.547C1377.84 164.809 1391.87 170.8 1404.44 179.212V179.237ZM1393.06 203.503C1397.83 206.843 1402.29 210.601 1406.4 214.732L1355.4 266.779C1354.47 265.889 1353.49 265.07 1352.44 264.326L1391.35 202.365L1392.08 202.833L1393.06 203.503ZM1429.8 252.085C1430.3 253.476 1430.76 254.867 1431.18 256.271C1431.29 256.676 1431.4 257.08 1431.52 257.535C1431.85 258.699 1432.19 259.875 1432.48 261.051C1432.65 261.708 1432.79 262.378 1432.93 263.049C1433.14 263.959 1433.36 264.882 1433.55 265.805C1433.62 266.21 1433.68 266.615 1433.76 267.07L1362.95 280.701C1362.66 279.224 1362.23 277.777 1361.68 276.377L1428.13 247.71C1428.65 248.975 1429.17 250.34 1429.64 251.655C1429.66 251.706 1429.71 251.883 1429.78 252.06L1429.8 252.085ZM1434.38 270.56C1434.56 271.761 1434.7 272.975 1434.84 274.189C1434.84 274.606 1434.94 275.024 1434.97 275.454C1435.13 276.933 1435.23 278.425 1435.32 279.917C1435.32 280.082 1435.32 280.246 1435.32 280.41C1435.39 281.814 1435.42 283.23 1435.43 284.659H1363.35C1363.32 283.72 1363.24 282.783 1363.11 281.852L1434 268.221C1434.02 268.34 1434.04 268.458 1434.06 268.575C1434.13 269.182 1434.25 269.864 1434.35 270.535L1434.38 270.56ZM1428.58 322.013L1361.8 294.307C1362.15 293.327 1362.45 292.326 1362.68 291.31L1433.56 304.866C1432.4 310.709 1430.72 316.439 1428.55 321.987L1428.58 322.013ZM1393.23 367.282L1352.59 306.472C1353.59 305.751 1354.54 304.96 1355.42 304.107L1406.4 356.18C1402.34 360.254 1397.92 363.961 1393.21 367.257L1393.23 367.282ZM1352.88 383.594C1351.73 383.771 1350.58 383.91 1349.42 384.05L1348.15 384.214C1346.75 384.353 1345.33 384.467 1343.9 384.543H1343.31C1341.93 384.606 1340.55 384.631 1339.16 384.644V310.91H1339.92L1355.99 382.987L1354.97 383.177C1354.21 383.329 1353.53 383.468 1352.86 383.569L1352.88 383.594ZM1284.6 368.142L1283.01 367.017C1282.13 366.397 1281.25 365.752 1280.4 365.12L1279.83 364.69C1276.44 362.065 1273.22 359.222 1270.2 356.18L1321.21 304.082C1322.2 305.048 1323.27 305.932 1324.41 306.725L1285.43 368.698L1284.6 368.142ZM1344.47 186.419L1346.31 186.559C1349.78 186.863 1353.24 187.353 1356.66 188.025L1342.55 260.279C1341.41 260.078 1340.26 259.959 1339.1 259.925V186.192C1340.21 186.192 1341.32 186.192 1342.44 186.28L1344.47 186.419ZM1390.39 201.682L1351.47 263.643C1350.52 263.044 1349.53 262.507 1348.51 262.037L1375.63 193.754C1380.59 195.88 1385.36 198.418 1389.89 201.341L1390.39 201.682ZM1425.91 242.627C1426.45 243.765 1426.96 244.941 1427.46 246.117L1361.01 274.771C1360.54 273.716 1359.99 272.693 1359.38 271.711L1418.61 229.716C1421.28 233.717 1423.66 237.905 1425.73 242.248C1425.79 242.323 1425.86 242.45 1425.91 242.627ZM1269.11 355.042C1265.46 351.244 1262.11 347.164 1259.11 342.839L1318.31 300.794C1318.85 301.533 1319.43 302.242 1320.04 302.919L1269.11 355.042ZM1343.79 260.532L1357.84 188.253C1363.38 189.424 1368.81 191.088 1374.06 193.222L1346.94 261.506C1345.9 261.086 1344.82 260.744 1343.73 260.482L1343.79 260.532ZM1331.36 324.226L1334.37 310.695C1335.42 310.871 1336.47 310.977 1337.53 311.012V384.72C1331.61 384.661 1325.7 384.052 1319.89 382.899L1331.36 324.226ZM1318.72 382.646L1318.36 382.557L1321.4 368.913L1318.72 382.646ZM1407.59 215.933C1411.4 219.892 1414.88 224.164 1417.98 228.705L1358.78 270.674C1358.12 269.733 1357.39 268.837 1356.61 267.993L1407.59 215.933ZM1324.41 264.263L1283.68 203.427C1288.73 199.904 1294.1 196.876 1299.74 194.386L1327.81 262.29C1326.6 262.834 1325.43 263.477 1324.33 264.212L1324.41 264.263ZM1323.43 264.996C1322.68 265.574 1321.96 266.195 1321.27 266.855L1270.26 214.757C1274.12 210.878 1278.31 207.329 1282.77 204.148L1323.43 264.996ZM1269 215.883L1319.99 267.98C1319.01 269.042 1318.13 270.184 1317.34 271.394L1256.98 231.145C1260.47 225.675 1264.5 220.562 1269 215.883ZM1313.25 284.609H1241.18C1241.23 279.146 1241.72 273.695 1242.63 268.309L1313.59 281.89C1313.45 282.79 1313.36 283.698 1313.32 284.609H1313.25ZM1241.18 286.265H1313.37C1313.4 287.537 1313.53 288.805 1313.75 290.059L1242.83 303.69C1241.78 297.94 1241.22 292.11 1241.18 286.265ZM1317.63 299.783L1258.39 341.777C1254.75 336.434 1251.64 330.756 1249.09 324.82L1315.58 296.128C1316.15 297.396 1316.82 298.618 1317.58 299.783H1317.63ZM1311.99 380.914C1308.77 379.991 1305.61 378.902 1302.5 377.651L1325.78 319.079L1311.99 380.914ZM1351.54 307.117L1392.2 367.965C1387.34 371.281 1382.2 374.147 1376.82 376.526L1348.76 308.647C1349.72 308.194 1350.65 307.683 1351.54 307.117ZM1362.92 290.071C1363.15 288.818 1363.28 287.55 1363.31 286.278H1435.39C1435.33 292.098 1434.77 297.902 1433.72 303.627L1362.92 290.071ZM1243.01 304.879L1313.96 291.247C1314.22 292.386 1314.55 293.506 1314.96 294.598L1248.47 323.277C1247.36 320.495 1246.35 317.701 1245.48 314.868C1244.48 311.583 1243.65 308.249 1243 304.879H1243.01ZM1368.65 410.2C1369.31 410.023 1369.92 409.808 1370.61 409.631C1370.53 409.727 1370.49 409.847 1370.48 409.972V418.634L1368.65 410.2ZM1436.72 265.085C1436.5 264.06 1436.28 263.061 1436.04 262.05C1435.9 261.417 1435.77 260.785 1435.62 260.178C1435.29 258.914 1434.94 257.649 1434.56 256.385C1434.46 256.043 1434.38 255.702 1434.28 255.348C1433.8 253.792 1433.29 252.237 1432.75 250.707L1432.67 250.479C1431.97 248.507 1431.19 246.572 1430.38 244.65C1427.89 238.771 1424.85 233.137 1421.32 227.819L1439.7 214.808C1449.12 229.183 1455.53 245.319 1458.53 262.239L1437.04 266.387C1436.85 265.919 1436.78 265.502 1436.71 265.085H1436.72ZM1420.64 226.732C1414.6 217.905 1407.2 210.09 1398.72 203.579L1398.1 203.098C1397.23 202.428 1396.34 201.834 1395.45 201.164L1393.75 199.975L1393.12 199.545L1405.47 179.882C1418.69 188.931 1430.06 200.42 1438.97 213.733L1420.64 226.732ZM1417.36 184.776C1415.94 183.587 1414.49 182.424 1413.02 181.286L1422.23 173.597L1417.33 184.662C1417.33 184.662 1417.36 184.738 1417.35 184.776H1417.36ZM1436.13 203.629C1436.08 203.718 1436.05 203.818 1436.05 203.92C1436.05 204.022 1436.08 204.122 1436.13 204.211C1434.85 202.593 1433.55 200.999 1432.21 199.431C1432.27 199.462 1432.35 199.478 1432.42 199.478C1432.49 199.478 1432.57 199.462 1432.64 199.431L1443.19 193.867L1436.13 203.629ZM1436.87 204.553L1447.7 199.57L1440.17 208.966C1440.09 209.076 1440.05 209.209 1440.05 209.345C1440.05 209.481 1440.09 209.614 1440.17 209.724C1438.91 207.941 1437.64 206.184 1436.3 204.477C1436.38 204.534 1436.47 204.571 1436.57 204.584C1436.67 204.598 1436.77 204.587 1436.86 204.553H1436.87ZM1440.16 209.724C1440.24 209.835 1440.35 209.916 1440.48 209.955C1440.6 209.995 1440.74 209.989 1440.87 209.939L1448.75 206.791L1441.63 211.849C1441.13 211.128 1440.64 210.432 1440.15 209.75L1440.16 209.724ZM1442.59 207.916L1449.16 199.697C1450.22 201.138 1451.25 202.593 1452.26 204.072L1442.59 207.916ZM1438.44 202.453L1444.57 193.918C1445.71 195.284 1446.81 196.687 1447.89 198.104L1438.44 202.453ZM1434.06 197.218L1439.74 188.367C1440.94 189.631 1442.11 190.997 1443.26 192.35L1434.06 197.218ZM1431.78 198.483C1431.7 198.604 1431.66 198.745 1431.67 198.888C1430.41 197.395 1429.06 195.954 1427.7 194.525C1427.81 194.55 1427.92 194.55 1428.03 194.525L1438.29 188.405L1431.78 198.483ZM1427.2 193.615C1427.15 193.709 1427.13 193.813 1427.13 193.918C1425.79 192.527 1424.42 191.17 1423.02 189.846C1423.11 189.843 1423.19 189.822 1423.27 189.783L1433.19 183.132L1427.2 193.615ZM1422.38 188.986C1422.37 189.058 1422.37 189.13 1422.38 189.201C1420.99 187.937 1419.57 186.672 1418.13 185.408C1418.18 185.414 1418.23 185.414 1418.28 185.408L1427.86 178.225L1422.38 188.986ZM1419.47 183.005L1423.73 173.37C1425.11 174.47 1426.49 175.583 1427.83 176.746L1419.47 183.005ZM1414.12 178.807L1417.92 168.944C1419.35 169.981 1420.79 171.018 1422.18 172.105L1414.12 178.807ZM1412.15 180.565C1410.68 179.452 1409.22 178.377 1407.7 177.34L1416.46 169.197L1412.15 180.565ZM1406.23 176.43C1404.88 175.519 1403.53 174.634 1402.14 173.774L1410.42 165.239L1407.4 174.571L1406.23 176.43ZM1396.39 170.461L1404.17 161.61L1401.06 173.205C1399.5 172.278 1397.93 171.363 1396.34 170.461H1396.39ZM1390.39 167.464L1397.65 158.208L1395.12 169.867C1393.63 169.032 1392.04 168.223 1390.39 167.464ZM1384.33 164.771L1391.06 155.211L1389.19 166.908C1387.63 166.162 1386.01 165.492 1384.37 164.771H1384.33ZM1383.07 164.265C1381.44 163.608 1379.8 163.001 1378.15 162.406L1384.33 152.569L1383.07 164.265ZM1376.81 161.951C1375.16 161.382 1373.51 160.864 1371.84 160.371L1377.46 150.254L1376.81 161.951ZM1370.48 159.966C1368.82 159.511 1367.15 159.081 1365.43 158.701L1370.48 148.396V159.966ZM1363.69 158.271L1363.95 157.007L1364.01 158.385L1363.69 158.271ZM1362.51 157.993C1361.34 157.74 1360.15 157.551 1358.96 157.336L1363.48 146.853L1363.71 151.835L1362.51 157.993ZM1352.39 156.349L1356.33 145.702L1357.45 157.083C1355.79 156.792 1354.11 156.552 1352.45 156.349H1352.39ZM1281.24 168.577L1279.02 158.208L1285.56 166.529C1284.17 167.199 1282.69 167.869 1281.26 168.577H1281.24ZM1275.32 171.814L1272.59 161.61L1279.5 169.538C1278.12 170.221 1276.73 170.967 1275.32 171.814ZM1269.58 175.304L1266.34 165.289L1273.62 172.801C1272.3 173.559 1270.94 174.343 1269.61 175.254L1269.58 175.304ZM1266.29 177.454L1261.74 170.651L1267.92 176.392C1267.41 176.695 1266.86 177.037 1266.33 177.403L1266.29 177.454ZM1253.53 187.57L1248.85 178.301L1257.08 184.472C1255.91 185.408 1254.73 186.445 1253.57 187.494L1253.53 187.57ZM1258.66 183.208L1254.45 173.661L1262.39 180.299C1261.17 181.172 1259.93 182.145 1258.7 183.195L1258.66 183.208ZM1264.03 179.123L1261.5 172.548L1265.29 178.2L1264.03 179.123ZM1262.62 178.883L1254.5 172.105C1255.92 171.005 1257.37 169.956 1258.83 168.919L1262.62 178.883ZM1257.27 183.081L1248.83 176.759C1250.18 175.583 1251.57 174.457 1252.97 173.344L1257.27 183.081ZM1252.15 187.557L1243.39 181.678C1244.65 180.413 1246.01 179.237 1247.35 178.048L1252.15 187.557ZM1251.99 188.936C1250.84 189.998 1249.72 191.098 1248.61 192.198L1243.53 183.195L1251.99 188.936ZM1243.95 197.092L1238.38 188.443L1247.13 193.665C1246.08 194.702 1245.03 195.84 1243.98 197.016L1243.95 197.092ZM1239.52 202.15L1233.59 193.842L1242.58 198.571C1241.56 199.747 1240.54 200.898 1239.56 202.163L1239.52 202.15ZM1235.37 207.511L1229.05 199.583L1238.25 203.819C1237.29 205.02 1236.33 206.247 1235.41 207.499L1235.37 207.511ZM1267.12 180.868L1280.78 201.315C1270.2 208.84 1261.18 218.348 1254.23 229.312L1233.78 215.693C1242.55 202.034 1253.89 190.204 1267.16 180.856L1267.12 180.868ZM1216.8 243.765L1208.45 238.277L1218.3 239.39C1217.81 240.819 1217.33 242.285 1216.83 243.752L1216.8 243.765ZM1214.84 250.315L1206.21 245.257L1216.1 245.839C1215.68 247.318 1215.28 248.81 1214.87 250.302L1214.84 250.315ZM1221.74 231.031L1213.96 224.709L1223.71 226.871C1223.07 228.211 1222.41 229.602 1221.78 231.019L1221.74 231.031ZM1219.1 237.354L1211.03 231.423L1220.84 233.067C1220.27 234.446 1219.68 235.874 1219.14 237.316L1219.1 237.354ZM1218.09 238.138L1207.55 236.949C1208.17 235.229 1208.82 233.51 1209.49 231.815L1218.09 238.138ZM1215.89 244.6L1205.29 243.967C1205.82 242.222 1206.38 240.465 1206.96 238.732L1215.89 244.6ZM1213.98 251.2H1203.33C1203.77 249.405 1204.25 247.634 1204.75 245.864L1213.98 251.2ZM1214.29 252.465C1213.91 253.957 1213.6 255.462 1213.27 256.979L1204.42 252.414L1214.29 252.465ZM1212.42 261.316L1203.49 259.609L1212.8 259.154C1212.64 259.837 1212.53 260.558 1212.41 261.278L1212.42 261.316ZM1212.21 262.581C1212.13 262.973 1212.05 263.365 1211.99 263.757L1207.25 261.595L1212.21 262.581ZM1211.17 264.743L1200.55 265.831C1200.79 264.048 1201.08 262.277 1201.38 260.507L1201.98 260.621L1211.17 264.743ZM1209.77 278.438L1199.27 280.562C1199.27 279.943 1199.27 279.298 1199.27 278.716C1199.27 278.134 1199.35 277.451 1199.38 276.832C1199.42 276.212 1199.47 275.567 1199.51 275.011L1209.77 278.438ZM1199.17 285.481C1199.17 284.495 1199.17 283.521 1199.24 282.547L1209.59 285.329L1199.23 288.099C1199.23 287.239 1199.17 286.379 1199.17 285.57V285.481ZM1210.32 286.417C1210.32 287.972 1210.32 289.54 1210.44 291.083L1200.64 289.009L1210.32 286.417ZM1210.92 297.924L1201.02 296.369L1210.57 293.258C1210.66 294.737 1210.75 296.293 1210.9 297.848L1210.92 297.924ZM1211.76 304.714L1201.77 303.703L1211.18 300.061C1211.35 301.54 1211.52 303.108 1211.75 304.588L1211.76 304.714ZM1211.17 305.903L1201.33 310.316C1201.15 309.317 1200.96 308.318 1200.8 307.307V307.016C1200.69 306.295 1200.62 305.549 1200.52 304.815L1211.17 305.903ZM1202.9 310.961L1212.14 306.813C1212.29 307.724 1212.45 308.634 1212.61 309.532L1204.69 311.049L1202.9 310.961ZM1212.83 310.746L1212.98 311.454L1209.94 311.302L1212.83 310.746ZM1214.53 318.118H1204.42L1213.46 313.465C1213.77 314.995 1214.13 316.537 1214.52 318.055L1214.53 318.118ZM1216.01 310.139L1239.8 305.561C1240.48 309.056 1241.35 312.513 1242.39 315.918C1243.36 319.142 1244.5 322.24 1245.78 325.389C1246.39 326.868 1247.04 328.323 1247.71 329.764L1247.92 330.181C1250.14 334.892 1252.72 339.424 1255.64 343.737L1236.12 357.495C1226.23 343.234 1219.39 327.094 1216 310.076L1216.01 310.139ZM1224.16 343.661L1214.04 345.912L1222.09 339.311C1222.73 340.715 1223.47 342.156 1224.14 343.598L1224.16 343.661ZM1227.35 349.668L1217.24 352.475L1224.99 345.419C1225.77 346.797 1226.56 348.201 1227.34 349.604L1227.35 349.668ZM1230.87 355.484L1220.94 358.797L1228.37 351.299C1229.13 352.639 1229.98 354.068 1230.86 355.421L1230.87 355.484ZM1227.27 365.347L1234.22 362.578L1227.41 371.088C1226.46 369.824 1225.56 368.559 1224.65 367.206L1227.27 365.347ZM1235.8 362.578C1236.78 363.843 1237.77 365.196 1238.8 366.473L1229.1 370.937L1235.8 362.578ZM1243.15 371.657L1233.59 376.665L1239.91 367.889C1240.95 369.166 1242 370.431 1243.1 371.607L1243.15 371.657ZM1247.76 376.589L1238.47 382.14L1244.36 372.972C1245.42 374.199 1246.55 375.4 1247.71 376.589H1247.76ZM1252.63 381.268L1243.58 387.35L1249.02 377.816C1250.15 378.992 1251.36 380.142 1252.56 381.268H1252.63ZM1252.24 383.025L1247.31 392.775C1245.94 391.51 1244.58 390.322 1243.25 389.044L1252.24 383.025ZM1257.36 387.502L1252.95 397.517C1251.51 396.366 1250.09 395.203 1248.7 394.001L1257.36 387.502ZM1262.71 391.687L1258.75 401.955C1257.26 400.88 1255.78 399.805 1254.33 398.667L1262.71 391.687ZM1264.37 390.777C1265.75 391.763 1267.14 392.724 1268.55 393.647L1260.37 401.234L1264.37 390.777ZM1312.96 411.907L1312.8 412.741V411.869L1312.96 411.907ZM1314.16 412.122C1315.43 412.362 1316.69 412.615 1317.96 412.805L1313.25 423.641L1312.97 417.875L1314.16 412.122ZM1312.15 424.994L1311.67 424.906L1312.06 422.908L1312.15 424.994ZM1318.27 415.194L1319.35 426.196C1317.53 425.93 1315.72 425.639 1313.92 425.311L1318.27 415.194ZM1324.96 416.092L1326.59 427.005C1324.76 426.841 1322.94 426.651 1321.13 426.423L1324.96 416.092ZM1331.68 416.636L1333.88 427.435C1332.03 427.435 1330.21 427.271 1328.39 427.144L1331.68 416.636ZM1345.16 416.636L1348.44 427.131C1346.62 427.258 1344.8 427.359 1342.97 427.422L1345.16 416.636ZM1345.61 414.006C1347.46 413.879 1349.3 413.728 1351.12 413.513C1351.12 413.513 1351.12 413.513 1351.12 413.626L1349.32 425.614L1345.61 414.006ZM1357.68 412.539C1357.64 412.592 1357.61 412.652 1357.59 412.716L1356.41 424.792L1352.2 413.411C1352.2 413.411 1352.14 413.336 1352.11 413.298C1353.92 413.108 1355.78 412.842 1357.62 412.539H1357.68ZM1362.13 411.717L1363.71 419.81L1363.53 423.603L1358.75 412.488C1358.75 412.425 1358.65 412.387 1358.6 412.324C1359.72 412.16 1360.91 411.957 1362.08 411.717H1362.13ZM1367.97 406.962L1363.04 384.859C1364.3 384.53 1365.57 384.163 1366.73 383.797L1367.82 383.481C1369.32 383.013 1370.81 382.494 1372.29 381.95L1372.57 381.849C1374.18 381.255 1375.77 380.585 1377.34 379.94C1383.19 377.41 1388.78 374.327 1394.04 370.734L1406.35 389.146C1394.68 397.305 1381.67 403.353 1367.92 407.013L1367.97 406.962ZM1408.57 395.582L1414.24 400.842L1415.91 403.371C1414.64 404.269 1413.26 405.129 1411.92 405.976L1408.57 395.582ZM1428.05 393.913C1426.67 395.101 1425.26 396.252 1423.85 397.39L1419.47 387.502L1428.05 393.913ZM1422.38 398.566C1420.94 399.692 1419.47 400.766 1417.99 401.829L1414.12 391.712L1422.38 398.566ZM1407.4 388.45L1395.12 370.077C1404.09 363.777 1411.97 356.054 1418.45 347.214L1418.94 346.557C1419.57 345.672 1420.21 344.774 1420.81 343.876L1421.79 342.435L1439.93 354.523C1431.3 367.77 1420.24 379.268 1407.35 388.412L1407.4 388.45ZM1422.46 341.398C1422.66 341.082 1422.84 340.753 1423.04 340.437C1423.64 339.476 1424.3 338.502 1424.81 337.516L1425.14 336.921C1430.71 327.153 1434.66 316.539 1436.81 305.498L1458.15 309.583C1455.1 325.187 1449.14 340.079 1440.59 353.486L1422.46 341.398ZM1437.02 304.272C1438.16 298.069 1438.74 291.775 1438.74 285.468C1438.74 285.393 1438.74 285.317 1438.74 285.228C1438.74 283.572 1438.74 281.915 1438.63 280.246C1438.63 280.006 1438.63 279.778 1438.63 279.538C1438.54 278.071 1438.44 276.592 1438.3 275.125C1438.3 274.644 1438.17 274.164 1438.12 273.683C1437.98 272.482 1437.85 271.293 1437.67 270.092C1437.57 269.346 1437.42 268.6 1437.29 267.854V267.588L1458.79 263.453C1461.31 278.325 1461.19 293.527 1458.42 308.356L1437.02 304.272ZM1461.87 262.859L1470.36 261.228L1462.97 264.541C1462.85 264.599 1462.75 264.696 1462.68 264.817C1462.62 264.938 1462.6 265.076 1462.62 265.211C1462.64 265.346 1462.7 265.47 1462.8 265.564C1462.9 265.659 1463.02 265.717 1463.16 265.729L1474.98 266.994L1463.87 271.293C1463.74 271.343 1463.64 271.432 1463.56 271.549C1463.49 271.665 1463.46 271.801 1463.48 271.936C1463.49 272.071 1463.55 272.198 1463.64 272.296C1463.74 272.395 1463.86 272.46 1464 272.482L1475.73 274.315L1464.41 278.008C1464.28 278.054 1464.17 278.141 1464.1 278.255C1464.02 278.369 1463.99 278.504 1464 278.64C1464 278.775 1464.05 278.904 1464.14 279.007C1464.22 279.11 1464.34 279.181 1464.48 279.209L1476.11 281.738L1464.61 284.824C1464.48 284.862 1464.37 284.942 1464.29 285.051C1464.2 285.161 1464.16 285.294 1464.16 285.431C1464.16 285.566 1464.2 285.698 1464.28 285.806C1464.37 285.914 1464.48 285.991 1464.61 286.025L1476.11 289.11L1464.48 291.576C1464.34 291.607 1464.22 291.68 1464.14 291.785C1464.05 291.89 1464 292.021 1464 292.158C1463.99 292.292 1464.02 292.426 1464.1 292.537C1464.18 292.649 1464.28 292.733 1464.41 292.777L1475.73 296.47L1464 298.303C1463.86 298.327 1463.74 298.394 1463.64 298.495C1463.55 298.595 1463.49 298.723 1463.48 298.86C1463.46 298.995 1463.49 299.132 1463.56 299.249C1463.63 299.365 1463.74 299.455 1463.87 299.505L1474.98 303.804L1463.16 305.005C1463.02 305.018 1462.9 305.076 1462.8 305.17C1462.7 305.264 1462.64 305.389 1462.62 305.524C1462.6 305.659 1462.62 305.797 1462.68 305.918C1462.75 306.038 1462.85 306.135 1462.97 306.194L1473.85 310.91L1472.23 310.986L1461.5 308.938C1464.36 293.705 1464.48 278.085 1461.87 262.808V262.859ZM1477.4 285.494C1477.4 286.354 1477.4 287.188 1477.4 288.023L1467.28 285.291L1477.4 282.56C1477.35 283.496 1477.4 284.457 1477.4 285.431V285.494ZM1465.59 305.852L1476.08 304.777C1475.84 306.598 1475.55 308.407 1475.25 310.19L1465.59 305.852ZM1466.46 299.024L1476.87 297.393C1476.73 299.226 1476.54 301.035 1476.32 302.843L1466.46 299.024ZM1466.99 292.158L1477.29 289.983C1477.29 291.804 1477.15 293.625 1477.02 295.433L1466.99 292.158ZM1477.29 280.575L1466.99 278.387L1476.99 275.125C1477.12 276.908 1477.22 278.716 1477.29 280.562V280.575ZM1466.46 271.521L1476.27 267.727C1476.5 269.523 1476.69 271.331 1476.84 273.152L1466.46 271.521ZM1465.59 264.693L1475.19 260.381C1475.5 262.164 1475.79 263.959 1476.03 265.767L1465.59 264.693ZM1471.91 245.915C1472.4 247.66 1472.87 249.405 1473.3 251.175H1462.81L1471.91 245.915ZM1473.74 253.11C1474.15 254.867 1474.53 256.638 1474.87 258.433L1464.37 257.927L1473.74 253.11ZM1458.67 238.1L1467.17 231.866C1467.84 233.548 1468.51 235.229 1469.12 236.924L1458.67 238.1ZM1456.14 231.777L1464.3 225.101C1465.06 226.732 1465.8 228.376 1466.5 230.045L1456.14 231.777ZM1453.25 225.556L1461.04 218.462C1461.88 220.055 1462.69 221.661 1463.46 223.28L1453.25 225.556ZM1450.02 219.499L1457.44 212C1458.36 213.543 1459.23 215.124 1460.09 216.692L1450.02 219.499ZM1446.39 213.543L1453.4 205.665C1454.38 207.157 1455.33 208.687 1456.27 210.205L1446.39 213.543ZM1429.45 192.173L1434.66 183.043C1435.92 184.282 1437.16 185.547 1438.38 186.837L1429.45 192.173ZM1424.53 187.482L1429.27 178.086C1430.6 179.262 1431.9 180.451 1433.18 181.678L1424.53 187.482ZM1416.17 167.781L1408.58 174.773L1413.91 166.288L1415.17 167.148L1416.17 167.781ZM1412.09 165.075L1412.93 165.618L1409.96 170.36L1411.75 164.847L1412.09 165.075ZM1402.74 171.309L1405.49 161.079C1407.02 161.951 1408.55 162.836 1410.05 163.772L1402.74 171.309ZM1396.84 168.021L1399.05 157.69C1400.62 158.474 1402.19 159.283 1403.74 160.118L1396.84 168.021ZM1390.75 165.062L1392.42 154.604C1394.04 155.3 1395.65 156.033 1397.24 156.792L1390.75 165.062ZM1384.53 162.419L1385.66 151.911C1387.32 152.518 1388.95 153.176 1390.58 153.833L1384.53 162.419ZM1378.21 160.118L1378.81 149.546C1380.49 150.065 1382.16 150.634 1383.86 151.216L1378.21 160.118ZM1371.75 158.17V147.561C1373.44 148.004 1375.15 148.472 1376.81 148.965L1371.75 158.17ZM1365.1 156.552L1364.88 151.936L1366 146.246C1367.26 146.512 1368.52 146.79 1369.79 147.093L1365.1 156.552ZM1364.64 146.79V145.955H1364.84L1364.64 146.79ZM1358.47 155.3L1357.43 144.716C1359.18 144.969 1360.91 145.26 1362.66 145.576L1358.47 155.3ZM1351.78 154.402L1350.2 143.881C1351.96 144.046 1353.72 144.235 1355.46 144.463L1351.78 154.402ZM1350.81 156.147C1349.14 155.957 1347.46 155.818 1345.75 155.705L1349.11 144.931L1350.81 156.147ZM1339.14 155.414L1341.93 144.552L1344.17 155.578C1342.55 155.477 1340.87 155.439 1339.19 155.376L1339.14 155.414ZM1336.95 155.35C1335.46 155.35 1333.98 155.414 1332.5 155.464L1334.71 144.552L1337.49 155.363L1336.95 155.35ZM1331.58 153.858L1328.4 143.742C1330.16 143.616 1331.93 143.527 1333.7 143.477L1331.58 153.858ZM1330.82 155.515C1329.16 155.591 1327.52 155.73 1325.86 155.882L1327.5 144.931L1330.82 155.515ZM1319.26 156.64L1320.33 145.702L1324.13 156.008C1322.56 156.185 1320.94 156.413 1319.31 156.64H1319.26ZM1313.63 157.589L1312.89 153.795L1313.21 146.878L1317.51 156.906C1316.26 157.083 1314.97 157.336 1313.68 157.589H1313.63ZM1311.9 148.737L1311.37 146.006L1312.04 145.879L1311.9 148.737ZM1311.66 153.871L1311.55 156.552L1306.93 147.005C1308.04 146.752 1309.16 146.474 1310.27 146.233L1311.66 153.871ZM1287.27 165.732L1285.59 155.211L1291.72 163.911C1290.28 164.493 1288.78 165.087 1287.32 165.732H1287.27ZM1279.9 168.021L1272.92 160.029C1274.48 159.169 1276.06 158.335 1277.66 157.5L1279.9 168.021ZM1273.98 171.309L1266.58 163.722C1268.11 162.786 1269.65 161.888 1271.21 161.015L1273.98 171.309ZM1268.22 174.912L1260.45 167.692C1261.93 166.668 1263.43 165.707 1264.94 164.746L1268.22 174.912ZM1247.3 192.224L1238.24 186.811C1239.48 185.505 1240.75 184.24 1242.04 183.018L1247.3 192.224ZM1242.66 197.282L1233.32 192.363C1234.5 190.997 1235.68 189.644 1236.9 188.316L1242.66 197.282ZM1238.28 202.517L1228.7 198.104C1229.8 196.662 1230.91 195.246 1232.06 193.855L1238.28 202.517ZM1234.17 207.979L1224.36 204.072C1225.38 202.58 1226.42 201.1 1227.49 199.646L1234.17 207.979ZM1234.17 209.32C1233.29 210.584 1232.39 211.849 1231.54 213.113L1224.8 205.526L1234.17 209.32ZM1230.38 214.972C1229.56 216.237 1228.75 217.602 1227.96 218.943L1220.94 211.71L1230.38 214.972ZM1220.26 210.268C1220.55 209.8 1220.84 209.332 1221.15 208.864L1226.34 212.329L1220.26 210.268ZM1224.74 224.924L1217.29 218.146L1226.94 220.827C1226.17 222.15 1225.44 223.516 1224.74 224.924ZM1223.62 225.569L1213.28 223.267C1214.06 221.623 1214.89 219.992 1215.73 218.386L1223.62 225.569ZM1220.72 231.79L1210.26 229.982C1210.95 228.287 1211.69 226.618 1212.45 224.924L1220.72 231.79ZM1212.4 257.953L1201.75 258.459C1202.1 256.65 1202.48 254.855 1202.9 253.059L1212.4 257.953ZM1199.27 289.92L1209.75 292.132L1199.54 295.471C1199.45 293.625 1199.32 291.778 1199.27 289.92ZM1210.28 298.999L1200.24 302.881C1200.02 301.051 1199.83 299.205 1199.67 297.342L1210.28 298.999ZM1215.09 320.078C1215.51 321.608 1215.95 323.126 1216.43 324.63L1206.25 325.225L1215.09 320.078ZM1218.67 331.143L1208.49 332.281L1217.07 326.641C1217.58 328.108 1218.11 329.6 1218.67 331.143ZM1221.2 337.465L1211.02 339.16L1219.35 333.039C1220 334.481 1220.6 335.96 1221.25 337.465H1221.2ZM1220.65 338.818L1212.24 345.697C1211.47 344.015 1210.7 342.321 1209.99 340.639L1220.65 338.818ZM1223.56 345.027L1215.52 352.361C1214.65 350.717 1213.81 349.061 1212.99 347.379L1223.56 345.027ZM1226.77 351.084L1219.11 358.835C1218.17 357.242 1217.26 355.623 1216.38 353.98L1226.77 351.084ZM1230.3 356.964L1223.06 365.107C1222.03 363.564 1221.04 361.984 1220.08 360.403L1230.3 356.964ZM1228.53 372.555L1238.33 368.054L1232.01 376.905C1230.74 375.476 1229.61 374.022 1228.53 372.555ZM1242.71 373.289L1236.81 382.456C1235.55 381.103 1234.36 379.712 1233.16 378.309L1242.71 373.289ZM1247.35 378.283L1241.93 387.755C1240.62 386.465 1239.33 385.15 1238.08 383.809L1247.35 378.283ZM1260.28 403.017L1268.27 395.595L1267.88 396.796L1262.89 404.75C1261.96 404.168 1261.09 403.612 1260.23 403.017H1260.28ZM1266.35 401.538L1264.89 406.052L1263.91 405.42L1266.35 401.538ZM1274.03 399.186L1271.17 409.846C1269.56 408.935 1267.97 408.012 1266.42 407.038L1274.03 399.186ZM1275.61 397.984C1277.09 398.832 1278.59 399.641 1280.11 400.425L1272.67 408.948L1275.61 397.984ZM1286.13 403.333L1279.11 412.286L1281.49 401.133C1282.9 401.955 1284.51 402.625 1286.08 403.333H1286.13ZM1292.29 405.862L1285.69 415.232L1287.51 403.852C1289.02 404.648 1290.63 405.293 1292.24 405.913L1292.29 405.862ZM1293.67 406.406C1295.28 407.013 1296.93 407.569 1298.57 408.101L1292.43 417.875L1293.67 406.406ZM1299.99 408.556C1301.64 409.074 1303.31 409.555 1305.05 410.01L1299.38 420.126L1299.99 408.556ZM1305.05 412.463L1302.76 422.731L1301.66 422.427L1299.79 421.884L1305.05 412.463ZM1309.07 424.286L1311.12 415.093L1311.71 413.892L1311.89 417.686L1310.42 424.716L1309.31 424.463L1309.07 424.286ZM1350.32 426.942L1351.95 416.042L1355.74 426.347C1353.84 426.626 1352.02 426.828 1350.2 426.992L1350.32 426.942ZM1358.64 415.144L1362.97 425.26C1361.18 425.589 1359.37 425.88 1357.56 426.145L1358.64 415.144ZM1371.88 423.313V412.286L1377.21 421.846C1375.29 422.415 1373.53 422.908 1371.76 423.363L1371.88 423.313ZM1377.59 407.418C1379.6 406.722 1381.57 405.989 1383.53 405.192C1383.42 405.245 1383.32 405.333 1383.26 405.444C1383.19 405.556 1383.17 405.684 1383.18 405.812L1384.44 417.875L1378.02 407.671C1377.96 407.591 1377.87 407.531 1377.78 407.495C1377.68 407.459 1377.58 407.45 1377.48 407.468L1377.59 407.418ZM1384.65 408.025L1390.97 416.939C1389.28 417.648 1387.58 418.343 1385.91 418.975L1384.65 408.025ZM1390.87 405.394L1397.58 413.955C1395.94 414.752 1394.3 415.523 1392.61 416.257L1390.87 405.394ZM1396.95 402.423L1404.1 410.604C1402.5 411.447 1400.88 412.29 1399.24 413.133L1396.95 402.423ZM1402.88 399.135L1410.47 406.925C1408.91 407.886 1407.33 408.796 1405.74 409.694L1402.88 399.135ZM1429.54 392.61L1424.53 382.987L1433.38 388.931C1432.1 390.22 1430.78 391.464 1429.42 392.661L1429.54 392.61ZM1429.54 378.233L1438.68 383.695C1437.44 385.011 1436.18 386.309 1434.89 387.59L1429.54 378.233ZM1434.18 373.238L1443.59 378.195C1442.41 379.586 1441.22 380.952 1439.99 382.292L1434.18 373.238ZM1438.55 368.003L1448.2 372.441C1447.1 373.896 1445.99 375.324 1444.83 376.728L1438.55 368.003ZM1454.89 362.945L1447.43 357.975L1446.48 356.913L1456.6 360.302C1455.91 361.187 1455.36 362.072 1454.8 362.945H1454.89ZM1460.24 353.891C1459.4 355.493 1458.5 357.086 1457.55 358.671L1449.96 351.084L1460.24 353.891ZM1471.32 243.98L1460.83 244.6L1469.69 238.808C1470.19 240.3 1470.71 241.792 1471.16 243.297C1471.23 243.525 1471.32 243.752 1471.32 243.98ZM1341.07 143.388L1338.42 153.681L1335.77 143.388C1336.6 143.388 1337.42 143.325 1338.3 143.312H1338.87L1341.07 143.388ZM1305.03 147.46V158.17L1299.85 148.876C1301.21 148.472 1302.59 148.054 1303.97 147.7L1305.03 147.46ZM1298.02 149.42L1298.62 160.118L1292.96 151.127C1294.44 150.596 1295.92 150.065 1297.41 149.597L1298.02 149.42ZM1291.11 151.759L1292.26 162.419L1286.14 153.732C1287.7 153.087 1289.25 152.467 1290.81 151.86L1291.11 151.759ZM1223.13 205.842C1223.13 205.766 1223.25 205.691 1223.3 205.602L1230 213.189L1221.92 207.802C1222.21 207.334 1222.5 206.854 1222.8 206.399L1223.13 205.842ZM1218.64 213.101L1219.36 211.836L1226.87 219.423L1216.67 216.578L1217.35 215.313C1217.73 214.618 1218.15 213.847 1218.59 213.101H1218.64ZM1272.75 410.731L1279.95 402.473L1277.59 413.336L1277.13 413.095C1275.63 412.299 1274.15 411.527 1272.7 410.731H1272.75ZM1279.26 414.069L1286.03 405.445L1284.28 416.345L1282.22 415.435C1281.18 414.979 1280.19 414.6 1279.21 414.069H1279.26ZM1285.94 417.053L1292.26 408.075L1291.07 419.076C1290.02 418.684 1288.99 418.28 1287.94 417.812L1285.94 417.053ZM1292.77 419.683L1298.62 410.377L1298 421.428C1296.8 421.062 1295.61 420.657 1294.42 420.252L1292.77 419.683ZM1378.84 421.378L1378.22 410.377L1384.04 419.62C1382.55 420.151 1381.07 420.695 1379.56 421.176L1378.84 421.378ZM1461.1 352.197L1453.18 344.976L1463.55 347.29L1463.25 347.897C1462.46 349.339 1461.79 350.78 1461.05 352.197H1461.1ZM1464.35 345.533L1456.03 338.73L1466.5 340.475C1466.18 341.221 1465.87 341.967 1465.54 342.7C1465.13 343.674 1464.73 344.61 1464.3 345.533H1464.35ZM1467.27 338.717L1458.67 332.407L1469.2 333.596C1468.81 334.708 1468.41 335.809 1467.94 336.909C1467.69 337.465 1467.52 338.11 1467.22 338.73L1467.27 338.717ZM1470.32 330.27L1469.82 331.749L1460.97 325.907L1471.56 326.527C1471.06 327.804 1470.67 329.043 1470.27 330.27H1470.32ZM1298.22 472.654L1308.19 427.587L1309.78 427.941C1310.86 428.168 1311.96 428.371 1313.06 428.586H1313.19C1320.08 429.859 1327.06 430.607 1334.07 430.824C1332.86 431.567 1331.87 432.608 1331.18 433.845C1330.49 435.083 1330.13 436.476 1330.13 437.892C1330.13 438.958 1330.34 440.014 1330.75 440.999C1331.16 441.984 1331.76 442.879 1332.51 443.633C1333.27 444.387 1334.16 444.985 1335.15 445.393C1336.13 445.801 1337.19 446.01 1338.25 446.01C1339.32 446.01 1340.37 445.801 1341.36 445.393C1342.34 444.985 1343.24 444.387 1343.99 443.633C1344.75 442.879 1345.34 441.984 1345.75 440.999C1346.16 440.014 1346.37 438.958 1346.37 437.892C1346.37 436.475 1346.01 435.082 1345.32 433.844C1344.63 432.607 1343.63 431.567 1342.43 430.824C1349.25 430.61 1356.05 429.896 1362.77 428.687L1363.91 428.472C1364.59 428.345 1365.27 428.244 1365.96 428.105L1375.9 472.641L1298.22 472.654Z" fill="#E1EBF8"/>
<path d="M263.093 284.024V280.38H258.517V275.014H254.67C254.485 274.856 254.309 274.687 254.144 274.508C253.577 273.779 254.609 273.799 254.933 273.253C255.257 272.706 255.055 272.747 254.933 272.342C254.812 271.633 254.265 273.131 254.933 271.37C254.933 271.208 255.156 271.086 255.196 270.904C255.4 270.383 255.4 269.805 255.196 269.284C255.003 268.85 254.647 268.508 254.204 268.333C254.217 268.15 254.194 267.966 254.135 267.792C254.075 267.618 253.982 267.458 253.86 267.32C253.698 267.179 253.212 267.118 253.131 267.017C253.05 266.915 253.354 266.45 253.455 266.227C253.607 265.836 253.607 265.403 253.455 265.012C253.645 264.791 253.785 264.531 253.865 264.25C253.946 263.97 253.964 263.675 253.92 263.387C253.876 263.098 253.77 262.823 253.609 262.579C253.449 262.336 253.237 262.13 252.99 261.975C251.751 262.806 250.481 263.589 249.183 264.324V237.355H244.142V220.915H242.664V182.244H243.595V172.12H230.738V158.757H233.593V157.644H230.738V151.955H232.176V150.659H230.738V148.897H232.176V147.784H228.127L226.892 138.187C226.843 136.959 226.492 135.763 225.87 134.704C225.249 133.644 224.376 132.754 223.328 132.113C223.442 132.029 223.535 131.919 223.599 131.792C223.662 131.666 223.694 131.526 223.693 131.384V131.222C223.695 131.1 223.674 130.98 223.629 130.867C223.584 130.754 223.518 130.651 223.433 130.564C223.348 130.478 223.247 130.409 223.135 130.362C223.023 130.315 222.903 130.29 222.781 130.29H222.275C222.421 129.923 222.497 129.532 222.498 129.136C222.497 128.588 222.344 128.051 222.054 127.586C221.764 127.121 221.35 126.746 220.858 126.504C221.094 126.318 221.285 126.081 221.418 125.812C221.552 125.542 221.623 125.246 221.627 124.945C221.622 124.65 221.553 124.359 221.423 124.093C221.294 123.827 221.108 123.593 220.878 123.407V119.357H220.514C220.996 119.154 221.393 118.79 221.638 118.327C221.882 117.865 221.959 117.331 221.856 116.818C221.752 116.305 221.474 115.844 221.069 115.513C220.664 115.181 220.156 115 219.633 115C219.11 115 218.602 115.181 218.197 115.513C217.792 115.844 217.514 116.305 217.41 116.818C217.307 117.331 217.384 117.865 217.628 118.327C217.873 118.79 218.27 119.154 218.752 119.357H218.388V123.407C218.158 123.593 217.972 123.827 217.843 124.093C217.713 124.359 217.644 124.65 217.639 124.945C217.643 125.246 217.715 125.542 217.848 125.812C217.981 126.081 218.172 126.318 218.408 126.504C217.919 126.75 217.508 127.126 217.218 127.59C216.929 128.054 216.773 128.589 216.768 129.136C216.767 129.534 216.85 129.927 217.011 130.29H216.444C216.323 130.29 216.203 130.315 216.091 130.362C215.979 130.409 215.878 130.478 215.793 130.564C215.708 130.651 215.641 130.754 215.597 130.867C215.552 130.98 215.53 131.1 215.533 131.222V131.384C215.535 131.527 215.571 131.668 215.638 131.794C215.705 131.921 215.801 132.03 215.918 132.113C214.868 132.753 213.992 133.642 213.367 134.702C212.742 135.761 212.387 136.958 212.334 138.187L211.099 147.784H207.05V148.897H208.487V150.659H207.05V151.793H208.487V157.482H205.632V158.757H208.487V172.323H195.752V182.446H196.683V221.117H195.205V237.537H190.225V268.636C189.314 268.393 188.2 267.665 187.613 268.393C187.504 268.245 187.353 268.132 187.181 268.067C187.008 268.002 186.821 267.989 186.641 268.029C185.892 268.231 186.034 269.082 185.75 269.669C185.467 270.256 184.819 270.256 184.596 270.884C184.373 271.511 184.718 271.491 184.697 271.815C184.677 272.139 184.697 272.058 184.535 272.402C184.333 273.111 183.705 274.245 184.252 275.014C184.324 275.086 184.406 275.147 184.495 275.196H171.132V268.15H168.763C169.136 267.678 169.367 267.109 169.431 266.511C169.692 265.72 169.875 264.907 169.978 264.081C169.978 263.109 169.371 262.4 169.269 261.51C169.655 261.269 170.02 260.999 170.363 260.7C171.031 260.032 170.95 259.546 170.848 258.675C170.747 257.804 171.051 257.157 170.565 256.407C170.079 255.658 169.006 255.274 168.338 254.565C168.56 254.256 168.709 253.9 168.772 253.524C168.835 253.149 168.811 252.763 168.702 252.399C168.574 252.002 168.312 251.662 167.962 251.437C167.611 251.212 167.193 251.115 166.779 251.164C166.381 251.214 166.007 251.381 165.704 251.644C165.401 251.907 165.183 252.254 165.078 252.641C164.976 252.905 164.957 253.193 165.022 253.467C165.087 253.742 165.234 253.991 165.443 254.18C165.298 254.496 165.037 254.742 164.714 254.869C164.592 254.869 164.451 254.869 164.309 254.869C164.167 254.869 164.025 255.091 163.863 255.233L163.621 255.415V238.064H167.204V234.015H163.803V228.102H150.298V214.132H151.938V208.828H148.233C148.166 201.811 145.976 194.979 141.949 189.233C137.923 183.486 132.25 179.094 125.678 176.635V174.732H124.605V170.177H120.151V159.223H122.378V155.761H119.402V148.432C119.456 148.274 119.456 148.103 119.402 147.946C119.365 147.064 119.112 146.205 118.663 145.446C118.214 144.686 117.585 144.05 116.83 143.593C116.915 143.533 116.985 143.454 117.034 143.363C117.083 143.272 117.111 143.17 117.114 143.066V142.945C117.114 142.767 117.043 142.598 116.918 142.472C116.793 142.347 116.623 142.277 116.446 142.277H116.061C116.167 142.02 116.222 141.745 116.223 141.467C116.232 141.073 116.125 140.684 115.917 140.35C115.708 140.015 115.406 139.749 115.049 139.584C115.219 139.448 115.356 139.275 115.451 139.079C115.545 138.883 115.595 138.668 115.595 138.45C115.591 138.238 115.542 138.029 115.452 137.837C115.361 137.645 115.23 137.474 115.069 137.336V135.494C115.465 135.312 115.797 135.017 116.024 134.645C116.251 134.274 116.362 133.843 116.342 133.408C116.323 132.973 116.173 132.554 115.914 132.204C115.655 131.854 115.297 131.59 114.887 131.445V128.387H117.984V126.93H114.968V123.751H113.53V126.93H110.432V128.387H113.53V131.323C113.119 131.468 112.762 131.733 112.502 132.082C112.243 132.432 112.094 132.851 112.075 133.286C112.055 133.721 112.166 134.152 112.392 134.524C112.619 134.895 112.952 135.191 113.348 135.372V137.215C113.186 137.353 113.056 137.523 112.965 137.715C112.874 137.907 112.825 138.116 112.821 138.328C112.822 138.546 112.871 138.761 112.966 138.957C113.061 139.154 113.198 139.326 113.368 139.462C113.01 139.628 112.709 139.894 112.5 140.228C112.291 140.563 112.185 140.951 112.194 141.345C112.195 141.623 112.25 141.898 112.356 142.155H111.951C111.864 142.155 111.778 142.172 111.698 142.206C111.618 142.24 111.546 142.29 111.485 142.352C111.425 142.414 111.378 142.488 111.346 142.569C111.315 142.65 111.3 142.736 111.303 142.823V142.945C111.306 143.048 111.333 143.15 111.382 143.241C111.432 143.333 111.502 143.411 111.586 143.471C110.832 143.928 110.202 144.565 109.754 145.324C109.305 146.084 109.051 146.943 109.015 147.824C109.015 147.824 109.015 147.986 109.015 148.067C109.015 148.148 109.015 148.229 109.015 148.31V155.639H106.059V159.102H108.286V170.055H103.832V174.611H102.759V176.514C96.1861 178.974 90.5121 183.366 86.4827 189.112C82.4534 194.858 80.2574 201.689 80.1837 208.706H76.4988V214.011H78.1387V227.981H64.6342V233.893H61.2327V237.942H64.8164V259.809H64.5937C64.4771 259.545 64.3123 259.304 64.1078 259.1C63.966 258.493 64.1078 257.906 63.9053 257.278C63.7766 257.015 63.6347 256.758 63.4801 256.509C63.4801 256.266 63.6826 256.124 63.7636 255.82C63.8445 255.517 63.7636 255.415 63.7636 255.193C63.7636 254.504 64.4317 253.877 64.047 253.168C63.9553 252.991 63.8152 252.844 63.6432 252.744C63.4712 252.643 63.2742 252.594 63.0752 252.601C63.233 252.326 63.3362 252.024 63.3789 251.71C63.4015 251.554 63.3918 251.394 63.3504 251.242C63.3089 251.089 63.2366 250.947 63.1379 250.824C63.0392 250.7 62.9162 250.599 62.7766 250.525C62.6369 250.451 62.4836 250.406 62.3261 250.394C61.9943 250.41 61.6715 250.507 61.3861 250.677C61.1007 250.846 60.8615 251.084 60.6894 251.368C60.5174 251.652 60.4179 251.974 60.3996 252.305C60.3814 252.637 60.445 252.968 60.5849 253.269C60.1619 253.279 59.7396 253.231 59.3295 253.127C59.0449 253.047 58.7435 253.047 58.4589 253.127C58.1508 253.261 57.8991 253.498 57.7475 253.797C57.5959 254.097 57.5539 254.44 57.6288 254.767C57.6949 255.063 57.8263 255.339 58.0135 255.577C58.2767 255.881 58.4387 255.881 58.3982 256.448C58.3982 256.569 58.297 256.671 58.297 256.792C58.336 257.088 58.336 257.387 58.297 257.683C58.297 257.885 58.297 257.987 58.297 258.128C58.1867 258.478 58.1867 258.852 58.297 259.201C58.4792 259.728 58.6817 259.647 58.9854 260.072C59.2891 260.497 59.1878 260.295 58.9854 261.064C58.9854 261.287 59.1878 261.469 59.1676 261.672C59.1473 261.874 58.9246 263.129 58.9044 263.696C58.9044 264.951 58.9044 266.308 58.9044 267.584C58.9095 267.657 58.9366 267.727 58.982 267.784C59.0275 267.842 59.0893 267.884 59.1592 267.906C59.2292 267.928 59.3041 267.928 59.3743 267.907C59.4444 267.885 59.5064 267.843 59.5523 267.786C59.7803 267.822 60.0133 267.81 60.2364 267.751C60.4596 267.691 60.6678 267.586 60.848 267.442C61.0183 267.209 61.1739 266.965 61.3137 266.713C61.4217 266.835 61.5441 266.944 61.6781 267.037C62.0244 267.259 62.3827 267.462 62.7512 267.644C63.0715 267.772 63.404 267.867 63.7434 267.928H57.2239V274.974H46.3312C46.3312 273.273 48.1938 273.597 48.3558 272.261C48.3558 271.673 47.7281 271.026 47.3637 270.681C46.9993 270.337 46.3109 270.033 45.9465 269.649C45.582 269.264 45.6833 269.001 45.501 268.758C45.3188 268.515 44.4887 268.09 44.2659 267.523C44.0432 266.956 44.266 266.43 43.5978 265.863C43.3877 265.658 43.1271 265.513 42.8426 265.442C42.5581 265.371 42.2598 265.376 41.9781 265.458C41.6657 265.593 41.3924 265.805 41.1836 266.074C40.9748 266.343 40.8372 266.66 40.7835 266.996L40.662 267.462C40.6767 267.626 40.6371 267.79 40.5493 267.929C40.4615 268.068 40.3303 268.174 40.1761 268.232V237.355H35.1752V220.915H33.6972V182.244H34.6285V172.12H21.8326V158.757H24.6874V157.644H21.8326V151.955H23.2701V150.659H21.8326V148.897H23.2701V147.784H19.2207L17.9857 138.187C17.9365 136.957 17.5834 135.759 16.958 134.699C16.3327 133.639 15.4545 132.75 14.402 132.113C14.5227 132.034 14.6213 131.926 14.6886 131.798C14.7559 131.67 14.7896 131.528 14.7867 131.384V131.222C14.7894 131.1 14.7678 130.98 14.7233 130.867C14.6787 130.754 14.612 130.651 14.5271 130.564C14.4423 130.478 14.3409 130.409 14.229 130.362C14.1171 130.315 13.997 130.29 13.8756 130.29H13.3087C13.4703 129.927 13.5531 129.534 13.5517 129.136C13.5513 128.588 13.3974 128.051 13.1076 127.586C12.8178 127.121 12.4035 126.746 11.9117 126.504C12.1477 126.318 12.3392 126.081 12.4722 125.812C12.6053 125.542 12.6767 125.246 12.6811 124.945C12.6762 124.65 12.6065 124.359 12.4771 124.093C12.3476 123.827 12.1616 123.593 11.9319 123.407V119.357H11.5675C12.0498 119.154 12.447 118.79 12.6916 118.327C12.9362 117.865 13.0132 117.331 12.9095 116.818C12.8058 116.305 12.5278 115.844 12.1227 115.513C11.7175 115.181 11.2102 115 10.6868 115C10.1633 115 9.65605 115.181 9.25092 115.513C8.8458 115.844 8.56782 116.305 8.46412 116.818C8.36041 117.331 8.43738 117.865 8.68198 118.327C8.92657 118.79 9.3237 119.154 9.80603 119.357H9.4416V123.407C9.21196 123.593 9.02587 123.827 8.89645 124.093C8.76702 124.359 8.69742 124.65 8.69248 124.945C8.6969 125.246 8.76824 125.542 8.90133 125.812C9.03441 126.081 9.2259 126.318 9.46187 126.504C8.97007 126.746 8.55579 127.121 8.26596 127.586C7.97612 128.051 7.82225 128.588 7.82183 129.136C7.8204 129.534 7.90325 129.927 8.06484 130.29H7.49793C7.37656 130.29 7.25639 130.315 7.1445 130.362C7.03262 130.409 6.93125 130.478 6.84638 130.564C6.76151 130.651 6.69484 130.754 6.65026 130.867C6.60568 130.98 6.58411 131.1 6.5868 131.222V131.384C6.58388 131.528 6.61763 131.67 6.68493 131.798C6.75222 131.926 6.85085 132.034 6.9715 132.113C5.919 132.75 5.04086 133.639 4.41551 134.699C3.79016 135.759 3.43711 136.957 3.38785 138.187L2.15277 147.784H-1.89658V148.897H-0.438812V150.659H-1.87631V151.793H-0.438812V157.482H-3.29361V158.757H-0.438812V172.323H-13.2955V182.446H-12.3642V221.117H-13.8421V237.537H-18.8431V266.065C-18.8431 266.065 -18.8431 266.065 -18.9444 266.065C-19.0681 265.965 -19.2111 265.892 -19.3644 265.851C-19.5177 265.809 -19.6779 265.799 -19.8352 265.822C-20.0405 265.885 -20.2279 265.996 -20.3819 266.146C-20.3819 266.025 -20.3819 265.883 -20.3819 265.62C-20.3867 265.525 -20.4267 265.435 -20.494 265.367C-20.5613 265.3 -20.6512 265.26 -20.7463 265.255H-21.6169C-21.5561 265.147 -21.5085 265.031 -21.4752 264.911C-21.4188 264.718 -21.4096 264.514 -21.4483 264.317C-21.4871 264.12 -21.5727 263.935 -21.6979 263.777C-21.8356 263.586 -22.0188 263.432 -22.2309 263.33C-22.443 263.227 -22.6774 263.179 -22.9127 263.19C-22.8764 262.817 -22.9587 262.442 -23.1477 262.119C-23.3367 261.795 -23.6228 261.54 -23.9655 261.388C-24.1934 261.301 -24.4374 261.264 -24.681 261.279C-24.9245 261.294 -25.1619 261.362 -25.3771 261.477C-25.5922 261.592 -25.7799 261.753 -25.9276 261.947C-26.0754 262.141 -26.1796 262.365 -26.2331 262.603C-26.4391 263.263 -26.5816 263.941 -26.6584 264.628C-26.8206 264.995 -26.9296 265.383 -26.9822 265.782C-27.0593 267.949 -26.9238 270.119 -26.5774 272.261C-26.5198 273.322 -26.0471 274.318 -25.2613 275.034L-25.0184 275.156H-29.0677V280.521H-33.6434V284.166H-29.0677V291.09H-33.6434V294.734H-29.0677V346.04H-33.6434V354.928H-29.0677V429.335H-35V462.762H261.716V429.335H258.517V354.928H263.093V346.04H258.517V294.593H263.093V290.948H258.517V284.024H263.093ZM238.473 182.244H240.497V220.915H238.473V182.244ZM200.976 220.915H198.951V182.244H200.976V220.915ZM29.4454 182.244H31.4701V220.915H29.4454V182.244ZM-8.03134 220.915H-10.056V182.244H-8.03134V220.915ZM-23.3986 275.014C-23.086 274.909 -22.7555 274.868 -22.4267 274.893C-22.4267 274.893 -22.3255 274.893 -22.2851 275.014H-23.3986ZM-18.7621 275.014H-19.1063C-18.941 274.869 -18.8214 274.679 -18.7621 274.467V275.014ZM-18.7621 273.496C-18.7549 273.408 -18.7549 273.32 -18.7621 273.232C-18.7621 273.111 -18.7621 272.949 -18.7621 272.787V273.496ZM8.02431 163.252C8.01888 162.59 8.27547 161.952 8.73814 161.478C9.20082 161.004 9.83208 160.732 10.4944 160.721H10.9196C11.5819 160.732 12.2132 161.004 12.6759 161.478C13.1386 161.952 13.3951 162.59 13.3897 163.252V170.581H8.02431V163.252ZM5.534 190.282H15.7586V219.093H5.41252L5.534 190.282ZM15.1714 407.63H6.24258V392.506C6.22355 391.962 6.31424 391.421 6.5092 390.913C6.70416 390.405 6.99939 389.942 7.37732 389.551C7.75525 389.159 8.2081 388.848 8.70886 388.636C9.20962 388.424 9.74802 388.315 10.2919 388.315H11.0006C11.5445 388.315 12.0829 388.424 12.5837 388.636C13.0844 388.848 13.5373 389.159 13.9152 389.551C14.2931 389.942 14.5884 390.405 14.7834 390.913C14.9783 391.421 15.069 391.962 15.0499 392.506L15.1714 407.63ZM16.2445 333.588H5.16951V309.879H16.2445V333.588ZM10.7172 266.774C7.81704 266.838 4.9635 266.037 2.52065 264.473C0.0778084 262.908 -1.84361 260.651 -2.99833 257.99C-4.15304 255.329 -4.48874 252.384 -3.96259 249.532C-3.43645 246.679 -2.07229 244.048 -0.0442352 241.974C1.98382 239.9 4.58384 238.477 7.42403 237.887C10.2642 237.297 13.2158 237.566 15.9022 238.661C18.5885 239.756 20.8878 241.626 22.5066 244.033C24.1254 246.44 24.9904 249.275 24.9911 252.176C25.0232 254.083 24.6777 255.977 23.9745 257.75C23.2712 259.523 22.2242 261.139 20.8937 262.505C19.5631 263.871 17.9753 264.961 16.2218 265.711C14.4683 266.461 12.5837 266.857 10.6766 266.875L10.7172 266.774ZM54.7335 434.214H46.8778V411.335H54.7335V434.214ZM55.098 405.707H46.1287V386.209C46.1176 385.117 46.5356 384.064 47.2928 383.276C48.05 382.489 49.086 382.03 50.178 381.998H50.8664C51.4121 381.997 51.9522 382.107 52.4544 382.321C52.9565 382.534 53.4103 382.847 53.7885 383.241C54.1668 383.634 54.4616 384.1 54.6553 384.61C54.849 385.12 54.9376 385.664 54.9157 386.209L55.098 405.707ZM55.098 333.487H46.1287V313.969C46.1229 312.88 46.5433 311.832 47.2999 311.049C48.0566 310.266 49.0895 309.809 50.178 309.778H50.8664C51.4103 309.777 51.9487 309.887 52.4495 310.099C52.9502 310.311 53.4031 310.622 53.781 311.013C54.1589 311.405 54.4542 311.868 54.6492 312.376C54.8441 312.883 54.9348 313.425 54.9157 313.969L55.098 333.487ZM163.56 267.401C163.707 267.657 163.935 267.856 164.208 267.968H163.56V267.401ZM143.07 219.498C143.056 219.223 143.099 218.949 143.194 218.692C143.29 218.434 143.437 218.199 143.626 218C143.815 217.801 144.043 217.643 144.296 217.535C144.548 217.427 144.82 217.371 145.095 217.372H145.459C145.734 217.371 146.006 217.427 146.258 217.535C146.511 217.643 146.738 217.801 146.928 218C147.117 218.199 147.264 218.434 147.36 218.692C147.455 218.949 147.498 219.223 147.484 219.498V225.389H142.949L143.07 219.498ZM143.07 252.318C143.056 252.043 143.099 251.769 143.194 251.512C143.29 251.254 143.437 251.019 143.626 250.82C143.815 250.621 144.043 250.463 144.296 250.355C144.548 250.247 144.82 250.191 145.095 250.192H145.338C145.612 250.191 145.884 250.247 146.137 250.355C146.389 250.463 146.617 250.621 146.806 250.82C146.996 251.019 147.143 251.254 147.238 251.512C147.334 251.769 147.376 252.043 147.362 252.318V264.466H142.827L143.07 252.318ZM133.797 252.318V264.466H129.14V252.318C129.127 252.043 129.169 251.769 129.264 251.512C129.36 251.254 129.507 251.019 129.696 250.82C129.886 250.621 130.114 250.463 130.366 250.355C130.619 250.247 130.89 250.191 131.165 250.192H131.529C131.817 250.171 132.107 250.212 132.378 250.312C132.648 250.412 132.895 250.569 133.1 250.773C133.305 250.976 133.465 251.221 133.567 251.491C133.67 251.761 133.714 252.05 133.696 252.338L133.797 252.318ZM119.624 219.498C119.611 219.223 119.653 218.949 119.748 218.692C119.844 218.434 119.991 218.199 120.18 218C120.37 217.801 120.598 217.643 120.85 217.535C121.103 217.427 121.374 217.371 121.649 217.372H122.013C122.288 217.371 122.56 217.427 122.812 217.535C123.065 217.643 123.293 217.801 123.482 218C123.671 218.199 123.818 218.434 123.914 218.692C124.01 218.949 124.052 219.223 124.038 219.498V225.389H119.503L119.624 219.498ZM117.6 250.192H117.964C118.239 250.191 118.51 250.247 118.763 250.355C119.015 250.463 119.243 250.621 119.433 250.82C119.622 251.019 119.769 251.254 119.865 251.512C119.96 251.769 120.002 252.043 119.989 252.318V264.466H115.453V252.318C115.443 252.048 115.486 251.78 115.58 251.527C115.674 251.275 115.818 251.044 116.003 250.848C116.188 250.652 116.41 250.494 116.656 250.385C116.903 250.276 117.168 250.217 117.438 250.212L117.6 250.192ZM111.647 219.498C111.633 219.223 111.676 218.949 111.771 218.692C111.867 218.434 112.014 218.199 112.203 218C112.392 217.801 112.62 217.643 112.873 217.535C113.125 217.427 113.397 217.371 113.672 217.372H114.036C114.311 217.371 114.583 217.427 114.835 217.535C115.088 217.643 115.315 217.801 115.505 218C115.694 218.199 115.841 218.434 115.937 218.692C116.032 218.949 116.075 219.223 116.061 219.498V225.389H111.526L111.647 219.498ZM108.448 252.318C108.434 252.043 108.477 251.769 108.572 251.512C108.668 251.254 108.815 251.019 109.004 250.82C109.194 250.621 109.421 250.463 109.674 250.355C109.926 250.247 110.198 250.191 110.473 250.192H110.918C111.193 250.191 111.465 250.247 111.717 250.355C111.97 250.463 112.198 250.621 112.387 250.82C112.576 251.019 112.723 251.254 112.819 251.512C112.914 251.769 112.957 252.043 112.943 252.318V264.466H108.408L108.448 252.318ZM103.791 219.498C103.778 219.223 103.82 218.949 103.915 218.692C104.011 218.434 104.158 218.199 104.347 218C104.537 217.801 104.765 217.643 105.017 217.535C105.27 217.427 105.541 217.371 105.816 217.372H106.18C106.455 217.371 106.727 217.427 106.979 217.535C107.232 217.643 107.46 217.801 107.649 218C107.839 218.199 107.986 218.434 108.081 218.692C108.177 218.949 108.219 219.223 108.205 219.498V225.389H103.67L103.791 219.498ZM94.7208 252.338C94.7071 252.064 94.7493 251.789 94.8449 251.532C94.9405 251.274 95.0874 251.039 95.2768 250.84C95.4662 250.641 95.6941 250.483 95.9466 250.375C96.1991 250.267 96.4709 250.212 96.7455 250.212H97.1099C97.3846 250.212 97.6564 250.267 97.9088 250.375C98.1613 250.483 98.3892 250.641 98.5786 250.84C98.768 251.039 98.9149 251.274 99.0105 251.532C99.1061 251.789 99.1483 252.064 99.1346 252.338V264.486H94.7208V252.338ZM80.2242 219.498C80.2105 219.223 80.2526 218.949 80.3482 218.692C80.4438 218.434 80.5908 218.199 80.7802 218C80.9696 217.801 81.1975 217.643 81.45 217.535C81.7025 217.427 81.9743 217.371 82.2489 217.372H82.6133C82.8879 217.371 83.1598 217.427 83.4122 217.535C83.6647 217.643 83.8925 217.801 84.0819 218C84.2713 218.199 84.4183 218.434 84.5139 218.692C84.6095 218.949 84.6517 219.223 84.638 219.498V225.389H80.1027L80.2242 219.498ZM85.3668 252.318V264.466H80.8316V252.318C80.8179 252.043 80.8601 251.769 80.9557 251.512C81.0513 251.254 81.1982 251.019 81.3876 250.82C81.577 250.621 81.8049 250.463 82.0574 250.355C82.3098 250.247 82.5816 250.191 82.8563 250.192H83.2207C83.5072 250.174 83.7941 250.217 84.0625 250.319C84.3309 250.42 84.5748 250.578 84.7778 250.781C84.9807 250.984 85.1381 251.228 85.2397 251.496C85.3413 251.764 85.3846 252.051 85.3668 252.338V252.318ZM67.8939 435.024H62.893V373.757H67.8939V435.024ZM67.8939 343.104H62.893V301.537H67.8939V343.104ZM71.5586 264.547H67.0233V252.399C67.0096 252.124 67.0518 251.85 67.1474 251.593C67.243 251.335 67.3899 251.1 67.5793 250.901C67.7687 250.702 67.9966 250.544 68.2491 250.436C68.5015 250.328 68.7734 250.272 69.048 250.273H69.4124C69.687 250.272 69.9588 250.328 70.2113 250.436C70.4638 250.544 70.6917 250.702 70.8811 250.901C71.0705 251.1 71.2174 251.335 71.313 251.593C71.4086 251.85 71.4508 252.124 71.4371 252.399L71.5586 264.547ZM73.9275 252.399C73.9137 252.124 73.9559 251.85 74.0515 251.593C74.1471 251.335 74.2941 251.1 74.4835 250.901C74.6729 250.702 74.9007 250.544 75.1531 250.436C75.4056 250.328 75.6774 250.272 75.9521 250.273H76.3165C76.5911 250.272 76.8629 250.328 77.1154 250.436C77.3679 250.544 77.5958 250.702 77.7852 250.901C77.9746 251.1 78.1216 251.335 78.2172 251.593C78.3128 251.85 78.3549 252.124 78.3412 252.399V264.547H73.806L73.9275 252.399ZM88.6468 435.044H74.0084V373.757H88.6468V435.044ZM88.6468 343.124H74.0084V301.537H88.6468V343.124ZM92.3115 264.567H87.7762V252.419C87.7625 252.145 87.8047 251.87 87.9003 251.613C87.9959 251.355 88.1428 251.12 88.3322 250.921C88.5216 250.722 88.7495 250.564 89.002 250.456C89.2544 250.348 89.5263 250.293 89.8009 250.293H90.1653C90.4399 250.293 90.7117 250.348 90.9642 250.456C91.2167 250.564 91.4446 250.722 91.634 250.921C91.8234 251.12 91.9703 251.355 92.0659 251.613C92.1615 251.87 92.2037 252.145 92.19 252.419L92.3115 264.567ZM92.6556 225.41H88.1204V219.498C88.1066 219.223 88.1489 218.949 88.2444 218.692C88.34 218.434 88.4869 218.199 88.6763 218C88.8657 217.801 89.0936 217.643 89.3461 217.535C89.5986 217.427 89.8704 217.371 90.1451 217.372H90.5095C90.7841 217.371 91.0559 217.427 91.3084 217.535C91.5609 217.643 91.7888 217.801 91.9782 218C92.1676 218.199 92.3145 218.434 92.4101 218.692C92.5057 218.949 92.5479 219.223 92.5341 219.498L92.6556 225.41ZM99.3573 435.044H94.3767V373.757H99.3573V435.044ZM99.3573 343.124H94.3767V301.537H99.3573V343.124ZM100.511 225.41H95.9356V219.498C95.9218 219.223 95.9641 218.949 96.0596 218.692C96.1552 218.434 96.3023 218.199 96.4917 218C96.6811 217.801 96.9088 217.643 97.1613 217.535C97.4138 217.427 97.6856 217.371 97.9603 217.372H98.3248C98.5994 217.371 98.8712 217.427 99.1237 217.535C99.3762 217.643 99.604 217.801 99.7934 218C99.9828 218.199 100.13 218.434 100.225 218.692C100.321 218.949 100.363 219.223 100.349 219.498L100.511 225.41ZM101.585 252.338C101.571 252.064 101.613 251.789 101.709 251.532C101.804 251.274 101.951 251.039 102.14 250.84C102.33 250.641 102.558 250.483 102.81 250.375C103.063 250.267 103.335 250.212 103.609 250.212H103.974C104.248 250.212 104.52 250.267 104.773 250.375C105.025 250.483 105.253 250.641 105.442 250.84C105.632 251.039 105.779 251.274 105.874 251.532C105.97 251.789 106.012 252.064 105.998 252.338V264.486H101.463L101.585 252.338ZM122.762 435.044H105.431V373.757H122.762V435.044ZM122.762 343.124H105.431V301.537H122.762V343.124ZM126.812 264.567H122.256V252.419C122.243 252.145 122.285 251.87 122.38 251.613C122.476 251.355 122.623 251.12 122.812 250.921C123.002 250.722 123.23 250.564 123.482 250.456C123.735 250.348 124.006 250.293 124.281 250.293H124.646C124.92 250.293 125.192 250.348 125.444 250.456C125.697 250.564 125.925 250.722 126.114 250.921C126.304 251.12 126.451 251.355 126.546 251.613C126.642 251.87 126.684 252.145 126.67 252.419L126.812 264.567ZM127.379 219.518C127.365 219.244 127.407 218.969 127.503 218.712C127.598 218.454 127.745 218.219 127.935 218.02C128.124 217.821 128.352 217.663 128.605 217.555C128.857 217.447 129.129 217.392 129.403 217.392H129.768C130.043 217.392 130.314 217.447 130.567 217.555C130.819 217.663 131.047 217.821 131.237 218.02C131.426 218.219 131.573 218.454 131.669 218.712C131.764 218.969 131.806 219.244 131.793 219.518V225.41H127.257L127.379 219.518ZM133.979 434.336H128.978V373.757H133.979V434.336ZM133.979 343.124H128.978V301.537H133.979V343.124ZM135.214 219.498C135.201 219.223 135.243 218.949 135.338 218.692C135.434 218.434 135.581 218.199 135.77 218C135.96 217.801 136.188 217.643 136.44 217.535C136.693 217.427 136.964 217.371 137.239 217.372H137.603C137.878 217.371 138.15 217.427 138.402 217.535C138.655 217.643 138.883 217.801 139.072 218C139.261 218.199 139.408 218.434 139.504 218.692C139.6 218.949 139.642 219.223 139.628 219.498V225.389H135.214V219.498ZM136.065 252.318C136.051 252.043 136.093 251.769 136.189 251.512C136.284 251.254 136.431 251.019 136.621 250.82C136.81 250.621 137.038 250.463 137.29 250.355C137.543 250.247 137.815 250.191 138.089 250.192H138.454C138.728 250.191 139 250.247 139.253 250.355C139.505 250.463 139.733 250.621 139.922 250.82C140.112 251.019 140.259 251.254 140.354 251.512C140.45 251.769 140.492 252.043 140.478 252.318V264.466H135.943L136.065 252.318ZM153.943 435.024H139.264V373.757H153.882L153.943 435.024ZM153.943 343.104H139.264V301.537H153.882L153.943 343.104ZM154.408 264.547H149.873V252.399C149.859 252.124 149.901 251.85 149.997 251.593C150.093 251.335 150.239 251.1 150.429 250.901C150.618 250.702 150.846 250.544 151.099 250.436C151.351 250.328 151.623 250.272 151.898 250.273H152.262C152.537 250.272 152.808 250.328 153.061 250.436C153.313 250.544 153.541 250.702 153.731 250.901C153.92 251.1 154.067 251.335 154.163 251.593C154.258 251.85 154.3 252.124 154.287 252.399L154.408 264.547ZM156.777 252.399C156.763 252.124 156.806 251.85 156.901 251.593C156.997 251.335 157.144 251.1 157.333 250.901C157.522 250.702 157.75 250.544 158.003 250.436C158.255 250.328 158.527 250.272 158.802 250.273H159.166C159.441 250.272 159.713 250.328 159.965 250.436C160.218 250.544 160.445 250.702 160.635 250.901C160.824 251.1 160.971 251.335 161.067 251.593C161.162 251.85 161.205 252.124 161.191 252.399V264.547H156.656L156.777 252.399ZM165.382 435.105H160.381V373.757H165.382V435.105ZM165.382 343.185H160.381V301.537H165.382V343.185ZM165.22 268.029C165.426 267.964 165.619 267.861 165.787 267.725C165.787 267.624 165.989 267.381 166.111 267.32L166.313 266.875C166.495 266.409 166.718 266.774 167.002 267.948L165.22 268.029ZM181.093 434.376H173.238V411.335H181.093V434.376ZM182.187 405.768H173.258V386.27C173.247 385.178 173.665 384.124 174.422 383.337C175.179 382.549 176.215 382.09 177.307 382.059H177.996C179.088 382.09 180.124 382.549 180.881 383.337C181.638 384.124 182.056 385.178 182.045 386.27L182.187 405.768ZM182.187 333.547H173.258V314.03C173.252 312.941 173.672 311.893 174.429 311.109C175.186 310.326 176.219 309.87 177.307 309.839H177.996C179.086 309.865 180.122 310.32 180.88 311.104C181.637 311.888 182.056 312.939 182.045 314.03L182.187 333.547ZM216.991 163.212C216.985 162.549 217.242 161.912 217.705 161.438C218.167 160.963 218.799 160.692 219.461 160.681H219.886C220.548 160.692 221.18 160.963 221.642 161.438C222.105 161.912 222.362 162.549 222.356 163.212V170.541H216.991V163.212ZM214.5 190.241H224.847V219.093H214.5V190.241ZM224.138 407.59H215.209V392.465C215.19 391.922 215.281 391.38 215.476 390.872C215.671 390.365 215.966 389.901 216.344 389.51C216.722 389.119 217.175 388.808 217.675 388.596C218.176 388.383 218.715 388.274 219.258 388.274H219.967C220.511 388.274 221.049 388.383 221.55 388.596C222.051 388.808 222.504 389.119 222.882 389.51C223.26 389.901 223.555 390.365 223.75 390.872C223.945 391.38 224.035 391.922 224.016 392.465L224.138 407.59ZM225.211 333.547H214.177V309.879H225.251L225.211 333.547ZM219.684 266.733C216.78 266.818 213.917 266.034 211.461 264.482C209.005 262.931 207.068 260.681 205.898 258.023C204.727 255.364 204.377 252.416 204.891 249.557C205.405 246.698 206.761 244.057 208.785 241.973C210.808 239.889 213.408 238.455 216.251 237.857C219.093 237.258 222.05 237.521 224.742 238.613C227.434 239.704 229.74 241.574 231.364 243.983C232.987 246.392 233.855 249.23 233.856 252.135C233.894 254.034 233.557 255.921 232.865 257.689C232.173 259.458 231.14 261.072 229.824 262.441C228.507 263.81 226.934 264.906 225.195 265.667C223.455 266.428 221.582 266.838 219.684 266.875V266.733Z" fill="#E1EBF8"/>
<path d="M1157.7 21.0845C1155.45 20.9286 1153.2 21.2932 1151.12 22.1501C1149.04 23.007 1147.18 24.3329 1145.7 26.0245C1145.48 23.1023 1144.46 20.2976 1142.74 17.9223C1141.02 15.5469 1138.68 13.694 1135.98 12.5696C1133.27 11.4451 1130.31 11.0933 1127.41 11.5532C1124.52 12.0131 1121.81 13.2666 1119.59 15.1745C1120.33 8.23448 1114.27 1.92449 1107.48 1.11449C1099.55 0.114485 1092.48 5.81448 1088.75 12.3945C1086.75 8.93448 1082.56 7.53448 1078.75 7.96448C1072.95 8.61448 1067.53 12.3345 1062.47 14.9645C1059.68 16.4245 1056.89 17.8745 1054.11 19.3645C1052.68 20.1345 1051.25 20.9145 1049.84 21.7045C1049.19 22.0745 1048.55 22.4745 1047.84 22.8145C1046.97 23.2745 1046.98 23.3445 1046.27 22.8145C1043.34 20.4945 1040.35 19.2145 1036.51 19.5645C1034.01 19.7705 1031.62 20.702 1029.65 22.2445C1025.93 20.4245 1021.9 19.2445 1017.77 19.8145C1012.98 20.4945 1008.09 24.0845 1007.15 29.0345C1006.79 30.826 1007.1 32.6873 1008.02 34.2651C1008.94 35.843 1010.41 37.0276 1012.15 37.5945C1015.15 38.6845 1018.68 38.2745 1020.41 35.5945C1023.56 42.1945 1032.41 44.7945 1038.72 41.2645C1037.27 44.7045 1039.94 48.9745 1043.26 50.5545C1049.02 53.3145 1055.17 48.4245 1059.26 44.6045C1060.38 51.6045 1070.98 49.3245 1075.48 51.7245C1077.48 52.7945 1078.59 54.7245 1080.01 56.4245C1081.09 57.7282 1082.41 58.8112 1083.91 59.6145C1086.86 61.1128 1090.19 61.7372 1093.49 61.4145C1101.49 60.7745 1107.9 55.5145 1113.63 50.4145C1114.54 49.6045 1114.71 49.5945 1115.71 50.1545C1116.44 50.5723 1117.2 50.9431 1117.99 51.2645C1119.42 51.8664 1120.9 52.3221 1122.43 52.6245C1125.53 53.2016 1128.71 53.2186 1131.83 52.6745C1135.24 52.1643 1138.51 50.9582 1141.43 49.1313C1144.35 47.3043 1146.87 44.8955 1148.83 42.0545C1154.22 48.0545 1165.26 46.6445 1168.5 39.0545C1171.83 31.1145 1166.32 21.7345 1157.7 21.0845Z" fill="#E1EBF8"/>
</g>
</svg>
