<svg width="1920" height="258" viewBox="0 0 1920 258" fill="none" xmlns="http://www.w3.org/2000/svg">
<mask id="mask0_492_124" style="mask-type:alpha" maskUnits="userSpaceOnUse" x="0" y="0" width="1920" height="258">
<rect width="1920" height="258" fill="#D9D9D9"/>
</mask>
<g mask="url(#mask0_492_124)">
<path d="M339.473 71.1631C334.598 63.7037 325.373 66.7402 318.695 69.6934C317.502 66.9479 315.695 64.5178 313.413 62.5935C311.132 60.6691 308.439 59.3028 305.546 58.6015C297.518 56.3415 289.023 58.5044 281.216 60.6119C281.601 49.0208 270.572 40.6326 259.915 39.2322C245.636 37.3743 232.597 47.0243 221.953 55.3709C218.47 50.9619 210.649 52.1404 208.639 57.4229C204.158 54.7888 198.869 53.9137 193.787 54.9654C188.704 56.017 184.187 58.9215 181.1 63.1214C180.212 60.1769 178.411 57.5962 175.96 55.7574C173.51 53.9185 170.539 52.9182 167.483 52.903C165.485 52.979 163.528 53.4921 161.747 54.4067C159.966 55.3214 158.404 56.6156 157.17 58.1994C155.797 57.4879 154.235 57.2307 152.709 57.4645C151.6 57.6832 150.546 58.1205 149.606 58.7512C148.666 59.3818 147.859 60.1935 147.232 61.1394C146.605 62.0853 146.17 63.1467 145.952 64.2626C145.734 65.3785 145.737 66.5268 145.962 67.6414C139.27 67.9048 129.012 72.2723 132.826 80.7021C133.758 82.4937 135.137 84.0108 136.826 85.1045C138.516 86.1983 140.459 86.8312 142.464 86.9413C147.972 87.3018 153.025 84.3209 157.61 81.5063C159.139 87.0522 164.495 90.2828 170.003 90.8651C177.837 91.697 184.942 86.8581 191.069 82.5461C193.507 85.7006 196.913 87.9549 200.755 88.958C204.598 89.961 208.662 89.6566 212.315 88.0921C213.153 87.7027 213.955 87.2387 214.711 86.7056C215.069 86.4699 216.088 85.3191 216.446 85.3191C217.148 85.3191 219.392 87.9535 220.04 88.4526C221.583 89.6565 223.233 90.7148 224.969 91.6138C237.843 98.2828 254.669 96.4388 265.23 86.3174C267.433 92.2238 272.94 96.0228 278.999 97.4093C287.715 99.3781 296.637 96.0228 304.788 93.2498C314.317 89.9361 323.886 86.6917 333.401 83.3226C336.154 82.3243 339.431 81.1181 340.643 78.1094C341.01 76.9412 341.096 75.7017 340.892 74.4937C340.689 73.2857 340.202 72.1439 339.473 71.1631Z" fill="white"/>
<path d="M1523.47 71.1631C1518.6 63.7037 1509.37 66.7402 1502.7 69.6934C1501.5 66.9479 1499.69 64.5178 1497.41 62.5935C1495.13 60.6691 1492.44 59.3028 1489.55 58.6015C1481.52 56.3415 1473.02 58.5044 1465.22 60.6119C1465.6 49.0208 1454.57 40.6326 1443.91 39.2322C1429.64 37.3743 1416.6 47.0243 1405.95 55.3709C1402.47 50.9619 1394.65 52.1404 1392.64 57.4229C1388.16 54.7888 1382.87 53.9137 1377.79 54.9654C1372.7 56.017 1368.19 58.9215 1365.1 63.1214C1364.21 60.1769 1362.41 57.5962 1359.96 55.7574C1357.51 53.9185 1354.54 52.9182 1351.48 52.903C1349.49 52.979 1347.53 53.4921 1345.75 54.4067C1343.97 55.3214 1342.4 56.6156 1341.17 58.1994C1339.8 57.4879 1338.24 57.2307 1336.71 57.4645C1335.6 57.6832 1334.55 58.1205 1333.61 58.7512C1332.67 59.3818 1331.86 60.1935 1331.23 61.1394C1330.61 62.0853 1330.17 63.1467 1329.95 64.2626C1329.73 65.3785 1329.74 66.5268 1329.96 67.6414C1323.27 67.9048 1313.01 72.2723 1316.83 80.7021C1317.76 82.4937 1319.14 84.0108 1320.83 85.1045C1322.52 86.1983 1324.46 86.8312 1326.46 86.9413C1331.97 87.3018 1337.03 84.3209 1341.61 81.5063C1343.14 87.0522 1348.49 90.2828 1354 90.8651C1361.84 91.697 1368.94 86.8581 1375.07 82.5461C1377.51 85.7006 1380.91 87.9549 1384.76 88.958C1388.6 89.961 1392.66 89.6566 1396.32 88.0921C1397.15 87.7027 1397.95 87.2387 1398.71 86.7056C1399.07 86.4699 1400.09 85.3191 1400.45 85.3191C1401.15 85.3191 1403.39 87.9535 1404.04 88.4526C1405.58 89.6565 1407.23 90.7148 1408.97 91.6138C1421.84 98.2828 1438.67 96.4388 1449.23 86.3174C1451.43 92.2238 1456.94 96.0228 1463 97.4093C1471.71 99.3781 1480.64 96.0228 1488.79 93.2498C1498.32 89.9361 1507.89 86.6917 1517.4 83.3226C1520.15 82.3243 1523.43 81.1181 1524.64 78.1094C1525.01 76.9412 1525.1 75.7017 1524.89 74.4937C1524.69 73.2857 1524.2 72.1439 1523.47 71.1631Z" fill="white"/>
<path d="M1746.77 209.609C1745.92 206.927 1743.31 205.741 1741.13 204.83C1737.67 203.392 1733.93 202.723 1730.17 202.87C1728.71 202.938 1727.26 203.128 1725.83 203.437C1723.44 203.953 1720.9 205.328 1718.44 204.795C1714.98 204.056 1713.25 199.81 1710.63 197.592C1708.32 195.783 1705.59 194.572 1702.69 194.068C1696.29 192.779 1689.73 193.466 1683.37 191.661C1677.66 190.045 1671.59 186.899 1665.58 187.811C1663.33 188.169 1661.27 189.301 1659.77 191.008C1658.98 189.302 1657.77 187.817 1656.27 186.685C1654.76 185.553 1652.99 184.809 1651.12 184.52C1649.25 184.231 1647.34 184.405 1645.56 185.027C1643.78 185.649 1642.18 186.7 1640.9 188.086C1639.64 186.109 1637.87 184.504 1635.78 183.438C1633.68 182.371 1631.34 181.883 1628.99 182.024C1626.64 182.164 1624.37 182.928 1622.42 184.236C1620.47 185.545 1618.91 187.349 1617.9 189.461C1614.9 190.165 1612.13 191.628 1609.87 193.707C1608.9 194.591 1608.04 195.583 1607.31 196.664C1606.98 197.123 1606.68 197.599 1606.41 198.091C1605.89 199.036 1606.01 199.191 1605.07 199.088C1603.69 198.95 1602.3 198.211 1600.87 198.057C1599.31 197.89 1597.74 197.948 1596.19 198.228C1592.8 199.02 1589.66 200.679 1587.11 203.042C1584.6 205.036 1582.57 204.348 1579.98 203.042C1578.69 202.358 1577.31 201.86 1575.87 201.563C1573.11 201.062 1570.27 201.283 1567.62 202.205C1564.97 203.128 1562.61 204.719 1560.77 206.824C1559.21 208.543 1557.3 211.345 1558.26 213.993C1559.21 216.64 1562.32 217.207 1564.3 217.964C1570.76 220.64 1577.65 222.182 1584.65 222.519C1587.9 222.617 1591.15 222.264 1594.31 221.471C1595.92 221.032 1597.49 220.457 1599 219.752C1600.45 219.081 1601.78 218.033 1603.22 217.345C1604.66 216.657 1605.64 218.29 1606.82 219.064C1608.13 219.928 1609.52 220.665 1610.98 221.264C1613.97 222.461 1617.11 223.225 1620.32 223.534C1627.9 224.393 1635.6 223.534 1643.18 223.001C1651.84 222.416 1660.49 221.849 1669.15 220.903C1673.37 220.456 1678.04 219.184 1682.25 220.164C1685.52 220.938 1688.24 223.241 1691.6 223.774C1704.11 225.803 1714.55 213.46 1726.99 214.44C1732.77 214.921 1739.4 220.989 1744.78 216.021C1745.7 215.253 1746.37 214.241 1746.72 213.104C1747.07 211.968 1747.09 210.755 1746.77 209.609Z" fill="white"/>
<path d="M566.298 151.94C564.639 151.824 562.976 152.095 561.439 152.732C559.902 153.37 558.532 154.356 557.435 155.614C557.275 153.44 556.519 151.354 555.252 149.587C553.985 147.82 552.256 146.442 550.257 145.606C548.259 144.769 546.069 144.508 543.932 144.85C541.795 145.192 539.794 146.124 538.151 147.543C538.698 142.381 534.222 137.688 529.207 137.085C523.35 136.341 518.129 140.581 515.374 145.476C513.897 142.902 510.802 141.861 507.988 142.18C503.705 142.664 499.702 145.431 495.965 147.387C493.904 148.473 491.844 149.552 489.79 150.66C488.734 151.233 487.678 151.813 486.637 152.401C486.157 152.676 485.684 152.973 485.16 153.226C484.517 153.569 484.524 153.621 484 153.226C481.836 151.501 479.628 150.549 476.792 150.809C474.946 150.962 473.185 151.655 471.725 152.802C468.978 151.449 466.001 150.571 462.951 150.995C459.414 151.501 455.802 154.171 455.108 157.853C454.842 159.186 455.071 160.57 455.752 161.744C456.433 162.917 457.518 163.799 458.801 164.22C461.016 165.031 463.623 164.726 464.901 162.733C467.227 167.642 473.764 169.576 478.424 166.95C477.353 169.509 479.325 172.685 481.777 173.86C486.031 175.913 490.573 172.276 493.594 169.435C494.421 174.641 502.25 172.945 505.573 174.731C507.05 175.527 507.87 176.962 508.919 178.227C509.719 179.196 510.697 180.002 511.799 180.599C513.984 181.714 516.438 182.178 518.875 181.938C524.783 181.462 529.517 177.55 533.749 173.756C534.421 173.154 534.547 173.146 535.286 173.563C535.829 173.874 536.391 174.149 536.969 174.388C538.026 174.836 539.124 175.175 540.249 175.4C542.542 175.829 544.893 175.842 547.191 175.437C549.71 175.058 552.124 174.161 554.284 172.802C556.444 171.443 558.303 169.651 559.747 167.538C563.727 172.001 571.881 170.952 574.274 165.306C576.733 159.4 572.664 152.423 566.298 151.94Z" fill="white"/>
<path d="M651.298 19.9395C649.639 19.8236 647.976 20.0948 646.439 20.7322C644.902 21.3695 643.532 22.3558 642.435 23.6141C642.275 21.4405 641.519 19.3542 640.252 17.5874C638.985 15.8205 637.256 14.4422 635.257 13.6058C633.259 12.7695 631.069 12.5078 628.932 12.8498C626.795 13.1919 624.794 14.1244 623.151 15.5435C623.698 10.3813 619.222 5.68766 614.207 5.08516C608.35 4.34132 603.129 8.58118 600.374 13.4756C598.897 10.9019 595.802 9.86057 592.988 10.1804C588.705 10.6639 584.702 13.431 580.965 15.3873C578.904 16.4733 576.844 17.5518 574.79 18.6601C573.734 19.2329 572.678 19.8131 571.637 20.4007C571.157 20.6759 570.684 20.9735 570.16 21.2264C569.517 21.5685 569.524 21.6206 569 21.2264C566.836 19.5007 564.628 18.5486 561.792 18.8089C559.946 18.9621 558.185 19.655 556.725 20.8024C553.978 19.4486 551.001 18.5709 547.951 18.9949C544.414 19.5007 540.802 22.171 540.108 25.853C539.842 27.1856 540.071 28.5701 540.752 29.7437C541.433 30.9174 542.518 31.7986 543.801 32.2202C546.016 33.031 548.623 32.726 549.901 30.7326C552.227 35.6419 558.764 37.5758 563.424 34.9501C562.353 37.5089 564.325 40.6851 566.777 41.8603C571.031 43.9133 575.573 40.276 578.594 37.4345C579.421 42.6414 587.25 40.9454 590.573 42.7306C592.05 43.5265 592.87 44.9621 593.919 46.2266C594.719 47.1964 595.697 48.002 596.799 48.5995C598.984 49.714 601.438 50.1784 603.875 49.9384C609.783 49.4623 614.517 45.5498 618.749 41.7562C619.421 41.1537 619.547 41.1463 620.286 41.5628C620.829 41.8736 621.391 42.1494 621.969 42.3885C623.026 42.8362 624.124 43.1751 625.249 43.4001C627.542 43.8294 629.893 43.842 632.191 43.4373C634.71 43.0577 637.124 42.1607 639.284 40.8017C641.444 39.4428 643.303 37.651 644.747 35.5377C648.727 40.0007 656.881 38.9519 659.274 33.3062C661.733 27.4002 657.664 20.423 651.298 19.9395Z" fill="white"/>
</g>
</svg>
