<svg width="1919" height="573" viewBox="0 0 1919 573" fill="none" xmlns="http://www.w3.org/2000/svg">
<mask id="mask0_478_119" style="mask-type:alpha" maskUnits="userSpaceOnUse" x="0" y="0" width="1919" height="573">
<rect width="1919" height="573" fill="#D9D9D9"/>
</mask>
<g mask="url(#mask0_478_119)">
<path d="M162 2.5C187 146.333 237.071 473.705 510.271 420.105C851.771 353.105 860.555 331.178 820.771 298.105C779.271 263.605 708.271 317.605 752.271 340.605C796.271 363.605 1171.85 309.201 1144.27 362.605C1112.77 423.605 1340 382.419 1403 393.419C1448 398.253 1546 417.419 1561.5 456.922C1580.15 504.435 1754.5 518.419 1760.5 518.919" stroke="black" stroke-linecap="square" stroke-linejoin="round" stroke-dasharray="5 5"/>
<path d="M1747.15 540.784L1749.2 559.894L1847.51 537.103L1760.52 537.376L1747.15 540.784Z" fill="#C0C0C0"/>
<path d="M1757.2 509.793L1759.46 530.847L1847.51 537.103L1767.14 508.019L1757.2 509.793Z" fill="#C0C0C0"/>
<path d="M1847.51 537.103L1748.19 517.046L1718 551.375L1847.51 537.103Z" fill="white"/>
<path d="M1847.51 537.103L1773.34 490.94L1757.2 509.793L1847.51 537.103Z" fill="white"/>
<path d="M407.473 210.163C402.598 202.704 393.373 205.74 386.695 208.693C385.502 205.948 383.695 203.518 381.413 201.593C379.132 199.669 376.439 198.303 373.546 197.601C365.518 195.341 357.023 197.504 349.216 199.612C349.601 188.021 338.572 179.633 327.915 178.232C313.636 176.374 300.597 186.024 289.953 194.371C286.47 189.962 278.649 191.14 276.639 196.423C272.158 193.789 266.869 192.914 261.787 193.965C256.704 195.017 252.187 197.921 249.1 202.121C248.212 199.177 246.411 196.596 243.96 194.757C241.51 192.919 238.539 191.918 235.483 191.903C233.485 191.979 231.528 192.492 229.747 193.407C227.966 194.321 226.404 195.616 225.17 197.199C223.797 196.488 222.235 196.231 220.709 196.465C219.6 196.683 218.546 197.12 217.606 197.751C216.666 198.382 215.859 199.193 215.232 200.139C214.605 201.085 214.17 202.147 213.952 203.263C213.734 204.378 213.737 205.527 213.962 206.641C207.27 206.905 197.012 211.272 200.826 219.702C201.758 221.494 203.137 223.011 204.826 224.105C206.516 225.198 208.459 225.831 210.464 225.941C215.972 226.302 221.025 223.321 225.61 220.506C227.139 226.052 232.495 229.283 238.003 229.865C245.837 230.697 252.942 225.858 259.069 221.546C261.507 224.701 264.913 226.955 268.755 227.958C272.598 228.961 276.662 228.657 280.315 227.092C281.153 226.703 281.955 226.239 282.711 225.706C283.069 225.47 284.088 224.319 284.446 224.319C285.148 224.319 287.392 226.953 288.04 227.453C289.583 228.657 291.233 229.715 292.969 230.614C305.843 237.283 322.669 235.439 333.23 225.317C335.433 231.224 340.94 235.023 346.999 236.409C355.715 238.378 364.637 235.023 372.788 232.25C382.317 228.936 391.886 225.692 401.401 222.323C404.154 221.324 407.431 220.118 408.643 217.109C409.01 215.941 409.096 214.702 408.892 213.494C408.689 212.286 408.202 211.144 407.473 210.163Z" fill="white"/>
<path d="M373.473 210.163C368.598 202.704 359.373 205.74 352.695 208.693C351.502 205.948 349.695 203.518 347.413 201.593C345.132 199.669 342.439 198.303 339.546 197.601C331.518 195.341 323.023 197.504 315.216 199.612C315.601 188.021 304.572 179.633 293.915 178.232C279.636 176.374 266.597 186.024 255.953 194.371C252.47 189.962 244.649 191.14 242.639 196.423C238.158 193.789 232.869 192.914 227.787 193.965C222.704 195.017 218.187 197.921 215.1 202.121C214.212 199.177 212.411 196.596 209.96 194.757C207.51 192.919 204.539 191.918 201.483 191.903C199.485 191.979 197.528 192.492 195.747 193.407C193.966 194.321 192.404 195.616 191.17 197.199C189.797 196.488 188.235 196.231 186.709 196.465C185.6 196.683 184.546 197.12 183.606 197.751C182.666 198.382 181.859 199.193 181.232 200.139C180.605 201.085 180.17 202.147 179.952 203.263C179.734 204.378 179.737 205.527 179.962 206.641C173.27 206.905 163.012 211.272 166.826 219.702C167.758 221.494 169.137 223.011 170.826 224.105C172.516 225.198 174.459 225.831 176.464 225.941C181.972 226.302 187.025 223.321 191.61 220.506C193.139 226.052 198.495 229.283 204.003 229.865C211.837 230.697 218.942 225.858 225.069 221.546C227.507 224.701 230.913 226.955 234.755 227.958C238.598 228.961 242.662 228.657 246.315 227.092C247.153 226.703 247.955 226.239 248.711 225.706C249.069 225.47 250.088 224.319 250.446 224.319C251.148 224.319 253.392 226.953 254.04 227.453C255.583 228.657 257.233 229.715 258.969 230.614C271.843 237.283 288.669 235.439 299.23 225.317C301.433 231.224 306.94 235.023 312.999 236.409C321.715 238.378 330.637 235.023 338.788 232.25C348.317 228.936 357.886 225.692 367.401 222.323C370.154 221.324 373.431 220.118 374.643 217.109C375.01 215.941 375.096 214.702 374.892 213.494C374.689 212.286 374.202 211.144 373.473 210.163Z" fill="white"/>
<path d="M1623.77 250.609C1622.92 247.927 1620.31 246.741 1618.13 245.83C1614.67 244.392 1610.93 243.723 1607.17 243.87C1605.71 243.938 1604.26 244.128 1602.83 244.437C1600.44 244.953 1597.9 246.328 1595.44 245.795C1591.98 245.056 1590.25 240.81 1587.63 238.592C1585.32 236.783 1582.59 235.572 1579.69 235.068C1573.29 233.779 1566.73 234.466 1560.37 232.661C1554.66 231.045 1548.59 227.899 1542.58 228.811C1540.33 229.169 1538.27 230.301 1536.77 232.008C1535.98 230.302 1534.77 228.817 1533.27 227.685C1531.76 226.553 1529.99 225.809 1528.12 225.52C1526.25 225.231 1524.34 225.405 1522.56 226.027C1520.78 226.649 1519.18 227.7 1517.9 229.086C1516.64 227.109 1514.87 225.504 1512.78 224.438C1510.68 223.371 1508.34 222.883 1505.99 223.024C1503.64 223.164 1501.37 223.928 1499.42 225.236C1497.47 226.545 1495.91 228.349 1494.9 230.461C1491.9 231.165 1489.13 232.628 1486.87 234.707C1485.9 235.591 1485.04 236.583 1484.31 237.664C1483.98 238.123 1483.68 238.599 1483.41 239.091C1482.89 240.036 1483.01 240.191 1482.07 240.088C1480.69 239.95 1479.3 239.211 1477.87 239.057C1476.31 238.89 1474.74 238.948 1473.19 239.228C1469.8 240.02 1466.66 241.679 1464.11 244.042C1461.6 246.036 1459.57 245.348 1456.98 244.042C1455.69 243.358 1454.31 242.86 1452.87 242.563C1450.11 242.062 1447.27 242.283 1444.62 243.205C1441.97 244.128 1439.61 245.719 1437.77 247.824C1436.21 249.543 1434.3 252.345 1435.26 254.993C1436.21 257.64 1439.32 258.207 1441.3 258.964C1447.76 261.64 1454.65 263.182 1461.65 263.519C1464.9 263.617 1468.15 263.264 1471.31 262.471C1472.92 262.032 1474.49 261.457 1476 260.752C1477.45 260.081 1478.78 259.033 1480.22 258.345C1481.66 257.657 1482.64 259.29 1483.82 260.064C1485.13 260.928 1486.52 261.665 1487.98 262.264C1490.97 263.461 1494.11 264.225 1497.32 264.534C1504.9 265.393 1512.6 264.534 1520.18 264.001C1528.84 263.416 1537.49 262.849 1546.15 261.903C1550.37 261.456 1555.04 260.184 1559.25 261.164C1562.52 261.938 1565.24 264.241 1568.6 264.774C1581.11 266.803 1591.55 254.46 1603.99 255.44C1609.77 255.921 1616.4 261.989 1621.78 257.021C1622.7 256.253 1623.37 255.241 1623.72 254.104C1624.07 252.968 1624.09 251.755 1623.77 250.609Z" fill="white"/>
<path d="M651.298 251.94C649.639 251.824 647.976 252.095 646.439 252.732C644.902 253.37 643.532 254.356 642.435 255.614C642.275 253.44 641.519 251.354 640.252 249.587C638.985 247.82 637.256 246.442 635.257 245.606C633.259 244.769 631.069 244.508 628.932 244.85C626.795 245.192 624.794 246.124 623.151 247.543C623.698 242.381 619.222 237.688 614.207 237.085C608.35 236.341 603.129 240.581 600.374 245.476C598.897 242.902 595.802 241.861 592.988 242.18C588.705 242.664 584.702 245.431 580.965 247.387C578.904 248.473 576.844 249.552 574.79 250.66C573.734 251.233 572.678 251.813 571.637 252.401C571.157 252.676 570.684 252.973 570.16 253.226C569.517 253.569 569.524 253.621 569 253.226C566.836 251.501 564.628 250.549 561.792 250.809C559.946 250.962 558.185 251.655 556.725 252.802C553.978 251.449 551.001 250.571 547.951 250.995C544.414 251.501 540.802 254.171 540.108 257.853C539.842 259.186 540.071 260.57 540.752 261.744C541.433 262.917 542.518 263.799 543.801 264.22C546.016 265.031 548.623 264.726 549.901 262.733C552.227 267.642 558.764 269.576 563.424 266.95C562.353 269.509 564.325 272.685 566.777 273.86C571.031 275.913 575.573 272.276 578.594 269.435C579.421 274.641 587.25 272.945 590.573 274.731C592.05 275.527 592.87 276.962 593.919 278.227C594.719 279.196 595.697 280.002 596.799 280.599C598.984 281.714 601.438 282.178 603.875 281.938C609.783 281.462 614.517 277.55 618.749 273.756C619.421 273.154 619.547 273.146 620.286 273.563C620.829 273.874 621.391 274.149 621.969 274.388C623.026 274.836 624.124 275.175 625.249 275.4C627.542 275.829 629.893 275.842 632.191 275.437C634.71 275.058 637.124 274.161 639.284 272.802C641.444 271.443 643.303 269.651 644.747 267.538C648.727 272.001 656.881 270.952 659.274 265.306C661.733 259.4 657.664 252.423 651.298 251.94Z" fill="white"/>
</g>
</svg>
